G75*
G70*
%OFA0B0*%
%FSLAX24Y24*%
%IPPOS*%
%LPD*%
%AMOC8*
5,1,8,0,0,1.08239X$1,22.5*
%
%ADD10R,0.0670X0.0670*%
%ADD11C,0.0670*%
%ADD12C,0.1085*%
%ADD13C,0.0770*%
%ADD14C,0.1360*%
%ADD15C,0.1025*%
%ADD16C,0.0634*%
%ADD17R,0.0730X0.0580*%
%ADD18C,0.2620*%
%ADD19C,0.1084*%
%ADD20C,0.1261*%
%ADD21R,0.0848X0.0848*%
%ADD22C,0.0848*%
%ADD23C,0.0390*%
%ADD24C,0.0476*%
%ADD25C,0.0490*%
%ADD26C,0.0400*%
D10*
X027724Y036107D03*
D11*
X026724Y036107D03*
X026724Y035107D03*
X026724Y034107D03*
X026724Y033107D03*
X027724Y033107D03*
X027724Y034107D03*
X027724Y035107D03*
X027724Y032107D03*
X026724Y032107D03*
X026724Y031107D03*
X027724Y031107D03*
X027724Y030107D03*
X026724Y030107D03*
D12*
X028599Y004732D03*
X028599Y002732D03*
X030599Y002732D03*
X030599Y004732D03*
X033099Y004732D03*
X033099Y002732D03*
X035099Y002732D03*
X035099Y004732D03*
X023599Y004732D03*
X021599Y004732D03*
X021599Y002732D03*
X023599Y002732D03*
X019099Y002732D03*
X017099Y002732D03*
X017099Y004732D03*
X019099Y004732D03*
D13*
X018099Y003732D03*
X022599Y003732D03*
X029599Y003732D03*
X034099Y003732D03*
D14*
X007271Y036982D03*
X002428Y036982D03*
D15*
X001690Y032769D02*
X001690Y031824D01*
X008009Y031824D02*
X008009Y032769D01*
D16*
X006349Y033482D03*
X005349Y033482D03*
X004349Y033482D03*
X003349Y033482D03*
X002849Y034482D03*
X003849Y034482D03*
X004849Y034482D03*
X005849Y034482D03*
D17*
X010849Y025282D03*
X010849Y024182D03*
D18*
X002099Y001857D03*
X002099Y022732D03*
X037849Y037732D03*
X037974Y001857D03*
D19*
X036224Y011612D03*
X036224Y017112D03*
X036349Y027362D03*
D20*
X034322Y026732D03*
X038377Y026732D03*
X038252Y016482D03*
X034197Y016482D03*
X034197Y010982D03*
X038252Y010982D03*
D21*
X037099Y007482D03*
X037099Y020732D03*
X037099Y023232D03*
D22*
X037099Y022232D03*
X037099Y019732D03*
X037099Y006482D03*
D23*
X034662Y006982D03*
X032849Y007482D03*
X030412Y006982D03*
X023474Y006982D03*
X018724Y006982D03*
X017724Y013607D03*
X017224Y015607D03*
X017849Y017482D03*
X019849Y015607D03*
X020849Y015607D03*
X023099Y017357D03*
X023599Y015607D03*
X023599Y015107D03*
X024474Y016107D03*
X025474Y017357D03*
X025974Y016107D03*
X027599Y016107D03*
X027974Y017357D03*
X028474Y017607D03*
X028849Y018607D03*
X029224Y019607D03*
X028224Y019732D03*
X026599Y020357D03*
X025349Y024107D03*
X024974Y025482D03*
X024974Y025982D03*
X024099Y026732D03*
X022599Y025357D03*
X021099Y024107D03*
X019849Y024232D03*
X018724Y023982D03*
X017974Y025107D03*
X018224Y026607D03*
X018224Y028482D03*
X019349Y028607D03*
X019349Y030357D03*
X018224Y030232D03*
X016849Y030482D03*
X016724Y029482D03*
X015974Y029482D03*
X015474Y030982D03*
X014474Y030107D03*
X013474Y030107D03*
X012474Y030107D03*
X011474Y030107D03*
X010474Y030107D03*
X010474Y031107D03*
X010474Y032107D03*
X010474Y033107D03*
X010474Y034107D03*
X010474Y035107D03*
X010474Y036107D03*
X010474Y037169D03*
X011474Y037169D03*
X012474Y037169D03*
X013474Y037169D03*
X014474Y037169D03*
X015474Y037232D03*
X015474Y036107D03*
X015474Y035107D03*
X015474Y034169D03*
X015974Y032982D03*
X015849Y032357D03*
X017099Y034857D03*
X018099Y034857D03*
X019474Y034982D03*
X020974Y033982D03*
X021724Y033232D03*
X021099Y032857D03*
X021224Y032232D03*
X020474Y031357D03*
X020599Y030732D03*
X022099Y031107D03*
X022974Y032107D03*
X022974Y032857D03*
X023724Y031607D03*
X023724Y031107D03*
X023724Y030607D03*
X020974Y027482D03*
X019849Y022357D03*
X014974Y027107D03*
X012974Y027482D03*
X012849Y026482D03*
X012974Y028607D03*
X017099Y036482D03*
X017599Y036857D03*
X017724Y037357D03*
X018099Y036607D03*
X018849Y038732D03*
X023724Y035357D03*
X029474Y032794D03*
X032599Y031982D03*
X033599Y033669D03*
X036724Y032982D03*
X031849Y019357D03*
X030099Y016107D03*
X013349Y016732D03*
X013349Y017232D03*
X013349Y017732D03*
X011349Y019732D03*
X010849Y020107D03*
X010474Y017232D03*
X009474Y017232D03*
X006849Y017232D03*
X006849Y017732D03*
X006849Y016732D03*
X011099Y007857D03*
D24*
X016224Y022732D03*
X016974Y027082D03*
X017724Y032107D03*
X017724Y033107D03*
X018724Y033107D03*
X018724Y032107D03*
X025474Y022732D03*
D25*
X030349Y028294D03*
X031099Y029044D03*
X031099Y029607D03*
X031662Y029607D03*
X032224Y029607D03*
X032224Y029044D03*
X031662Y029044D03*
X032787Y029044D03*
X032787Y029607D03*
X031662Y030232D03*
X031099Y030232D03*
X033099Y032857D03*
X034162Y031982D03*
X035912Y030919D03*
X035912Y030419D03*
X036662Y030419D03*
X036662Y030919D03*
X034162Y029669D03*
X031849Y033982D03*
X030349Y034782D03*
X030349Y035482D03*
X029442Y035482D03*
X029442Y034782D03*
X033349Y036232D03*
X034037Y036232D03*
X034724Y036232D03*
X035412Y036232D03*
X036099Y036232D03*
X036099Y035294D03*
X035412Y035294D03*
X034724Y035294D03*
X009099Y031232D03*
X009099Y029732D03*
X009099Y028482D03*
X009099Y026982D03*
X007599Y026982D03*
X006099Y026982D03*
X004599Y026982D03*
X003349Y026982D03*
X001849Y026982D03*
X000849Y026982D03*
X000849Y028482D03*
X000849Y029732D03*
X000849Y031482D03*
D26*
X016099Y031732D03*
X016474Y036107D03*
X016224Y038482D03*
X016724Y038732D03*
M02*
