G75*
G70*
%OFA0B0*%
%FSLAX24Y24*%
%IPPOS*%
%LPD*%
%AMOC8*
5,1,8,0,0,1.08239X$1,22.5*
%
%ADD10C,0.0590*%
%ADD11C,0.1005*%
%ADD12C,0.0690*%
%ADD13C,0.0945*%
%ADD14C,0.0554*%
%ADD15C,0.1685*%
%ADD16C,0.1004*%
%ADD17C,0.1181*%
%ADD18C,0.0768*%
%ADD19C,0.0310*%
%ADD20C,0.0396*%
%ADD21C,0.0410*%
%ADD22C,0.0320*%
%ADD23C,0.0100*%
%ADD24C,0.0120*%
D10*
X026724Y030107D03*
X027724Y030107D03*
X027724Y031107D03*
X026724Y031107D03*
X026724Y032107D03*
X027724Y032107D03*
X027724Y033107D03*
X026724Y033107D03*
X026724Y034107D03*
X026724Y035107D03*
X027724Y035107D03*
X027724Y034107D03*
X027724Y036107D03*
X026724Y036107D03*
D11*
X028599Y004732D03*
X028599Y002732D03*
X030599Y002732D03*
X030599Y004732D03*
X033099Y004732D03*
X033099Y002732D03*
X035099Y002732D03*
X035099Y004732D03*
X023599Y004732D03*
X021599Y004732D03*
X021599Y002732D03*
X023599Y002732D03*
X019099Y002732D03*
X017099Y002732D03*
X017099Y004732D03*
X019099Y004732D03*
D12*
X018099Y003732D03*
X022599Y003732D03*
X029599Y003732D03*
X034099Y003732D03*
D13*
X008009Y032297D03*
X001690Y032297D03*
D14*
X003349Y033482D03*
X004349Y033482D03*
X005349Y033482D03*
X006349Y033482D03*
X005849Y034482D03*
X004849Y034482D03*
X003849Y034482D03*
X002849Y034482D03*
D15*
X002099Y001857D03*
X002099Y022732D03*
X037849Y037732D03*
X037974Y001857D03*
D16*
X036224Y011612D03*
X036224Y017112D03*
X036349Y027362D03*
D17*
X034322Y026732D03*
X038377Y026732D03*
X038252Y016482D03*
X034197Y016482D03*
X034197Y010982D03*
X038252Y010982D03*
D18*
X037099Y007482D03*
X037099Y006482D03*
X037099Y019732D03*
X037099Y020732D03*
X037099Y022232D03*
X037099Y023232D03*
D19*
X031849Y019357D03*
X029224Y019607D03*
X028224Y019732D03*
X028849Y018607D03*
X028474Y017607D03*
X027974Y017357D03*
X027599Y016107D03*
X025974Y016107D03*
X025474Y017357D03*
X024474Y016107D03*
X023599Y015607D03*
X023599Y015107D03*
X023099Y017357D03*
X020849Y015607D03*
X019849Y015607D03*
X017849Y017482D03*
X017224Y015607D03*
X017724Y013607D03*
X013349Y016732D03*
X013349Y017232D03*
X013349Y017732D03*
X011349Y019732D03*
X010849Y020107D03*
X010474Y017232D03*
X009474Y017232D03*
X006849Y017232D03*
X006849Y017732D03*
X006849Y016732D03*
X011099Y007857D03*
X018724Y006982D03*
X023474Y006982D03*
X030412Y006982D03*
X032849Y007482D03*
X034662Y006982D03*
X030099Y016107D03*
X026599Y020357D03*
X025349Y024107D03*
X024974Y025482D03*
X024974Y025982D03*
X024099Y026732D03*
X022599Y025357D03*
X021099Y024107D03*
X019849Y024232D03*
X018724Y023982D03*
X017974Y025107D03*
X018224Y026607D03*
X018224Y028482D03*
X019349Y028607D03*
X019349Y030357D03*
X018224Y030232D03*
X016849Y030482D03*
X016724Y029482D03*
X015974Y029482D03*
X015474Y030982D03*
X014474Y030107D03*
X013474Y030107D03*
X012474Y030107D03*
X011474Y030107D03*
X010474Y030107D03*
X010474Y031107D03*
X010474Y032107D03*
X010474Y033107D03*
X010474Y034107D03*
X010474Y035107D03*
X010474Y036107D03*
X010474Y037169D03*
X011474Y037169D03*
X012474Y037169D03*
X013474Y037169D03*
X014474Y037169D03*
X015474Y037232D03*
X015474Y036107D03*
X015474Y035107D03*
X015474Y034169D03*
X015974Y032982D03*
X015849Y032357D03*
X017099Y034857D03*
X018099Y034857D03*
X019474Y034982D03*
X020974Y033982D03*
X021724Y033232D03*
X021099Y032857D03*
X021224Y032232D03*
X020474Y031357D03*
X020599Y030732D03*
X022099Y031107D03*
X022974Y032107D03*
X022974Y032857D03*
X023724Y031607D03*
X023724Y031107D03*
X023724Y030607D03*
X020974Y027482D03*
X019849Y022357D03*
X014974Y027107D03*
X012974Y027482D03*
X012849Y026482D03*
X012974Y028607D03*
X017099Y036482D03*
X017599Y036857D03*
X017724Y037357D03*
X018099Y036607D03*
X018849Y038732D03*
X023724Y035357D03*
X029474Y032794D03*
X032599Y031982D03*
X033599Y033669D03*
X036724Y032982D03*
D20*
X025474Y022732D03*
X016974Y027082D03*
X016224Y022732D03*
X017724Y032107D03*
X017724Y033107D03*
X018724Y033107D03*
X018724Y032107D03*
D21*
X009099Y031232D03*
X009099Y029732D03*
X009099Y028482D03*
X009099Y026982D03*
X007599Y026982D03*
X006099Y026982D03*
X004599Y026982D03*
X003349Y026982D03*
X001849Y026982D03*
X000849Y026982D03*
X000849Y028482D03*
X000849Y029732D03*
X000849Y031482D03*
X029442Y034782D03*
X029442Y035482D03*
X030349Y035482D03*
X030349Y034782D03*
X031849Y033982D03*
X033099Y032857D03*
X034162Y031982D03*
X035912Y030919D03*
X035912Y030419D03*
X036662Y030419D03*
X036662Y030919D03*
X034162Y029669D03*
X032787Y029607D03*
X032787Y029044D03*
X032224Y029044D03*
X031662Y029044D03*
X031099Y029044D03*
X031099Y029607D03*
X031662Y029607D03*
X032224Y029607D03*
X031662Y030232D03*
X031099Y030232D03*
X030349Y028294D03*
X034724Y035294D03*
X035412Y035294D03*
X036099Y035294D03*
X036099Y036232D03*
X035412Y036232D03*
X034724Y036232D03*
X034037Y036232D03*
X033349Y036232D03*
D22*
X016724Y038732D03*
X016224Y038482D03*
X016474Y036107D03*
X016099Y031732D03*
D23*
X015862Y031864D02*
X015099Y031864D01*
X015099Y031766D02*
X015829Y031766D01*
X015829Y031786D02*
X015871Y031885D01*
X015946Y031961D01*
X016046Y032002D01*
X016153Y032002D01*
X016252Y031961D01*
X016328Y031885D01*
X016369Y031786D01*
X016369Y031678D01*
X016328Y031579D01*
X016252Y031503D01*
X016153Y031462D01*
X016046Y031462D01*
X015946Y031503D01*
X015871Y031579D01*
X015829Y031678D01*
X015829Y031786D01*
X015834Y031667D02*
X015099Y031667D01*
X015099Y031569D02*
X015881Y031569D01*
X016026Y031470D02*
X015099Y031470D01*
X015099Y031371D02*
X020209Y031371D01*
X020209Y031410D02*
X020250Y031507D01*
X020324Y031581D01*
X020422Y031622D01*
X020527Y031622D01*
X020624Y031581D01*
X020699Y031507D01*
X020739Y031410D01*
X020739Y031304D01*
X020699Y031207D01*
X020624Y031132D01*
X020527Y031092D01*
X020422Y031092D01*
X020324Y031132D01*
X020250Y031207D01*
X020209Y031304D01*
X020209Y031410D01*
X020234Y031470D02*
X016173Y031470D01*
X016318Y031569D02*
X020311Y031569D01*
X020222Y031273D02*
X015099Y031273D01*
X015099Y031174D02*
X015292Y031174D01*
X015324Y031206D02*
X015422Y031247D01*
X015527Y031247D01*
X015624Y031206D01*
X015699Y031132D01*
X015739Y031035D01*
X015739Y030929D01*
X015699Y030832D01*
X015624Y030757D01*
X015527Y030717D01*
X015422Y030717D01*
X015324Y030757D01*
X015250Y030832D01*
X015209Y030929D01*
X015209Y031035D01*
X015250Y031132D01*
X015324Y031206D01*
X015227Y031076D02*
X015099Y031076D01*
X015099Y030977D02*
X015209Y030977D01*
X015230Y030879D02*
X015099Y030879D01*
X015099Y030780D02*
X015301Y030780D01*
X015099Y030682D02*
X016675Y030682D01*
X016699Y030706D02*
X016797Y030747D01*
X016902Y030747D01*
X016999Y030706D01*
X017074Y030632D01*
X017114Y030535D01*
X017114Y030429D01*
X017074Y030332D01*
X016999Y030257D01*
X016902Y030217D01*
X016797Y030217D01*
X016699Y030257D01*
X016625Y030332D01*
X016584Y030429D01*
X016584Y030535D01*
X016625Y030632D01*
X016699Y030706D01*
X016605Y030583D02*
X015099Y030583D01*
X015099Y030485D02*
X016584Y030485D01*
X016602Y030386D02*
X015099Y030386D01*
X015099Y030288D02*
X016669Y030288D01*
X017030Y030288D02*
X019091Y030288D01*
X019084Y030304D02*
X019125Y030207D01*
X019199Y030132D01*
X019297Y030092D01*
X019402Y030092D01*
X019499Y030132D01*
X019574Y030207D01*
X019614Y030304D01*
X019614Y030410D01*
X019574Y030507D01*
X019499Y030581D01*
X019402Y030622D01*
X019297Y030622D01*
X019199Y030581D01*
X019125Y030507D01*
X019084Y030410D01*
X019084Y030304D01*
X019084Y030386D02*
X017097Y030386D01*
X017114Y030485D02*
X019116Y030485D01*
X019203Y030583D02*
X017094Y030583D01*
X017024Y030682D02*
X020334Y030682D01*
X020334Y030679D02*
X020375Y030582D01*
X020449Y030507D01*
X020547Y030467D01*
X020652Y030467D01*
X020749Y030507D01*
X020824Y030582D01*
X020864Y030679D01*
X020864Y030785D01*
X020824Y030882D01*
X020749Y030956D01*
X020652Y030997D01*
X020547Y030997D01*
X020449Y030956D01*
X020375Y030882D01*
X020334Y030785D01*
X020334Y030679D01*
X020334Y030780D02*
X015648Y030780D01*
X015719Y030879D02*
X020373Y030879D01*
X020500Y030977D02*
X015739Y030977D01*
X015722Y031076D02*
X021834Y031076D01*
X021834Y031054D02*
X021834Y031160D01*
X021875Y031257D01*
X021949Y031331D01*
X022047Y031372D01*
X022152Y031372D01*
X022249Y031331D01*
X022324Y031257D01*
X022364Y031160D01*
X022364Y031054D01*
X022324Y030957D01*
X022259Y030892D01*
X022259Y028732D01*
X031031Y028732D01*
X030921Y028777D01*
X030832Y028866D01*
X030784Y028982D01*
X030784Y029107D01*
X030832Y029223D01*
X030921Y029311D01*
X030955Y029326D01*
X030921Y029340D01*
X030832Y029428D01*
X030784Y029544D01*
X030784Y029669D01*
X030832Y029785D01*
X030921Y029874D01*
X031031Y029919D01*
X030921Y029965D01*
X030832Y030053D01*
X030784Y030169D01*
X030784Y030294D01*
X030832Y030410D01*
X030921Y030499D01*
X031037Y030547D01*
X031162Y030547D01*
X031278Y030499D01*
X031366Y030410D01*
X031381Y030376D01*
X031395Y030410D01*
X031483Y030499D01*
X031599Y030547D01*
X031725Y030547D01*
X031840Y030499D01*
X031929Y030410D01*
X031977Y030294D01*
X031977Y030169D01*
X031929Y030053D01*
X031840Y029965D01*
X031730Y029919D01*
X031840Y029874D01*
X031929Y029785D01*
X031943Y029751D01*
X031957Y029785D01*
X032046Y029874D01*
X032162Y029922D01*
X032287Y029922D01*
X032403Y029874D01*
X032491Y029785D01*
X032506Y029751D01*
X032520Y029785D01*
X032608Y029874D01*
X032724Y029922D01*
X032850Y029922D01*
X032965Y029874D01*
X033054Y029785D01*
X033102Y029669D01*
X033102Y029544D01*
X033054Y029428D01*
X032965Y029340D01*
X032931Y029326D01*
X032965Y029311D01*
X033054Y029223D01*
X033102Y029107D01*
X033102Y028982D01*
X033054Y028866D01*
X032965Y028777D01*
X032855Y028732D01*
X038099Y028732D01*
X038099Y036804D01*
X038039Y036779D01*
X037660Y036779D01*
X037310Y036924D01*
X037042Y037192D01*
X036897Y037542D01*
X036897Y037921D01*
X037042Y038271D01*
X037310Y038539D01*
X037660Y038684D01*
X038039Y038684D01*
X038099Y038659D01*
X038099Y039232D01*
X015099Y039232D01*
X015099Y028732D01*
X018136Y028732D01*
X018172Y028747D01*
X018277Y028747D01*
X018313Y028732D01*
X019114Y028732D01*
X019125Y028757D01*
X019199Y028831D01*
X019297Y028872D01*
X019402Y028872D01*
X019499Y028831D01*
X019574Y028757D01*
X019584Y028732D01*
X021939Y028732D01*
X021939Y030892D01*
X021875Y030957D01*
X021834Y031054D01*
X021866Y030977D02*
X020699Y030977D01*
X020825Y030879D02*
X021939Y030879D01*
X021939Y030780D02*
X020864Y030780D01*
X020864Y030682D02*
X021939Y030682D01*
X021939Y030583D02*
X020825Y030583D01*
X020695Y030485D02*
X021939Y030485D01*
X021939Y030386D02*
X019614Y030386D01*
X019608Y030288D02*
X021939Y030288D01*
X021939Y030189D02*
X019556Y030189D01*
X019583Y030485D02*
X020504Y030485D01*
X020374Y030583D02*
X019495Y030583D01*
X019142Y030189D02*
X015099Y030189D01*
X015099Y030090D02*
X021939Y030090D01*
X021939Y029992D02*
X015099Y029992D01*
X015099Y029893D02*
X021939Y029893D01*
X021939Y029795D02*
X015099Y029795D01*
X015099Y029696D02*
X015814Y029696D01*
X015824Y029706D02*
X015922Y029747D01*
X016027Y029747D01*
X016124Y029706D01*
X016199Y029632D01*
X016239Y029535D01*
X016239Y029429D01*
X016199Y029332D01*
X016124Y029257D01*
X016027Y029217D01*
X015922Y029217D01*
X015824Y029257D01*
X015750Y029332D01*
X015709Y029429D01*
X015709Y029535D01*
X015750Y029632D01*
X015824Y029706D01*
X015736Y029598D02*
X015099Y029598D01*
X015099Y029499D02*
X015709Y029499D01*
X015721Y029401D02*
X015099Y029401D01*
X015099Y029302D02*
X015779Y029302D01*
X016169Y029302D02*
X016529Y029302D01*
X016500Y029332D02*
X016459Y029429D01*
X016459Y029535D01*
X016500Y029632D01*
X016574Y029706D01*
X016672Y029747D01*
X016777Y029747D01*
X016874Y029706D01*
X016949Y029632D01*
X016989Y029535D01*
X016989Y029429D01*
X016949Y029332D01*
X016874Y029257D01*
X016777Y029217D01*
X016672Y029217D01*
X016574Y029257D01*
X016500Y029332D01*
X016471Y029401D02*
X016228Y029401D01*
X016239Y029499D02*
X016459Y029499D01*
X016486Y029598D02*
X016213Y029598D01*
X016135Y029696D02*
X016564Y029696D01*
X016885Y029696D02*
X021939Y029696D01*
X021939Y029598D02*
X016963Y029598D01*
X016989Y029499D02*
X021939Y029499D01*
X021939Y029401D02*
X016978Y029401D01*
X016919Y029302D02*
X021939Y029302D01*
X021939Y029204D02*
X015099Y029204D01*
X015099Y029105D02*
X021939Y029105D01*
X021939Y029006D02*
X015099Y029006D01*
X015099Y028908D02*
X021939Y028908D01*
X021939Y028809D02*
X019522Y028809D01*
X019177Y028809D02*
X015099Y028809D01*
X015656Y031174D02*
X020282Y031174D01*
X020667Y031174D02*
X021841Y031174D01*
X021891Y031273D02*
X020726Y031273D01*
X020739Y031371D02*
X022046Y031371D01*
X022153Y031371D02*
X023600Y031371D01*
X023574Y031382D02*
X023500Y031457D01*
X023459Y031554D01*
X023459Y031660D01*
X023500Y031757D01*
X023574Y031831D01*
X023672Y031872D01*
X023777Y031872D01*
X023874Y031831D01*
X023949Y031757D01*
X023989Y031660D01*
X023989Y031554D01*
X023949Y031457D01*
X023874Y031382D01*
X023813Y031357D01*
X023874Y031331D01*
X023949Y031257D01*
X023989Y031160D01*
X023989Y031054D01*
X023949Y030957D01*
X023874Y030882D01*
X023813Y030857D01*
X023874Y030831D01*
X023949Y030757D01*
X023989Y030660D01*
X023989Y030554D01*
X023949Y030457D01*
X023874Y030382D01*
X023777Y030342D01*
X023672Y030342D01*
X023574Y030382D01*
X023500Y030457D01*
X023459Y030554D01*
X023459Y030660D01*
X023500Y030757D01*
X023574Y030831D01*
X023636Y030857D01*
X023574Y030882D01*
X023500Y030957D01*
X023459Y031054D01*
X023459Y031160D01*
X023500Y031257D01*
X023574Y031331D01*
X023636Y031357D01*
X023574Y031382D01*
X023494Y031470D02*
X020714Y031470D01*
X020637Y031569D02*
X023459Y031569D01*
X023463Y031667D02*
X016365Y031667D01*
X016369Y031766D02*
X023509Y031766D01*
X023653Y031864D02*
X023081Y031864D01*
X023124Y031882D02*
X023027Y031842D01*
X022922Y031842D01*
X022824Y031882D01*
X022750Y031957D01*
X022709Y032054D01*
X022709Y032160D01*
X022710Y032160D02*
X019032Y032160D01*
X019032Y032168D02*
X019032Y032046D01*
X018986Y031932D01*
X018899Y031846D01*
X018786Y031799D01*
X018663Y031799D01*
X018550Y031846D01*
X018463Y031932D01*
X018416Y032046D01*
X018416Y032168D01*
X018463Y032281D01*
X018550Y032368D01*
X018663Y032415D01*
X018786Y032415D01*
X018899Y032368D01*
X018986Y032281D01*
X019032Y032168D01*
X018995Y032258D02*
X022751Y032258D01*
X022750Y032257D02*
X022824Y032331D01*
X022922Y032372D01*
X023027Y032372D01*
X023124Y032331D01*
X023199Y032257D01*
X023239Y032160D01*
X026319Y032160D01*
X026319Y032187D02*
X026381Y032336D01*
X026495Y032450D01*
X026644Y032512D01*
X026805Y032512D01*
X026954Y032450D01*
X027068Y032336D01*
X027129Y032187D01*
X027129Y032026D01*
X027068Y031877D01*
X026954Y031763D01*
X026805Y031702D01*
X026644Y031702D01*
X026495Y031763D01*
X026381Y031877D01*
X026319Y032026D01*
X026319Y032187D01*
X026349Y032258D02*
X023198Y032258D01*
X023239Y032160D02*
X023239Y032054D01*
X023199Y031957D01*
X023124Y031882D01*
X023202Y031963D02*
X026346Y031963D01*
X026319Y032061D02*
X023239Y032061D01*
X023063Y032357D02*
X026402Y032357D01*
X026508Y032455D02*
X015099Y032455D01*
X015099Y032357D02*
X017539Y032357D01*
X017550Y032368D02*
X017663Y032415D01*
X017786Y032415D01*
X017899Y032368D01*
X017986Y032281D01*
X018032Y032168D01*
X018032Y032046D01*
X017986Y031932D01*
X017899Y031846D01*
X017786Y031799D01*
X017663Y031799D01*
X017550Y031846D01*
X017463Y031932D01*
X017416Y032046D01*
X017416Y032168D01*
X017463Y032281D01*
X017550Y032368D01*
X017454Y032258D02*
X015099Y032258D01*
X015099Y032160D02*
X017416Y032160D01*
X017416Y032061D02*
X015099Y032061D01*
X015099Y031963D02*
X015951Y031963D01*
X016247Y031963D02*
X017451Y031963D01*
X017531Y031864D02*
X016337Y031864D01*
X016027Y032717D02*
X015922Y032717D01*
X015824Y032757D01*
X015750Y032832D01*
X015709Y032929D01*
X015709Y033035D01*
X015750Y033132D01*
X015824Y033206D01*
X015922Y033247D01*
X016027Y033247D01*
X016124Y033206D01*
X016199Y033132D01*
X016239Y033035D01*
X016239Y032929D01*
X016199Y032832D01*
X016124Y032757D01*
X016027Y032717D01*
X016110Y032751D02*
X020856Y032751D01*
X020875Y032707D02*
X020834Y032804D01*
X020834Y032910D01*
X020875Y033007D01*
X020949Y033081D01*
X021047Y033122D01*
X021152Y033122D01*
X021249Y033081D01*
X021324Y033007D01*
X021364Y032910D01*
X021364Y032804D01*
X021324Y032707D01*
X021249Y032632D01*
X021152Y032592D01*
X021047Y032592D01*
X020949Y032632D01*
X020875Y032707D01*
X020929Y032653D02*
X015099Y032653D01*
X015099Y032751D02*
X015839Y032751D01*
X015742Y032850D02*
X015099Y032850D01*
X015099Y032948D02*
X015709Y032948D01*
X015714Y033047D02*
X015099Y033047D01*
X015099Y033145D02*
X015763Y033145D01*
X015915Y033244D02*
X015099Y033244D01*
X015099Y033342D02*
X017524Y033342D01*
X017550Y033368D02*
X017463Y033281D01*
X017416Y033168D01*
X017416Y033046D01*
X017463Y032932D01*
X017550Y032846D01*
X017663Y032799D01*
X017786Y032799D01*
X017899Y032846D01*
X017986Y032932D01*
X018032Y033046D01*
X018032Y033168D01*
X017986Y033281D01*
X017899Y033368D01*
X017786Y033415D01*
X017663Y033415D01*
X017550Y033368D01*
X017448Y033244D02*
X016034Y033244D01*
X016186Y033145D02*
X017416Y033145D01*
X017416Y033047D02*
X016234Y033047D01*
X016239Y032948D02*
X017457Y032948D01*
X017546Y032850D02*
X016206Y032850D01*
X015624Y033945D02*
X015527Y033904D01*
X015422Y033904D01*
X015324Y033945D01*
X015250Y034019D01*
X015209Y034117D01*
X015209Y034222D01*
X015250Y034319D01*
X015324Y034394D01*
X015422Y034434D01*
X015527Y034434D01*
X015624Y034394D01*
X015699Y034319D01*
X015739Y034222D01*
X015739Y034117D01*
X015699Y034019D01*
X015624Y033945D01*
X015598Y033934D02*
X020709Y033934D01*
X020709Y033929D02*
X020750Y033832D01*
X020824Y033757D01*
X020922Y033717D01*
X021027Y033717D01*
X021124Y033757D01*
X021199Y033832D01*
X021239Y033929D01*
X021239Y034035D01*
X021199Y034132D01*
X021124Y034206D01*
X021027Y034247D01*
X020922Y034247D01*
X020824Y034206D01*
X020750Y034132D01*
X020709Y034035D01*
X020709Y033929D01*
X020748Y033835D02*
X015099Y033835D01*
X015099Y033737D02*
X020874Y033737D01*
X021075Y033737D02*
X026560Y033737D01*
X026495Y033763D02*
X026381Y033877D01*
X026319Y034026D01*
X026319Y034187D01*
X026381Y034336D01*
X026495Y034450D01*
X026644Y034512D01*
X026805Y034512D01*
X026954Y034450D01*
X027068Y034336D01*
X027129Y034187D01*
X027129Y034026D01*
X027068Y033877D01*
X026954Y033763D01*
X026805Y033702D01*
X026644Y033702D01*
X026495Y033763D01*
X026423Y033835D02*
X021200Y033835D01*
X021239Y033934D02*
X026358Y033934D01*
X026319Y034032D02*
X021239Y034032D01*
X021199Y034131D02*
X026319Y034131D01*
X026337Y034229D02*
X021069Y034229D01*
X020879Y034229D02*
X015736Y034229D01*
X015739Y034131D02*
X020749Y034131D01*
X020709Y034032D02*
X015704Y034032D01*
X015691Y034328D02*
X026378Y034328D01*
X026471Y034426D02*
X015546Y034426D01*
X015402Y034426D02*
X015099Y034426D01*
X015099Y034328D02*
X015258Y034328D01*
X015212Y034229D02*
X015099Y034229D01*
X015099Y034131D02*
X015209Y034131D01*
X015244Y034032D02*
X015099Y034032D01*
X015099Y033934D02*
X015351Y033934D01*
X015099Y033638D02*
X033334Y033638D01*
X033334Y033617D02*
X033375Y033519D01*
X033449Y033445D01*
X033547Y033404D01*
X033652Y033404D01*
X033749Y033445D01*
X033824Y033519D01*
X033864Y033617D01*
X033864Y033722D01*
X033824Y033819D01*
X033749Y033894D01*
X033652Y033934D01*
X033547Y033934D01*
X033449Y033894D01*
X033375Y033819D01*
X033334Y033722D01*
X033334Y033617D01*
X033366Y033539D02*
X015099Y033539D01*
X015099Y033441D02*
X021559Y033441D01*
X021574Y033456D02*
X021672Y033497D01*
X021777Y033497D01*
X021874Y033456D01*
X021949Y033382D01*
X021989Y033285D01*
X021989Y033179D01*
X021949Y033082D01*
X021874Y033007D01*
X021777Y032967D01*
X021672Y032967D01*
X021574Y033007D01*
X021500Y033082D01*
X021459Y033179D01*
X021459Y033285D01*
X021500Y033382D01*
X021574Y033456D01*
X021483Y033342D02*
X018925Y033342D01*
X018899Y033368D02*
X018986Y033281D01*
X019032Y033168D01*
X019032Y033046D01*
X018986Y032932D01*
X018899Y032846D01*
X018786Y032799D01*
X018663Y032799D01*
X018550Y032846D01*
X018463Y032932D01*
X018416Y033046D01*
X018416Y033168D01*
X018463Y033281D01*
X018550Y033368D01*
X018663Y033415D01*
X018786Y033415D01*
X018899Y033368D01*
X019001Y033244D02*
X021459Y033244D01*
X021473Y033145D02*
X019032Y033145D01*
X019032Y033047D02*
X020915Y033047D01*
X020850Y032948D02*
X018992Y032948D01*
X018903Y032850D02*
X020834Y032850D01*
X021270Y032653D02*
X022804Y032653D01*
X022824Y032632D02*
X022750Y032707D01*
X022709Y032804D01*
X022709Y032910D01*
X022750Y033007D01*
X022824Y033081D01*
X022922Y033122D01*
X023027Y033122D01*
X023124Y033081D01*
X023199Y033007D01*
X023239Y032910D01*
X023239Y032804D01*
X023199Y032707D01*
X023124Y032632D01*
X023027Y032592D01*
X022922Y032592D01*
X022824Y032632D01*
X022731Y032751D02*
X021342Y032751D01*
X021364Y032850D02*
X022709Y032850D01*
X022725Y032948D02*
X021348Y032948D01*
X021284Y033047D02*
X021535Y033047D01*
X021914Y033047D02*
X022790Y033047D01*
X023159Y033047D02*
X026319Y033047D01*
X026319Y033026D02*
X026381Y032877D01*
X026495Y032763D01*
X026644Y032702D01*
X026805Y032702D01*
X026954Y032763D01*
X027068Y032877D01*
X027129Y033026D01*
X027129Y033187D01*
X027068Y033336D01*
X026954Y033450D01*
X026805Y033512D01*
X026644Y033512D01*
X026495Y033450D01*
X026381Y033336D01*
X026319Y033187D01*
X026319Y033026D01*
X026352Y032948D02*
X023223Y032948D01*
X023239Y032850D02*
X026409Y032850D01*
X026525Y032751D02*
X023217Y032751D01*
X023145Y032653D02*
X029246Y032653D01*
X029250Y032644D02*
X029209Y032742D01*
X029209Y032847D01*
X029250Y032944D01*
X029324Y033019D01*
X029422Y033059D01*
X029527Y033059D01*
X029624Y033019D01*
X029699Y032944D01*
X029739Y032847D01*
X029739Y032742D01*
X029699Y032644D01*
X029624Y032570D01*
X029527Y032529D01*
X029422Y032529D01*
X029324Y032570D01*
X029250Y032644D01*
X029209Y032751D02*
X027924Y032751D01*
X027954Y032763D02*
X027805Y032702D01*
X027644Y032702D01*
X027495Y032763D01*
X027381Y032877D01*
X027319Y033026D01*
X027319Y033187D01*
X027381Y033336D01*
X027495Y033450D01*
X027644Y033512D01*
X027805Y033512D01*
X027954Y033450D01*
X028068Y033336D01*
X028129Y033187D01*
X028129Y033026D01*
X028068Y032877D01*
X027954Y032763D01*
X028040Y032850D02*
X029210Y032850D01*
X029254Y032948D02*
X028097Y032948D01*
X028129Y033047D02*
X029391Y033047D01*
X029557Y033047D02*
X032844Y033047D01*
X032832Y033035D02*
X032921Y033124D01*
X033037Y033172D01*
X033162Y033172D01*
X033278Y033124D01*
X033366Y033035D01*
X033414Y032919D01*
X033414Y032794D01*
X033366Y032678D01*
X033278Y032590D01*
X033162Y032542D01*
X033037Y032542D01*
X032921Y032590D01*
X032832Y032678D01*
X032784Y032794D01*
X032784Y032919D01*
X032832Y033035D01*
X032796Y032948D02*
X029695Y032948D01*
X029738Y032850D02*
X032784Y032850D01*
X032802Y032751D02*
X029739Y032751D01*
X029702Y032653D02*
X032858Y032653D01*
X033007Y032554D02*
X029587Y032554D01*
X029362Y032554D02*
X015099Y032554D01*
X015099Y034525D02*
X038099Y034525D01*
X038099Y034623D02*
X017228Y034623D01*
X017249Y034632D02*
X017152Y034592D01*
X017047Y034592D01*
X016949Y034632D01*
X016875Y034707D01*
X016834Y034804D01*
X016834Y034910D01*
X016875Y035007D01*
X016949Y035081D01*
X017047Y035122D01*
X017152Y035122D01*
X017249Y035081D01*
X017324Y035007D01*
X017364Y034910D01*
X017364Y034804D01*
X017324Y034707D01*
X017249Y034632D01*
X017330Y034722D02*
X019409Y034722D01*
X019422Y034717D02*
X019324Y034757D01*
X019250Y034832D01*
X019209Y034929D01*
X019209Y035035D01*
X019250Y035132D01*
X019324Y035206D01*
X019422Y035247D01*
X019527Y035247D01*
X019624Y035206D01*
X019699Y035132D01*
X019739Y035035D01*
X019739Y034929D01*
X019699Y034832D01*
X019624Y034757D01*
X019527Y034717D01*
X019422Y034717D01*
X019540Y034722D02*
X026595Y034722D01*
X026644Y034702D02*
X026495Y034763D01*
X026381Y034877D01*
X026319Y035026D01*
X026319Y035187D01*
X026381Y035336D01*
X026495Y035450D01*
X026644Y035512D01*
X026805Y035512D01*
X026954Y035450D01*
X027068Y035336D01*
X027129Y035187D01*
X027129Y035026D01*
X027068Y034877D01*
X026954Y034763D01*
X026805Y034702D01*
X026644Y034702D01*
X026854Y034722D02*
X027595Y034722D01*
X027644Y034702D02*
X027495Y034763D01*
X027381Y034877D01*
X027319Y035026D01*
X027319Y035187D01*
X027381Y035336D01*
X027495Y035450D01*
X027644Y035512D01*
X027805Y035512D01*
X027954Y035450D01*
X028068Y035336D01*
X028129Y035187D01*
X028129Y035026D01*
X028068Y034877D01*
X027954Y034763D01*
X027805Y034702D01*
X027644Y034702D01*
X027644Y034512D02*
X027805Y034512D01*
X027954Y034450D01*
X028068Y034336D01*
X028129Y034187D01*
X028129Y034026D01*
X028068Y033877D01*
X027954Y033763D01*
X027805Y033702D01*
X027644Y033702D01*
X027495Y033763D01*
X027381Y033877D01*
X027319Y034026D01*
X027319Y034187D01*
X027381Y034336D01*
X027495Y034450D01*
X027644Y034512D01*
X027471Y034426D02*
X026978Y034426D01*
X027071Y034328D02*
X027378Y034328D01*
X027337Y034229D02*
X027112Y034229D01*
X027129Y034131D02*
X027319Y034131D01*
X027319Y034032D02*
X027129Y034032D01*
X027091Y033934D02*
X027358Y033934D01*
X027423Y033835D02*
X027025Y033835D01*
X026889Y033737D02*
X027560Y033737D01*
X027486Y033441D02*
X026963Y033441D01*
X027062Y033342D02*
X027387Y033342D01*
X027343Y033244D02*
X027106Y033244D01*
X027129Y033145D02*
X027319Y033145D01*
X027319Y033047D02*
X027129Y033047D01*
X027097Y032948D02*
X027352Y032948D01*
X027409Y032850D02*
X027040Y032850D01*
X026924Y032751D02*
X027525Y032751D01*
X027644Y032512D02*
X027805Y032512D01*
X027954Y032450D01*
X028068Y032336D01*
X028129Y032187D01*
X028129Y032026D01*
X028068Y031877D01*
X027954Y031763D01*
X027805Y031702D01*
X027644Y031702D01*
X027495Y031763D01*
X027381Y031877D01*
X027319Y032026D01*
X027319Y032187D01*
X027381Y032336D01*
X027495Y032450D01*
X027644Y032512D01*
X027508Y032455D02*
X026941Y032455D01*
X027047Y032357D02*
X027402Y032357D01*
X027349Y032258D02*
X027100Y032258D01*
X027129Y032160D02*
X027319Y032160D01*
X027319Y032061D02*
X027129Y032061D01*
X027103Y031963D02*
X027346Y031963D01*
X027394Y031864D02*
X027055Y031864D01*
X026956Y031766D02*
X027493Y031766D01*
X027644Y031512D02*
X027805Y031512D01*
X027954Y031450D01*
X028068Y031336D01*
X028129Y031187D01*
X028129Y031026D01*
X028068Y030877D01*
X027954Y030763D01*
X027805Y030702D01*
X027644Y030702D01*
X027495Y030763D01*
X027381Y030877D01*
X027319Y031026D01*
X027319Y031187D01*
X027381Y031336D01*
X027495Y031450D01*
X027644Y031512D01*
X027543Y031470D02*
X026906Y031470D01*
X026954Y031450D02*
X027068Y031336D01*
X027129Y031187D01*
X027129Y031026D01*
X027068Y030877D01*
X026954Y030763D01*
X026805Y030702D01*
X026644Y030702D01*
X026495Y030763D01*
X026381Y030877D01*
X026319Y031026D01*
X026319Y031187D01*
X026381Y031336D01*
X026495Y031450D01*
X026644Y031512D01*
X026805Y031512D01*
X026954Y031450D01*
X027032Y031371D02*
X027416Y031371D01*
X027355Y031273D02*
X027094Y031273D01*
X027129Y031174D02*
X027319Y031174D01*
X027319Y031076D02*
X027129Y031076D01*
X027109Y030977D02*
X027340Y030977D01*
X027381Y030879D02*
X027068Y030879D01*
X026971Y030780D02*
X027478Y030780D01*
X027578Y030485D02*
X026871Y030485D01*
X026805Y030512D02*
X026954Y030450D01*
X027068Y030336D01*
X027129Y030187D01*
X027129Y030026D01*
X027068Y029877D01*
X026954Y029763D01*
X026805Y029702D01*
X026644Y029702D01*
X026495Y029763D01*
X026381Y029877D01*
X026319Y030026D01*
X026319Y030187D01*
X026381Y030336D01*
X026495Y030450D01*
X026644Y030512D01*
X026805Y030512D01*
X026578Y030485D02*
X023961Y030485D01*
X023989Y030583D02*
X035639Y030583D01*
X035645Y030598D02*
X035716Y030669D01*
X035645Y030741D01*
X035597Y030857D01*
X035597Y030982D01*
X035645Y031098D01*
X035733Y031186D01*
X035849Y031234D01*
X035975Y031234D01*
X036090Y031186D01*
X036179Y031098D01*
X036227Y030982D01*
X036227Y030857D01*
X036179Y030741D01*
X036107Y030669D01*
X036179Y030598D01*
X036227Y030482D01*
X036227Y030357D01*
X036179Y030241D01*
X036090Y030152D01*
X035975Y030104D01*
X035849Y030104D01*
X035733Y030152D01*
X035645Y030241D01*
X035597Y030357D01*
X035597Y030482D01*
X035645Y030598D01*
X035704Y030682D02*
X023980Y030682D01*
X023926Y030780D02*
X026478Y030780D01*
X026381Y030879D02*
X023866Y030879D01*
X023958Y030977D02*
X026340Y030977D01*
X026319Y031076D02*
X023989Y031076D01*
X023983Y031174D02*
X026319Y031174D01*
X026355Y031273D02*
X023933Y031273D01*
X023849Y031371D02*
X026416Y031371D01*
X026543Y031470D02*
X023955Y031470D01*
X023989Y031569D02*
X038099Y031569D01*
X038099Y031667D02*
X034225Y031667D01*
X034099Y031667D01*
X033983Y031715D01*
X033895Y031803D01*
X033847Y031919D01*
X033847Y032044D01*
X033895Y032160D01*
X033983Y032249D01*
X034099Y032297D01*
X034225Y032297D01*
X034340Y032249D01*
X034429Y032160D01*
X038099Y032160D01*
X038099Y032258D02*
X034317Y032258D01*
X034429Y032160D02*
X034477Y032044D01*
X034477Y031919D01*
X034429Y031803D01*
X034340Y031715D01*
X034225Y031667D01*
X034098Y031667D02*
X023986Y031667D01*
X023940Y031766D02*
X026493Y031766D01*
X026394Y031864D02*
X023795Y031864D01*
X023516Y031273D02*
X022308Y031273D01*
X022358Y031174D02*
X023466Y031174D01*
X023459Y031076D02*
X022364Y031076D01*
X022333Y030977D02*
X023491Y030977D01*
X023582Y030879D02*
X022259Y030879D01*
X022259Y030780D02*
X023523Y030780D01*
X023469Y030682D02*
X022259Y030682D01*
X022259Y030583D02*
X023459Y030583D01*
X023488Y030485D02*
X022259Y030485D01*
X022259Y030386D02*
X023570Y030386D01*
X023878Y030386D02*
X026431Y030386D01*
X026361Y030288D02*
X022259Y030288D01*
X022259Y030189D02*
X026320Y030189D01*
X026319Y030090D02*
X022259Y030090D01*
X022259Y029992D02*
X026334Y029992D01*
X026374Y029893D02*
X022259Y029893D01*
X022259Y029795D02*
X026464Y029795D01*
X026985Y029795D02*
X027464Y029795D01*
X027495Y029763D02*
X027381Y029877D01*
X027319Y030026D01*
X027319Y030187D01*
X027381Y030336D01*
X027495Y030450D01*
X027644Y030512D01*
X027805Y030512D01*
X027954Y030450D01*
X028068Y030336D01*
X028129Y030187D01*
X028129Y030026D01*
X028068Y029877D01*
X027954Y029763D01*
X027805Y029702D01*
X027644Y029702D01*
X027495Y029763D01*
X027374Y029893D02*
X027074Y029893D01*
X027115Y029992D02*
X027334Y029992D01*
X027319Y030090D02*
X027129Y030090D01*
X027129Y030189D02*
X027320Y030189D01*
X027361Y030288D02*
X027088Y030288D01*
X027018Y030386D02*
X027431Y030386D01*
X027871Y030485D02*
X030907Y030485D01*
X030822Y030386D02*
X028018Y030386D01*
X028088Y030288D02*
X030784Y030288D01*
X030784Y030189D02*
X028129Y030189D01*
X028129Y030090D02*
X030817Y030090D01*
X030894Y029992D02*
X028115Y029992D01*
X028074Y029893D02*
X030968Y029893D01*
X030842Y029795D02*
X027985Y029795D01*
X027971Y030780D02*
X035629Y030780D01*
X035597Y030879D02*
X028068Y030879D01*
X028109Y030977D02*
X035597Y030977D01*
X035636Y031076D02*
X028129Y031076D01*
X028129Y031174D02*
X035722Y031174D01*
X036102Y031174D02*
X036472Y031174D01*
X036483Y031186D02*
X036599Y031234D01*
X036725Y031234D01*
X036840Y031186D01*
X036929Y031098D01*
X036977Y030982D01*
X036977Y030857D01*
X036929Y030741D01*
X036857Y030669D01*
X036929Y030598D01*
X036977Y030482D01*
X036977Y030357D01*
X036929Y030241D01*
X036840Y030152D01*
X036725Y030104D01*
X036599Y030104D01*
X036483Y030152D01*
X036395Y030241D01*
X036347Y030357D01*
X036347Y030482D01*
X036395Y030598D01*
X036466Y030669D01*
X036395Y030741D01*
X036347Y030857D01*
X036347Y030982D01*
X036395Y031098D01*
X036483Y031186D01*
X036386Y031076D02*
X036188Y031076D01*
X036227Y030977D02*
X036347Y030977D01*
X036347Y030879D02*
X036227Y030879D01*
X036195Y030780D02*
X036379Y030780D01*
X036454Y030682D02*
X036120Y030682D01*
X036185Y030583D02*
X036389Y030583D01*
X036348Y030485D02*
X036226Y030485D01*
X036227Y030386D02*
X036347Y030386D01*
X036376Y030288D02*
X036198Y030288D01*
X036127Y030189D02*
X036447Y030189D01*
X036877Y030189D02*
X038099Y030189D01*
X038099Y030288D02*
X036948Y030288D01*
X036977Y030386D02*
X038099Y030386D01*
X038099Y030485D02*
X036976Y030485D01*
X036935Y030583D02*
X038099Y030583D01*
X038099Y030682D02*
X036870Y030682D01*
X036945Y030780D02*
X038099Y030780D01*
X038099Y030879D02*
X036977Y030879D01*
X036977Y030977D02*
X038099Y030977D01*
X038099Y031076D02*
X036938Y031076D01*
X036852Y031174D02*
X038099Y031174D01*
X038099Y031273D02*
X028094Y031273D01*
X028032Y031371D02*
X038099Y031371D01*
X038099Y031470D02*
X027906Y031470D01*
X027956Y031766D02*
X032441Y031766D01*
X032449Y031757D02*
X032375Y031832D01*
X032334Y031929D01*
X032334Y032035D01*
X032375Y032132D01*
X032449Y032206D01*
X032547Y032247D01*
X032652Y032247D01*
X032749Y032206D01*
X032824Y032132D01*
X032864Y032035D01*
X032864Y031929D01*
X032824Y031832D01*
X032749Y031757D01*
X032652Y031717D01*
X032547Y031717D01*
X032449Y031757D01*
X032361Y031864D02*
X028055Y031864D01*
X028103Y031963D02*
X032334Y031963D01*
X032345Y032061D02*
X028129Y032061D01*
X028129Y032160D02*
X032403Y032160D01*
X032796Y032160D02*
X033895Y032160D01*
X033854Y032061D02*
X032853Y032061D01*
X032864Y031963D02*
X033847Y031963D01*
X033870Y031864D02*
X032838Y031864D01*
X032758Y031766D02*
X033933Y031766D01*
X034391Y031766D02*
X038099Y031766D01*
X038099Y031864D02*
X034454Y031864D01*
X034477Y031963D02*
X038099Y031963D01*
X038099Y032061D02*
X034470Y032061D01*
X034006Y032258D02*
X028100Y032258D01*
X028047Y032357D02*
X038099Y032357D01*
X038099Y032455D02*
X027941Y032455D01*
X028129Y033145D02*
X032973Y033145D01*
X033226Y033145D02*
X036513Y033145D01*
X036500Y033132D02*
X036574Y033206D01*
X036672Y033247D01*
X036777Y033247D01*
X036874Y033206D01*
X036949Y033132D01*
X036989Y033035D01*
X036989Y032929D01*
X036949Y032832D01*
X036874Y032757D01*
X036777Y032717D01*
X036672Y032717D01*
X036574Y032757D01*
X036500Y032832D01*
X036459Y032929D01*
X036459Y033035D01*
X036500Y033132D01*
X036464Y033047D02*
X033355Y033047D01*
X033402Y032948D02*
X036459Y032948D01*
X036492Y032850D02*
X033414Y032850D01*
X033397Y032751D02*
X036589Y032751D01*
X036860Y032751D02*
X038099Y032751D01*
X038099Y032653D02*
X033341Y032653D01*
X033192Y032554D02*
X038099Y032554D01*
X038099Y032850D02*
X036956Y032850D01*
X036989Y032948D02*
X038099Y032948D01*
X038099Y033047D02*
X036984Y033047D01*
X036936Y033145D02*
X038099Y033145D01*
X038099Y033244D02*
X036784Y033244D01*
X036665Y033244D02*
X028106Y033244D01*
X028062Y033342D02*
X038099Y033342D01*
X038099Y033441D02*
X033740Y033441D01*
X033832Y033539D02*
X038099Y033539D01*
X038099Y033638D02*
X033864Y033638D01*
X033858Y033737D02*
X038099Y033737D01*
X038099Y033835D02*
X033808Y033835D01*
X033654Y033934D02*
X038099Y033934D01*
X038099Y034032D02*
X032164Y034032D01*
X032164Y034044D02*
X032164Y033919D01*
X032116Y033803D01*
X032028Y033715D01*
X031912Y033667D01*
X031787Y033667D01*
X031671Y033715D01*
X031582Y033803D01*
X031534Y033919D01*
X031534Y034044D01*
X031582Y034160D01*
X031671Y034249D01*
X031787Y034297D01*
X031912Y034297D01*
X032028Y034249D01*
X032116Y034160D01*
X032164Y034044D01*
X032129Y034131D02*
X038099Y034131D01*
X038099Y034229D02*
X032047Y034229D01*
X032164Y033934D02*
X033545Y033934D01*
X033390Y033835D02*
X032130Y033835D01*
X032050Y033737D02*
X033340Y033737D01*
X033458Y033441D02*
X027963Y033441D01*
X027889Y033737D02*
X031649Y033737D01*
X031569Y033835D02*
X028025Y033835D01*
X028091Y033934D02*
X031534Y033934D01*
X031534Y034032D02*
X028129Y034032D01*
X028129Y034131D02*
X031570Y034131D01*
X031651Y034229D02*
X028112Y034229D01*
X028071Y034328D02*
X038099Y034328D01*
X038099Y034426D02*
X027978Y034426D01*
X027854Y034722D02*
X038099Y034722D01*
X038099Y034821D02*
X028011Y034821D01*
X028085Y034919D02*
X038099Y034919D01*
X038099Y035018D02*
X036255Y035018D01*
X036278Y035027D02*
X036162Y034979D01*
X036037Y034979D01*
X035921Y035027D01*
X035832Y035116D01*
X035679Y035116D01*
X035590Y035027D01*
X035475Y034979D01*
X035349Y034979D01*
X035233Y035027D01*
X035145Y035116D01*
X035097Y035232D01*
X035097Y035357D01*
X035145Y035473D01*
X035233Y035561D01*
X035349Y035609D01*
X035475Y035609D01*
X035590Y035561D01*
X035679Y035473D01*
X035727Y035357D01*
X035727Y035232D01*
X035679Y035116D01*
X035720Y035215D02*
X035791Y035215D01*
X035784Y035232D02*
X035832Y035116D01*
X035784Y035232D02*
X035784Y035357D01*
X035832Y035473D01*
X035921Y035561D01*
X036037Y035609D01*
X036162Y035609D01*
X036278Y035561D01*
X036366Y035473D01*
X036414Y035357D01*
X036414Y035232D01*
X036366Y035116D01*
X036278Y035027D01*
X036367Y035116D02*
X038099Y035116D01*
X038099Y035215D02*
X036407Y035215D01*
X036414Y035313D02*
X038099Y035313D01*
X038099Y035412D02*
X036392Y035412D01*
X036329Y035510D02*
X038099Y035510D01*
X038099Y035609D02*
X036163Y035609D01*
X036036Y035609D02*
X035476Y035609D01*
X035348Y035609D02*
X034788Y035609D01*
X034787Y035609D02*
X034903Y035561D01*
X034991Y035473D01*
X035039Y035357D01*
X035039Y035232D01*
X034991Y035116D01*
X034903Y035027D01*
X034787Y034979D01*
X034662Y034979D01*
X034546Y035027D01*
X034457Y035116D01*
X028129Y035116D01*
X028126Y035018D02*
X034569Y035018D01*
X034457Y035116D02*
X034409Y035232D01*
X034409Y035357D01*
X034457Y035473D01*
X034546Y035561D01*
X034662Y035609D01*
X034787Y035609D01*
X034661Y035609D02*
X023808Y035609D01*
X023777Y035622D02*
X023874Y035581D01*
X023949Y035507D01*
X023989Y035410D01*
X023989Y035304D01*
X023949Y035207D01*
X023874Y035132D01*
X023777Y035092D01*
X023672Y035092D01*
X023574Y035132D01*
X023500Y035207D01*
X023459Y035304D01*
X023459Y035410D01*
X023500Y035507D01*
X023574Y035581D01*
X023672Y035622D01*
X023777Y035622D01*
X023640Y035609D02*
X015099Y035609D01*
X015099Y035707D02*
X026630Y035707D01*
X026644Y035702D02*
X026495Y035763D01*
X026381Y035877D01*
X026319Y036026D01*
X026319Y036187D01*
X026381Y036336D01*
X026495Y036450D01*
X026644Y036512D01*
X026805Y036512D01*
X026954Y036450D01*
X027068Y036336D01*
X027129Y036187D01*
X027129Y036026D01*
X027068Y035877D01*
X026954Y035763D01*
X026805Y035702D01*
X026644Y035702D01*
X026818Y035707D02*
X027630Y035707D01*
X027644Y035702D02*
X027495Y035763D01*
X027381Y035877D01*
X027319Y036026D01*
X027319Y036187D01*
X027381Y036336D01*
X027495Y036450D01*
X027644Y036512D01*
X027805Y036512D01*
X027954Y036450D01*
X028068Y036336D01*
X028129Y036187D01*
X028129Y036026D01*
X028068Y035877D01*
X027954Y035763D01*
X027805Y035702D01*
X027644Y035702D01*
X027818Y035707D02*
X038099Y035707D01*
X038099Y035806D02*
X027996Y035806D01*
X028079Y035904D02*
X038099Y035904D01*
X038099Y036003D02*
X036316Y036003D01*
X036278Y035965D02*
X036366Y036053D01*
X036414Y036169D01*
X036414Y036294D01*
X036366Y036410D01*
X036278Y036499D01*
X036162Y036547D01*
X036037Y036547D01*
X035921Y036499D01*
X035832Y036410D01*
X035784Y036294D01*
X035784Y036169D01*
X035832Y036053D01*
X035921Y035965D01*
X036037Y035917D01*
X036162Y035917D01*
X036278Y035965D01*
X036386Y036102D02*
X038099Y036102D01*
X038099Y036200D02*
X036414Y036200D01*
X036413Y036299D02*
X038099Y036299D01*
X038099Y036397D02*
X036372Y036397D01*
X036281Y036496D02*
X038099Y036496D01*
X038099Y036594D02*
X018364Y036594D01*
X018364Y036554D02*
X018324Y036457D01*
X018249Y036382D01*
X018152Y036342D01*
X018047Y036342D01*
X017949Y036382D01*
X017875Y036457D01*
X017834Y036554D01*
X017834Y036660D01*
X017875Y036757D01*
X017949Y036831D01*
X018047Y036872D01*
X018152Y036872D01*
X018249Y036831D01*
X018324Y036757D01*
X018364Y036660D01*
X018364Y036554D01*
X018340Y036496D02*
X026605Y036496D01*
X026442Y036397D02*
X018265Y036397D01*
X018351Y036693D02*
X038099Y036693D01*
X038099Y036791D02*
X038068Y036791D01*
X037631Y036791D02*
X018290Y036791D01*
X017909Y036791D02*
X017859Y036791D01*
X017864Y036804D02*
X017824Y036707D01*
X017749Y036632D01*
X017652Y036592D01*
X017547Y036592D01*
X017449Y036632D01*
X017375Y036707D01*
X017334Y036804D01*
X017334Y036910D01*
X017375Y037007D01*
X017449Y037081D01*
X017547Y037122D01*
X017599Y037122D01*
X017574Y037132D01*
X017500Y037207D01*
X017459Y037304D01*
X017459Y037410D01*
X017500Y037507D01*
X017574Y037581D01*
X017672Y037622D01*
X017777Y037622D01*
X017874Y037581D01*
X017949Y037507D01*
X017989Y037410D01*
X017989Y037304D01*
X017949Y037207D01*
X017874Y037132D01*
X017777Y037092D01*
X017724Y037092D01*
X017749Y037081D01*
X017824Y037007D01*
X017864Y036910D01*
X017864Y036804D01*
X017864Y036890D02*
X037393Y036890D01*
X037246Y036988D02*
X017832Y036988D01*
X017736Y037087D02*
X037147Y037087D01*
X037049Y037186D02*
X017928Y037186D01*
X017981Y037284D02*
X037004Y037284D01*
X036963Y037383D02*
X017989Y037383D01*
X017960Y037481D02*
X036922Y037481D01*
X036897Y037580D02*
X017876Y037580D01*
X017573Y037580D02*
X015099Y037580D01*
X015099Y037678D02*
X036897Y037678D01*
X036897Y037777D02*
X015099Y037777D01*
X015099Y037875D02*
X036897Y037875D01*
X036919Y037974D02*
X015099Y037974D01*
X015099Y038072D02*
X036960Y038072D01*
X037000Y038171D02*
X015099Y038171D01*
X015099Y038270D02*
X016055Y038270D01*
X016071Y038253D02*
X015996Y038329D01*
X015954Y038428D01*
X015954Y038536D01*
X015996Y038635D01*
X016071Y038711D01*
X016171Y038752D01*
X016278Y038752D01*
X016377Y038711D01*
X016453Y038635D01*
X016494Y038536D01*
X016494Y038428D01*
X016453Y038329D01*
X016377Y038253D01*
X016278Y038212D01*
X016171Y038212D01*
X016071Y038253D01*
X015979Y038368D02*
X015099Y038368D01*
X015099Y038467D02*
X015954Y038467D01*
X015967Y038565D02*
X015099Y038565D01*
X015099Y038664D02*
X016024Y038664D01*
X016424Y038664D02*
X016460Y038664D01*
X016454Y038678D02*
X016496Y038579D01*
X016571Y038503D01*
X016671Y038462D01*
X016778Y038462D01*
X016877Y038503D01*
X016953Y038579D01*
X016994Y038678D01*
X016994Y038786D01*
X016953Y038885D01*
X016877Y038961D01*
X016778Y039002D01*
X016671Y039002D01*
X016571Y038961D01*
X016496Y038885D01*
X016454Y038786D01*
X016454Y038678D01*
X016454Y038762D02*
X015099Y038762D01*
X015099Y038861D02*
X016486Y038861D01*
X016570Y038959D02*
X015099Y038959D01*
X015099Y039058D02*
X038099Y039058D01*
X038099Y039156D02*
X015099Y039156D01*
X016482Y038565D02*
X016509Y038565D01*
X016494Y038467D02*
X016659Y038467D01*
X016790Y038467D02*
X037237Y038467D01*
X037139Y038368D02*
X016470Y038368D01*
X016394Y038270D02*
X037041Y038270D01*
X037372Y038565D02*
X019057Y038565D01*
X019074Y038582D02*
X018999Y038507D01*
X018902Y038467D01*
X018797Y038467D01*
X018699Y038507D01*
X018625Y038582D01*
X018584Y038679D01*
X018584Y038785D01*
X018625Y038882D01*
X018699Y038956D01*
X018797Y038997D01*
X018902Y038997D01*
X018999Y038956D01*
X019074Y038882D01*
X019114Y038785D01*
X019114Y038679D01*
X019074Y038582D01*
X019108Y038664D02*
X037610Y038664D01*
X038088Y038664D02*
X038099Y038664D01*
X038099Y038762D02*
X019114Y038762D01*
X019083Y038861D02*
X038099Y038861D01*
X038099Y038959D02*
X018992Y038959D01*
X018706Y038959D02*
X016879Y038959D01*
X016963Y038861D02*
X018616Y038861D01*
X018584Y038762D02*
X016994Y038762D01*
X016988Y038664D02*
X018591Y038664D01*
X018641Y038565D02*
X016940Y038565D01*
X017489Y037481D02*
X015565Y037481D01*
X015527Y037497D02*
X015624Y037456D01*
X015699Y037382D01*
X015739Y037285D01*
X015739Y037179D01*
X015699Y037082D01*
X015624Y037007D01*
X015527Y036967D01*
X015422Y036967D01*
X015324Y037007D01*
X015250Y037082D01*
X015209Y037179D01*
X015209Y037285D01*
X015250Y037382D01*
X015324Y037456D01*
X015422Y037497D01*
X015527Y037497D01*
X015384Y037481D02*
X015099Y037481D01*
X015099Y037383D02*
X015251Y037383D01*
X015209Y037284D02*
X015099Y037284D01*
X015099Y037186D02*
X015209Y037186D01*
X015248Y037087D02*
X015099Y037087D01*
X015099Y036988D02*
X015369Y036988D01*
X015579Y036988D02*
X017367Y036988D01*
X017334Y036890D02*
X015099Y036890D01*
X015099Y036791D02*
X017340Y036791D01*
X017389Y036693D02*
X017263Y036693D01*
X017249Y036706D02*
X017324Y036632D01*
X017364Y036535D01*
X017364Y036429D01*
X017324Y036332D01*
X017249Y036257D01*
X017152Y036217D01*
X017047Y036217D01*
X016949Y036257D01*
X016875Y036332D01*
X016834Y036429D01*
X016834Y036535D01*
X016875Y036632D01*
X016949Y036706D01*
X017047Y036747D01*
X017152Y036747D01*
X017249Y036706D01*
X017340Y036594D02*
X017541Y036594D01*
X017658Y036594D02*
X017834Y036594D01*
X017848Y036693D02*
X017810Y036693D01*
X017859Y036496D02*
X017364Y036496D01*
X017351Y036397D02*
X017934Y036397D01*
X017291Y036299D02*
X026365Y036299D01*
X026325Y036200D02*
X016728Y036200D01*
X016744Y036161D02*
X016703Y036260D01*
X016627Y036336D01*
X016528Y036377D01*
X016421Y036377D01*
X016321Y036336D01*
X016246Y036260D01*
X016204Y036161D01*
X016204Y036053D01*
X016246Y035954D01*
X016321Y035878D01*
X016421Y035837D01*
X016528Y035837D01*
X016627Y035878D01*
X016703Y035954D01*
X016744Y036053D01*
X016744Y036161D01*
X016744Y036102D02*
X026319Y036102D01*
X026329Y036003D02*
X016724Y036003D01*
X016654Y035904D02*
X026370Y035904D01*
X026452Y035806D02*
X015099Y035806D01*
X015099Y035904D02*
X015302Y035904D01*
X015324Y035882D02*
X015250Y035957D01*
X015209Y036054D01*
X015209Y036160D01*
X015250Y036257D01*
X015324Y036331D01*
X015422Y036372D01*
X015527Y036372D01*
X015624Y036331D01*
X015699Y036257D01*
X015739Y036160D01*
X015739Y036054D01*
X015699Y035957D01*
X015624Y035882D01*
X015527Y035842D01*
X015422Y035842D01*
X015324Y035882D01*
X015231Y036003D02*
X015099Y036003D01*
X015099Y036102D02*
X015209Y036102D01*
X015226Y036200D02*
X015099Y036200D01*
X015099Y036299D02*
X015292Y036299D01*
X015099Y036397D02*
X016848Y036397D01*
X016834Y036496D02*
X015099Y036496D01*
X015099Y036594D02*
X016859Y036594D01*
X016936Y036693D02*
X015099Y036693D01*
X015657Y036299D02*
X016284Y036299D01*
X016221Y036200D02*
X015723Y036200D01*
X015739Y036102D02*
X016204Y036102D01*
X016225Y036003D02*
X015718Y036003D01*
X015647Y035904D02*
X016295Y035904D01*
X016664Y036299D02*
X016908Y036299D01*
X017463Y037087D02*
X015701Y037087D01*
X015739Y037186D02*
X017521Y037186D01*
X017468Y037284D02*
X015739Y037284D01*
X015698Y037383D02*
X017459Y037383D01*
X015624Y035331D02*
X015699Y035257D01*
X015739Y035160D01*
X015739Y035054D01*
X015699Y034957D01*
X015624Y034882D01*
X015527Y034842D01*
X015422Y034842D01*
X015324Y034882D01*
X015250Y034957D01*
X015209Y035054D01*
X015209Y035160D01*
X015250Y035257D01*
X015324Y035331D01*
X015422Y035372D01*
X015527Y035372D01*
X015624Y035331D01*
X015643Y035313D02*
X023459Y035313D01*
X023460Y035412D02*
X015099Y035412D01*
X015099Y035510D02*
X023503Y035510D01*
X023496Y035215D02*
X019605Y035215D01*
X019706Y035116D02*
X023613Y035116D01*
X023836Y035116D02*
X026319Y035116D01*
X026323Y035018D02*
X019739Y035018D01*
X019735Y034919D02*
X026364Y034919D01*
X026438Y034821D02*
X019688Y034821D01*
X019261Y034821D02*
X017364Y034821D01*
X017360Y034919D02*
X019214Y034919D01*
X019209Y035018D02*
X017313Y035018D01*
X017166Y035116D02*
X019243Y035116D01*
X019344Y035215D02*
X015716Y035215D01*
X015739Y035116D02*
X017033Y035116D01*
X016885Y035018D02*
X015724Y035018D01*
X015661Y034919D02*
X016838Y034919D01*
X016834Y034821D02*
X015099Y034821D01*
X015099Y034919D02*
X015287Y034919D01*
X015225Y035018D02*
X015099Y035018D01*
X015099Y035116D02*
X015209Y035116D01*
X015232Y035215D02*
X015099Y035215D01*
X015099Y035313D02*
X015306Y035313D01*
X015099Y034722D02*
X016868Y034722D01*
X016970Y034623D02*
X015099Y034623D01*
X017903Y032850D02*
X018546Y032850D01*
X018457Y032948D02*
X017992Y032948D01*
X018032Y033047D02*
X018416Y033047D01*
X018416Y033145D02*
X018032Y033145D01*
X018001Y033244D02*
X018448Y033244D01*
X018524Y033342D02*
X017925Y033342D01*
X017910Y032357D02*
X018539Y032357D01*
X018454Y032258D02*
X017995Y032258D01*
X018032Y032160D02*
X018416Y032160D01*
X018416Y032061D02*
X018032Y032061D01*
X017998Y031963D02*
X018451Y031963D01*
X018531Y031864D02*
X017918Y031864D01*
X018918Y031864D02*
X022868Y031864D01*
X022747Y031963D02*
X018998Y031963D01*
X019032Y032061D02*
X022709Y032061D01*
X022709Y032160D02*
X022750Y032257D01*
X022886Y032357D02*
X018910Y032357D01*
X021890Y033441D02*
X026486Y033441D01*
X026387Y033342D02*
X021965Y033342D01*
X021989Y033244D02*
X026343Y033244D01*
X026319Y033145D02*
X021975Y033145D01*
X022099Y031107D02*
X022099Y027107D01*
X020974Y026107D01*
X019599Y026107D01*
X019474Y026232D01*
X019224Y026232D01*
X019099Y026107D01*
X004474Y026107D01*
X003849Y026732D01*
X003849Y033732D01*
X003599Y033982D01*
X003349Y033982D01*
X002849Y034482D01*
X003349Y033482D02*
X002974Y033107D01*
X002974Y026357D01*
X003474Y025857D01*
X021849Y025857D01*
X022974Y026732D01*
X024099Y026732D01*
X022259Y028809D02*
X030889Y028809D01*
X030815Y028908D02*
X022259Y028908D01*
X022259Y029006D02*
X030784Y029006D01*
X030784Y029105D02*
X022259Y029105D01*
X022259Y029204D02*
X030824Y029204D01*
X030912Y029302D02*
X022259Y029302D01*
X022259Y029401D02*
X030860Y029401D01*
X030803Y029499D02*
X022259Y029499D01*
X022259Y029598D02*
X030784Y029598D01*
X030796Y029696D02*
X022259Y029696D01*
X021152Y024372D02*
X021249Y024331D01*
X021324Y024257D01*
X021364Y024160D01*
X021364Y024054D01*
X021324Y023957D01*
X021249Y023882D01*
X021152Y023842D01*
X021047Y023842D01*
X020949Y023882D01*
X018970Y023882D01*
X018989Y023929D02*
X018949Y023832D01*
X018874Y023757D01*
X018777Y023717D01*
X018672Y023717D01*
X018574Y023757D01*
X018500Y023832D01*
X018459Y023929D01*
X018459Y024035D01*
X018500Y024132D01*
X018574Y024206D01*
X018672Y024247D01*
X018777Y024247D01*
X018874Y024206D01*
X018949Y024132D01*
X018989Y024035D01*
X018989Y023929D01*
X018989Y023981D02*
X020865Y023981D01*
X020875Y023957D02*
X020834Y024054D01*
X020834Y024160D01*
X020875Y024257D01*
X020949Y024331D01*
X021047Y024372D01*
X021152Y024372D01*
X021305Y024276D02*
X025144Y024276D01*
X025125Y024257D02*
X025199Y024331D01*
X025297Y024372D01*
X025402Y024372D01*
X025499Y024331D01*
X025574Y024257D01*
X025614Y024160D01*
X025614Y024054D01*
X025574Y023957D01*
X025499Y023882D01*
X025402Y023842D01*
X025297Y023842D01*
X025199Y023882D01*
X021250Y023882D01*
X021334Y023981D02*
X025115Y023981D01*
X025125Y023957D02*
X025084Y024054D01*
X025084Y024160D01*
X025125Y024257D01*
X025092Y024178D02*
X021357Y024178D01*
X021364Y024079D02*
X025084Y024079D01*
X025125Y023957D02*
X025199Y023882D01*
X025500Y023882D02*
X034349Y023882D01*
X034349Y023784D02*
X018901Y023784D01*
X018971Y024079D02*
X020834Y024079D01*
X020842Y024178D02*
X018903Y024178D01*
X018546Y024178D02*
X005349Y024178D01*
X005349Y024276D02*
X020894Y024276D01*
X020875Y023957D02*
X020949Y023882D01*
X019999Y022581D02*
X020074Y022507D01*
X020114Y022410D01*
X020114Y022304D01*
X020074Y022207D01*
X034349Y022207D01*
X034349Y022306D02*
X020114Y022306D01*
X020114Y022404D02*
X034349Y022404D01*
X034349Y022503D02*
X025681Y022503D01*
X025649Y022471D02*
X025536Y022424D01*
X025413Y022424D01*
X025300Y022471D01*
X025213Y022557D01*
X025166Y022671D01*
X025166Y022793D01*
X025213Y022906D01*
X025300Y022993D01*
X025413Y023040D01*
X025536Y023040D01*
X025649Y022993D01*
X025736Y022906D01*
X025782Y022793D01*
X025782Y022671D01*
X025736Y022557D01*
X025649Y022471D01*
X025754Y022601D02*
X034349Y022601D01*
X034349Y022700D02*
X025782Y022700D01*
X025780Y022798D02*
X034349Y022798D01*
X034349Y022897D02*
X025740Y022897D01*
X025643Y022995D02*
X034349Y022995D01*
X034349Y023094D02*
X005349Y023094D01*
X005349Y023192D02*
X034349Y023192D01*
X034349Y023291D02*
X005349Y023291D01*
X005349Y023389D02*
X034349Y023389D01*
X034349Y023488D02*
X005349Y023488D01*
X005349Y023587D02*
X034349Y023587D01*
X034349Y023685D02*
X005349Y023685D01*
X005349Y023784D02*
X018548Y023784D01*
X018479Y023882D02*
X005349Y023882D01*
X005349Y023981D02*
X018459Y023981D01*
X018478Y024079D02*
X005349Y024079D01*
X005349Y024375D02*
X034349Y024375D01*
X034349Y024473D02*
X005349Y024473D01*
X005349Y024482D02*
X005349Y008357D01*
X034349Y008357D01*
X034349Y010287D01*
X034336Y010281D01*
X034057Y010281D01*
X033800Y010388D01*
X033603Y010585D01*
X033496Y010842D01*
X033496Y011121D01*
X033603Y011379D01*
X033800Y011576D01*
X034057Y011682D01*
X034336Y011682D01*
X034349Y011677D01*
X034349Y015787D01*
X034336Y015781D01*
X034057Y015781D01*
X033800Y015888D01*
X033603Y016085D01*
X033496Y016342D01*
X033496Y016621D01*
X033603Y016879D01*
X033800Y017076D01*
X034057Y017182D01*
X034336Y017182D01*
X034349Y017177D01*
X034349Y024482D01*
X005349Y024482D01*
X005349Y022995D02*
X016055Y022995D01*
X016050Y022993D02*
X016163Y023040D01*
X016286Y023040D01*
X016399Y022993D01*
X016486Y022906D01*
X016532Y022793D01*
X016532Y022671D01*
X016486Y022557D01*
X016399Y022471D01*
X016286Y022424D01*
X016163Y022424D01*
X016050Y022471D01*
X015963Y022557D01*
X015916Y022671D01*
X015916Y022793D01*
X015963Y022906D01*
X016050Y022993D01*
X015959Y022897D02*
X005349Y022897D01*
X005349Y022798D02*
X015918Y022798D01*
X015916Y022700D02*
X005349Y022700D01*
X005349Y022601D02*
X015945Y022601D01*
X016018Y022503D02*
X005349Y022503D01*
X005349Y022404D02*
X019584Y022404D01*
X019584Y022410D02*
X019625Y022507D01*
X019699Y022581D01*
X019797Y022622D01*
X019902Y022622D01*
X019999Y022581D01*
X019952Y022601D02*
X025195Y022601D01*
X025166Y022700D02*
X016532Y022700D01*
X016530Y022798D02*
X025168Y022798D01*
X025209Y022897D02*
X016490Y022897D01*
X016393Y022995D02*
X025305Y022995D01*
X025268Y022503D02*
X020076Y022503D01*
X020074Y022207D02*
X019999Y022132D01*
X019902Y022092D01*
X019797Y022092D01*
X019699Y022132D01*
X019625Y022207D01*
X005349Y022207D01*
X005349Y022306D02*
X019584Y022306D01*
X019584Y022304D02*
X019625Y022207D01*
X019584Y022304D02*
X019584Y022410D01*
X019623Y022503D02*
X016431Y022503D01*
X016504Y022601D02*
X019747Y022601D01*
X019757Y022108D02*
X005349Y022108D01*
X005349Y022010D02*
X034349Y022010D01*
X034349Y022108D02*
X019942Y022108D01*
X017999Y017706D02*
X018074Y017632D01*
X018114Y017535D01*
X018114Y017429D01*
X018074Y017332D01*
X017999Y017257D01*
X017902Y017217D01*
X017797Y017217D01*
X017699Y017257D01*
X017625Y017332D01*
X017584Y017429D01*
X017584Y017535D01*
X017625Y017632D01*
X017699Y017706D01*
X017797Y017747D01*
X017902Y017747D01*
X017999Y017706D01*
X018032Y017674D02*
X028215Y017674D01*
X028209Y017660D02*
X028250Y017757D01*
X028324Y017831D01*
X028422Y017872D01*
X028527Y017872D01*
X028624Y017831D01*
X028699Y017757D01*
X028739Y017660D01*
X028739Y017554D01*
X028699Y017457D01*
X028624Y017382D01*
X028527Y017342D01*
X028422Y017342D01*
X028324Y017382D01*
X028250Y017457D01*
X028209Y017554D01*
X028209Y017660D01*
X028209Y017575D02*
X028130Y017575D01*
X028124Y017581D02*
X028199Y017507D01*
X028239Y017410D01*
X028239Y017304D01*
X028199Y017207D01*
X028124Y017132D01*
X028027Y017092D01*
X027922Y017092D01*
X027824Y017132D01*
X027750Y017207D01*
X027709Y017304D01*
X027709Y017410D01*
X027750Y017507D01*
X027824Y017581D01*
X027922Y017622D01*
X028027Y017622D01*
X028124Y017581D01*
X028211Y017477D02*
X028241Y017477D01*
X028239Y017378D02*
X028334Y017378D01*
X028229Y017280D02*
X034349Y017280D01*
X034349Y017378D02*
X028615Y017378D01*
X028707Y017477D02*
X034349Y017477D01*
X034349Y017575D02*
X028739Y017575D01*
X028733Y017674D02*
X034349Y017674D01*
X034349Y017773D02*
X028683Y017773D01*
X028529Y017871D02*
X034349Y017871D01*
X034349Y017970D02*
X013468Y017970D01*
X013499Y017956D02*
X013574Y017882D01*
X013614Y017785D01*
X013614Y017679D01*
X013574Y017582D01*
X013499Y017507D01*
X013438Y017482D01*
X013499Y017456D01*
X013574Y017382D01*
X013614Y017285D01*
X013614Y017179D01*
X013574Y017082D01*
X013499Y017007D01*
X013438Y016982D01*
X013499Y016956D01*
X013574Y016882D01*
X013614Y016785D01*
X013614Y016679D01*
X013574Y016582D01*
X013499Y016507D01*
X013402Y016467D01*
X013297Y016467D01*
X013199Y016507D01*
X013125Y016582D01*
X013084Y016679D01*
X013084Y016785D01*
X013125Y016882D01*
X013199Y016956D01*
X013261Y016982D01*
X013199Y017007D01*
X013125Y017082D01*
X013084Y017179D01*
X013084Y017285D01*
X013125Y017382D01*
X013199Y017456D01*
X013261Y017482D01*
X013199Y017507D01*
X013125Y017582D01*
X013084Y017679D01*
X013084Y017785D01*
X013125Y017882D01*
X013199Y017956D01*
X013297Y017997D01*
X013402Y017997D01*
X013499Y017956D01*
X013578Y017871D02*
X028420Y017871D01*
X028265Y017773D02*
X013614Y017773D01*
X013612Y017674D02*
X017667Y017674D01*
X017601Y017575D02*
X013568Y017575D01*
X013450Y017477D02*
X017584Y017477D01*
X017605Y017378D02*
X013575Y017378D01*
X013614Y017280D02*
X017677Y017280D01*
X018022Y017280D02*
X022844Y017280D01*
X022834Y017304D02*
X022875Y017207D01*
X022949Y017132D01*
X023047Y017092D01*
X023152Y017092D01*
X023249Y017132D01*
X023324Y017207D01*
X023364Y017304D01*
X023364Y017410D01*
X023324Y017507D01*
X023249Y017581D01*
X023152Y017622D01*
X023047Y017622D01*
X022949Y017581D01*
X022875Y017507D01*
X022834Y017410D01*
X022834Y017304D01*
X022834Y017378D02*
X018093Y017378D01*
X018114Y017477D02*
X022862Y017477D01*
X022943Y017575D02*
X018097Y017575D01*
X017374Y015831D02*
X017449Y015757D01*
X017489Y015660D01*
X017489Y015554D01*
X017449Y015457D01*
X017374Y015382D01*
X017277Y015342D01*
X017172Y015342D01*
X017074Y015382D01*
X017000Y015457D01*
X016959Y015554D01*
X016959Y015660D01*
X017000Y015757D01*
X017074Y015831D01*
X017172Y015872D01*
X017277Y015872D01*
X017374Y015831D01*
X017404Y015802D02*
X019670Y015802D01*
X019699Y015831D02*
X019797Y015872D01*
X019902Y015872D01*
X019999Y015831D01*
X020074Y015757D01*
X020114Y015660D01*
X020114Y015554D01*
X020074Y015457D01*
X019999Y015382D01*
X019902Y015342D01*
X019797Y015342D01*
X019699Y015382D01*
X019625Y015457D01*
X019584Y015554D01*
X019584Y015660D01*
X019625Y015757D01*
X019699Y015831D01*
X019602Y015703D02*
X017471Y015703D01*
X017489Y015605D02*
X019584Y015605D01*
X019604Y015506D02*
X017469Y015506D01*
X017400Y015407D02*
X019674Y015407D01*
X020025Y015407D02*
X023424Y015407D01*
X023449Y015382D02*
X023375Y015457D01*
X023334Y015554D01*
X023334Y015660D01*
X023375Y015757D01*
X023449Y015831D01*
X023547Y015872D01*
X023652Y015872D01*
X023749Y015831D01*
X023824Y015757D01*
X023864Y015660D01*
X023864Y015554D01*
X023824Y015457D01*
X023749Y015382D01*
X023688Y015357D01*
X023749Y015331D01*
X023824Y015257D01*
X023864Y015160D01*
X023864Y015054D01*
X023824Y014957D01*
X023749Y014882D01*
X023652Y014842D01*
X023547Y014842D01*
X023449Y014882D01*
X023375Y014957D01*
X023334Y015054D01*
X023334Y015160D01*
X023375Y015257D01*
X023449Y015331D01*
X023511Y015357D01*
X023449Y015382D01*
X023427Y015309D02*
X005349Y015309D01*
X005349Y015407D02*
X017049Y015407D01*
X016979Y015506D02*
X005349Y015506D01*
X005349Y015605D02*
X016959Y015605D01*
X016977Y015703D02*
X005349Y015703D01*
X005349Y015802D02*
X017045Y015802D01*
X017672Y013872D02*
X017777Y013872D01*
X017874Y013831D01*
X017949Y013757D01*
X017989Y013660D01*
X017989Y013554D01*
X017949Y013457D01*
X017874Y013382D01*
X017777Y013342D01*
X017672Y013342D01*
X017574Y013382D01*
X017500Y013457D01*
X017459Y013554D01*
X017459Y013660D01*
X017500Y013757D01*
X017574Y013831D01*
X005349Y013831D01*
X005349Y013929D02*
X034349Y013929D01*
X034349Y013831D02*
X017875Y013831D01*
X017959Y013732D02*
X034349Y013732D01*
X034349Y013634D02*
X017989Y013634D01*
X017982Y013535D02*
X034349Y013535D01*
X034349Y013437D02*
X017929Y013437D01*
X017672Y013872D02*
X017574Y013831D01*
X017490Y013732D02*
X005349Y013732D01*
X005349Y013634D02*
X017459Y013634D01*
X017467Y013535D02*
X005349Y013535D01*
X005349Y013437D02*
X017520Y013437D01*
X020094Y015506D02*
X023354Y015506D01*
X023334Y015605D02*
X020114Y015605D01*
X020096Y015703D02*
X023352Y015703D01*
X023420Y015802D02*
X020029Y015802D01*
X022900Y017181D02*
X013614Y017181D01*
X013574Y017083D02*
X033817Y017083D01*
X033709Y016984D02*
X013444Y016984D01*
X013570Y016886D02*
X033610Y016886D01*
X033565Y016787D02*
X013613Y016787D01*
X013614Y016689D02*
X033524Y016689D01*
X033496Y016590D02*
X013577Y016590D01*
X013462Y016491D02*
X033496Y016491D01*
X033496Y016393D02*
X005349Y016393D01*
X005349Y016491D02*
X006737Y016491D01*
X006699Y016507D02*
X006625Y016582D01*
X006584Y016679D01*
X006584Y016785D01*
X006625Y016882D01*
X006699Y016956D01*
X006761Y016982D01*
X006699Y017007D01*
X006625Y017082D01*
X006584Y017179D01*
X006584Y017285D01*
X006625Y017382D01*
X006699Y017456D01*
X006761Y017482D01*
X006699Y017507D01*
X006625Y017582D01*
X006584Y017679D01*
X006584Y017785D01*
X006625Y017882D01*
X006699Y017956D01*
X006797Y017997D01*
X006902Y017997D01*
X006999Y017956D01*
X007074Y017882D01*
X007114Y017785D01*
X007114Y017679D01*
X007074Y017582D01*
X006999Y017507D01*
X006938Y017482D01*
X006999Y017456D01*
X007074Y017382D01*
X007114Y017285D01*
X007114Y017179D01*
X007074Y017082D01*
X006999Y017007D01*
X006938Y016982D01*
X006999Y016956D01*
X007074Y016882D01*
X007114Y016785D01*
X007114Y016679D01*
X007074Y016582D01*
X006999Y016507D01*
X006902Y016467D01*
X006797Y016467D01*
X006699Y016507D01*
X006621Y016590D02*
X005349Y016590D01*
X005349Y016689D02*
X006584Y016689D01*
X006585Y016787D02*
X005349Y016787D01*
X005349Y016886D02*
X006629Y016886D01*
X006755Y016984D02*
X005349Y016984D01*
X005349Y017083D02*
X006624Y017083D01*
X006584Y017181D02*
X005349Y017181D01*
X005349Y017280D02*
X006584Y017280D01*
X006623Y017378D02*
X005349Y017378D01*
X005349Y017477D02*
X006749Y017477D01*
X006631Y017575D02*
X005349Y017575D01*
X005349Y017674D02*
X006587Y017674D01*
X006584Y017773D02*
X005349Y017773D01*
X005349Y017871D02*
X006620Y017871D01*
X006731Y017970D02*
X005349Y017970D01*
X005349Y018068D02*
X034349Y018068D01*
X034349Y018167D02*
X005349Y018167D01*
X005349Y018265D02*
X034349Y018265D01*
X034349Y018364D02*
X028955Y018364D01*
X028999Y018382D02*
X028902Y018342D01*
X028797Y018342D01*
X028699Y018382D01*
X028625Y018457D01*
X028584Y018554D01*
X028584Y018660D01*
X028625Y018757D01*
X028699Y018831D01*
X028797Y018872D01*
X028902Y018872D01*
X028999Y018831D01*
X029074Y018757D01*
X029114Y018660D01*
X029114Y018554D01*
X029074Y018457D01*
X028999Y018382D01*
X029076Y018462D02*
X034349Y018462D01*
X034349Y018561D02*
X029114Y018561D01*
X029114Y018659D02*
X034349Y018659D01*
X034349Y018758D02*
X029073Y018758D01*
X028939Y018856D02*
X034349Y018856D01*
X034349Y018955D02*
X005349Y018955D01*
X005349Y018856D02*
X028760Y018856D01*
X028626Y018758D02*
X005349Y018758D01*
X005349Y018659D02*
X028584Y018659D01*
X028584Y018561D02*
X005349Y018561D01*
X005349Y018462D02*
X028622Y018462D01*
X028744Y018364D02*
X005349Y018364D01*
X005349Y019054D02*
X034349Y019054D01*
X034349Y019152D02*
X032019Y019152D01*
X031999Y019132D02*
X031902Y019092D01*
X031797Y019092D01*
X031699Y019132D01*
X031625Y019207D01*
X031584Y019304D01*
X031584Y019410D01*
X031625Y019507D01*
X031699Y019581D01*
X031797Y019622D01*
X031902Y019622D01*
X031999Y019581D01*
X032074Y019507D01*
X032114Y019410D01*
X032114Y019304D01*
X032074Y019207D01*
X031999Y019132D01*
X032092Y019251D02*
X034349Y019251D01*
X034349Y019349D02*
X032114Y019349D01*
X032099Y019448D02*
X034349Y019448D01*
X034349Y019546D02*
X032035Y019546D01*
X031664Y019546D02*
X029486Y019546D01*
X029489Y019554D02*
X029449Y019457D01*
X029374Y019382D01*
X029277Y019342D01*
X029172Y019342D01*
X029074Y019382D01*
X029000Y019457D01*
X028959Y019554D01*
X028959Y019660D01*
X029000Y019757D01*
X029074Y019831D01*
X029172Y019872D01*
X029277Y019872D01*
X029374Y019831D01*
X029449Y019757D01*
X029489Y019660D01*
X029489Y019554D01*
X029489Y019645D02*
X034349Y019645D01*
X034349Y019743D02*
X029455Y019743D01*
X029349Y019842D02*
X034349Y019842D01*
X034349Y019940D02*
X028390Y019940D01*
X028374Y019956D02*
X028449Y019882D01*
X028489Y019785D01*
X028489Y019679D01*
X028449Y019582D01*
X028374Y019507D01*
X028277Y019467D01*
X028172Y019467D01*
X028074Y019507D01*
X028000Y019582D01*
X027959Y019679D01*
X027959Y019785D01*
X028000Y019882D01*
X028074Y019956D01*
X028172Y019997D01*
X028277Y019997D01*
X028374Y019956D01*
X028466Y019842D02*
X029100Y019842D01*
X028994Y019743D02*
X028489Y019743D01*
X028475Y019645D02*
X028959Y019645D01*
X028963Y019546D02*
X028414Y019546D01*
X028035Y019546D02*
X011539Y019546D01*
X011574Y019582D02*
X011499Y019507D01*
X011402Y019467D01*
X011297Y019467D01*
X011199Y019507D01*
X011125Y019582D01*
X011084Y019679D01*
X011084Y019718D01*
X010913Y019846D01*
X010902Y019842D01*
X010797Y019842D01*
X010699Y019882D01*
X010625Y019957D01*
X010584Y020054D01*
X010584Y020160D01*
X010625Y020257D01*
X010699Y020331D01*
X010797Y020372D01*
X010902Y020372D01*
X010999Y020331D01*
X011074Y020257D01*
X011114Y020160D01*
X011114Y020121D01*
X011286Y019992D01*
X011297Y019997D01*
X011402Y019997D01*
X011499Y019956D01*
X011574Y019882D01*
X011614Y019785D01*
X011614Y019679D01*
X011574Y019582D01*
X011600Y019645D02*
X027974Y019645D01*
X027959Y019743D02*
X011614Y019743D01*
X011591Y019842D02*
X027983Y019842D01*
X028058Y019940D02*
X011515Y019940D01*
X011223Y020039D02*
X034349Y020039D01*
X034349Y020138D02*
X026755Y020138D01*
X026749Y020132D02*
X026652Y020092D01*
X026547Y020092D01*
X026449Y020132D01*
X026375Y020207D01*
X026334Y020304D01*
X026334Y020410D01*
X026375Y020507D01*
X026449Y020581D01*
X026547Y020622D01*
X026652Y020622D01*
X026749Y020581D01*
X026824Y020507D01*
X026864Y020410D01*
X026864Y020304D01*
X026824Y020207D01*
X026749Y020132D01*
X026836Y020236D02*
X034349Y020236D01*
X034349Y020335D02*
X026864Y020335D01*
X026855Y020433D02*
X034349Y020433D01*
X034349Y020532D02*
X026799Y020532D01*
X026400Y020532D02*
X005349Y020532D01*
X005349Y020630D02*
X034349Y020630D01*
X034349Y020729D02*
X005349Y020729D01*
X005349Y020827D02*
X034349Y020827D01*
X034349Y020926D02*
X005349Y020926D01*
X005349Y021024D02*
X034349Y021024D01*
X034349Y021123D02*
X005349Y021123D01*
X005349Y021222D02*
X034349Y021222D01*
X034349Y021320D02*
X005349Y021320D01*
X005349Y021419D02*
X034349Y021419D01*
X034349Y021517D02*
X005349Y021517D01*
X005349Y021616D02*
X034349Y021616D01*
X034349Y021714D02*
X005349Y021714D01*
X005349Y021813D02*
X034349Y021813D01*
X034349Y021911D02*
X005349Y021911D01*
X005349Y020433D02*
X026344Y020433D01*
X026334Y020335D02*
X010992Y020335D01*
X011083Y020236D02*
X026363Y020236D01*
X026444Y020138D02*
X011114Y020138D01*
X010919Y019842D02*
X010902Y019842D01*
X010796Y019842D02*
X005349Y019842D01*
X005349Y019940D02*
X010641Y019940D01*
X010591Y020039D02*
X005349Y020039D01*
X005349Y020138D02*
X010584Y020138D01*
X010616Y020236D02*
X005349Y020236D01*
X005349Y020335D02*
X010707Y020335D01*
X011051Y019743D02*
X005349Y019743D01*
X005349Y019645D02*
X011099Y019645D01*
X011160Y019546D02*
X005349Y019546D01*
X005349Y019448D02*
X029009Y019448D01*
X029154Y019349D02*
X005349Y019349D01*
X005349Y019251D02*
X031607Y019251D01*
X031584Y019349D02*
X029295Y019349D01*
X029440Y019448D02*
X031600Y019448D01*
X031679Y019152D02*
X005349Y019152D01*
X006968Y017970D02*
X013231Y017970D01*
X013120Y017871D02*
X007078Y017871D01*
X007114Y017773D02*
X013084Y017773D01*
X013087Y017674D02*
X007112Y017674D01*
X007068Y017575D02*
X013131Y017575D01*
X013249Y017477D02*
X010575Y017477D01*
X010527Y017497D02*
X010624Y017456D01*
X010699Y017382D01*
X010739Y017285D01*
X010739Y017179D01*
X010699Y017082D01*
X010624Y017007D01*
X010527Y016967D01*
X010422Y016967D01*
X010324Y017007D01*
X010250Y017082D01*
X010209Y017179D01*
X010209Y017285D01*
X010250Y017382D01*
X010324Y017456D01*
X010422Y017497D01*
X010527Y017497D01*
X010374Y017477D02*
X006950Y017477D01*
X007075Y017378D02*
X010248Y017378D01*
X010209Y017280D02*
X007114Y017280D01*
X007114Y017181D02*
X010209Y017181D01*
X010249Y017083D02*
X007074Y017083D01*
X006944Y016984D02*
X010380Y016984D01*
X010569Y016984D02*
X013255Y016984D01*
X013129Y016886D02*
X007070Y016886D01*
X007113Y016787D02*
X013085Y016787D01*
X013084Y016689D02*
X007114Y016689D01*
X007077Y016590D02*
X013121Y016590D01*
X013237Y016491D02*
X006962Y016491D01*
X005349Y016294D02*
X024287Y016294D01*
X024250Y016257D02*
X024324Y016331D01*
X024422Y016372D01*
X024527Y016372D01*
X024624Y016331D01*
X024699Y016257D01*
X024739Y016160D01*
X024739Y016054D01*
X024699Y015957D01*
X024624Y015882D01*
X024527Y015842D01*
X024422Y015842D01*
X024324Y015882D01*
X024250Y015957D01*
X024209Y016054D01*
X024209Y016160D01*
X024250Y016257D01*
X024224Y016196D02*
X005349Y016196D01*
X005349Y016097D02*
X024209Y016097D01*
X024232Y015999D02*
X005349Y015999D01*
X005349Y015900D02*
X024306Y015900D01*
X024643Y015900D02*
X025806Y015900D01*
X025824Y015882D02*
X025750Y015957D01*
X025709Y016054D01*
X025709Y016160D01*
X025750Y016257D01*
X025824Y016331D01*
X025922Y016372D01*
X026027Y016372D01*
X026124Y016331D01*
X026199Y016257D01*
X026239Y016160D01*
X026239Y016054D01*
X026199Y015957D01*
X026124Y015882D01*
X026027Y015842D01*
X025922Y015842D01*
X025824Y015882D01*
X025732Y015999D02*
X024716Y015999D01*
X024739Y016097D02*
X025709Y016097D01*
X025724Y016196D02*
X024724Y016196D01*
X024662Y016294D02*
X025787Y016294D01*
X026162Y016294D02*
X027412Y016294D01*
X027375Y016257D02*
X027449Y016331D01*
X027547Y016372D01*
X027652Y016372D01*
X027749Y016331D01*
X027824Y016257D01*
X027864Y016160D01*
X027864Y016054D01*
X027824Y015957D01*
X027749Y015882D01*
X027652Y015842D01*
X027547Y015842D01*
X027449Y015882D01*
X027375Y015957D01*
X027334Y016054D01*
X027334Y016160D01*
X027375Y016257D01*
X027349Y016196D02*
X026224Y016196D01*
X026239Y016097D02*
X027334Y016097D01*
X027357Y015999D02*
X026216Y015999D01*
X026143Y015900D02*
X027431Y015900D01*
X027768Y015900D02*
X033788Y015900D01*
X033689Y015999D02*
X027841Y015999D01*
X027864Y016097D02*
X033598Y016097D01*
X033557Y016196D02*
X027849Y016196D01*
X027787Y016294D02*
X033516Y016294D01*
X034008Y015802D02*
X023779Y015802D01*
X023846Y015703D02*
X034349Y015703D01*
X034349Y015605D02*
X023864Y015605D01*
X023844Y015506D02*
X034349Y015506D01*
X034349Y015407D02*
X023775Y015407D01*
X023772Y015309D02*
X034349Y015309D01*
X034349Y015210D02*
X023843Y015210D01*
X023864Y015112D02*
X034349Y015112D01*
X034349Y015013D02*
X023848Y015013D01*
X023782Y014915D02*
X034349Y014915D01*
X034349Y014816D02*
X005349Y014816D01*
X005349Y014718D02*
X034349Y014718D01*
X034349Y014619D02*
X005349Y014619D01*
X005349Y014521D02*
X034349Y014521D01*
X034349Y014422D02*
X005349Y014422D01*
X005349Y014324D02*
X034349Y014324D01*
X034349Y014225D02*
X005349Y014225D01*
X005349Y014126D02*
X034349Y014126D01*
X034349Y014028D02*
X005349Y014028D01*
X005349Y013338D02*
X034349Y013338D01*
X034349Y013240D02*
X005349Y013240D01*
X005349Y013141D02*
X034349Y013141D01*
X034349Y013042D02*
X005349Y013042D01*
X005349Y012944D02*
X034349Y012944D01*
X034349Y012845D02*
X005349Y012845D01*
X005349Y012747D02*
X034349Y012747D01*
X034349Y012648D02*
X005349Y012648D01*
X005349Y012550D02*
X034349Y012550D01*
X034349Y012451D02*
X005349Y012451D01*
X005349Y012353D02*
X034349Y012353D01*
X034349Y012254D02*
X005349Y012254D01*
X005349Y012156D02*
X034349Y012156D01*
X034349Y012057D02*
X005349Y012057D01*
X005349Y011958D02*
X034349Y011958D01*
X034349Y011860D02*
X005349Y011860D01*
X005349Y011761D02*
X034349Y011761D01*
X034010Y011663D02*
X005349Y011663D01*
X005349Y011564D02*
X033789Y011564D01*
X033690Y011466D02*
X005349Y011466D01*
X005349Y011367D02*
X033598Y011367D01*
X033557Y011269D02*
X005349Y011269D01*
X005349Y011170D02*
X033517Y011170D01*
X033496Y011072D02*
X005349Y011072D01*
X005349Y010973D02*
X033496Y010973D01*
X033496Y010874D02*
X005349Y010874D01*
X005349Y010776D02*
X033524Y010776D01*
X033565Y010677D02*
X005349Y010677D01*
X005349Y010579D02*
X033609Y010579D01*
X033708Y010480D02*
X005349Y010480D01*
X005349Y010382D02*
X033815Y010382D01*
X034053Y010283D02*
X005349Y010283D01*
X005349Y010185D02*
X034349Y010185D01*
X034349Y010283D02*
X034341Y010283D01*
X034349Y010086D02*
X005349Y010086D01*
X005349Y009988D02*
X034349Y009988D01*
X034349Y009889D02*
X005349Y009889D01*
X005349Y009791D02*
X034349Y009791D01*
X034349Y009692D02*
X005349Y009692D01*
X005349Y009593D02*
X034349Y009593D01*
X034349Y009495D02*
X005349Y009495D01*
X005349Y009396D02*
X034349Y009396D01*
X034349Y009298D02*
X005349Y009298D01*
X005349Y009199D02*
X034349Y009199D01*
X034349Y009101D02*
X005349Y009101D01*
X005349Y009002D02*
X034349Y009002D01*
X034349Y008904D02*
X005349Y008904D01*
X005349Y008805D02*
X034349Y008805D01*
X034349Y008707D02*
X005349Y008707D01*
X005349Y008608D02*
X034349Y008608D01*
X034349Y008509D02*
X005349Y008509D01*
X005349Y008411D02*
X034349Y008411D01*
X034349Y017181D02*
X034339Y017181D01*
X034055Y017181D02*
X028174Y017181D01*
X027775Y017181D02*
X025674Y017181D01*
X025699Y017207D02*
X025624Y017132D01*
X025527Y017092D01*
X025422Y017092D01*
X025324Y017132D01*
X025250Y017207D01*
X025209Y017304D01*
X025209Y017410D01*
X025250Y017507D01*
X025324Y017581D01*
X025422Y017622D01*
X025527Y017622D01*
X025624Y017581D01*
X025699Y017507D01*
X025739Y017410D01*
X025739Y017304D01*
X025699Y017207D01*
X025729Y017280D02*
X027719Y017280D01*
X027709Y017378D02*
X025739Y017378D01*
X025711Y017477D02*
X027737Y017477D01*
X027818Y017575D02*
X025630Y017575D01*
X025318Y017575D02*
X023255Y017575D01*
X023336Y017477D02*
X025237Y017477D01*
X025209Y017378D02*
X023364Y017378D01*
X023354Y017280D02*
X025219Y017280D01*
X025275Y017181D02*
X023299Y017181D01*
X023355Y015210D02*
X005349Y015210D01*
X005349Y015112D02*
X023334Y015112D01*
X023351Y015013D02*
X005349Y015013D01*
X005349Y014915D02*
X023417Y014915D01*
X025584Y023981D02*
X034349Y023981D01*
X034349Y024079D02*
X025614Y024079D01*
X025607Y024178D02*
X034349Y024178D01*
X034349Y024276D02*
X025555Y024276D01*
X031793Y029893D02*
X032093Y029893D01*
X031967Y029795D02*
X031919Y029795D01*
X031867Y029992D02*
X038099Y029992D01*
X038099Y030090D02*
X031944Y030090D01*
X031977Y030189D02*
X035697Y030189D01*
X035626Y030288D02*
X031977Y030288D01*
X031939Y030386D02*
X035597Y030386D01*
X035598Y030485D02*
X031855Y030485D01*
X031469Y030485D02*
X031292Y030485D01*
X031376Y030386D02*
X031385Y030386D01*
X032356Y029893D02*
X032656Y029893D01*
X032529Y029795D02*
X032482Y029795D01*
X032918Y029893D02*
X033940Y029893D01*
X033983Y029936D02*
X034099Y029984D01*
X034225Y029984D01*
X034340Y029936D01*
X034429Y029848D01*
X034477Y029732D01*
X034477Y029607D01*
X034429Y029491D01*
X034340Y029402D01*
X034225Y029354D01*
X034099Y029354D01*
X033983Y029402D01*
X033895Y029491D01*
X033847Y029607D01*
X033847Y029732D01*
X033895Y029848D01*
X033983Y029936D01*
X033873Y029795D02*
X033044Y029795D01*
X033091Y029696D02*
X033847Y029696D01*
X033851Y029598D02*
X033102Y029598D01*
X033083Y029499D02*
X033891Y029499D01*
X033987Y029401D02*
X033026Y029401D01*
X032975Y029302D02*
X038099Y029302D01*
X038099Y029204D02*
X033062Y029204D01*
X033102Y029105D02*
X038099Y029105D01*
X038099Y029006D02*
X033102Y029006D01*
X033071Y028908D02*
X038099Y028908D01*
X038099Y028809D02*
X032997Y028809D01*
X034336Y029401D02*
X038099Y029401D01*
X038099Y029499D02*
X034432Y029499D01*
X034473Y029598D02*
X038099Y029598D01*
X038099Y029696D02*
X034477Y029696D01*
X034451Y029795D02*
X038099Y029795D01*
X038099Y029893D02*
X034383Y029893D01*
X034879Y035018D02*
X035257Y035018D01*
X035145Y035116D02*
X034992Y035116D01*
X035032Y035215D02*
X035104Y035215D01*
X035097Y035313D02*
X035039Y035313D01*
X035017Y035412D02*
X035120Y035412D01*
X035182Y035510D02*
X034954Y035510D01*
X034787Y035917D02*
X034662Y035917D01*
X034546Y035965D01*
X034457Y036053D01*
X034409Y036169D01*
X034409Y036294D01*
X034457Y036410D01*
X034546Y036499D01*
X034662Y036547D01*
X034787Y036547D01*
X034903Y036499D01*
X034991Y036410D01*
X035039Y036294D01*
X035039Y036169D01*
X034991Y036053D01*
X034903Y035965D01*
X034787Y035917D01*
X034941Y036003D02*
X035195Y036003D01*
X035233Y035965D02*
X035145Y036053D01*
X035097Y036169D01*
X035097Y036294D01*
X035145Y036410D01*
X035233Y036499D01*
X035349Y036547D01*
X035475Y036547D01*
X035590Y036499D01*
X035679Y036410D01*
X035727Y036294D01*
X035727Y036169D01*
X035679Y036053D01*
X035590Y035965D01*
X035475Y035917D01*
X035349Y035917D01*
X035233Y035965D01*
X035125Y036102D02*
X035011Y036102D01*
X035039Y036200D02*
X035097Y036200D01*
X035099Y036299D02*
X035038Y036299D01*
X034997Y036397D02*
X035139Y036397D01*
X035230Y036496D02*
X034906Y036496D01*
X034543Y036496D02*
X034218Y036496D01*
X034215Y036499D02*
X034304Y036410D01*
X034352Y036294D01*
X034352Y036169D01*
X034304Y036053D01*
X034215Y035965D01*
X034100Y035917D01*
X033974Y035917D01*
X033858Y035965D01*
X033770Y036053D01*
X033722Y036169D01*
X033722Y036294D01*
X033770Y036410D01*
X033858Y036499D01*
X033974Y036547D01*
X034100Y036547D01*
X034215Y036499D01*
X034309Y036397D02*
X034452Y036397D01*
X034411Y036299D02*
X034350Y036299D01*
X034352Y036200D02*
X034409Y036200D01*
X034437Y036102D02*
X034324Y036102D01*
X034254Y036003D02*
X034508Y036003D01*
X034495Y035510D02*
X027808Y035510D01*
X027640Y035510D02*
X026808Y035510D01*
X026640Y035510D02*
X023946Y035510D01*
X023988Y035412D02*
X026457Y035412D01*
X026372Y035313D02*
X023989Y035313D01*
X023952Y035215D02*
X026331Y035215D01*
X026992Y035412D02*
X027457Y035412D01*
X027372Y035313D02*
X027077Y035313D01*
X027118Y035215D02*
X027331Y035215D01*
X027319Y035116D02*
X027129Y035116D01*
X027126Y035018D02*
X027323Y035018D01*
X027364Y034919D02*
X027085Y034919D01*
X027011Y034821D02*
X027438Y034821D01*
X028118Y035215D02*
X034416Y035215D01*
X034409Y035313D02*
X028077Y035313D01*
X027992Y035412D02*
X034432Y035412D01*
X033820Y036003D02*
X033566Y036003D01*
X033528Y035965D02*
X033616Y036053D01*
X033664Y036169D01*
X033664Y036294D01*
X033616Y036410D01*
X033528Y036499D01*
X033412Y036547D01*
X033287Y036547D01*
X033171Y036499D01*
X033082Y036410D01*
X033034Y036294D01*
X033034Y036169D01*
X033082Y036053D01*
X033171Y035965D01*
X033287Y035917D01*
X033412Y035917D01*
X033528Y035965D01*
X033636Y036102D02*
X033750Y036102D01*
X033722Y036200D02*
X033664Y036200D01*
X033663Y036299D02*
X033724Y036299D01*
X033764Y036397D02*
X033622Y036397D01*
X033531Y036496D02*
X033855Y036496D01*
X033168Y036496D02*
X027844Y036496D01*
X028007Y036397D02*
X033077Y036397D01*
X033036Y036299D02*
X028083Y036299D01*
X028124Y036200D02*
X033034Y036200D01*
X033062Y036102D02*
X028129Y036102D01*
X028120Y036003D02*
X033133Y036003D01*
X035629Y036003D02*
X035883Y036003D01*
X035812Y036102D02*
X035699Y036102D01*
X035727Y036200D02*
X035784Y036200D01*
X035786Y036299D02*
X035725Y036299D01*
X035684Y036397D02*
X035827Y036397D01*
X035918Y036496D02*
X035593Y036496D01*
X035641Y035510D02*
X035870Y035510D01*
X035807Y035412D02*
X035704Y035412D01*
X035727Y035313D02*
X035784Y035313D01*
X035944Y035018D02*
X035567Y035018D01*
X027605Y036496D02*
X026844Y036496D01*
X027007Y036397D02*
X027442Y036397D01*
X027365Y036299D02*
X027083Y036299D01*
X027124Y036200D02*
X027325Y036200D01*
X027319Y036102D02*
X027129Y036102D01*
X027120Y036003D02*
X027329Y036003D01*
X027370Y035904D02*
X027079Y035904D01*
X026996Y035806D02*
X027452Y035806D01*
X013123Y017378D02*
X010700Y017378D01*
X010739Y017280D02*
X013084Y017280D01*
X013084Y017181D02*
X010739Y017181D01*
X010699Y017083D02*
X013124Y017083D01*
D24*
X011349Y019732D02*
X010849Y020107D01*
X011099Y007857D02*
X011474Y007482D01*
X032849Y007482D01*
M02*
