G75*
G70*
%OFA0B0*%
%FSLAX24Y24*%
%IPPOS*%
%LPD*%
%AMOC8*
5,1,8,0,0,1.08239X$1,22.5*
%
%ADD10C,0.0590*%
%ADD11C,0.1005*%
%ADD12C,0.0690*%
%ADD13C,0.0945*%
%ADD14C,0.0554*%
%ADD15C,0.1685*%
%ADD16C,0.1004*%
%ADD17C,0.1181*%
%ADD18C,0.0768*%
%ADD19C,0.0310*%
%ADD20C,0.0120*%
%ADD21C,0.0100*%
%ADD22C,0.0396*%
%ADD23C,0.0410*%
%ADD24C,0.0320*%
D10*
X012107Y030107D03*
X013107Y030107D03*
X013107Y031107D03*
X013107Y032107D03*
X012107Y032107D03*
X012107Y031107D03*
X012107Y033107D03*
X012107Y034107D03*
X012107Y035107D03*
X013107Y035107D03*
X013107Y034107D03*
X013107Y033107D03*
X013107Y036107D03*
X012107Y036107D03*
D11*
X011232Y004732D03*
X011232Y002732D03*
X009232Y002732D03*
X009232Y004732D03*
X006732Y004732D03*
X006732Y002732D03*
X004732Y002732D03*
X004732Y004732D03*
X016232Y004732D03*
X018232Y004732D03*
X018232Y002732D03*
X016232Y002732D03*
X020732Y002732D03*
X020732Y004732D03*
X022732Y004732D03*
X022732Y002732D03*
D12*
X021732Y003732D03*
X017232Y003732D03*
X010232Y003732D03*
X005732Y003732D03*
D13*
X031822Y032297D03*
X038141Y032297D03*
D14*
X036482Y033482D03*
X035482Y033482D03*
X034482Y033482D03*
X033482Y033482D03*
X033982Y034482D03*
X034982Y034482D03*
X035982Y034482D03*
X036982Y034482D03*
D15*
X001857Y001857D03*
X001982Y037732D03*
X037732Y022732D03*
X037732Y001857D03*
D16*
X003607Y011612D03*
X003607Y017112D03*
X003482Y027362D03*
D17*
X005509Y026732D03*
X001454Y026732D03*
X001579Y016482D03*
X005634Y016482D03*
X005634Y010982D03*
X001579Y010982D03*
D18*
X002732Y007482D03*
X002732Y006482D03*
X002732Y019732D03*
X002732Y020732D03*
X002732Y022232D03*
X002732Y023232D03*
D19*
X007982Y019357D03*
X010607Y019607D03*
X011607Y019732D03*
X010982Y018607D03*
X011357Y017607D03*
X011857Y017357D03*
X012232Y016107D03*
X013857Y016107D03*
X014357Y017357D03*
X015357Y016107D03*
X016232Y015607D03*
X016232Y015107D03*
X016732Y017357D03*
X018982Y015607D03*
X019982Y015607D03*
X021982Y017482D03*
X022607Y015607D03*
X022107Y013607D03*
X026482Y016732D03*
X026482Y017232D03*
X026482Y017732D03*
X028482Y019732D03*
X028982Y020107D03*
X029357Y017232D03*
X030357Y017232D03*
X032982Y017232D03*
X032982Y017732D03*
X032982Y016732D03*
X028732Y007857D03*
X021107Y006982D03*
X016357Y006982D03*
X009419Y006982D03*
X006982Y007482D03*
X005169Y006982D03*
X009732Y016107D03*
X013232Y020357D03*
X014482Y024107D03*
X014857Y025482D03*
X014857Y025982D03*
X015732Y026732D03*
X017232Y025357D03*
X018732Y024107D03*
X019982Y024232D03*
X021107Y023982D03*
X021857Y025107D03*
X021607Y026607D03*
X021607Y028482D03*
X020482Y028607D03*
X020482Y030357D03*
X021607Y030232D03*
X022982Y030482D03*
X023107Y029482D03*
X023857Y029482D03*
X024357Y030982D03*
X025357Y030107D03*
X026357Y030107D03*
X027357Y030107D03*
X028357Y030107D03*
X029357Y030107D03*
X029357Y031107D03*
X029357Y032107D03*
X029357Y033107D03*
X029357Y034107D03*
X029357Y035107D03*
X029357Y036107D03*
X029357Y037169D03*
X028357Y037169D03*
X027357Y037169D03*
X026357Y037169D03*
X025357Y037169D03*
X024357Y037232D03*
X024357Y036107D03*
X024357Y035107D03*
X024357Y034169D03*
X023857Y032982D03*
X023982Y032357D03*
X022732Y034857D03*
X021732Y034857D03*
X020357Y034982D03*
X018857Y033982D03*
X018107Y033232D03*
X018732Y032857D03*
X018607Y032232D03*
X019357Y031357D03*
X019232Y030732D03*
X017732Y031107D03*
X016857Y032107D03*
X016857Y032857D03*
X016107Y031607D03*
X016107Y031107D03*
X016107Y030607D03*
X018857Y027482D03*
X019982Y022357D03*
X024857Y027107D03*
X026857Y027482D03*
X026982Y026482D03*
X026857Y028607D03*
X022732Y036482D03*
X022232Y036857D03*
X022107Y037357D03*
X021732Y036607D03*
X020982Y038732D03*
X016107Y035357D03*
X010357Y032794D03*
X007232Y031982D03*
X006232Y033669D03*
X003107Y032982D03*
D20*
X013107Y033107D02*
X015857Y033107D01*
X016482Y032482D01*
X014732Y033857D02*
X014482Y034107D01*
X013107Y034107D01*
X014732Y033857D02*
X018732Y033857D01*
X018857Y033982D01*
X015357Y016107D02*
X013857Y016107D01*
D21*
X014044Y016294D02*
X015170Y016294D01*
X015152Y016277D02*
X014062Y016277D01*
X014007Y016331D01*
X013910Y016372D01*
X013804Y016372D01*
X013707Y016331D01*
X013632Y016257D01*
X013592Y016160D01*
X013592Y016054D01*
X013632Y015957D01*
X013707Y015882D01*
X013804Y015842D01*
X013910Y015842D01*
X014007Y015882D01*
X014062Y015937D01*
X015152Y015937D01*
X015207Y015882D01*
X015304Y015842D01*
X015410Y015842D01*
X015507Y015882D01*
X015581Y015957D01*
X015622Y016054D01*
X015622Y016160D01*
X015581Y016257D01*
X015507Y016331D01*
X015410Y016372D01*
X015304Y016372D01*
X015207Y016331D01*
X015152Y016277D01*
X015189Y015900D02*
X014025Y015900D01*
X013689Y015900D02*
X012400Y015900D01*
X012382Y015882D02*
X012456Y015957D01*
X012497Y016054D01*
X012497Y016160D01*
X012456Y016257D01*
X012382Y016331D01*
X012285Y016372D01*
X012179Y016372D01*
X012082Y016331D01*
X012007Y016257D01*
X011967Y016160D01*
X011967Y016054D01*
X012007Y015957D01*
X012082Y015882D01*
X012179Y015842D01*
X012285Y015842D01*
X012382Y015882D01*
X012474Y015999D02*
X013615Y015999D01*
X013592Y016097D02*
X012497Y016097D01*
X012482Y016196D02*
X013607Y016196D01*
X013670Y016294D02*
X012419Y016294D01*
X012045Y016294D02*
X009919Y016294D01*
X009882Y016331D02*
X009785Y016372D01*
X009679Y016372D01*
X009582Y016331D01*
X009507Y016257D01*
X009467Y016160D01*
X009467Y016054D01*
X009507Y015957D01*
X009582Y015882D01*
X009679Y015842D01*
X009785Y015842D01*
X009882Y015882D01*
X009956Y015957D01*
X009997Y016054D01*
X009997Y016160D01*
X009956Y016257D01*
X009882Y016331D01*
X009982Y016196D02*
X011982Y016196D01*
X011967Y016097D02*
X009997Y016097D01*
X009974Y015999D02*
X011990Y015999D01*
X012064Y015900D02*
X009900Y015900D01*
X009564Y015900D02*
X006043Y015900D01*
X006031Y015888D02*
X006228Y016085D01*
X006335Y016342D01*
X006335Y016621D01*
X006228Y016879D01*
X006031Y017076D01*
X005774Y017182D01*
X005495Y017182D01*
X005482Y017177D01*
X005482Y023982D01*
X014247Y023982D01*
X014257Y023957D01*
X014332Y023882D01*
X014429Y023842D01*
X014535Y023842D01*
X014632Y023882D01*
X018582Y023882D01*
X018679Y023842D01*
X018785Y023842D01*
X018882Y023882D01*
X020482Y023882D01*
X020482Y023784D02*
X005482Y023784D01*
X005482Y023882D02*
X014332Y023882D01*
X014247Y023981D02*
X005482Y023981D01*
X005482Y023685D02*
X020482Y023685D01*
X020482Y023587D02*
X005482Y023587D01*
X005482Y023488D02*
X020482Y023488D01*
X020482Y023389D02*
X005482Y023389D01*
X005482Y023291D02*
X020482Y023291D01*
X020482Y023192D02*
X005482Y023192D01*
X005482Y023094D02*
X020482Y023094D01*
X020482Y022995D02*
X014526Y022995D01*
X014531Y022993D02*
X014418Y023040D01*
X014296Y023040D01*
X014182Y022993D01*
X014096Y022906D01*
X014049Y022793D01*
X014049Y022671D01*
X014096Y022557D01*
X014182Y022471D01*
X014296Y022424D01*
X014418Y022424D01*
X014531Y022471D01*
X014618Y022557D01*
X014665Y022671D01*
X014665Y022793D01*
X014618Y022906D01*
X014531Y022993D01*
X014622Y022897D02*
X020482Y022897D01*
X020482Y022798D02*
X014663Y022798D01*
X014665Y022700D02*
X020482Y022700D01*
X020482Y022601D02*
X020084Y022601D01*
X020132Y022581D02*
X020035Y022622D01*
X019929Y022622D01*
X019832Y022581D01*
X019757Y022507D01*
X019717Y022410D01*
X019717Y022304D01*
X019757Y022207D01*
X005482Y022207D01*
X005482Y022306D02*
X019717Y022306D01*
X019717Y022404D02*
X005482Y022404D01*
X005482Y022503D02*
X014150Y022503D01*
X014077Y022601D02*
X005482Y022601D01*
X005482Y022700D02*
X014049Y022700D01*
X014051Y022798D02*
X005482Y022798D01*
X005482Y022897D02*
X014092Y022897D01*
X014188Y022995D02*
X005482Y022995D01*
X005482Y022108D02*
X019889Y022108D01*
X019929Y022092D02*
X019832Y022132D01*
X019757Y022207D01*
X019929Y022092D02*
X020035Y022092D01*
X020132Y022132D01*
X020206Y022207D01*
X034482Y022207D01*
X034482Y022306D02*
X020247Y022306D01*
X020247Y022304D02*
X020206Y022207D01*
X020247Y022304D02*
X020247Y022410D01*
X020206Y022507D01*
X020132Y022581D01*
X020208Y022503D02*
X020482Y022503D01*
X020482Y022482D02*
X022982Y022482D01*
X022982Y023982D01*
X034482Y023982D01*
X034482Y008357D01*
X005482Y008357D01*
X005482Y010287D01*
X005495Y010281D01*
X005774Y010281D01*
X006031Y010388D01*
X006228Y010585D01*
X006335Y010842D01*
X006335Y011121D01*
X006228Y011379D01*
X006031Y011576D01*
X005774Y011682D01*
X005495Y011682D01*
X005482Y011677D01*
X005482Y015787D01*
X005495Y015781D01*
X005774Y015781D01*
X006031Y015888D01*
X006142Y015999D02*
X009490Y015999D01*
X009467Y016097D02*
X006233Y016097D01*
X006274Y016196D02*
X009482Y016196D01*
X009545Y016294D02*
X006315Y016294D01*
X006335Y016393D02*
X034482Y016393D01*
X034482Y016491D02*
X033094Y016491D01*
X033132Y016507D02*
X033206Y016582D01*
X033247Y016679D01*
X033247Y016785D01*
X033206Y016882D01*
X033132Y016956D01*
X033071Y016982D01*
X033132Y017007D01*
X033206Y017082D01*
X033247Y017179D01*
X033247Y017285D01*
X033206Y017382D01*
X033132Y017456D01*
X033071Y017482D01*
X033132Y017507D01*
X033206Y017582D01*
X033247Y017679D01*
X033247Y017785D01*
X033206Y017882D01*
X033132Y017956D01*
X033035Y017997D01*
X032929Y017997D01*
X032832Y017956D01*
X032757Y017882D01*
X032717Y017785D01*
X032717Y017679D01*
X032757Y017582D01*
X032832Y017507D01*
X032893Y017482D01*
X032832Y017456D01*
X032757Y017382D01*
X032717Y017285D01*
X032717Y017179D01*
X032757Y017082D01*
X032832Y017007D01*
X032893Y016982D01*
X032832Y016956D01*
X032757Y016882D01*
X032717Y016785D01*
X032717Y016679D01*
X032757Y016582D01*
X032832Y016507D01*
X032929Y016467D01*
X033035Y016467D01*
X033132Y016507D01*
X033210Y016590D02*
X034482Y016590D01*
X034482Y016689D02*
X033247Y016689D01*
X033246Y016787D02*
X034482Y016787D01*
X034482Y016886D02*
X033203Y016886D01*
X033076Y016984D02*
X034482Y016984D01*
X034482Y017083D02*
X033207Y017083D01*
X033247Y017181D02*
X034482Y017181D01*
X034482Y017280D02*
X033247Y017280D01*
X033208Y017378D02*
X034482Y017378D01*
X034482Y017477D02*
X033082Y017477D01*
X033200Y017575D02*
X034482Y017575D01*
X034482Y017674D02*
X033245Y017674D01*
X033247Y017773D02*
X034482Y017773D01*
X034482Y017871D02*
X033211Y017871D01*
X033100Y017970D02*
X034482Y017970D01*
X034482Y018068D02*
X005482Y018068D01*
X005482Y017970D02*
X026364Y017970D01*
X026332Y017956D02*
X026257Y017882D01*
X026217Y017785D01*
X026217Y017679D01*
X026257Y017582D01*
X026332Y017507D01*
X026393Y017482D01*
X026332Y017456D01*
X026257Y017382D01*
X026217Y017285D01*
X026217Y017179D01*
X026257Y017082D01*
X026332Y017007D01*
X026393Y016982D01*
X026332Y016956D01*
X026257Y016882D01*
X026217Y016785D01*
X026217Y016679D01*
X026257Y016582D01*
X026332Y016507D01*
X026429Y016467D01*
X026535Y016467D01*
X026632Y016507D01*
X026706Y016582D01*
X026747Y016679D01*
X026747Y016785D01*
X026706Y016882D01*
X026632Y016956D01*
X026571Y016982D01*
X026632Y017007D01*
X026706Y017082D01*
X026747Y017179D01*
X026747Y017285D01*
X026706Y017382D01*
X026632Y017456D01*
X026571Y017482D01*
X026632Y017507D01*
X026706Y017582D01*
X026747Y017679D01*
X026747Y017785D01*
X026706Y017882D01*
X026632Y017956D01*
X026535Y017997D01*
X026429Y017997D01*
X026332Y017956D01*
X026253Y017871D02*
X011411Y017871D01*
X011410Y017872D02*
X011304Y017872D01*
X011207Y017831D01*
X011132Y017757D01*
X011092Y017660D01*
X011092Y017554D01*
X011132Y017457D01*
X011207Y017382D01*
X011304Y017342D01*
X011410Y017342D01*
X011507Y017382D01*
X011581Y017457D01*
X011622Y017554D01*
X011622Y017660D01*
X011581Y017757D01*
X011507Y017831D01*
X011410Y017872D01*
X011302Y017871D02*
X005482Y017871D01*
X005482Y017773D02*
X011148Y017773D01*
X011098Y017674D02*
X005482Y017674D01*
X005482Y017575D02*
X011092Y017575D01*
X011124Y017477D02*
X005482Y017477D01*
X005482Y017378D02*
X011216Y017378D01*
X011498Y017378D02*
X014092Y017378D01*
X014092Y017410D02*
X014092Y017304D01*
X014132Y017207D01*
X014207Y017132D01*
X014304Y017092D01*
X014410Y017092D01*
X014507Y017132D01*
X014581Y017207D01*
X014622Y017304D01*
X014622Y017410D01*
X014581Y017507D01*
X014507Y017581D01*
X014410Y017622D01*
X014304Y017622D01*
X014207Y017581D01*
X014132Y017507D01*
X014092Y017410D01*
X014120Y017477D02*
X011590Y017477D01*
X011622Y017575D02*
X014201Y017575D01*
X014102Y017280D02*
X005482Y017280D01*
X005482Y017181D02*
X005492Y017181D01*
X005776Y017181D02*
X014158Y017181D01*
X014556Y017181D02*
X016533Y017181D01*
X016507Y017207D02*
X016582Y017132D01*
X016679Y017092D01*
X016785Y017092D01*
X016882Y017132D01*
X016956Y017207D01*
X016997Y017304D01*
X016997Y017410D01*
X016956Y017507D01*
X016882Y017581D01*
X016785Y017622D01*
X016679Y017622D01*
X016582Y017581D01*
X016507Y017507D01*
X016467Y017410D01*
X016467Y017304D01*
X016507Y017207D01*
X016477Y017280D02*
X014612Y017280D01*
X014622Y017378D02*
X016467Y017378D01*
X016495Y017477D02*
X014594Y017477D01*
X014513Y017575D02*
X016576Y017575D01*
X016888Y017575D02*
X021734Y017575D01*
X021717Y017535D02*
X021717Y017429D01*
X021757Y017332D01*
X021832Y017257D01*
X021929Y017217D01*
X022035Y017217D01*
X022132Y017257D01*
X022206Y017332D01*
X022247Y017429D01*
X022247Y017535D01*
X022206Y017632D01*
X022132Y017706D01*
X022035Y017747D01*
X021929Y017747D01*
X021832Y017706D01*
X021757Y017632D01*
X021717Y017535D01*
X021717Y017477D02*
X016969Y017477D01*
X016997Y017378D02*
X021738Y017378D01*
X021809Y017280D02*
X016987Y017280D01*
X016931Y017181D02*
X026217Y017181D01*
X026217Y017280D02*
X022155Y017280D01*
X022226Y017378D02*
X026256Y017378D01*
X026381Y017477D02*
X022247Y017477D01*
X022230Y017575D02*
X026263Y017575D01*
X026219Y017674D02*
X022164Y017674D01*
X021799Y017674D02*
X011616Y017674D01*
X011566Y017773D02*
X026217Y017773D01*
X026600Y017970D02*
X032864Y017970D01*
X032753Y017871D02*
X026711Y017871D01*
X026747Y017773D02*
X032717Y017773D01*
X032719Y017674D02*
X026745Y017674D01*
X026700Y017575D02*
X032763Y017575D01*
X032881Y017477D02*
X030458Y017477D01*
X030410Y017497D02*
X030304Y017497D01*
X030207Y017456D01*
X030132Y017382D01*
X030092Y017285D01*
X030092Y017179D01*
X030132Y017082D01*
X030207Y017007D01*
X030304Y016967D01*
X030410Y016967D01*
X030507Y017007D01*
X030581Y017082D01*
X030622Y017179D01*
X030622Y017285D01*
X030581Y017382D01*
X030507Y017456D01*
X030410Y017497D01*
X030256Y017477D02*
X026582Y017477D01*
X026708Y017378D02*
X030131Y017378D01*
X030092Y017280D02*
X026747Y017280D01*
X026747Y017181D02*
X030092Y017181D01*
X030132Y017083D02*
X026707Y017083D01*
X026576Y016984D02*
X030262Y016984D01*
X030451Y016984D02*
X032887Y016984D01*
X032761Y016886D02*
X026703Y016886D01*
X026746Y016787D02*
X032718Y016787D01*
X032717Y016689D02*
X026747Y016689D01*
X026710Y016590D02*
X032754Y016590D01*
X032870Y016491D02*
X026594Y016491D01*
X026370Y016491D02*
X006335Y016491D01*
X006335Y016590D02*
X026254Y016590D01*
X026217Y016689D02*
X006307Y016689D01*
X006266Y016787D02*
X026218Y016787D01*
X026261Y016886D02*
X006221Y016886D01*
X006123Y016984D02*
X026387Y016984D01*
X026257Y017083D02*
X006014Y017083D01*
X005482Y018167D02*
X034482Y018167D01*
X034482Y018265D02*
X005482Y018265D01*
X005482Y018364D02*
X010876Y018364D01*
X010832Y018382D02*
X010929Y018342D01*
X011035Y018342D01*
X011132Y018382D01*
X011206Y018457D01*
X011247Y018554D01*
X011247Y018660D01*
X011206Y018757D01*
X011132Y018831D01*
X011035Y018872D01*
X010929Y018872D01*
X010832Y018831D01*
X010757Y018757D01*
X010717Y018660D01*
X010717Y018554D01*
X010757Y018457D01*
X010832Y018382D01*
X010755Y018462D02*
X005482Y018462D01*
X005482Y018561D02*
X010717Y018561D01*
X010717Y018659D02*
X005482Y018659D01*
X005482Y018758D02*
X010758Y018758D01*
X010892Y018856D02*
X005482Y018856D01*
X005482Y018955D02*
X034482Y018955D01*
X034482Y018856D02*
X011071Y018856D01*
X011205Y018758D02*
X034482Y018758D01*
X034482Y018659D02*
X011247Y018659D01*
X011247Y018561D02*
X034482Y018561D01*
X034482Y018462D02*
X011209Y018462D01*
X011088Y018364D02*
X034482Y018364D01*
X034482Y019054D02*
X005482Y019054D01*
X005482Y019152D02*
X007812Y019152D01*
X007832Y019132D02*
X007929Y019092D01*
X008035Y019092D01*
X008132Y019132D01*
X008206Y019207D01*
X008247Y019304D01*
X008247Y019410D01*
X008206Y019507D01*
X008132Y019581D01*
X008035Y019622D01*
X007929Y019622D01*
X007832Y019581D01*
X007757Y019507D01*
X007717Y019410D01*
X007717Y019304D01*
X007757Y019207D01*
X007832Y019132D01*
X007739Y019251D02*
X005482Y019251D01*
X005482Y019349D02*
X007717Y019349D01*
X007733Y019448D02*
X005482Y019448D01*
X005482Y019546D02*
X007797Y019546D01*
X008167Y019546D02*
X010345Y019546D01*
X010342Y019554D02*
X010382Y019457D01*
X010457Y019382D01*
X010554Y019342D01*
X010660Y019342D01*
X010757Y019382D01*
X010822Y019447D01*
X011416Y019447D01*
X011548Y019447D01*
X011568Y019467D01*
X011660Y019467D01*
X011757Y019507D01*
X011831Y019582D01*
X011872Y019679D01*
X011872Y019785D01*
X011831Y019882D01*
X011757Y019956D01*
X011660Y019997D01*
X011554Y019997D01*
X011457Y019956D01*
X011382Y019882D01*
X011342Y019785D01*
X011342Y019767D01*
X010822Y019767D01*
X010757Y019831D01*
X010660Y019872D01*
X010554Y019872D01*
X010457Y019831D01*
X010382Y019757D01*
X010342Y019660D01*
X010342Y019554D01*
X010342Y019645D02*
X005482Y019645D01*
X005482Y019743D02*
X010377Y019743D01*
X010482Y019842D02*
X005482Y019842D01*
X005482Y019940D02*
X011441Y019940D01*
X011366Y019842D02*
X010732Y019842D01*
X010607Y019607D02*
X011482Y019607D01*
X011607Y019732D01*
X011848Y019842D02*
X028241Y019842D01*
X028257Y019882D02*
X028217Y019785D01*
X028217Y019679D01*
X028257Y019582D01*
X028332Y019507D01*
X028429Y019467D01*
X028535Y019467D01*
X028632Y019507D01*
X028706Y019582D01*
X028747Y019679D01*
X028747Y019785D01*
X028706Y019882D01*
X028632Y019956D01*
X028535Y019997D01*
X028429Y019997D01*
X028332Y019956D01*
X028257Y019882D01*
X028316Y019940D02*
X011773Y019940D01*
X011872Y019743D02*
X028217Y019743D01*
X028231Y019645D02*
X011858Y019645D01*
X011796Y019546D02*
X028293Y019546D01*
X028671Y019546D02*
X034482Y019546D01*
X034482Y019448D02*
X011549Y019448D01*
X010677Y019349D02*
X034482Y019349D01*
X034482Y019251D02*
X008225Y019251D01*
X008247Y019349D02*
X010536Y019349D01*
X010391Y019448D02*
X008231Y019448D01*
X008152Y019152D02*
X034482Y019152D01*
X034482Y019645D02*
X028733Y019645D01*
X028747Y019743D02*
X034482Y019743D01*
X034482Y019842D02*
X029035Y019842D01*
X029132Y019882D01*
X029206Y019957D01*
X029247Y020054D01*
X029247Y020160D01*
X029206Y020257D01*
X029132Y020331D01*
X029035Y020372D01*
X028929Y020372D01*
X028832Y020331D01*
X028757Y020257D01*
X028717Y020160D01*
X028717Y020054D01*
X028757Y019957D01*
X028832Y019882D01*
X028929Y019842D01*
X029035Y019842D01*
X028929Y019842D02*
X028723Y019842D01*
X028773Y019940D02*
X028648Y019940D01*
X028723Y020039D02*
X005482Y020039D01*
X005482Y020138D02*
X013076Y020138D01*
X013082Y020132D02*
X013179Y020092D01*
X013285Y020092D01*
X013382Y020132D01*
X013456Y020207D01*
X013497Y020304D01*
X013497Y020410D01*
X013456Y020507D01*
X013382Y020581D01*
X013285Y020622D01*
X013179Y020622D01*
X013082Y020581D01*
X013007Y020507D01*
X012967Y020410D01*
X012967Y020304D01*
X013007Y020207D01*
X013082Y020132D01*
X012995Y020236D02*
X005482Y020236D01*
X005482Y020335D02*
X012967Y020335D01*
X012977Y020433D02*
X005482Y020433D01*
X005482Y020532D02*
X013032Y020532D01*
X013432Y020532D02*
X034482Y020532D01*
X034482Y020630D02*
X005482Y020630D01*
X005482Y020729D02*
X034482Y020729D01*
X034482Y020827D02*
X005482Y020827D01*
X005482Y020926D02*
X034482Y020926D01*
X034482Y021024D02*
X005482Y021024D01*
X005482Y021123D02*
X034482Y021123D01*
X034482Y021222D02*
X005482Y021222D01*
X005482Y021320D02*
X034482Y021320D01*
X034482Y021419D02*
X005482Y021419D01*
X005482Y021517D02*
X034482Y021517D01*
X034482Y021616D02*
X005482Y021616D01*
X005482Y021714D02*
X034482Y021714D01*
X034482Y021813D02*
X005482Y021813D01*
X005482Y021911D02*
X034482Y021911D01*
X034482Y022010D02*
X005482Y022010D01*
X005370Y026031D02*
X005649Y026031D01*
X005906Y026138D01*
X006103Y026335D01*
X006210Y026592D01*
X006210Y026871D01*
X006103Y027129D01*
X005906Y027326D01*
X005649Y027432D01*
X005370Y027432D01*
X005113Y027326D01*
X004915Y027129D01*
X004809Y026871D01*
X004809Y026592D01*
X004915Y026335D01*
X005113Y026138D01*
X005370Y026031D01*
X005324Y026050D02*
X001982Y026050D01*
X001982Y025952D02*
X018697Y025952D01*
X018697Y025923D02*
X018291Y025517D01*
X017447Y025517D01*
X017382Y025581D01*
X017285Y025622D01*
X017179Y025622D01*
X017082Y025581D01*
X017007Y025507D01*
X016967Y025410D01*
X016967Y025304D01*
X017007Y025207D01*
X017082Y025132D01*
X017179Y025092D01*
X017285Y025092D01*
X017382Y025132D01*
X017447Y025197D01*
X018291Y025197D01*
X018423Y025197D01*
X018923Y025697D01*
X019017Y025791D01*
X019017Y027267D01*
X019072Y027322D01*
X019072Y026916D01*
X019166Y026822D01*
X019447Y026541D01*
X019541Y026447D01*
X021392Y026447D01*
X021457Y026382D01*
X021554Y026342D01*
X021660Y026342D01*
X021757Y026382D01*
X021831Y026457D01*
X021872Y026554D01*
X021872Y026660D01*
X021831Y026757D01*
X021757Y026831D01*
X021660Y026872D01*
X021554Y026872D01*
X021457Y026831D01*
X021392Y026767D01*
X019673Y026767D01*
X019392Y027048D01*
X019392Y030517D01*
X019456Y030582D01*
X019497Y030679D01*
X019497Y030785D01*
X019456Y030882D01*
X019382Y030956D01*
X019285Y030997D01*
X019179Y030997D01*
X019082Y030956D01*
X019007Y030882D01*
X018967Y030785D01*
X018967Y030679D01*
X019007Y030582D01*
X019072Y030517D01*
X019072Y027641D01*
X019007Y027706D01*
X018910Y027747D01*
X018804Y027747D01*
X018707Y027706D01*
X018632Y027632D01*
X018592Y027535D01*
X018592Y027429D01*
X018632Y027332D01*
X018697Y027267D01*
X018697Y025923D01*
X018627Y025853D02*
X001982Y025853D01*
X001982Y025755D02*
X018528Y025755D01*
X018430Y025656D02*
X001982Y025656D01*
X001982Y025557D02*
X017058Y025557D01*
X016987Y025459D02*
X001982Y025459D01*
X001982Y025360D02*
X016967Y025360D01*
X016984Y025262D02*
X001982Y025262D01*
X001982Y025163D02*
X017051Y025163D01*
X017232Y025357D02*
X018357Y025357D01*
X018857Y025857D01*
X018857Y027482D01*
X018961Y027725D02*
X019072Y027725D01*
X019072Y027824D02*
X003885Y027824D01*
X003828Y027881D02*
X003604Y027974D01*
X003360Y027974D01*
X003135Y027881D01*
X002963Y027708D01*
X002870Y027483D01*
X002870Y027240D01*
X002963Y027015D01*
X003135Y026843D01*
X003360Y026750D01*
X003604Y026750D01*
X003828Y026843D01*
X004001Y027015D01*
X004094Y027240D01*
X004094Y027483D01*
X004001Y027708D01*
X003828Y027881D01*
X003727Y027922D02*
X019072Y027922D01*
X019072Y028021D02*
X009645Y028021D01*
X009660Y028027D02*
X009749Y028116D01*
X009797Y028232D01*
X009797Y028357D01*
X009749Y028473D01*
X009660Y028561D01*
X009544Y028609D01*
X009419Y028609D01*
X009303Y028561D01*
X009215Y028473D01*
X009167Y028357D01*
X009167Y028232D01*
X009215Y028116D01*
X009303Y028027D01*
X009419Y027979D01*
X009544Y027979D01*
X009660Y028027D01*
X009750Y028120D02*
X019072Y028120D01*
X019072Y028218D02*
X009791Y028218D01*
X009797Y028317D02*
X019072Y028317D01*
X019072Y028415D02*
X009773Y028415D01*
X009708Y028514D02*
X019072Y028514D01*
X019072Y028612D02*
X001982Y028612D01*
X001982Y028514D02*
X009256Y028514D01*
X009191Y028415D02*
X001982Y028415D01*
X001982Y028317D02*
X009167Y028317D01*
X009172Y028218D02*
X001982Y028218D01*
X001982Y028120D02*
X009213Y028120D01*
X009318Y028021D02*
X001982Y028021D01*
X001982Y027922D02*
X003236Y027922D01*
X003079Y027824D02*
X001982Y027824D01*
X001982Y027725D02*
X002980Y027725D01*
X002929Y027627D02*
X001982Y027627D01*
X001982Y027528D02*
X002888Y027528D01*
X002870Y027430D02*
X001982Y027430D01*
X001982Y027331D02*
X002870Y027331D01*
X002873Y027233D02*
X001982Y027233D01*
X001982Y027195D02*
X001982Y036779D01*
X002171Y036779D01*
X002521Y036924D01*
X002789Y037192D01*
X002934Y037542D01*
X002934Y037921D01*
X002789Y038271D01*
X002521Y038539D01*
X002171Y038684D01*
X001982Y038684D01*
X001982Y039107D01*
X038732Y039232D01*
X038732Y031677D01*
X038715Y031660D01*
X038667Y031544D01*
X038667Y031419D01*
X038715Y031303D01*
X038732Y031286D01*
X038732Y029927D01*
X038715Y029910D01*
X038667Y029794D01*
X038667Y029669D01*
X038715Y029553D01*
X038732Y029536D01*
X038732Y028677D01*
X038715Y028660D01*
X038667Y028544D01*
X038667Y028419D01*
X038715Y028303D01*
X038732Y028286D01*
X038732Y027177D01*
X038715Y027160D01*
X038667Y027044D01*
X038667Y026919D01*
X038715Y026803D01*
X038732Y026786D01*
X038732Y024232D01*
X022732Y024232D01*
X022732Y022732D01*
X020732Y022732D01*
X020732Y024232D01*
X020247Y024232D01*
X020247Y024285D01*
X020206Y024382D01*
X020132Y024456D01*
X020035Y024497D01*
X019929Y024497D01*
X019832Y024456D01*
X019757Y024382D01*
X019717Y024285D01*
X019717Y024232D01*
X018967Y024232D01*
X018956Y024257D01*
X018882Y024331D01*
X018785Y024372D01*
X018679Y024372D01*
X018582Y024331D01*
X018507Y024257D01*
X018497Y024232D01*
X014717Y024232D01*
X014706Y024257D01*
X014632Y024331D01*
X014535Y024372D01*
X014429Y024372D01*
X014332Y024331D01*
X014257Y024257D01*
X014247Y024232D01*
X001982Y024232D01*
X001982Y026269D01*
X002048Y026335D01*
X002155Y026592D01*
X002155Y026871D01*
X002048Y027129D01*
X001982Y027195D01*
X002043Y027134D02*
X002914Y027134D01*
X002954Y027036D02*
X002087Y027036D01*
X002127Y026937D02*
X003041Y026937D01*
X003146Y026839D02*
X002155Y026839D01*
X002155Y026740D02*
X004809Y026740D01*
X004809Y026839D02*
X003818Y026839D01*
X003923Y026937D02*
X004836Y026937D01*
X004877Y027036D02*
X004009Y027036D01*
X004050Y027134D02*
X004921Y027134D01*
X005020Y027233D02*
X004091Y027233D01*
X004094Y027331D02*
X005126Y027331D01*
X005364Y027430D02*
X004094Y027430D01*
X004075Y027528D02*
X018592Y027528D01*
X018592Y027430D02*
X005655Y027430D01*
X005893Y027331D02*
X018633Y027331D01*
X018697Y027233D02*
X005999Y027233D01*
X006098Y027134D02*
X018697Y027134D01*
X018697Y027036D02*
X006142Y027036D01*
X006183Y026937D02*
X015562Y026937D01*
X015582Y026956D02*
X015507Y026882D01*
X015467Y026785D01*
X015467Y026679D01*
X015507Y026582D01*
X015582Y026507D01*
X015679Y026467D01*
X015785Y026467D01*
X015882Y026507D01*
X015956Y026582D01*
X015997Y026679D01*
X015997Y026785D01*
X015956Y026882D01*
X015882Y026956D01*
X015785Y026997D01*
X015679Y026997D01*
X015582Y026956D01*
X015489Y026839D02*
X006210Y026839D01*
X006210Y026740D02*
X015467Y026740D01*
X015482Y026641D02*
X006210Y026641D01*
X006189Y026543D02*
X015546Y026543D01*
X015918Y026543D02*
X018697Y026543D01*
X018697Y026641D02*
X015981Y026641D01*
X015997Y026740D02*
X018697Y026740D01*
X018697Y026839D02*
X015974Y026839D01*
X015901Y026937D02*
X018697Y026937D01*
X019017Y026937D02*
X019072Y026937D01*
X019072Y027036D02*
X019017Y027036D01*
X019017Y027134D02*
X019072Y027134D01*
X019072Y027233D02*
X019017Y027233D01*
X019232Y026982D02*
X019232Y030732D01*
X019331Y030977D02*
X024092Y030977D01*
X024092Y030929D02*
X024132Y030832D01*
X024207Y030757D01*
X024304Y030717D01*
X024410Y030717D01*
X024507Y030757D01*
X024581Y030832D01*
X024622Y030929D01*
X024622Y031035D01*
X024581Y031132D01*
X024507Y031206D01*
X024410Y031247D01*
X024304Y031247D01*
X024207Y031206D01*
X024132Y031132D01*
X024092Y031035D01*
X024092Y030929D01*
X024113Y030879D02*
X019458Y030879D01*
X019497Y030780D02*
X024184Y030780D01*
X024109Y031076D02*
X017997Y031076D01*
X017997Y031054D02*
X017956Y030957D01*
X017882Y030882D01*
X017785Y030842D01*
X017679Y030842D01*
X017582Y030882D01*
X017507Y030957D01*
X017467Y031054D01*
X017467Y031160D01*
X017507Y031257D01*
X017582Y031331D01*
X017679Y031372D01*
X017785Y031372D01*
X017785Y031371D02*
X019092Y031371D01*
X019092Y031410D02*
X019092Y031304D01*
X019132Y031207D01*
X019207Y031132D01*
X019304Y031092D01*
X019410Y031092D01*
X019507Y031132D01*
X019581Y031207D01*
X019622Y031304D01*
X019622Y031410D01*
X019581Y031507D01*
X019507Y031581D01*
X019410Y031622D01*
X019304Y031622D01*
X019207Y031581D01*
X019132Y031507D01*
X019092Y031410D01*
X019117Y031470D02*
X016337Y031470D01*
X016331Y031457D02*
X016372Y031554D01*
X016372Y031660D01*
X016331Y031757D01*
X016257Y031831D01*
X016160Y031872D01*
X016054Y031872D01*
X015957Y031831D01*
X015882Y031757D01*
X015842Y031660D01*
X015842Y031554D01*
X015882Y031457D01*
X015957Y031382D01*
X016054Y031342D01*
X016160Y031342D01*
X016257Y031382D01*
X016331Y031457D01*
X016372Y031569D02*
X019194Y031569D01*
X019105Y031273D02*
X017940Y031273D01*
X017956Y031257D02*
X017882Y031331D01*
X017785Y031372D01*
X017678Y031371D02*
X016231Y031371D01*
X015982Y031371D02*
X013415Y031371D01*
X013450Y031336D02*
X013336Y031450D01*
X013187Y031512D01*
X013026Y031512D01*
X012877Y031450D01*
X012763Y031336D01*
X012702Y031187D01*
X012702Y031026D01*
X012763Y030877D01*
X012877Y030763D01*
X013026Y030702D01*
X013187Y030702D01*
X013336Y030763D01*
X013450Y030877D01*
X013512Y031026D01*
X013512Y031187D01*
X013450Y031336D01*
X013476Y031273D02*
X017523Y031273D01*
X017473Y031174D02*
X013512Y031174D01*
X013512Y031076D02*
X017467Y031076D01*
X017499Y030977D02*
X013491Y030977D01*
X013451Y030879D02*
X017590Y030879D01*
X017874Y030879D02*
X019006Y030879D01*
X018967Y030780D02*
X016308Y030780D01*
X016331Y030757D02*
X016257Y030831D01*
X016160Y030872D01*
X016054Y030872D01*
X015957Y030831D01*
X015882Y030757D01*
X015842Y030660D01*
X015842Y030554D01*
X015882Y030457D01*
X015957Y030382D01*
X016054Y030342D01*
X016160Y030342D01*
X016257Y030382D01*
X016331Y030457D01*
X016372Y030554D01*
X016372Y030660D01*
X016331Y030757D01*
X016363Y030682D02*
X018967Y030682D01*
X019007Y030583D02*
X016372Y030583D01*
X016343Y030485D02*
X019072Y030485D01*
X019072Y030386D02*
X016261Y030386D01*
X015953Y030386D02*
X013400Y030386D01*
X013450Y030336D02*
X013336Y030450D01*
X013187Y030512D01*
X013026Y030512D01*
X012877Y030450D01*
X012763Y030336D01*
X012702Y030187D01*
X012702Y030026D01*
X012763Y029877D01*
X012877Y029763D01*
X013026Y029702D01*
X013187Y029702D01*
X013336Y029763D01*
X013450Y029877D01*
X013512Y030026D01*
X013512Y030187D01*
X013450Y030336D01*
X013470Y030288D02*
X019072Y030288D01*
X019072Y030189D02*
X013511Y030189D01*
X013512Y030090D02*
X019072Y030090D01*
X019072Y029992D02*
X013498Y029992D01*
X013457Y029893D02*
X019072Y029893D01*
X019072Y029795D02*
X013368Y029795D01*
X012846Y029795D02*
X012368Y029795D01*
X012336Y029763D02*
X012450Y029877D01*
X012512Y030026D01*
X012512Y030187D01*
X012450Y030336D01*
X012336Y030450D01*
X012187Y030512D01*
X012026Y030512D01*
X011877Y030450D01*
X011763Y030336D01*
X011702Y030187D01*
X011702Y030026D01*
X011763Y029877D01*
X011877Y029763D01*
X012026Y029702D01*
X012187Y029702D01*
X012336Y029763D01*
X012457Y029893D02*
X012757Y029893D01*
X012716Y029992D02*
X012498Y029992D01*
X012512Y030090D02*
X012702Y030090D01*
X012702Y030189D02*
X012511Y030189D01*
X012470Y030288D02*
X012743Y030288D01*
X012813Y030386D02*
X012400Y030386D01*
X012253Y030485D02*
X012961Y030485D01*
X013253Y030485D02*
X015871Y030485D01*
X015842Y030583D02*
X001982Y030583D01*
X001982Y030485D02*
X007977Y030485D01*
X007991Y030499D02*
X007902Y030410D01*
X007854Y030294D01*
X007854Y030169D01*
X007902Y030053D01*
X007991Y029965D01*
X008101Y029919D01*
X007991Y029874D01*
X007902Y029785D01*
X007888Y029751D01*
X007874Y029785D01*
X007785Y029874D01*
X007669Y029922D01*
X007544Y029922D01*
X007428Y029874D01*
X007340Y029785D01*
X007326Y029751D01*
X007311Y029785D01*
X007223Y029874D01*
X007107Y029922D01*
X006982Y029922D01*
X006866Y029874D01*
X006777Y029785D01*
X006729Y029669D01*
X006729Y029544D01*
X006777Y029428D01*
X006866Y029340D01*
X006900Y029326D01*
X006866Y029311D01*
X006777Y029223D01*
X006729Y029107D01*
X006729Y028982D01*
X006777Y028866D01*
X006866Y028777D01*
X006982Y028729D01*
X007107Y028729D01*
X007223Y028777D01*
X007311Y028866D01*
X007326Y028900D01*
X007340Y028866D01*
X007428Y028777D01*
X007544Y028729D01*
X007669Y028729D01*
X007785Y028777D01*
X007874Y028866D01*
X007888Y028900D01*
X007902Y028866D01*
X007991Y028777D01*
X008107Y028729D01*
X008232Y028729D01*
X008348Y028777D01*
X008436Y028866D01*
X008451Y028900D01*
X008465Y028866D01*
X008553Y028777D01*
X008669Y028729D01*
X008795Y028729D01*
X008910Y028777D01*
X008999Y028866D01*
X009047Y028982D01*
X009047Y029107D01*
X008999Y029223D01*
X008910Y029311D01*
X008876Y029326D01*
X008910Y029340D01*
X008999Y029428D01*
X009047Y029544D01*
X009047Y029669D01*
X008999Y029785D01*
X008910Y029874D01*
X008800Y029919D01*
X008910Y029965D01*
X008999Y030053D01*
X009047Y030169D01*
X009047Y030294D01*
X008999Y030410D01*
X008910Y030499D01*
X008794Y030547D01*
X008669Y030547D01*
X008553Y030499D01*
X008465Y030410D01*
X008451Y030376D01*
X008436Y030410D01*
X008348Y030499D01*
X008232Y030547D01*
X008107Y030547D01*
X007991Y030499D01*
X007892Y030386D02*
X001982Y030386D01*
X001982Y030288D02*
X007854Y030288D01*
X007854Y030189D02*
X001982Y030189D01*
X001982Y030090D02*
X007887Y030090D01*
X007964Y029992D02*
X001982Y029992D01*
X001982Y029893D02*
X005448Y029893D01*
X005491Y029936D02*
X005402Y029848D01*
X005354Y029732D01*
X005354Y029607D01*
X005402Y029491D01*
X005491Y029402D01*
X005607Y029354D01*
X005732Y029354D01*
X005848Y029402D01*
X005936Y029491D01*
X005984Y029607D01*
X005984Y029732D01*
X005936Y029848D01*
X005848Y029936D01*
X005732Y029984D01*
X005607Y029984D01*
X005491Y029936D01*
X005380Y029795D02*
X001982Y029795D01*
X001982Y029696D02*
X005354Y029696D01*
X005358Y029598D02*
X001982Y029598D01*
X001982Y029499D02*
X005399Y029499D01*
X005495Y029401D02*
X001982Y029401D01*
X001982Y029302D02*
X006857Y029302D01*
X006805Y029401D02*
X005844Y029401D01*
X005940Y029499D02*
X006748Y029499D01*
X006729Y029598D02*
X005981Y029598D01*
X005984Y029696D02*
X006740Y029696D01*
X006787Y029795D02*
X005958Y029795D01*
X005891Y029893D02*
X006913Y029893D01*
X007176Y029893D02*
X007476Y029893D01*
X007349Y029795D02*
X007302Y029795D01*
X007738Y029893D02*
X008038Y029893D01*
X007912Y029795D02*
X007864Y029795D01*
X008362Y030485D02*
X008539Y030485D01*
X008455Y030386D02*
X008446Y030386D01*
X008924Y030485D02*
X011961Y030485D01*
X011813Y030386D02*
X009009Y030386D01*
X009047Y030288D02*
X011743Y030288D01*
X011702Y030189D02*
X009047Y030189D01*
X009014Y030090D02*
X011702Y030090D01*
X011716Y029992D02*
X008937Y029992D01*
X008863Y029893D02*
X011757Y029893D01*
X011846Y029795D02*
X008989Y029795D01*
X009036Y029696D02*
X019072Y029696D01*
X019072Y029598D02*
X009047Y029598D01*
X009028Y029499D02*
X019072Y029499D01*
X019072Y029401D02*
X008971Y029401D01*
X008920Y029302D02*
X019072Y029302D01*
X019072Y029204D02*
X009007Y029204D01*
X009047Y029105D02*
X019072Y029105D01*
X019072Y029006D02*
X009047Y029006D01*
X009016Y028908D02*
X019072Y028908D01*
X019072Y028809D02*
X008942Y028809D01*
X008521Y028809D02*
X008380Y028809D01*
X007959Y028809D02*
X007817Y028809D01*
X007396Y028809D02*
X007255Y028809D01*
X006834Y028809D02*
X001982Y028809D01*
X001982Y028711D02*
X019072Y028711D01*
X019392Y028711D02*
X020238Y028711D01*
X020257Y028757D02*
X020217Y028660D01*
X020217Y028554D01*
X020257Y028457D01*
X020332Y028382D01*
X020429Y028342D01*
X020535Y028342D01*
X020632Y028382D01*
X020706Y028457D01*
X020747Y028554D01*
X020747Y028660D01*
X020706Y028757D01*
X020632Y028831D01*
X020535Y028872D01*
X020429Y028872D01*
X020332Y028831D01*
X020257Y028757D01*
X020310Y028809D02*
X019392Y028809D01*
X019392Y028908D02*
X022947Y028908D01*
X022947Y029006D02*
X019392Y029006D01*
X019392Y029105D02*
X022947Y029105D01*
X022947Y029204D02*
X019392Y029204D01*
X019392Y029302D02*
X022912Y029302D01*
X022882Y029332D02*
X022947Y029267D01*
X022947Y027798D01*
X022947Y027666D01*
X023197Y027416D01*
X023291Y027322D01*
X026642Y027322D01*
X026707Y027257D01*
X026804Y027217D01*
X026910Y027217D01*
X027007Y027257D01*
X027081Y027332D01*
X027122Y027429D01*
X027122Y027535D01*
X027081Y027632D01*
X027007Y027706D01*
X026910Y027747D01*
X026804Y027747D01*
X026707Y027706D01*
X026642Y027642D01*
X023423Y027642D01*
X023267Y027798D01*
X023267Y029267D01*
X023331Y029332D01*
X023372Y029429D01*
X023372Y029535D01*
X023331Y029632D01*
X023257Y029706D01*
X023160Y029747D01*
X023054Y029747D01*
X022957Y029706D01*
X022882Y029632D01*
X022842Y029535D01*
X022842Y029429D01*
X022882Y029332D01*
X022854Y029401D02*
X019392Y029401D01*
X019392Y029499D02*
X022842Y029499D01*
X022868Y029598D02*
X019392Y029598D01*
X019392Y029696D02*
X022947Y029696D01*
X023107Y029482D02*
X023107Y027732D01*
X023357Y027482D01*
X026857Y027482D01*
X026961Y027725D02*
X038732Y027725D01*
X038732Y027627D02*
X027084Y027627D01*
X027122Y027528D02*
X038732Y027528D01*
X038732Y027430D02*
X027122Y027430D01*
X027081Y027331D02*
X038732Y027331D01*
X038732Y027233D02*
X038176Y027233D01*
X038160Y027249D02*
X038044Y027297D01*
X037919Y027297D01*
X037803Y027249D01*
X037715Y027160D01*
X037667Y027044D01*
X037667Y026919D01*
X037715Y026803D01*
X037803Y026715D01*
X037919Y026667D01*
X038044Y026667D01*
X038160Y026715D01*
X038249Y026803D01*
X038297Y026919D01*
X038297Y027044D01*
X038249Y027160D01*
X038160Y027249D01*
X038260Y027134D02*
X038704Y027134D01*
X038667Y027036D02*
X038297Y027036D01*
X038297Y026937D02*
X038667Y026937D01*
X038700Y026839D02*
X038263Y026839D01*
X038185Y026740D02*
X038732Y026740D01*
X038732Y026641D02*
X021872Y026641D01*
X021867Y026543D02*
X038732Y026543D01*
X038732Y026444D02*
X021819Y026444D01*
X021669Y026346D02*
X038732Y026346D01*
X038732Y026247D02*
X019017Y026247D01*
X019017Y026149D02*
X038732Y026149D01*
X038732Y026050D02*
X019017Y026050D01*
X019017Y025952D02*
X038732Y025952D01*
X038732Y025853D02*
X019017Y025853D01*
X018981Y025755D02*
X038732Y025755D01*
X038732Y025656D02*
X018882Y025656D01*
X018784Y025557D02*
X038732Y025557D01*
X038732Y025459D02*
X018685Y025459D01*
X018587Y025360D02*
X021777Y025360D01*
X021804Y025372D02*
X021707Y025331D01*
X021632Y025257D01*
X021592Y025160D01*
X021592Y025054D01*
X021632Y024957D01*
X021707Y024882D01*
X021804Y024842D01*
X021910Y024842D01*
X022007Y024882D01*
X022081Y024957D01*
X022122Y025054D01*
X022122Y025160D01*
X022081Y025257D01*
X022007Y025331D01*
X021910Y025372D01*
X021804Y025372D01*
X021937Y025360D02*
X038732Y025360D01*
X038732Y025262D02*
X022076Y025262D01*
X022120Y025163D02*
X038732Y025163D01*
X038732Y025065D02*
X022122Y025065D01*
X022085Y024966D02*
X038732Y024966D01*
X038732Y024868D02*
X021972Y024868D01*
X021742Y024868D02*
X001982Y024868D01*
X001982Y024966D02*
X021628Y024966D01*
X021592Y025065D02*
X001982Y025065D01*
X001982Y024769D02*
X038732Y024769D01*
X038732Y024671D02*
X001982Y024671D01*
X001982Y024572D02*
X038732Y024572D01*
X038732Y024473D02*
X020091Y024473D01*
X020209Y024375D02*
X038732Y024375D01*
X038732Y024276D02*
X020247Y024276D01*
X020071Y023982D02*
X020482Y023982D01*
X020482Y022482D01*
X020247Y022404D02*
X034482Y022404D01*
X034482Y022503D02*
X023813Y022503D01*
X023781Y022471D02*
X023868Y022557D01*
X023915Y022671D01*
X023915Y022793D01*
X023868Y022906D01*
X023781Y022993D01*
X023668Y023040D01*
X023546Y023040D01*
X023432Y022993D01*
X023346Y022906D01*
X023299Y022793D01*
X023299Y022671D01*
X023346Y022557D01*
X023432Y022471D01*
X023546Y022424D01*
X023668Y022424D01*
X023781Y022471D01*
X023886Y022601D02*
X034482Y022601D01*
X034482Y022700D02*
X023915Y022700D01*
X023913Y022798D02*
X034482Y022798D01*
X034482Y022897D02*
X023872Y022897D01*
X023776Y022995D02*
X034482Y022995D01*
X034482Y023094D02*
X022982Y023094D01*
X022982Y023192D02*
X034482Y023192D01*
X034482Y023291D02*
X022982Y023291D01*
X022982Y023389D02*
X034482Y023389D01*
X034482Y023488D02*
X022982Y023488D01*
X022982Y023587D02*
X034482Y023587D01*
X034482Y023685D02*
X022982Y023685D01*
X022982Y023784D02*
X034482Y023784D01*
X034482Y023882D02*
X022982Y023882D01*
X022982Y023981D02*
X034482Y023981D01*
X034482Y022108D02*
X020075Y022108D01*
X019755Y022503D02*
X014563Y022503D01*
X014636Y022601D02*
X019879Y022601D01*
X020732Y022798D02*
X022732Y022798D01*
X022732Y022897D02*
X020732Y022897D01*
X020732Y022995D02*
X022732Y022995D01*
X022732Y023094D02*
X020732Y023094D01*
X020732Y023192D02*
X022732Y023192D01*
X022732Y023291D02*
X020732Y023291D01*
X020732Y023389D02*
X022732Y023389D01*
X022732Y023488D02*
X020732Y023488D01*
X020732Y023587D02*
X022732Y023587D01*
X022732Y023685D02*
X020732Y023685D01*
X020732Y023784D02*
X022732Y023784D01*
X022732Y023882D02*
X020732Y023882D01*
X020732Y023981D02*
X022732Y023981D01*
X022732Y024079D02*
X020732Y024079D01*
X020732Y024178D02*
X022732Y024178D01*
X022982Y022995D02*
X023438Y022995D01*
X023342Y022897D02*
X022982Y022897D01*
X022982Y022798D02*
X023301Y022798D01*
X023299Y022700D02*
X022982Y022700D01*
X022982Y022601D02*
X023327Y022601D01*
X023400Y022503D02*
X022982Y022503D01*
X020482Y023981D02*
X020068Y023981D01*
X020071Y023982D02*
X020035Y023967D01*
X019929Y023967D01*
X019893Y023982D01*
X018967Y023982D01*
X018956Y023957D01*
X018882Y023882D01*
X018966Y023981D02*
X019896Y023981D01*
X019717Y024276D02*
X018937Y024276D01*
X018527Y024276D02*
X014687Y024276D01*
X014717Y023982D02*
X018497Y023982D01*
X018507Y023957D01*
X018582Y023882D01*
X018497Y023981D02*
X014716Y023981D01*
X014717Y023982D02*
X014706Y023957D01*
X014632Y023882D01*
X014277Y024276D02*
X001982Y024276D01*
X001982Y024375D02*
X019754Y024375D01*
X019873Y024473D02*
X001982Y024473D01*
X001982Y026149D02*
X005102Y026149D01*
X005003Y026247D02*
X001982Y026247D01*
X002053Y026346D02*
X004911Y026346D01*
X004870Y026444D02*
X002093Y026444D01*
X002134Y026543D02*
X004829Y026543D01*
X004809Y026641D02*
X002155Y026641D01*
X004034Y027627D02*
X018630Y027627D01*
X018752Y027725D02*
X003984Y027725D01*
X005917Y026149D02*
X018697Y026149D01*
X018697Y026247D02*
X006016Y026247D01*
X006108Y026346D02*
X018697Y026346D01*
X018697Y026444D02*
X006149Y026444D01*
X005694Y026050D02*
X018697Y026050D01*
X019017Y026346D02*
X021544Y026346D01*
X021395Y026444D02*
X019017Y026444D01*
X019017Y026543D02*
X019444Y026543D01*
X019346Y026641D02*
X019017Y026641D01*
X019017Y026740D02*
X019247Y026740D01*
X019149Y026839D02*
X019017Y026839D01*
X019232Y026982D02*
X019607Y026607D01*
X021607Y026607D01*
X021740Y026839D02*
X022664Y026839D01*
X022682Y026821D02*
X022796Y026774D01*
X022918Y026774D01*
X023031Y026821D01*
X023118Y026907D01*
X023165Y027021D01*
X023165Y027143D01*
X023118Y027256D01*
X023031Y027343D01*
X022918Y027390D01*
X022796Y027390D01*
X022682Y027343D01*
X022596Y027256D01*
X022549Y027143D01*
X022549Y027021D01*
X022596Y026907D01*
X022682Y026821D01*
X022583Y026937D02*
X019503Y026937D01*
X019601Y026839D02*
X021474Y026839D01*
X021838Y026740D02*
X030528Y026740D01*
X030553Y026715D02*
X030669Y026667D01*
X030794Y026667D01*
X030910Y026715D01*
X030999Y026803D01*
X031047Y026919D01*
X031047Y027044D01*
X030999Y027160D01*
X030910Y027249D01*
X030794Y027297D01*
X030669Y027297D01*
X030553Y027249D01*
X030465Y027160D01*
X030417Y027044D01*
X030417Y026919D01*
X030465Y026803D01*
X030553Y026715D01*
X030450Y026839D02*
X023049Y026839D01*
X023130Y026937D02*
X030417Y026937D01*
X030417Y027036D02*
X023165Y027036D01*
X023165Y027134D02*
X030454Y027134D01*
X030537Y027233D02*
X026948Y027233D01*
X026766Y027233D02*
X023128Y027233D01*
X023043Y027331D02*
X023281Y027331D01*
X023183Y027430D02*
X019392Y027430D01*
X019392Y027528D02*
X023084Y027528D01*
X022985Y027627D02*
X019392Y027627D01*
X019392Y027725D02*
X022947Y027725D01*
X022947Y027824D02*
X019392Y027824D01*
X019392Y027922D02*
X022947Y027922D01*
X022947Y028021D02*
X019392Y028021D01*
X019392Y028120D02*
X022947Y028120D01*
X022947Y028218D02*
X021663Y028218D01*
X021660Y028217D02*
X021757Y028257D01*
X021831Y028332D01*
X021872Y028429D01*
X021872Y028535D01*
X021831Y028632D01*
X021757Y028706D01*
X021660Y028747D01*
X021554Y028747D01*
X021457Y028706D01*
X021382Y028632D01*
X021342Y028535D01*
X021342Y028429D01*
X021382Y028332D01*
X021457Y028257D01*
X021554Y028217D01*
X021660Y028217D01*
X021551Y028218D02*
X019392Y028218D01*
X019392Y028317D02*
X021397Y028317D01*
X021348Y028415D02*
X020665Y028415D01*
X020730Y028514D02*
X021342Y028514D01*
X021374Y028612D02*
X020747Y028612D01*
X020726Y028711D02*
X021467Y028711D01*
X021746Y028711D02*
X022947Y028711D01*
X022947Y028809D02*
X020654Y028809D01*
X020217Y028612D02*
X019392Y028612D01*
X019392Y028514D02*
X020234Y028514D01*
X020299Y028415D02*
X019392Y028415D01*
X019392Y027331D02*
X022670Y027331D01*
X022586Y027233D02*
X019392Y027233D01*
X019392Y027134D02*
X022549Y027134D01*
X022549Y027036D02*
X019404Y027036D01*
X018331Y025557D02*
X017406Y025557D01*
X017413Y025163D02*
X021593Y025163D01*
X021637Y025262D02*
X018488Y025262D01*
X021816Y028317D02*
X022947Y028317D01*
X022947Y028415D02*
X021866Y028415D01*
X021872Y028514D02*
X022947Y028514D01*
X022947Y028612D02*
X021840Y028612D01*
X021660Y029967D02*
X021757Y030007D01*
X021831Y030082D01*
X021872Y030179D01*
X021872Y030285D01*
X021831Y030382D01*
X021757Y030456D01*
X021660Y030497D01*
X021554Y030497D01*
X021457Y030456D01*
X021382Y030382D01*
X021342Y030285D01*
X021342Y030179D01*
X021382Y030082D01*
X021457Y030007D01*
X021554Y029967D01*
X021660Y029967D01*
X021720Y029992D02*
X025118Y029992D01*
X025132Y029957D02*
X025207Y029882D01*
X025304Y029842D01*
X025410Y029842D01*
X025507Y029882D01*
X025581Y029957D01*
X025622Y030054D01*
X025622Y030160D01*
X025581Y030257D01*
X025507Y030331D01*
X025410Y030372D01*
X025304Y030372D01*
X025207Y030331D01*
X025132Y030257D01*
X025092Y030160D01*
X025092Y030054D01*
X025132Y029957D01*
X025196Y029893D02*
X019392Y029893D01*
X019392Y029795D02*
X030417Y029795D01*
X030417Y029794D02*
X030417Y029669D01*
X030465Y029553D01*
X030553Y029465D01*
X030669Y029417D01*
X030794Y029417D01*
X030910Y029465D01*
X030999Y029553D01*
X031047Y029669D01*
X031047Y029794D01*
X030999Y029910D01*
X030910Y029999D01*
X030794Y030047D01*
X030669Y030047D01*
X030553Y029999D01*
X030465Y029910D01*
X030417Y029794D01*
X030417Y029696D02*
X023267Y029696D01*
X023346Y029598D02*
X030446Y029598D01*
X030519Y029499D02*
X023372Y029499D01*
X023360Y029401D02*
X038732Y029401D01*
X038732Y029499D02*
X030945Y029499D01*
X031017Y029598D02*
X038696Y029598D01*
X038667Y029696D02*
X031047Y029696D01*
X031047Y029795D02*
X038667Y029795D01*
X038708Y029893D02*
X031006Y029893D01*
X030917Y029992D02*
X038732Y029992D01*
X038732Y030090D02*
X029622Y030090D01*
X029622Y030054D02*
X029581Y029957D01*
X029507Y029882D01*
X029410Y029842D01*
X029304Y029842D01*
X029207Y029882D01*
X029132Y029957D01*
X029092Y030054D01*
X029092Y030160D01*
X029132Y030257D01*
X029207Y030331D01*
X029304Y030372D01*
X029410Y030372D01*
X029507Y030331D01*
X029581Y030257D01*
X029622Y030160D01*
X029622Y030054D01*
X029596Y029992D02*
X030546Y029992D01*
X030458Y029893D02*
X029518Y029893D01*
X029610Y030189D02*
X038732Y030189D01*
X038732Y030288D02*
X029551Y030288D01*
X029163Y030288D02*
X028551Y030288D01*
X028581Y030257D02*
X028507Y030331D01*
X028410Y030372D01*
X028304Y030372D01*
X028207Y030331D01*
X028132Y030257D01*
X028092Y030160D01*
X028092Y030054D01*
X028132Y029957D01*
X028207Y029882D01*
X028304Y029842D01*
X028410Y029842D01*
X028507Y029882D01*
X028581Y029957D01*
X028622Y030054D01*
X028622Y030160D01*
X028581Y030257D01*
X028610Y030189D02*
X029104Y030189D01*
X029092Y030090D02*
X028622Y030090D01*
X028596Y029992D02*
X029118Y029992D01*
X029196Y029893D02*
X028518Y029893D01*
X028196Y029893D02*
X027518Y029893D01*
X027507Y029882D02*
X027581Y029957D01*
X027622Y030054D01*
X027622Y030160D01*
X027581Y030257D01*
X027507Y030331D01*
X027410Y030372D01*
X027304Y030372D01*
X027207Y030331D01*
X027132Y030257D01*
X027092Y030160D01*
X027092Y030054D01*
X027132Y029957D01*
X027207Y029882D01*
X027304Y029842D01*
X027410Y029842D01*
X027507Y029882D01*
X027596Y029992D02*
X028118Y029992D01*
X028092Y030090D02*
X027622Y030090D01*
X027610Y030189D02*
X028104Y030189D01*
X028163Y030288D02*
X027551Y030288D01*
X027163Y030288D02*
X026551Y030288D01*
X026581Y030257D02*
X026507Y030331D01*
X026410Y030372D01*
X026304Y030372D01*
X026207Y030331D01*
X026132Y030257D01*
X026092Y030160D01*
X026092Y030054D01*
X026132Y029957D01*
X026207Y029882D01*
X026304Y029842D01*
X026410Y029842D01*
X026507Y029882D01*
X026581Y029957D01*
X026622Y030054D01*
X026622Y030160D01*
X026581Y030257D01*
X026610Y030189D02*
X027104Y030189D01*
X027092Y030090D02*
X026622Y030090D01*
X026596Y029992D02*
X027118Y029992D01*
X027196Y029893D02*
X026518Y029893D01*
X026196Y029893D02*
X025518Y029893D01*
X025596Y029992D02*
X026118Y029992D01*
X026092Y030090D02*
X025622Y030090D01*
X025610Y030189D02*
X026104Y030189D01*
X026163Y030288D02*
X025551Y030288D01*
X025163Y030288D02*
X021871Y030288D01*
X021872Y030189D02*
X025104Y030189D01*
X025092Y030090D02*
X021835Y030090D01*
X021827Y030386D02*
X038732Y030386D01*
X038732Y030485D02*
X021689Y030485D01*
X021525Y030485D02*
X019392Y030485D01*
X019392Y030386D02*
X021386Y030386D01*
X021343Y030288D02*
X019392Y030288D01*
X019392Y030189D02*
X021342Y030189D01*
X021379Y030090D02*
X019392Y030090D01*
X019392Y029992D02*
X021494Y029992D01*
X021168Y031799D02*
X021046Y031799D01*
X020932Y031846D01*
X020846Y031932D01*
X020799Y032046D01*
X020799Y032168D01*
X020846Y032281D01*
X020932Y032368D01*
X021046Y032415D01*
X021168Y032415D01*
X021281Y032368D01*
X021368Y032281D01*
X021415Y032168D01*
X021415Y032046D01*
X021368Y031932D01*
X021281Y031846D01*
X021168Y031799D01*
X021300Y031864D02*
X021914Y031864D01*
X021932Y031846D02*
X022046Y031799D01*
X022168Y031799D01*
X022281Y031846D01*
X022368Y031932D01*
X022415Y032046D01*
X022415Y032168D01*
X022368Y032281D01*
X022281Y032368D01*
X022168Y032415D01*
X022046Y032415D01*
X021932Y032368D01*
X021846Y032281D01*
X021799Y032168D01*
X021799Y032046D01*
X021846Y031932D01*
X021932Y031846D01*
X021833Y031963D02*
X021381Y031963D01*
X021415Y032061D02*
X021799Y032061D01*
X021799Y032160D02*
X021415Y032160D01*
X021378Y032258D02*
X021836Y032258D01*
X021921Y032357D02*
X021292Y032357D01*
X020921Y032357D02*
X018842Y032357D01*
X018831Y032382D02*
X018757Y032456D01*
X018660Y032497D01*
X018554Y032497D01*
X018457Y032456D01*
X018382Y032382D01*
X018342Y032285D01*
X018342Y032179D01*
X018382Y032082D01*
X018457Y032007D01*
X018554Y031967D01*
X018660Y031967D01*
X018757Y032007D01*
X018831Y032082D01*
X018872Y032179D01*
X018872Y032285D01*
X018831Y032382D01*
X018758Y032455D02*
X023736Y032455D01*
X023717Y032410D02*
X023717Y032304D01*
X023757Y032207D01*
X023832Y032132D01*
X023929Y032092D01*
X024035Y032092D01*
X024132Y032132D01*
X024206Y032207D01*
X024247Y032304D01*
X024247Y032410D01*
X024206Y032507D01*
X024132Y032581D01*
X024035Y032622D01*
X023929Y032622D01*
X023832Y032581D01*
X023757Y032507D01*
X023717Y032410D01*
X023717Y032357D02*
X022292Y032357D01*
X022378Y032258D02*
X023736Y032258D01*
X023804Y032160D02*
X022415Y032160D01*
X022415Y032061D02*
X029092Y032061D01*
X029092Y032054D02*
X029132Y031957D01*
X029207Y031882D01*
X029304Y031842D01*
X029410Y031842D01*
X029507Y031882D01*
X029581Y031957D01*
X029622Y032054D01*
X029622Y032160D01*
X031249Y032160D01*
X031240Y032181D02*
X031329Y031967D01*
X031492Y031803D01*
X031706Y031714D01*
X031938Y031714D01*
X032152Y031803D01*
X032316Y031967D01*
X032405Y032181D01*
X032405Y032413D01*
X032316Y032627D01*
X032152Y032791D01*
X031938Y032879D01*
X031706Y032879D01*
X031492Y032791D01*
X031329Y032627D01*
X031240Y032413D01*
X031240Y032181D01*
X031240Y032258D02*
X029580Y032258D01*
X029581Y032257D02*
X029507Y032331D01*
X029410Y032372D01*
X029304Y032372D01*
X029207Y032331D01*
X029132Y032257D01*
X029092Y032160D01*
X024160Y032160D01*
X024228Y032258D02*
X029134Y032258D01*
X029092Y032160D02*
X029092Y032054D01*
X029130Y031963D02*
X023880Y031963D01*
X023885Y031961D02*
X023786Y032002D01*
X023678Y032002D01*
X023579Y031961D01*
X023503Y031885D01*
X023462Y031786D01*
X023462Y031678D01*
X023503Y031579D01*
X023579Y031503D01*
X023678Y031462D01*
X023786Y031462D01*
X023885Y031503D01*
X023961Y031579D01*
X024002Y031678D01*
X024002Y031786D01*
X023961Y031885D01*
X023885Y031961D01*
X023969Y031864D02*
X029250Y031864D01*
X029464Y031864D02*
X031431Y031864D01*
X031333Y031963D02*
X029584Y031963D01*
X029622Y032061D02*
X031289Y032061D01*
X031240Y032357D02*
X029445Y032357D01*
X029581Y032257D02*
X029622Y032160D01*
X029268Y032357D02*
X024247Y032357D01*
X024228Y032455D02*
X031258Y032455D01*
X031299Y032554D02*
X024159Y032554D01*
X023804Y032554D02*
X017280Y032554D01*
X017298Y032572D02*
X018541Y032572D01*
X018673Y032572D01*
X018693Y032592D01*
X018785Y032592D01*
X018882Y032632D01*
X018956Y032707D01*
X018997Y032804D01*
X018997Y032910D01*
X018956Y033007D01*
X018882Y033081D01*
X018785Y033122D01*
X018679Y033122D01*
X018582Y033081D01*
X018507Y033007D01*
X018467Y032910D01*
X018467Y032892D01*
X017166Y032892D01*
X017072Y032798D01*
X016916Y032642D01*
X016562Y032642D01*
X016027Y033177D01*
X015927Y033277D01*
X013475Y033277D01*
X013450Y033336D01*
X013336Y033450D01*
X013187Y033512D01*
X013026Y033512D01*
X012877Y033450D01*
X012763Y033336D01*
X012702Y033187D01*
X012702Y033026D01*
X012763Y032877D01*
X012877Y032763D01*
X013026Y032702D01*
X013187Y032702D01*
X013336Y032763D01*
X013450Y032877D01*
X013475Y032937D01*
X015786Y032937D01*
X016411Y032312D01*
X016552Y032312D01*
X016562Y032322D01*
X016697Y032322D01*
X016632Y032257D01*
X016592Y032160D01*
X013512Y032160D01*
X013512Y032187D02*
X013450Y032336D01*
X013336Y032450D01*
X013187Y032512D01*
X013026Y032512D01*
X012877Y032450D01*
X012763Y032336D01*
X012702Y032187D01*
X012702Y032026D01*
X012763Y031877D01*
X012877Y031763D01*
X013026Y031702D01*
X013187Y031702D01*
X013336Y031763D01*
X013450Y031877D01*
X013512Y032026D01*
X013512Y032187D01*
X013482Y032258D02*
X016634Y032258D01*
X016592Y032160D02*
X016592Y032054D01*
X016632Y031957D01*
X016707Y031882D01*
X016804Y031842D01*
X016910Y031842D01*
X017007Y031882D01*
X017081Y031957D01*
X017122Y032054D01*
X017122Y032160D01*
X018350Y032160D01*
X018342Y032258D02*
X017080Y032258D01*
X017081Y032257D02*
X017016Y032322D01*
X017048Y032322D01*
X017298Y032572D01*
X017182Y032455D02*
X018456Y032455D01*
X018372Y032357D02*
X017083Y032357D01*
X017081Y032257D02*
X017122Y032160D01*
X017122Y032061D02*
X018403Y032061D01*
X018811Y032061D02*
X020799Y032061D01*
X020799Y032160D02*
X018864Y032160D01*
X018872Y032258D02*
X020836Y032258D01*
X020833Y031963D02*
X017084Y031963D01*
X016964Y031864D02*
X020914Y031864D01*
X021046Y032799D02*
X021168Y032799D01*
X021281Y032846D01*
X021368Y032932D01*
X021415Y033046D01*
X021415Y033168D01*
X021368Y033281D01*
X021281Y033368D01*
X021168Y033415D01*
X021046Y033415D01*
X020932Y033368D01*
X020846Y033281D01*
X020799Y033168D01*
X020799Y033046D01*
X020846Y032932D01*
X020932Y032846D01*
X021046Y032799D01*
X020928Y032850D02*
X018997Y032850D01*
X018981Y032948D02*
X020839Y032948D01*
X020799Y033047D02*
X018917Y033047D01*
X018732Y032857D02*
X018607Y032732D01*
X017232Y032732D01*
X016982Y032482D01*
X016482Y032482D01*
X016366Y032357D02*
X013429Y032357D01*
X013323Y032455D02*
X016268Y032455D01*
X016169Y032554D02*
X010469Y032554D01*
X010507Y032570D02*
X010581Y032644D01*
X010622Y032742D01*
X010622Y032847D01*
X010581Y032944D01*
X010507Y033019D01*
X010410Y033059D01*
X010304Y033059D01*
X010207Y033019D01*
X010132Y032944D01*
X010092Y032847D01*
X010092Y032742D01*
X010132Y032644D01*
X010207Y032570D01*
X010304Y032529D01*
X010410Y032529D01*
X010507Y032570D01*
X010585Y032653D02*
X016071Y032653D01*
X015972Y032751D02*
X013306Y032751D01*
X013422Y032850D02*
X015874Y032850D01*
X016157Y033047D02*
X018547Y033047D01*
X018483Y032948D02*
X016256Y032948D01*
X016354Y032850D02*
X017123Y032850D01*
X017025Y032751D02*
X016453Y032751D01*
X016551Y032653D02*
X016926Y032653D01*
X016592Y032061D02*
X013512Y032061D01*
X013485Y031963D02*
X016630Y031963D01*
X016750Y031864D02*
X016178Y031864D01*
X016036Y031864D02*
X013437Y031864D01*
X013338Y031766D02*
X015891Y031766D01*
X015845Y031667D02*
X005733Y031667D01*
X005732Y031667D02*
X005848Y031715D01*
X005936Y031803D01*
X005984Y031919D01*
X005984Y032044D01*
X005936Y032160D01*
X005848Y032249D01*
X005732Y032297D01*
X005607Y032297D01*
X005491Y032249D01*
X005402Y032160D01*
X001982Y032160D01*
X001982Y032258D02*
X005514Y032258D01*
X005402Y032160D02*
X005354Y032044D01*
X005354Y031919D01*
X005402Y031803D01*
X005491Y031715D01*
X005607Y031667D01*
X005732Y031667D01*
X005606Y031667D02*
X001982Y031667D01*
X001982Y031569D02*
X015842Y031569D01*
X015877Y031470D02*
X013288Y031470D01*
X012925Y031470D02*
X012288Y031470D01*
X012336Y031450D02*
X012187Y031512D01*
X012026Y031512D01*
X011877Y031450D01*
X011763Y031336D01*
X011702Y031187D01*
X011702Y031026D01*
X011763Y030877D01*
X011877Y030763D01*
X012026Y030702D01*
X012187Y030702D01*
X012336Y030763D01*
X012450Y030877D01*
X012512Y031026D01*
X012512Y031187D01*
X012450Y031336D01*
X012336Y031450D01*
X012415Y031371D02*
X012799Y031371D01*
X012737Y031273D02*
X012476Y031273D01*
X012512Y031174D02*
X012702Y031174D01*
X012702Y031076D02*
X012512Y031076D01*
X012491Y030977D02*
X012722Y030977D01*
X012763Y030879D02*
X012451Y030879D01*
X012353Y030780D02*
X012861Y030780D01*
X013353Y030780D02*
X015906Y030780D01*
X015851Y030682D02*
X001982Y030682D01*
X001982Y030780D02*
X011861Y030780D01*
X011763Y030879D02*
X001982Y030879D01*
X001982Y030977D02*
X011722Y030977D01*
X011702Y031076D02*
X001982Y031076D01*
X001982Y031174D02*
X011702Y031174D01*
X011737Y031273D02*
X001982Y031273D01*
X001982Y031371D02*
X011799Y031371D01*
X011925Y031470D02*
X001982Y031470D01*
X001982Y031766D02*
X005440Y031766D01*
X005377Y031864D02*
X001982Y031864D01*
X001982Y031963D02*
X005354Y031963D01*
X005361Y032061D02*
X001982Y032061D01*
X001982Y032357D02*
X011784Y032357D01*
X011763Y032336D02*
X011702Y032187D01*
X011702Y032026D01*
X011763Y031877D01*
X011877Y031763D01*
X012026Y031702D01*
X012187Y031702D01*
X012336Y031763D01*
X012450Y031877D01*
X012512Y032026D01*
X012512Y032187D01*
X012450Y032336D01*
X012336Y032450D01*
X012187Y032512D01*
X012026Y032512D01*
X011877Y032450D01*
X011763Y032336D01*
X011731Y032258D02*
X005825Y032258D01*
X005937Y032160D02*
X007035Y032160D01*
X007007Y032132D02*
X006967Y032035D01*
X006967Y031929D01*
X007007Y031832D01*
X007082Y031757D01*
X007179Y031717D01*
X007285Y031717D01*
X007382Y031757D01*
X007456Y031832D01*
X007497Y031929D01*
X007497Y032035D01*
X007456Y032132D01*
X007382Y032206D01*
X007285Y032247D01*
X007179Y032247D01*
X007082Y032206D01*
X007007Y032132D01*
X006978Y032061D02*
X005977Y032061D01*
X005984Y031963D02*
X006967Y031963D01*
X006994Y031864D02*
X005962Y031864D01*
X005899Y031766D02*
X007073Y031766D01*
X007390Y031766D02*
X011875Y031766D01*
X011777Y031864D02*
X007470Y031864D01*
X007497Y031963D02*
X011728Y031963D01*
X011702Y032061D02*
X007486Y032061D01*
X007428Y032160D02*
X011702Y032160D01*
X011890Y032455D02*
X001982Y032455D01*
X001982Y032554D02*
X006640Y032554D01*
X006669Y032542D02*
X006794Y032542D01*
X006910Y032590D01*
X006999Y032678D01*
X007047Y032794D01*
X007047Y032919D01*
X006999Y033035D01*
X006910Y033124D01*
X006794Y033172D01*
X006669Y033172D01*
X006553Y033124D01*
X006465Y033035D01*
X006417Y032919D01*
X006417Y032794D01*
X006465Y032678D01*
X006553Y032590D01*
X006669Y032542D01*
X006824Y032554D02*
X010244Y032554D01*
X010129Y032653D02*
X006973Y032653D01*
X007029Y032751D02*
X010092Y032751D01*
X010093Y032850D02*
X007047Y032850D01*
X007035Y032948D02*
X010136Y032948D01*
X010274Y033047D02*
X006987Y033047D01*
X006858Y033145D02*
X011702Y033145D01*
X011702Y033187D02*
X011702Y033026D01*
X011763Y032877D01*
X011877Y032763D01*
X012026Y032702D01*
X012187Y032702D01*
X012336Y032763D01*
X012450Y032877D01*
X012512Y033026D01*
X012512Y033187D01*
X012450Y033336D01*
X012336Y033450D01*
X012187Y033512D01*
X012026Y033512D01*
X011877Y033450D01*
X011763Y033336D01*
X011702Y033187D01*
X011725Y033244D02*
X003167Y033244D01*
X003160Y033247D02*
X003054Y033247D01*
X002957Y033206D01*
X002882Y033132D01*
X002842Y033035D01*
X002842Y032929D01*
X002882Y032832D01*
X002957Y032757D01*
X003054Y032717D01*
X003160Y032717D01*
X003257Y032757D01*
X003331Y032832D01*
X003372Y032929D01*
X003372Y033035D01*
X003331Y033132D01*
X003257Y033206D01*
X003160Y033247D01*
X003047Y033244D02*
X001982Y033244D01*
X001982Y033342D02*
X011770Y033342D01*
X011868Y033441D02*
X006373Y033441D01*
X006382Y033445D02*
X006456Y033519D01*
X006497Y033617D01*
X006497Y033722D01*
X006456Y033819D01*
X006382Y033894D01*
X006285Y033934D01*
X006179Y033934D01*
X006082Y033894D01*
X006007Y033819D01*
X005967Y033722D01*
X005967Y033617D01*
X006007Y033519D01*
X006082Y033445D01*
X006179Y033404D01*
X006285Y033404D01*
X006382Y033445D01*
X006465Y033539D02*
X033095Y033539D01*
X033095Y033559D02*
X033095Y033405D01*
X033154Y033262D01*
X033262Y033154D01*
X033405Y033095D01*
X033559Y033095D01*
X033701Y033154D01*
X033810Y033262D01*
X033869Y033405D01*
X033869Y033559D01*
X033810Y033701D01*
X033701Y033810D01*
X033559Y033869D01*
X033405Y033869D01*
X033262Y033810D01*
X033154Y033701D01*
X033095Y033559D01*
X033127Y033638D02*
X006497Y033638D01*
X006491Y033737D02*
X007782Y033737D01*
X007803Y033715D02*
X007919Y033667D01*
X008044Y033667D01*
X008160Y033715D01*
X008249Y033803D01*
X008297Y033919D01*
X008297Y034044D01*
X008249Y034160D01*
X008160Y034249D01*
X008044Y034297D01*
X007919Y034297D01*
X007803Y034249D01*
X007715Y034160D01*
X007667Y034044D01*
X007667Y033919D01*
X007715Y033803D01*
X007803Y033715D01*
X007702Y033835D02*
X006441Y033835D01*
X006286Y033934D02*
X007667Y033934D01*
X007667Y034032D02*
X001982Y034032D01*
X001982Y033934D02*
X006177Y033934D01*
X006023Y033835D02*
X001982Y033835D01*
X001982Y033737D02*
X005973Y033737D01*
X005967Y033638D02*
X001982Y033638D01*
X001982Y033539D02*
X005999Y033539D01*
X006091Y033441D02*
X001982Y033441D01*
X001982Y033145D02*
X002896Y033145D01*
X002847Y033047D02*
X001982Y033047D01*
X001982Y032948D02*
X002842Y032948D01*
X002875Y032850D02*
X001982Y032850D01*
X001982Y032751D02*
X002971Y032751D01*
X003242Y032751D02*
X006435Y032751D01*
X006417Y032850D02*
X003339Y032850D01*
X003372Y032948D02*
X006429Y032948D01*
X006476Y033047D02*
X003367Y033047D01*
X003318Y033145D02*
X006605Y033145D01*
X006491Y032653D02*
X001982Y032653D01*
X001982Y034131D02*
X007703Y034131D01*
X007784Y034229D02*
X001982Y034229D01*
X001982Y034328D02*
X011760Y034328D01*
X011763Y034336D02*
X011702Y034187D01*
X011702Y034026D01*
X011763Y033877D01*
X011877Y033763D01*
X012026Y033702D01*
X012187Y033702D01*
X012336Y033763D01*
X012450Y033877D01*
X012512Y034026D01*
X012512Y034187D01*
X012450Y034336D01*
X012336Y034450D01*
X012187Y034512D01*
X012026Y034512D01*
X011877Y034450D01*
X011763Y034336D01*
X011719Y034229D02*
X008180Y034229D01*
X008261Y034131D02*
X011702Y034131D01*
X011702Y034032D02*
X008297Y034032D01*
X008297Y033934D02*
X011740Y033934D01*
X011806Y033835D02*
X008262Y033835D01*
X008182Y033737D02*
X011942Y033737D01*
X012271Y033737D02*
X012942Y033737D01*
X012877Y033763D02*
X013026Y033702D01*
X013187Y033702D01*
X013336Y033763D01*
X013450Y033877D01*
X013475Y033937D01*
X014411Y033937D01*
X014661Y033687D01*
X014802Y033687D01*
X018802Y033687D01*
X018832Y033717D01*
X018910Y033717D01*
X019007Y033757D01*
X019081Y033832D01*
X019122Y033929D01*
X019122Y034035D01*
X019081Y034132D01*
X019007Y034206D01*
X018910Y034247D01*
X018804Y034247D01*
X018707Y034206D01*
X018632Y034132D01*
X018592Y034035D01*
X018592Y034027D01*
X014802Y034027D01*
X014652Y034177D01*
X014552Y034277D01*
X013475Y034277D01*
X013450Y034336D01*
X013336Y034450D01*
X013187Y034512D01*
X013026Y034512D01*
X012877Y034450D01*
X012763Y034336D01*
X012702Y034187D01*
X012702Y034026D01*
X012763Y033877D01*
X012877Y033763D01*
X012806Y033835D02*
X012408Y033835D01*
X012473Y033934D02*
X012740Y033934D01*
X012702Y034032D02*
X012512Y034032D01*
X012512Y034131D02*
X012702Y034131D01*
X012719Y034229D02*
X012494Y034229D01*
X012454Y034328D02*
X012760Y034328D01*
X012854Y034426D02*
X012360Y034426D01*
X012236Y034722D02*
X012978Y034722D01*
X013026Y034702D02*
X013187Y034702D01*
X013336Y034763D01*
X013450Y034877D01*
X013512Y035026D01*
X013512Y035187D01*
X013450Y035336D01*
X013336Y035450D01*
X013187Y035512D01*
X013026Y035512D01*
X012877Y035450D01*
X012763Y035336D01*
X012702Y035187D01*
X012702Y035026D01*
X012763Y034877D01*
X012877Y034763D01*
X013026Y034702D01*
X013236Y034722D02*
X021501Y034722D01*
X021507Y034707D02*
X021582Y034632D01*
X021679Y034592D01*
X021785Y034592D01*
X021882Y034632D01*
X021956Y034707D01*
X021997Y034804D01*
X021997Y034910D01*
X021956Y035007D01*
X021882Y035081D01*
X021785Y035122D01*
X021679Y035122D01*
X021582Y035081D01*
X021507Y035007D01*
X021467Y034910D01*
X021467Y034804D01*
X021507Y034707D01*
X021467Y034821D02*
X013393Y034821D01*
X013467Y034919D02*
X021471Y034919D01*
X021518Y035018D02*
X013508Y035018D01*
X013512Y035116D02*
X021665Y035116D01*
X021798Y035116D02*
X024092Y035116D01*
X024092Y035160D02*
X024092Y035054D01*
X024132Y034957D01*
X024207Y034882D01*
X024304Y034842D01*
X024410Y034842D01*
X024507Y034882D01*
X024581Y034957D01*
X024622Y035054D01*
X024622Y035160D01*
X024581Y035257D01*
X024507Y035331D01*
X024410Y035372D01*
X024304Y035372D01*
X024207Y035331D01*
X024132Y035257D01*
X024092Y035160D01*
X024115Y035215D02*
X013500Y035215D01*
X013460Y035313D02*
X024189Y035313D01*
X024107Y035018D02*
X021946Y035018D01*
X021993Y034919D02*
X024170Y034919D01*
X024544Y034919D02*
X029170Y034919D01*
X029207Y034882D02*
X029304Y034842D01*
X029410Y034842D01*
X029507Y034882D01*
X029581Y034957D01*
X029622Y035054D01*
X029622Y035160D01*
X029581Y035257D01*
X029507Y035331D01*
X029410Y035372D01*
X029304Y035372D01*
X029207Y035331D01*
X029132Y035257D01*
X029092Y035160D01*
X029092Y035054D01*
X029132Y034957D01*
X029207Y034882D01*
X029107Y035018D02*
X024607Y035018D01*
X024622Y035116D02*
X029092Y035116D01*
X029115Y035215D02*
X024599Y035215D01*
X024525Y035313D02*
X029189Y035313D01*
X029525Y035313D02*
X038732Y035313D01*
X038732Y035215D02*
X029599Y035215D01*
X029622Y035116D02*
X038732Y035116D01*
X038732Y035018D02*
X029607Y035018D01*
X029544Y034919D02*
X038732Y034919D01*
X038732Y034821D02*
X037176Y034821D01*
X037201Y034810D02*
X037059Y034869D01*
X036905Y034869D01*
X036762Y034810D01*
X036654Y034701D01*
X036595Y034559D01*
X036595Y034405D01*
X036654Y034262D01*
X036762Y034154D01*
X036905Y034095D01*
X037059Y034095D01*
X037201Y034154D01*
X037310Y034262D01*
X037369Y034405D01*
X037369Y034559D01*
X037310Y034701D01*
X037201Y034810D01*
X037289Y034722D02*
X038732Y034722D01*
X038732Y034623D02*
X037342Y034623D01*
X037369Y034525D02*
X038732Y034525D01*
X038732Y034426D02*
X037369Y034426D01*
X037337Y034328D02*
X038732Y034328D01*
X038732Y034229D02*
X037277Y034229D01*
X037146Y034131D02*
X038732Y034131D01*
X038732Y034032D02*
X029613Y034032D01*
X029622Y034054D02*
X029581Y033957D01*
X029507Y033882D01*
X029410Y033842D01*
X029304Y033842D01*
X029207Y033882D01*
X029132Y033957D01*
X029092Y034054D01*
X029092Y034160D01*
X029132Y034257D01*
X029207Y034331D01*
X029304Y034372D01*
X029410Y034372D01*
X029507Y034331D01*
X029581Y034257D01*
X029622Y034160D01*
X029622Y034054D01*
X029622Y034131D02*
X033729Y034131D01*
X033740Y034120D02*
X033897Y034055D01*
X033943Y034055D01*
X033943Y034443D01*
X033555Y034443D01*
X033555Y034397D01*
X033620Y034240D01*
X033740Y034120D01*
X033630Y034229D02*
X029593Y034229D01*
X029511Y034328D02*
X033583Y034328D01*
X033555Y034426D02*
X024429Y034426D01*
X024410Y034434D02*
X024304Y034434D01*
X024207Y034394D01*
X024132Y034319D01*
X024092Y034222D01*
X024092Y034117D01*
X024132Y034019D01*
X024207Y033945D01*
X024304Y033904D01*
X024410Y033904D01*
X024507Y033945D01*
X024581Y034019D01*
X024622Y034117D01*
X024622Y034222D01*
X024581Y034319D01*
X024507Y034394D01*
X024410Y034434D01*
X024285Y034426D02*
X013360Y034426D01*
X013454Y034328D02*
X024141Y034328D01*
X024095Y034229D02*
X018952Y034229D01*
X019082Y034131D02*
X024092Y034131D01*
X024127Y034032D02*
X019122Y034032D01*
X019122Y033934D02*
X024233Y033934D01*
X024480Y033934D02*
X029155Y033934D01*
X029101Y034032D02*
X024587Y034032D01*
X024622Y034131D02*
X029092Y034131D01*
X029121Y034229D02*
X024619Y034229D01*
X024573Y034328D02*
X029203Y034328D01*
X029558Y033934D02*
X038732Y033934D01*
X038732Y033835D02*
X036641Y033835D01*
X036701Y033810D02*
X036559Y033869D01*
X036405Y033869D01*
X036262Y033810D01*
X036154Y033701D01*
X036095Y033559D01*
X036095Y033405D01*
X036154Y033262D01*
X036262Y033154D01*
X036405Y033095D01*
X036559Y033095D01*
X036701Y033154D01*
X036810Y033262D01*
X036869Y033405D01*
X036869Y033559D01*
X036810Y033701D01*
X036701Y033810D01*
X036775Y033737D02*
X038732Y033737D01*
X038732Y033638D02*
X036836Y033638D01*
X036869Y033539D02*
X038732Y033539D01*
X038732Y033441D02*
X036869Y033441D01*
X036843Y033342D02*
X038732Y033342D01*
X038732Y033244D02*
X036791Y033244D01*
X036681Y033145D02*
X038732Y033145D01*
X038732Y033047D02*
X029619Y033047D01*
X029622Y033054D02*
X029581Y032957D01*
X029507Y032882D01*
X029410Y032842D01*
X029304Y032842D01*
X029207Y032882D01*
X029132Y032957D01*
X029092Y033054D01*
X029092Y033160D01*
X029132Y033257D01*
X029207Y033331D01*
X029304Y033372D01*
X029410Y033372D01*
X029507Y033331D01*
X029581Y033257D01*
X029622Y033160D01*
X029622Y033054D01*
X029622Y033145D02*
X033283Y033145D01*
X033172Y033244D02*
X029587Y033244D01*
X029481Y033342D02*
X033120Y033342D01*
X033095Y033441D02*
X013345Y033441D01*
X013444Y033342D02*
X020907Y033342D01*
X020830Y033244D02*
X015960Y033244D01*
X016059Y033145D02*
X020799Y033145D01*
X021307Y033342D02*
X021907Y033342D01*
X021932Y033368D02*
X021846Y033281D01*
X021799Y033168D01*
X021799Y033046D01*
X021846Y032932D01*
X021932Y032846D01*
X022046Y032799D01*
X022168Y032799D01*
X022281Y032846D01*
X022368Y032932D01*
X022415Y033046D01*
X022415Y033168D01*
X022368Y033281D01*
X022281Y033368D01*
X022168Y033415D01*
X022046Y033415D01*
X021932Y033368D01*
X021830Y033244D02*
X021384Y033244D01*
X021415Y033145D02*
X021799Y033145D01*
X021799Y033047D02*
X021415Y033047D01*
X021375Y032948D02*
X021839Y032948D01*
X021928Y032850D02*
X021285Y032850D01*
X022285Y032850D02*
X029285Y032850D01*
X029428Y032850D02*
X031635Y032850D01*
X031453Y032751D02*
X018975Y032751D01*
X018902Y032653D02*
X031354Y032653D01*
X032010Y032850D02*
X037954Y032850D01*
X038025Y032879D02*
X037811Y032791D01*
X037647Y032627D01*
X037559Y032413D01*
X037559Y032181D01*
X037647Y031967D01*
X037811Y031803D01*
X038025Y031714D01*
X038257Y031714D01*
X038471Y031803D01*
X038635Y031967D01*
X038724Y032181D01*
X038724Y032413D01*
X038635Y032627D01*
X038471Y032791D01*
X038257Y032879D01*
X038025Y032879D01*
X037772Y032751D02*
X032192Y032751D01*
X032290Y032653D02*
X037673Y032653D01*
X037617Y032554D02*
X032346Y032554D01*
X032387Y032455D02*
X037577Y032455D01*
X037559Y032357D02*
X032405Y032357D01*
X032405Y032258D02*
X037559Y032258D01*
X037568Y032160D02*
X032396Y032160D01*
X032355Y032061D02*
X037608Y032061D01*
X037652Y031963D02*
X032312Y031963D01*
X032214Y031864D02*
X037750Y031864D01*
X037901Y031766D02*
X032062Y031766D01*
X031582Y031766D02*
X024002Y031766D01*
X023997Y031667D02*
X038722Y031667D01*
X038732Y031766D02*
X038381Y031766D01*
X038532Y031864D02*
X038732Y031864D01*
X038732Y031963D02*
X038631Y031963D01*
X038674Y032061D02*
X038732Y032061D01*
X038732Y032160D02*
X038715Y032160D01*
X038724Y032258D02*
X038732Y032258D01*
X038724Y032357D02*
X038732Y032357D01*
X038732Y032455D02*
X038706Y032455D01*
X038732Y032554D02*
X038665Y032554D01*
X038609Y032653D02*
X038732Y032653D01*
X038732Y032751D02*
X038511Y032751D01*
X038328Y032850D02*
X038732Y032850D01*
X038732Y032948D02*
X029573Y032948D01*
X029141Y032948D02*
X022375Y032948D01*
X022415Y033047D02*
X029095Y033047D01*
X029092Y033145D02*
X022415Y033145D01*
X022384Y033244D02*
X029127Y033244D01*
X029233Y033342D02*
X022307Y033342D01*
X021861Y034623D02*
X033578Y034623D01*
X033555Y034567D02*
X033555Y034520D01*
X033943Y034520D01*
X033943Y034443D01*
X034020Y034443D01*
X034020Y034055D01*
X034067Y034055D01*
X034224Y034120D01*
X034344Y034240D01*
X034409Y034397D01*
X034409Y034443D01*
X034021Y034443D01*
X034021Y034520D01*
X034409Y034520D01*
X034409Y034567D01*
X034344Y034724D01*
X034224Y034844D01*
X034067Y034909D01*
X034020Y034909D01*
X034020Y034521D01*
X033943Y034521D01*
X033943Y034909D01*
X033897Y034909D01*
X033740Y034844D01*
X033620Y034724D01*
X033555Y034567D01*
X033555Y034525D02*
X010577Y034525D01*
X010567Y034515D02*
X010656Y034604D01*
X010704Y034720D01*
X010704Y034845D01*
X010656Y034961D01*
X010567Y035049D01*
X010452Y035097D01*
X010326Y035097D01*
X010211Y035049D01*
X010122Y034961D01*
X010074Y034845D01*
X010074Y034720D01*
X010122Y034604D01*
X010211Y034515D01*
X010326Y034467D01*
X010452Y034467D01*
X010567Y034515D01*
X010664Y034623D02*
X021603Y034623D01*
X021963Y034722D02*
X033619Y034722D01*
X033716Y034821D02*
X021997Y034821D01*
X021785Y036342D02*
X021882Y036382D01*
X021956Y036457D01*
X021997Y036554D01*
X021997Y036660D01*
X021956Y036757D01*
X021882Y036831D01*
X021785Y036872D01*
X021679Y036872D01*
X021582Y036831D01*
X021507Y036757D01*
X021467Y036660D01*
X021467Y036554D01*
X021507Y036457D01*
X021582Y036382D01*
X021679Y036342D01*
X021785Y036342D01*
X021897Y036397D02*
X022480Y036397D01*
X022467Y036429D02*
X022507Y036332D01*
X022582Y036257D01*
X022679Y036217D01*
X022785Y036217D01*
X022882Y036257D01*
X022956Y036332D01*
X022997Y036429D01*
X022997Y036535D01*
X022956Y036632D01*
X022882Y036706D01*
X022785Y036747D01*
X022679Y036747D01*
X022582Y036706D01*
X022507Y036632D01*
X022467Y036535D01*
X022467Y036429D01*
X022467Y036496D02*
X021973Y036496D01*
X021997Y036594D02*
X022492Y036594D01*
X022568Y036693D02*
X021983Y036693D01*
X021922Y036791D02*
X031483Y036791D01*
X031471Y036838D02*
X031545Y036561D01*
X031689Y036313D01*
X031891Y036110D01*
X032140Y035966D01*
X032417Y035892D01*
X032704Y035892D01*
X032981Y035966D01*
X033230Y036110D01*
X033433Y036313D01*
X033576Y036561D01*
X033650Y036838D01*
X033650Y037125D01*
X033576Y037402D01*
X033433Y037651D01*
X033230Y037854D01*
X032981Y037997D01*
X032704Y038072D01*
X032417Y038072D01*
X032140Y037997D01*
X031891Y037854D01*
X031689Y037651D01*
X031545Y037402D01*
X031471Y037125D01*
X031471Y036838D01*
X031471Y036890D02*
X002438Y036890D01*
X002585Y036988D02*
X024252Y036988D01*
X024207Y037007D02*
X024304Y036967D01*
X024410Y036967D01*
X024507Y037007D01*
X024581Y037082D01*
X024622Y037179D01*
X024622Y037285D01*
X024581Y037382D01*
X024507Y037456D01*
X024410Y037497D01*
X024304Y037497D01*
X024207Y037456D01*
X024132Y037382D01*
X024092Y037285D01*
X024092Y037179D01*
X024132Y037082D01*
X024207Y037007D01*
X024130Y037087D02*
X002684Y037087D01*
X002783Y037186D02*
X021903Y037186D01*
X021882Y037207D02*
X021957Y037132D01*
X022054Y037092D01*
X022160Y037092D01*
X022257Y037132D01*
X022331Y037207D01*
X022372Y037304D01*
X022372Y037410D01*
X022331Y037507D01*
X022257Y037581D01*
X022160Y037622D01*
X022054Y037622D01*
X021957Y037581D01*
X021882Y037507D01*
X021842Y037410D01*
X021842Y037304D01*
X021882Y037207D01*
X021850Y037284D02*
X002827Y037284D01*
X002868Y037383D02*
X021842Y037383D01*
X021872Y037481D02*
X002909Y037481D01*
X002934Y037580D02*
X021955Y037580D01*
X022259Y037580D02*
X031647Y037580D01*
X031591Y037481D02*
X024447Y037481D01*
X024581Y037383D02*
X025195Y037383D01*
X025207Y037394D02*
X025132Y037319D01*
X025092Y037222D01*
X025092Y037117D01*
X025132Y037019D01*
X025207Y036945D01*
X025304Y036904D01*
X025410Y036904D01*
X025507Y036945D01*
X025581Y037019D01*
X025622Y037117D01*
X025622Y037222D01*
X025581Y037319D01*
X025507Y037394D01*
X025410Y037434D01*
X025304Y037434D01*
X025207Y037394D01*
X025118Y037284D02*
X024622Y037284D01*
X024622Y037186D02*
X025092Y037186D01*
X025104Y037087D02*
X024584Y037087D01*
X024462Y036988D02*
X025163Y036988D01*
X025551Y036988D02*
X026163Y036988D01*
X026132Y037019D02*
X026207Y036945D01*
X026304Y036904D01*
X026410Y036904D01*
X026507Y036945D01*
X026581Y037019D01*
X026622Y037117D01*
X026622Y037222D01*
X026581Y037319D01*
X026507Y037394D01*
X026410Y037434D01*
X026304Y037434D01*
X026207Y037394D01*
X026132Y037319D01*
X026092Y037222D01*
X026092Y037117D01*
X026132Y037019D01*
X026104Y037087D02*
X025609Y037087D01*
X025622Y037186D02*
X026092Y037186D01*
X026118Y037284D02*
X025596Y037284D01*
X025518Y037383D02*
X026195Y037383D01*
X026518Y037383D02*
X027195Y037383D01*
X027207Y037394D02*
X027132Y037319D01*
X027092Y037222D01*
X027092Y037117D01*
X027132Y037019D01*
X027207Y036945D01*
X027304Y036904D01*
X027410Y036904D01*
X027507Y036945D01*
X027581Y037019D01*
X027622Y037117D01*
X027622Y037222D01*
X027581Y037319D01*
X027507Y037394D01*
X027410Y037434D01*
X027304Y037434D01*
X027207Y037394D01*
X027118Y037284D02*
X026596Y037284D01*
X026622Y037186D02*
X027092Y037186D01*
X027104Y037087D02*
X026609Y037087D01*
X026551Y036988D02*
X027163Y036988D01*
X027551Y036988D02*
X028163Y036988D01*
X028132Y037019D02*
X028207Y036945D01*
X028304Y036904D01*
X028410Y036904D01*
X028507Y036945D01*
X028581Y037019D01*
X028622Y037117D01*
X028622Y037222D01*
X028581Y037319D01*
X028507Y037394D01*
X028410Y037434D01*
X028304Y037434D01*
X028207Y037394D01*
X028132Y037319D01*
X028092Y037222D01*
X028092Y037117D01*
X028132Y037019D01*
X028104Y037087D02*
X027609Y037087D01*
X027622Y037186D02*
X028092Y037186D01*
X028118Y037284D02*
X027596Y037284D01*
X027518Y037383D02*
X028195Y037383D01*
X028518Y037383D02*
X029195Y037383D01*
X029207Y037394D02*
X029132Y037319D01*
X029092Y037222D01*
X029092Y037117D01*
X029132Y037019D01*
X029207Y036945D01*
X029304Y036904D01*
X029410Y036904D01*
X029507Y036945D01*
X029581Y037019D01*
X029622Y037117D01*
X029622Y037222D01*
X029581Y037319D01*
X029507Y037394D01*
X029410Y037434D01*
X029304Y037434D01*
X029207Y037394D01*
X029118Y037284D02*
X028596Y037284D01*
X028622Y037186D02*
X029092Y037186D01*
X029104Y037087D02*
X028609Y037087D01*
X028551Y036988D02*
X029163Y036988D01*
X029551Y036988D02*
X031471Y036988D01*
X031471Y037087D02*
X029609Y037087D01*
X029622Y037186D02*
X031487Y037186D01*
X031513Y037284D02*
X029596Y037284D01*
X029518Y037383D02*
X031540Y037383D01*
X031716Y037678D02*
X002934Y037678D01*
X002934Y037777D02*
X031814Y037777D01*
X031929Y037875D02*
X002934Y037875D01*
X002912Y037974D02*
X032099Y037974D01*
X033022Y037974D02*
X036942Y037974D01*
X036982Y037997D02*
X036734Y037854D01*
X036531Y037651D01*
X036388Y037402D01*
X036313Y037125D01*
X036313Y036838D01*
X036388Y036561D01*
X036531Y036313D01*
X036734Y036110D01*
X036982Y035966D01*
X037260Y035892D01*
X037547Y035892D01*
X037824Y035966D01*
X038072Y036110D01*
X038275Y036313D01*
X038419Y036561D01*
X038493Y036838D01*
X038493Y037125D01*
X038419Y037402D01*
X038275Y037651D01*
X038072Y037854D01*
X037824Y037997D01*
X037547Y038072D01*
X037260Y038072D01*
X036982Y037997D01*
X036771Y037875D02*
X033192Y037875D01*
X033307Y037777D02*
X036657Y037777D01*
X036558Y037678D02*
X033405Y037678D01*
X033474Y037580D02*
X036490Y037580D01*
X036433Y037481D02*
X033531Y037481D01*
X033581Y037383D02*
X036382Y037383D01*
X036356Y037284D02*
X033608Y037284D01*
X033634Y037186D02*
X036329Y037186D01*
X036313Y037087D02*
X033650Y037087D01*
X033650Y036988D02*
X036313Y036988D01*
X036313Y036890D02*
X033650Y036890D01*
X033638Y036791D02*
X036326Y036791D01*
X036352Y036693D02*
X033611Y036693D01*
X033585Y036594D02*
X036379Y036594D01*
X036425Y036496D02*
X033538Y036496D01*
X033481Y036397D02*
X036482Y036397D01*
X036545Y036299D02*
X033419Y036299D01*
X033320Y036200D02*
X036644Y036200D01*
X036748Y036102D02*
X033215Y036102D01*
X033045Y036003D02*
X036919Y036003D01*
X037213Y035904D02*
X032750Y035904D01*
X032371Y035904D02*
X029529Y035904D01*
X029507Y035882D02*
X029581Y035957D01*
X029622Y036054D01*
X029622Y036160D01*
X029581Y036257D01*
X029507Y036331D01*
X029410Y036372D01*
X029304Y036372D01*
X029207Y036331D01*
X029132Y036257D01*
X029092Y036160D01*
X029092Y036054D01*
X029132Y035957D01*
X029207Y035882D01*
X029304Y035842D01*
X029410Y035842D01*
X029507Y035882D01*
X029601Y036003D02*
X032076Y036003D01*
X031906Y036102D02*
X029622Y036102D01*
X029605Y036200D02*
X031801Y036200D01*
X031703Y036299D02*
X029540Y036299D01*
X029174Y036299D02*
X024540Y036299D01*
X024507Y036331D02*
X024410Y036372D01*
X024304Y036372D01*
X024207Y036331D01*
X024132Y036257D01*
X024092Y036160D01*
X024092Y036054D01*
X024132Y035957D01*
X024207Y035882D01*
X024304Y035842D01*
X024410Y035842D01*
X024507Y035882D01*
X024581Y035957D01*
X024622Y036054D01*
X024622Y036160D01*
X024581Y036257D01*
X024507Y036331D01*
X024605Y036200D02*
X029109Y036200D01*
X029092Y036102D02*
X024622Y036102D01*
X024601Y036003D02*
X029113Y036003D01*
X029184Y035904D02*
X024529Y035904D01*
X024184Y035904D02*
X023536Y035904D01*
X023510Y035878D02*
X023586Y035954D01*
X023627Y036053D01*
X023627Y036161D01*
X023586Y036260D01*
X023510Y036336D01*
X023411Y036377D01*
X023303Y036377D01*
X023204Y036336D01*
X023128Y036260D01*
X023087Y036161D01*
X023087Y036053D01*
X023128Y035954D01*
X023204Y035878D01*
X023303Y035837D01*
X023411Y035837D01*
X023510Y035878D01*
X023606Y036003D02*
X024113Y036003D01*
X024092Y036102D02*
X023627Y036102D01*
X023610Y036200D02*
X024109Y036200D01*
X024174Y036299D02*
X023547Y036299D01*
X023167Y036299D02*
X022923Y036299D01*
X022984Y036397D02*
X031640Y036397D01*
X031583Y036496D02*
X022997Y036496D01*
X022972Y036594D02*
X031536Y036594D01*
X031510Y036693D02*
X022895Y036693D01*
X022540Y036299D02*
X013466Y036299D01*
X013450Y036336D02*
X013336Y036450D01*
X013187Y036512D01*
X013026Y036512D01*
X012877Y036450D01*
X012763Y036336D01*
X012702Y036187D01*
X012702Y036026D01*
X012763Y035877D01*
X012877Y035763D01*
X013026Y035702D01*
X013187Y035702D01*
X013336Y035763D01*
X013450Y035877D01*
X013512Y036026D01*
X013512Y036187D01*
X013450Y036336D01*
X013389Y036397D02*
X021567Y036397D01*
X021491Y036496D02*
X013226Y036496D01*
X012988Y036496D02*
X012226Y036496D01*
X012187Y036512D02*
X012026Y036512D01*
X011877Y036450D01*
X011763Y036336D01*
X011702Y036187D01*
X011702Y036026D01*
X011763Y035877D01*
X011877Y035763D01*
X012026Y035702D01*
X012187Y035702D01*
X012336Y035763D01*
X012450Y035877D01*
X012512Y036026D01*
X012512Y036187D01*
X012450Y036336D01*
X012336Y036450D01*
X012187Y036512D01*
X011988Y036496D02*
X006663Y036496D01*
X006660Y036499D02*
X006544Y036547D01*
X006419Y036547D01*
X006303Y036499D01*
X006215Y036410D01*
X006167Y036294D01*
X006167Y036169D01*
X006215Y036053D01*
X006303Y035965D01*
X006419Y035917D01*
X006544Y035917D01*
X006660Y035965D01*
X006749Y036053D01*
X006797Y036169D01*
X006797Y036294D01*
X006749Y036410D01*
X006660Y036499D01*
X006754Y036397D02*
X011824Y036397D01*
X011748Y036299D02*
X006795Y036299D01*
X006797Y036200D02*
X011707Y036200D01*
X011702Y036102D02*
X006769Y036102D01*
X006698Y036003D02*
X011711Y036003D01*
X011752Y035904D02*
X001982Y035904D01*
X001982Y035806D02*
X011835Y035806D01*
X012013Y035707D02*
X010609Y035707D01*
X010567Y035749D02*
X010452Y035797D01*
X010326Y035797D01*
X010211Y035749D01*
X010122Y035660D01*
X010074Y035544D01*
X010074Y035419D01*
X010122Y035303D01*
X010211Y035215D01*
X009660Y035215D01*
X009749Y035303D01*
X009797Y035419D01*
X009797Y035544D01*
X009749Y035660D01*
X009660Y035749D01*
X009544Y035797D01*
X009419Y035797D01*
X009303Y035749D01*
X009215Y035660D01*
X009167Y035544D01*
X009167Y035419D01*
X009215Y035303D01*
X009303Y035215D01*
X009419Y035167D01*
X009544Y035167D01*
X009660Y035215D01*
X009753Y035313D02*
X010118Y035313D01*
X010077Y035412D02*
X009794Y035412D01*
X009797Y035510D02*
X010074Y035510D01*
X010101Y035609D02*
X009770Y035609D01*
X009702Y035707D02*
X010169Y035707D01*
X010567Y035749D02*
X010656Y035660D01*
X010704Y035544D01*
X010704Y035419D01*
X010656Y035303D01*
X010567Y035215D01*
X011713Y035215D01*
X011702Y035187D02*
X011702Y035026D01*
X011763Y034877D01*
X011877Y034763D01*
X012026Y034702D01*
X012187Y034702D01*
X012336Y034763D01*
X012450Y034877D01*
X012512Y035026D01*
X012512Y035187D01*
X012450Y035336D01*
X012336Y035450D01*
X012187Y035512D01*
X012026Y035512D01*
X011877Y035450D01*
X011763Y035336D01*
X011702Y035187D01*
X011702Y035116D02*
X005374Y035116D01*
X005422Y035232D01*
X005422Y035357D01*
X005374Y035473D01*
X005285Y035561D01*
X005169Y035609D01*
X005044Y035609D01*
X004928Y035561D01*
X004840Y035473D01*
X004792Y035357D01*
X004792Y035232D01*
X004840Y035116D01*
X004928Y035027D01*
X005044Y034979D01*
X005169Y034979D01*
X005285Y035027D01*
X005374Y035116D01*
X005415Y035215D02*
X009304Y035215D01*
X009211Y035313D02*
X005422Y035313D01*
X005399Y035412D02*
X009170Y035412D01*
X009167Y035510D02*
X005336Y035510D01*
X005171Y035609D02*
X009194Y035609D01*
X009262Y035707D02*
X001982Y035707D01*
X001982Y035609D02*
X003668Y035609D01*
X003669Y035609D02*
X003553Y035561D01*
X003465Y035473D01*
X003417Y035357D01*
X003417Y035232D01*
X003465Y035116D01*
X003553Y035027D01*
X003669Y034979D01*
X003794Y034979D01*
X003910Y035027D01*
X003999Y035116D01*
X004152Y035116D01*
X004241Y035027D01*
X004357Y034979D01*
X004482Y034979D01*
X004598Y035027D01*
X004686Y035116D01*
X004734Y035232D01*
X004734Y035357D01*
X004686Y035473D01*
X004598Y035561D01*
X004482Y035609D01*
X004357Y035609D01*
X004241Y035561D01*
X004152Y035473D01*
X004104Y035357D01*
X004104Y035232D01*
X004152Y035116D01*
X004111Y035215D02*
X004040Y035215D01*
X004047Y035232D02*
X003999Y035116D01*
X004047Y035232D02*
X004047Y035357D01*
X003999Y035473D01*
X003910Y035561D01*
X003794Y035609D01*
X003669Y035609D01*
X003795Y035609D02*
X004356Y035609D01*
X004483Y035609D02*
X005043Y035609D01*
X004877Y035510D02*
X004649Y035510D01*
X004712Y035412D02*
X004815Y035412D01*
X004792Y035313D02*
X004734Y035313D01*
X004727Y035215D02*
X004799Y035215D01*
X004840Y035116D02*
X004686Y035116D01*
X004574Y035018D02*
X004952Y035018D01*
X005262Y035018D02*
X009272Y035018D01*
X009303Y035049D02*
X009215Y034961D01*
X009167Y034845D01*
X009167Y034720D01*
X009215Y034604D01*
X009303Y034515D01*
X009419Y034467D01*
X009544Y034467D01*
X009660Y034515D01*
X009749Y034604D01*
X009797Y034720D01*
X009797Y034845D01*
X009749Y034961D01*
X009660Y035049D01*
X009544Y035097D01*
X009419Y035097D01*
X009303Y035049D01*
X009198Y034919D02*
X001982Y034919D01*
X001982Y034821D02*
X009167Y034821D01*
X009167Y034722D02*
X001982Y034722D01*
X001982Y034623D02*
X009207Y034623D01*
X009294Y034525D02*
X001982Y034525D01*
X001982Y034426D02*
X011854Y034426D01*
X011978Y034722D02*
X010704Y034722D01*
X010704Y034821D02*
X011820Y034821D01*
X011746Y034919D02*
X010673Y034919D01*
X010599Y035018D02*
X011705Y035018D01*
X011754Y035313D02*
X010660Y035313D01*
X010701Y035412D02*
X011839Y035412D01*
X012023Y035510D02*
X010704Y035510D01*
X010677Y035609D02*
X038732Y035609D01*
X038732Y035707D02*
X013201Y035707D01*
X013013Y035707D02*
X012201Y035707D01*
X012191Y035510D02*
X013023Y035510D01*
X013191Y035510D02*
X038732Y035510D01*
X038732Y035412D02*
X013375Y035412D01*
X013379Y035806D02*
X038732Y035806D01*
X038732Y035904D02*
X037593Y035904D01*
X037887Y036003D02*
X038732Y036003D01*
X038732Y036102D02*
X038058Y036102D01*
X038163Y036200D02*
X038732Y036200D01*
X038732Y036299D02*
X038261Y036299D01*
X038324Y036397D02*
X038732Y036397D01*
X038732Y036496D02*
X038381Y036496D01*
X038427Y036594D02*
X038732Y036594D01*
X038732Y036693D02*
X038454Y036693D01*
X038480Y036791D02*
X038732Y036791D01*
X038732Y036890D02*
X038493Y036890D01*
X038493Y036988D02*
X038732Y036988D01*
X038732Y037087D02*
X038493Y037087D01*
X038477Y037186D02*
X038732Y037186D01*
X038732Y037284D02*
X038450Y037284D01*
X038424Y037383D02*
X038732Y037383D01*
X038732Y037481D02*
X038373Y037481D01*
X038316Y037580D02*
X038732Y037580D01*
X038732Y037678D02*
X038248Y037678D01*
X038149Y037777D02*
X038732Y037777D01*
X038732Y037875D02*
X038035Y037875D01*
X037864Y037974D02*
X038732Y037974D01*
X038732Y038072D02*
X002872Y038072D01*
X002831Y038171D02*
X038732Y038171D01*
X038732Y038270D02*
X023776Y038270D01*
X023760Y038253D02*
X023836Y038329D01*
X023877Y038428D01*
X023877Y038536D01*
X023836Y038635D01*
X023760Y038711D01*
X023661Y038752D01*
X023553Y038752D01*
X023454Y038711D01*
X023378Y038635D01*
X023337Y038536D01*
X023337Y038428D01*
X023378Y038329D01*
X023454Y038253D01*
X023553Y038212D01*
X023661Y038212D01*
X023760Y038253D01*
X023852Y038368D02*
X038732Y038368D01*
X038732Y038467D02*
X023877Y038467D01*
X023865Y038565D02*
X038732Y038565D01*
X038732Y038664D02*
X023807Y038664D01*
X023407Y038664D02*
X021240Y038664D01*
X021247Y038679D02*
X021206Y038582D01*
X021132Y038507D01*
X021035Y038467D01*
X020929Y038467D01*
X020832Y038507D01*
X020757Y038582D01*
X020717Y038679D01*
X020717Y038785D01*
X020757Y038882D01*
X020832Y038956D01*
X020929Y038997D01*
X021035Y038997D01*
X021132Y038956D01*
X021206Y038882D01*
X021247Y038785D01*
X021247Y038679D01*
X021247Y038762D02*
X038732Y038762D01*
X038732Y038861D02*
X021215Y038861D01*
X021125Y038959D02*
X038732Y038959D01*
X038732Y039058D02*
X001982Y039058D01*
X001982Y038959D02*
X020839Y038959D01*
X020748Y038861D02*
X001982Y038861D01*
X001982Y038762D02*
X020717Y038762D01*
X020723Y038664D02*
X002221Y038664D01*
X002459Y038565D02*
X020774Y038565D01*
X021190Y038565D02*
X023349Y038565D01*
X023337Y038467D02*
X002594Y038467D01*
X002693Y038368D02*
X023362Y038368D01*
X023437Y038270D02*
X002790Y038270D01*
X002200Y036791D02*
X021542Y036791D01*
X021481Y036693D02*
X001982Y036693D01*
X001982Y036594D02*
X021467Y036594D01*
X022310Y037186D02*
X024092Y037186D01*
X024092Y037284D02*
X022363Y037284D01*
X022372Y037383D02*
X024133Y037383D01*
X024266Y037481D02*
X022342Y037481D01*
X023103Y036200D02*
X013506Y036200D01*
X013512Y036102D02*
X023087Y036102D01*
X023108Y036003D02*
X013502Y036003D01*
X013461Y035904D02*
X023177Y035904D01*
X023584Y031963D02*
X022381Y031963D01*
X022300Y031864D02*
X023494Y031864D01*
X023462Y031766D02*
X016323Y031766D01*
X016369Y031667D02*
X023466Y031667D01*
X023513Y031569D02*
X019520Y031569D01*
X019597Y031470D02*
X023658Y031470D01*
X023805Y031470D02*
X030525Y031470D01*
X030553Y031499D02*
X030465Y031410D01*
X030417Y031294D01*
X030417Y031169D01*
X030465Y031053D01*
X030553Y030965D01*
X030669Y030917D01*
X030794Y030917D01*
X030910Y030965D01*
X030999Y031053D01*
X031047Y031169D01*
X031047Y031294D01*
X030999Y031410D01*
X030910Y031499D01*
X030794Y031547D01*
X030669Y031547D01*
X030553Y031499D01*
X030449Y031371D02*
X029410Y031371D01*
X029410Y031372D02*
X029304Y031372D01*
X029207Y031331D01*
X029132Y031257D01*
X029092Y031160D01*
X029092Y031054D01*
X029132Y030957D01*
X029207Y030882D01*
X029304Y030842D01*
X029410Y030842D01*
X029507Y030882D01*
X029581Y030957D01*
X029622Y031054D01*
X029622Y031160D01*
X029581Y031257D01*
X029507Y031331D01*
X029410Y031372D01*
X029303Y031371D02*
X019622Y031371D01*
X019609Y031273D02*
X029148Y031273D01*
X029098Y031174D02*
X024539Y031174D01*
X024605Y031076D02*
X029092Y031076D01*
X029124Y030977D02*
X024622Y030977D01*
X024601Y030879D02*
X029215Y030879D01*
X029499Y030879D02*
X038732Y030879D01*
X038732Y030977D02*
X030923Y030977D01*
X031008Y031076D02*
X038732Y031076D01*
X038732Y031174D02*
X031047Y031174D01*
X031047Y031273D02*
X038732Y031273D01*
X038687Y031371D02*
X031015Y031371D01*
X030939Y031470D02*
X038667Y031470D01*
X038677Y031569D02*
X023950Y031569D01*
X024175Y031174D02*
X019549Y031174D01*
X019164Y031174D02*
X017991Y031174D01*
X017997Y031160D02*
X017956Y031257D01*
X017997Y031160D02*
X017997Y031054D01*
X017965Y030977D02*
X019132Y030977D01*
X019497Y030682D02*
X038732Y030682D01*
X038732Y030780D02*
X024530Y030780D01*
X023302Y029302D02*
X038732Y029302D01*
X038732Y029204D02*
X023267Y029204D01*
X023267Y029105D02*
X038732Y029105D01*
X038732Y029006D02*
X023267Y029006D01*
X023267Y028908D02*
X038732Y028908D01*
X038732Y028809D02*
X027029Y028809D01*
X027007Y028831D02*
X026910Y028872D01*
X026804Y028872D01*
X026707Y028831D01*
X026632Y028757D01*
X026592Y028660D01*
X026592Y028554D01*
X026632Y028457D01*
X026707Y028382D01*
X026804Y028342D01*
X026910Y028342D01*
X027007Y028382D01*
X027081Y028457D01*
X027122Y028554D01*
X027122Y028660D01*
X027081Y028757D01*
X027007Y028831D01*
X027101Y028711D02*
X030515Y028711D01*
X030553Y028749D02*
X030465Y028660D01*
X030417Y028544D01*
X030417Y028419D01*
X030465Y028303D01*
X030553Y028215D01*
X030669Y028167D01*
X030794Y028167D01*
X030910Y028215D01*
X030999Y028303D01*
X031047Y028419D01*
X031047Y028544D01*
X030999Y028660D01*
X030910Y028749D01*
X030794Y028797D01*
X030669Y028797D01*
X030553Y028749D01*
X030445Y028612D02*
X027122Y028612D01*
X027105Y028514D02*
X030417Y028514D01*
X030418Y028415D02*
X027040Y028415D01*
X026674Y028415D02*
X023267Y028415D01*
X023267Y028317D02*
X030459Y028317D01*
X030550Y028218D02*
X023267Y028218D01*
X023267Y028120D02*
X038732Y028120D01*
X038732Y028218D02*
X030914Y028218D01*
X031004Y028317D02*
X038709Y028317D01*
X038668Y028415D02*
X031045Y028415D01*
X031047Y028514D02*
X038667Y028514D01*
X038695Y028612D02*
X031019Y028612D01*
X030948Y028711D02*
X038732Y028711D01*
X038732Y028021D02*
X023267Y028021D01*
X023267Y027922D02*
X038732Y027922D01*
X038732Y027824D02*
X023267Y027824D01*
X023339Y027725D02*
X026752Y027725D01*
X026609Y028514D02*
X023267Y028514D01*
X023267Y028612D02*
X026592Y028612D01*
X026613Y028711D02*
X023267Y028711D01*
X023267Y028809D02*
X026685Y028809D01*
X029590Y030977D02*
X030541Y030977D01*
X030455Y031076D02*
X029622Y031076D01*
X029616Y031174D02*
X030417Y031174D01*
X030417Y031273D02*
X029565Y031273D01*
X033189Y033737D02*
X018957Y033737D01*
X019083Y033835D02*
X033323Y033835D01*
X033641Y033835D02*
X034323Y033835D01*
X034262Y033810D02*
X034154Y033701D01*
X034095Y033559D01*
X034095Y033405D01*
X034154Y033262D01*
X034262Y033154D01*
X034405Y033095D01*
X034559Y033095D01*
X034701Y033154D01*
X034810Y033262D01*
X034869Y033405D01*
X034869Y033559D01*
X034810Y033701D01*
X034701Y033810D01*
X034559Y033869D01*
X034405Y033869D01*
X034262Y033810D01*
X034189Y033737D02*
X033775Y033737D01*
X033836Y033638D02*
X034127Y033638D01*
X034095Y033539D02*
X033869Y033539D01*
X033869Y033441D02*
X034095Y033441D01*
X034120Y033342D02*
X033843Y033342D01*
X033791Y033244D02*
X034172Y033244D01*
X034283Y033145D02*
X033681Y033145D01*
X033943Y034131D02*
X034020Y034131D01*
X034020Y034229D02*
X033943Y034229D01*
X033943Y034328D02*
X034020Y034328D01*
X034020Y034426D02*
X033943Y034426D01*
X033943Y034525D02*
X034020Y034525D01*
X034020Y034623D02*
X033943Y034623D01*
X033943Y034722D02*
X034020Y034722D01*
X034020Y034821D02*
X033943Y034821D01*
X034247Y034821D02*
X034788Y034821D01*
X034762Y034810D02*
X034654Y034701D01*
X034595Y034559D01*
X034595Y034405D01*
X034654Y034262D01*
X034762Y034154D01*
X034905Y034095D01*
X035059Y034095D01*
X035201Y034154D01*
X035310Y034262D01*
X035369Y034405D01*
X035369Y034559D01*
X035310Y034701D01*
X035201Y034810D01*
X035059Y034869D01*
X034905Y034869D01*
X034762Y034810D01*
X034674Y034722D02*
X034345Y034722D01*
X034385Y034623D02*
X034621Y034623D01*
X034595Y034525D02*
X034409Y034525D01*
X034409Y034426D02*
X034595Y034426D01*
X034626Y034328D02*
X034380Y034328D01*
X034333Y034229D02*
X034687Y034229D01*
X034818Y034131D02*
X034235Y034131D01*
X034641Y033835D02*
X035323Y033835D01*
X035262Y033810D02*
X035154Y033701D01*
X035095Y033559D01*
X035095Y033405D01*
X035154Y033262D01*
X035262Y033154D01*
X035405Y033095D01*
X035559Y033095D01*
X035701Y033154D01*
X035810Y033262D01*
X035869Y033405D01*
X035869Y033559D01*
X035810Y033701D01*
X035701Y033810D01*
X035559Y033869D01*
X035405Y033869D01*
X035262Y033810D01*
X035189Y033737D02*
X034775Y033737D01*
X034836Y033638D02*
X035127Y033638D01*
X035095Y033539D02*
X034869Y033539D01*
X034869Y033441D02*
X035095Y033441D01*
X035120Y033342D02*
X034843Y033342D01*
X034791Y033244D02*
X035172Y033244D01*
X035283Y033145D02*
X034681Y033145D01*
X035681Y033145D02*
X036283Y033145D01*
X036172Y033244D02*
X035791Y033244D01*
X035843Y033342D02*
X036120Y033342D01*
X036095Y033441D02*
X035869Y033441D01*
X035869Y033539D02*
X036095Y033539D01*
X036127Y033638D02*
X035836Y033638D01*
X035775Y033737D02*
X036189Y033737D01*
X036323Y033835D02*
X035641Y033835D01*
X035762Y034154D02*
X035905Y034095D01*
X036059Y034095D01*
X036201Y034154D01*
X036310Y034262D01*
X036369Y034405D01*
X036369Y034559D01*
X036310Y034701D01*
X036201Y034810D01*
X036059Y034869D01*
X035905Y034869D01*
X035762Y034810D01*
X035654Y034701D01*
X035595Y034559D01*
X035595Y034405D01*
X035654Y034262D01*
X035762Y034154D01*
X035818Y034131D02*
X035146Y034131D01*
X035277Y034229D02*
X035687Y034229D01*
X035626Y034328D02*
X035337Y034328D01*
X035369Y034426D02*
X035595Y034426D01*
X035595Y034525D02*
X035369Y034525D01*
X035342Y034623D02*
X035621Y034623D01*
X035674Y034722D02*
X035289Y034722D01*
X035176Y034821D02*
X035788Y034821D01*
X036176Y034821D02*
X036788Y034821D01*
X036674Y034722D02*
X036289Y034722D01*
X036342Y034623D02*
X036621Y034623D01*
X036595Y034525D02*
X036369Y034525D01*
X036369Y034426D02*
X036595Y034426D01*
X036626Y034328D02*
X036337Y034328D01*
X036277Y034229D02*
X036687Y034229D01*
X036818Y034131D02*
X036146Y034131D01*
X038732Y030583D02*
X019457Y030583D01*
X018592Y034032D02*
X014797Y034032D01*
X014698Y034131D02*
X018632Y034131D01*
X018762Y034229D02*
X014600Y034229D01*
X014415Y033934D02*
X013473Y033934D01*
X013408Y033835D02*
X014513Y033835D01*
X014612Y033737D02*
X013271Y033737D01*
X012868Y033441D02*
X012345Y033441D01*
X012444Y033342D02*
X012770Y033342D01*
X012725Y033244D02*
X012488Y033244D01*
X012512Y033145D02*
X012702Y033145D01*
X012702Y033047D02*
X012512Y033047D01*
X012479Y032948D02*
X012734Y032948D01*
X012791Y032850D02*
X012422Y032850D01*
X012306Y032751D02*
X012907Y032751D01*
X012890Y032455D02*
X012323Y032455D01*
X012429Y032357D02*
X012784Y032357D01*
X012731Y032258D02*
X012482Y032258D01*
X012512Y032160D02*
X012702Y032160D01*
X012702Y032061D02*
X012512Y032061D01*
X012485Y031963D02*
X012728Y031963D01*
X012777Y031864D02*
X012437Y031864D01*
X012338Y031766D02*
X012875Y031766D01*
X011907Y032751D02*
X010622Y032751D01*
X010621Y032850D02*
X011791Y032850D01*
X011734Y032948D02*
X010578Y032948D01*
X010440Y033047D02*
X011702Y033047D01*
X010201Y034525D02*
X009670Y034525D01*
X009757Y034623D02*
X010114Y034623D01*
X010074Y034722D02*
X009797Y034722D01*
X009797Y034821D02*
X010074Y034821D01*
X010105Y034919D02*
X009766Y034919D01*
X009692Y035018D02*
X010179Y035018D01*
X010211Y035215D02*
X010326Y035167D01*
X010452Y035167D01*
X010567Y035215D01*
X012375Y035412D02*
X012839Y035412D01*
X012754Y035313D02*
X012460Y035313D01*
X012500Y035215D02*
X012713Y035215D01*
X012702Y035116D02*
X012512Y035116D01*
X012508Y035018D02*
X012705Y035018D01*
X012746Y034919D02*
X012467Y034919D01*
X012393Y034821D02*
X012820Y034821D01*
X012835Y035806D02*
X012379Y035806D01*
X012461Y035904D02*
X012752Y035904D01*
X012711Y036003D02*
X012502Y036003D01*
X012512Y036102D02*
X012702Y036102D01*
X012707Y036200D02*
X012506Y036200D01*
X012466Y036299D02*
X012748Y036299D01*
X012824Y036397D02*
X012389Y036397D01*
X016566Y039156D02*
X038732Y039156D01*
X037787Y027233D02*
X036676Y027233D01*
X036660Y027249D02*
X036544Y027297D01*
X036419Y027297D01*
X036303Y027249D01*
X036215Y027160D01*
X036167Y027044D01*
X036167Y026919D01*
X036215Y026803D01*
X036303Y026715D01*
X036419Y026667D01*
X036544Y026667D01*
X036660Y026715D01*
X036749Y026803D01*
X036797Y026919D01*
X036797Y027044D01*
X036749Y027160D01*
X036660Y027249D01*
X036760Y027134D02*
X037704Y027134D01*
X037667Y027036D02*
X036797Y027036D01*
X036797Y026937D02*
X037667Y026937D01*
X037700Y026839D02*
X036763Y026839D01*
X036685Y026740D02*
X037778Y026740D01*
X036278Y026740D02*
X035435Y026740D01*
X035410Y026715D02*
X035499Y026803D01*
X035547Y026919D01*
X035547Y027044D01*
X035499Y027160D01*
X035410Y027249D01*
X035294Y027297D01*
X035169Y027297D01*
X035053Y027249D01*
X034965Y027160D01*
X034917Y027044D01*
X034917Y026919D01*
X034965Y026803D01*
X035053Y026715D01*
X035169Y026667D01*
X035294Y026667D01*
X035410Y026715D01*
X035513Y026839D02*
X036200Y026839D01*
X036167Y026937D02*
X035547Y026937D01*
X035547Y027036D02*
X036167Y027036D01*
X036204Y027134D02*
X035510Y027134D01*
X035426Y027233D02*
X036287Y027233D01*
X035037Y027233D02*
X033926Y027233D01*
X033910Y027249D02*
X033794Y027297D01*
X033669Y027297D01*
X033553Y027249D01*
X033465Y027160D01*
X033417Y027044D01*
X033417Y026919D01*
X033465Y026803D01*
X033553Y026715D01*
X033669Y026667D01*
X033794Y026667D01*
X033910Y026715D01*
X033999Y026803D01*
X034047Y026919D01*
X034047Y027044D01*
X033999Y027160D01*
X033910Y027249D01*
X034010Y027134D02*
X034954Y027134D01*
X034917Y027036D02*
X034047Y027036D01*
X034047Y026937D02*
X034917Y026937D01*
X034950Y026839D02*
X034013Y026839D01*
X033935Y026740D02*
X035028Y026740D01*
X033528Y026740D02*
X032435Y026740D01*
X032410Y026715D02*
X032499Y026803D01*
X032547Y026919D01*
X032547Y027044D01*
X032499Y027160D01*
X032410Y027249D01*
X032294Y027297D01*
X032169Y027297D01*
X032053Y027249D01*
X031965Y027160D01*
X031917Y027044D01*
X031917Y026919D01*
X031965Y026803D01*
X032053Y026715D01*
X032169Y026667D01*
X032294Y026667D01*
X032410Y026715D01*
X032513Y026839D02*
X033450Y026839D01*
X033417Y026937D02*
X032547Y026937D01*
X032547Y027036D02*
X033417Y027036D01*
X033454Y027134D02*
X032510Y027134D01*
X032426Y027233D02*
X033537Y027233D01*
X032037Y027233D02*
X030926Y027233D01*
X031010Y027134D02*
X031954Y027134D01*
X031917Y027036D02*
X031047Y027036D01*
X031047Y026937D02*
X031917Y026937D01*
X031950Y026839D02*
X031013Y026839D01*
X030935Y026740D02*
X032028Y026740D01*
X034482Y020433D02*
X013487Y020433D01*
X013497Y020335D02*
X028839Y020335D01*
X028749Y020236D02*
X013469Y020236D01*
X013387Y020138D02*
X028717Y020138D01*
X029124Y020335D02*
X034482Y020335D01*
X034482Y020236D02*
X029215Y020236D01*
X029247Y020138D02*
X034482Y020138D01*
X034482Y020039D02*
X029241Y020039D01*
X029190Y019940D02*
X034482Y019940D01*
X032756Y017378D02*
X030583Y017378D01*
X030622Y017280D02*
X032717Y017280D01*
X032717Y017181D02*
X030622Y017181D01*
X030582Y017083D02*
X032757Y017083D01*
X034482Y016294D02*
X015544Y016294D01*
X015607Y016196D02*
X034482Y016196D01*
X034482Y016097D02*
X015622Y016097D01*
X015599Y015999D02*
X034482Y015999D01*
X034482Y015900D02*
X015525Y015900D01*
X015985Y015703D02*
X005482Y015703D01*
X005482Y015605D02*
X015967Y015605D01*
X015967Y015554D02*
X016007Y015457D01*
X016082Y015382D01*
X016143Y015357D01*
X016082Y015331D01*
X016007Y015257D01*
X015967Y015160D01*
X015967Y015054D01*
X016007Y014957D01*
X016082Y014882D01*
X016179Y014842D01*
X016285Y014842D01*
X016382Y014882D01*
X016456Y014957D01*
X016497Y015054D01*
X016497Y015160D01*
X016456Y015257D01*
X016382Y015331D01*
X016321Y015357D01*
X016382Y015382D01*
X016456Y015457D01*
X016497Y015554D01*
X016497Y015660D01*
X016456Y015757D01*
X016382Y015831D01*
X016285Y015872D01*
X016179Y015872D01*
X016082Y015831D01*
X016007Y015757D01*
X015967Y015660D01*
X015967Y015554D01*
X015987Y015506D02*
X005482Y015506D01*
X005482Y015407D02*
X016056Y015407D01*
X016059Y015309D02*
X005482Y015309D01*
X005482Y015210D02*
X015988Y015210D01*
X015967Y015112D02*
X005482Y015112D01*
X005482Y015013D02*
X015984Y015013D01*
X016049Y014915D02*
X005482Y014915D01*
X005482Y014816D02*
X034482Y014816D01*
X034482Y014718D02*
X005482Y014718D01*
X005482Y014619D02*
X034482Y014619D01*
X034482Y014521D02*
X005482Y014521D01*
X005482Y014422D02*
X034482Y014422D01*
X034482Y014324D02*
X005482Y014324D01*
X005482Y014225D02*
X034482Y014225D01*
X034482Y014126D02*
X005482Y014126D01*
X005482Y014028D02*
X034482Y014028D01*
X034482Y013929D02*
X005482Y013929D01*
X005482Y013831D02*
X021956Y013831D01*
X021957Y013831D02*
X021882Y013757D01*
X021842Y013660D01*
X021842Y013554D01*
X021882Y013457D01*
X021957Y013382D01*
X022054Y013342D01*
X022160Y013342D01*
X022257Y013382D01*
X022331Y013457D01*
X022372Y013554D01*
X022372Y013660D01*
X022331Y013757D01*
X022257Y013831D01*
X022160Y013872D01*
X022054Y013872D01*
X021957Y013831D01*
X021872Y013732D02*
X005482Y013732D01*
X005482Y013634D02*
X021842Y013634D01*
X021850Y013535D02*
X005482Y013535D01*
X005482Y013437D02*
X021902Y013437D01*
X022258Y013831D02*
X034482Y013831D01*
X034482Y013732D02*
X022342Y013732D01*
X022372Y013634D02*
X034482Y013634D01*
X034482Y013535D02*
X022364Y013535D01*
X022311Y013437D02*
X034482Y013437D01*
X034482Y013338D02*
X005482Y013338D01*
X005482Y013240D02*
X034482Y013240D01*
X034482Y013141D02*
X005482Y013141D01*
X005482Y013042D02*
X034482Y013042D01*
X034482Y012944D02*
X005482Y012944D01*
X005482Y012845D02*
X034482Y012845D01*
X034482Y012747D02*
X005482Y012747D01*
X005482Y012648D02*
X034482Y012648D01*
X034482Y012550D02*
X005482Y012550D01*
X005482Y012451D02*
X034482Y012451D01*
X034482Y012353D02*
X005482Y012353D01*
X005482Y012254D02*
X034482Y012254D01*
X034482Y012156D02*
X005482Y012156D01*
X005482Y012057D02*
X034482Y012057D01*
X034482Y011958D02*
X005482Y011958D01*
X005482Y011860D02*
X034482Y011860D01*
X034482Y011761D02*
X005482Y011761D01*
X005821Y011663D02*
X034482Y011663D01*
X034482Y011564D02*
X006043Y011564D01*
X006141Y011466D02*
X034482Y011466D01*
X034482Y011367D02*
X006233Y011367D01*
X006274Y011269D02*
X034482Y011269D01*
X034482Y011170D02*
X006315Y011170D01*
X006335Y011072D02*
X034482Y011072D01*
X034482Y010973D02*
X006335Y010973D01*
X006335Y010874D02*
X034482Y010874D01*
X034482Y010776D02*
X006307Y010776D01*
X006266Y010677D02*
X034482Y010677D01*
X034482Y010579D02*
X006222Y010579D01*
X006124Y010480D02*
X034482Y010480D01*
X034482Y010382D02*
X006016Y010382D01*
X005778Y010283D02*
X034482Y010283D01*
X034482Y010185D02*
X005482Y010185D01*
X005482Y010283D02*
X005490Y010283D01*
X005482Y010086D02*
X034482Y010086D01*
X034482Y009988D02*
X005482Y009988D01*
X005482Y009889D02*
X034482Y009889D01*
X034482Y009791D02*
X005482Y009791D01*
X005482Y009692D02*
X034482Y009692D01*
X034482Y009593D02*
X005482Y009593D01*
X005482Y009495D02*
X034482Y009495D01*
X034482Y009396D02*
X005482Y009396D01*
X005482Y009298D02*
X034482Y009298D01*
X034482Y009199D02*
X005482Y009199D01*
X005482Y009101D02*
X034482Y009101D01*
X034482Y009002D02*
X005482Y009002D01*
X005482Y008904D02*
X034482Y008904D01*
X034482Y008805D02*
X005482Y008805D01*
X005482Y008707D02*
X034482Y008707D01*
X034482Y008608D02*
X005482Y008608D01*
X005482Y008509D02*
X034482Y008509D01*
X034482Y008411D02*
X005482Y008411D01*
X005823Y015802D02*
X016052Y015802D01*
X016412Y015802D02*
X018802Y015802D01*
X018832Y015831D02*
X018757Y015757D01*
X018717Y015660D01*
X018717Y015554D01*
X018757Y015457D01*
X018832Y015382D01*
X018929Y015342D01*
X019035Y015342D01*
X019132Y015382D01*
X019206Y015457D01*
X019247Y015554D01*
X019247Y015660D01*
X019206Y015757D01*
X019132Y015831D01*
X019035Y015872D01*
X018929Y015872D01*
X018832Y015831D01*
X018735Y015703D02*
X016479Y015703D01*
X016497Y015605D02*
X018717Y015605D01*
X018737Y015506D02*
X016477Y015506D01*
X016407Y015407D02*
X018806Y015407D01*
X019157Y015407D02*
X022431Y015407D01*
X022457Y015382D02*
X022554Y015342D01*
X022660Y015342D01*
X022757Y015382D01*
X022831Y015457D01*
X022872Y015554D01*
X022872Y015660D01*
X022831Y015757D01*
X022757Y015831D01*
X022660Y015872D01*
X022554Y015872D01*
X022457Y015831D01*
X022382Y015757D01*
X022342Y015660D01*
X022342Y015554D01*
X022382Y015457D01*
X022457Y015382D01*
X022362Y015506D02*
X019227Y015506D01*
X019247Y015605D02*
X022342Y015605D01*
X022360Y015703D02*
X019229Y015703D01*
X019162Y015802D02*
X022427Y015802D01*
X022787Y015802D02*
X034482Y015802D01*
X034482Y015703D02*
X022854Y015703D01*
X022872Y015605D02*
X034482Y015605D01*
X034482Y015506D02*
X022852Y015506D01*
X022782Y015407D02*
X034482Y015407D01*
X034482Y015309D02*
X016404Y015309D01*
X016476Y015210D02*
X034482Y015210D01*
X034482Y015112D02*
X016497Y015112D01*
X016480Y015013D02*
X034482Y015013D01*
X034482Y014915D02*
X016414Y014915D01*
X006760Y028908D02*
X001982Y028908D01*
X001982Y029006D02*
X006729Y029006D01*
X006729Y029105D02*
X001982Y029105D01*
X001982Y029204D02*
X006769Y029204D01*
X004264Y035018D02*
X003887Y035018D01*
X003577Y035018D02*
X001982Y035018D01*
X001982Y035116D02*
X003465Y035116D01*
X003424Y035215D02*
X001982Y035215D01*
X001982Y035313D02*
X003417Y035313D01*
X003439Y035412D02*
X001982Y035412D01*
X001982Y035510D02*
X003502Y035510D01*
X003669Y035917D02*
X003553Y035965D01*
X003465Y036053D01*
X003417Y036169D01*
X003417Y036294D01*
X003465Y036410D01*
X003553Y036499D01*
X003669Y036547D01*
X003794Y036547D01*
X003910Y036499D01*
X003999Y036410D01*
X004047Y036294D01*
X004047Y036169D01*
X003999Y036053D01*
X003910Y035965D01*
X003794Y035917D01*
X003669Y035917D01*
X003515Y036003D02*
X001982Y036003D01*
X001982Y036102D02*
X003445Y036102D01*
X003417Y036200D02*
X001982Y036200D01*
X001982Y036299D02*
X003419Y036299D01*
X003459Y036397D02*
X001982Y036397D01*
X001982Y036496D02*
X003550Y036496D01*
X003913Y036496D02*
X004238Y036496D01*
X004241Y036499D02*
X004152Y036410D01*
X004104Y036294D01*
X004104Y036169D01*
X004152Y036053D01*
X004241Y035965D01*
X004357Y035917D01*
X004482Y035917D01*
X004598Y035965D01*
X004686Y036053D01*
X004734Y036169D01*
X004734Y036294D01*
X004686Y036410D01*
X004598Y036499D01*
X004482Y036547D01*
X004357Y036547D01*
X004241Y036499D01*
X004147Y036397D02*
X004004Y036397D01*
X004045Y036299D02*
X004106Y036299D01*
X004104Y036200D02*
X004047Y036200D01*
X004019Y036102D02*
X004132Y036102D01*
X004203Y036003D02*
X003948Y036003D01*
X003961Y035510D02*
X004190Y035510D01*
X004127Y035412D02*
X004024Y035412D01*
X004047Y035313D02*
X004104Y035313D01*
X004636Y036003D02*
X004890Y036003D01*
X004928Y035965D02*
X004840Y036053D01*
X004792Y036169D01*
X004792Y036294D01*
X004840Y036410D01*
X004928Y036499D01*
X005044Y036547D01*
X005169Y036547D01*
X005285Y036499D01*
X005374Y036410D01*
X005422Y036294D01*
X005422Y036169D01*
X005374Y036053D01*
X005285Y035965D01*
X005169Y035917D01*
X005044Y035917D01*
X004928Y035965D01*
X004820Y036102D02*
X004706Y036102D01*
X004734Y036200D02*
X004792Y036200D01*
X004794Y036299D02*
X004733Y036299D01*
X004692Y036397D02*
X004834Y036397D01*
X004925Y036496D02*
X004601Y036496D01*
X005288Y036496D02*
X005613Y036496D01*
X005616Y036499D02*
X005527Y036410D01*
X005479Y036294D01*
X005479Y036169D01*
X005527Y036053D01*
X005616Y035965D01*
X005732Y035917D01*
X005857Y035917D01*
X005973Y035965D01*
X006061Y036053D01*
X006109Y036169D01*
X006109Y036294D01*
X006061Y036410D01*
X005973Y036499D01*
X005857Y036547D01*
X005732Y036547D01*
X005616Y036499D01*
X005522Y036397D02*
X005379Y036397D01*
X005420Y036299D02*
X005481Y036299D01*
X005479Y036200D02*
X005422Y036200D01*
X005394Y036102D02*
X005507Y036102D01*
X005578Y036003D02*
X005323Y036003D01*
X006011Y036003D02*
X006265Y036003D01*
X006195Y036102D02*
X006081Y036102D01*
X006109Y036200D02*
X006167Y036200D01*
X006169Y036299D02*
X006108Y036299D01*
X006067Y036397D02*
X006209Y036397D01*
X006300Y036496D02*
X005976Y036496D01*
D22*
X014357Y022732D03*
X022857Y027082D03*
X023607Y022732D03*
X022107Y032107D03*
X022107Y033107D03*
X021107Y033107D03*
X021107Y032107D03*
D23*
X030732Y031232D03*
X030732Y029732D03*
X030732Y028482D03*
X030732Y026982D03*
X032232Y026982D03*
X033732Y026982D03*
X035232Y026982D03*
X036482Y026982D03*
X037982Y026982D03*
X038982Y026982D03*
X038982Y028482D03*
X038982Y029732D03*
X038982Y031482D03*
X010389Y034782D03*
X010389Y035482D03*
X009482Y035482D03*
X009482Y034782D03*
X007982Y033982D03*
X006732Y032857D03*
X005669Y031982D03*
X003919Y030919D03*
X003919Y030419D03*
X003169Y030419D03*
X003169Y030919D03*
X005669Y029669D03*
X007044Y029607D03*
X007044Y029044D03*
X007607Y029044D03*
X008169Y029044D03*
X008169Y029607D03*
X007607Y029607D03*
X008169Y030232D03*
X008732Y030232D03*
X008732Y029607D03*
X008732Y029044D03*
X009482Y028294D03*
X005107Y035294D03*
X004419Y035294D03*
X003732Y035294D03*
X003732Y036232D03*
X004419Y036232D03*
X005107Y036232D03*
X005794Y036232D03*
X006482Y036232D03*
D24*
X023107Y038732D03*
X023607Y038482D03*
X023357Y036107D03*
X023732Y031732D03*
M02*
