G75*
G70*
%OFA0B0*%
%FSLAX24Y24*%
%IPPOS*%
%LPD*%
%AMOC8*
5,1,8,0,0,1.08239X$1,22.5*
%
%ADD10C,0.0000*%
%ADD11C,0.0080*%
%ADD12R,1.0000X0.1750*%
%ADD13C,0.0050*%
%ADD14C,0.0060*%
%ADD15C,0.0040*%
D10*
X000107Y000107D02*
X000107Y039727D01*
X039727Y039727D01*
X039727Y000107D01*
X000107Y000107D01*
X031921Y036982D02*
X031923Y037032D01*
X031929Y037082D01*
X031939Y037131D01*
X031952Y037180D01*
X031970Y037227D01*
X031991Y037273D01*
X032015Y037316D01*
X032043Y037358D01*
X032074Y037398D01*
X032108Y037435D01*
X032145Y037469D01*
X032185Y037500D01*
X032227Y037528D01*
X032270Y037552D01*
X032316Y037573D01*
X032363Y037591D01*
X032412Y037604D01*
X032461Y037614D01*
X032511Y037620D01*
X032561Y037622D01*
X032611Y037620D01*
X032661Y037614D01*
X032710Y037604D01*
X032759Y037591D01*
X032806Y037573D01*
X032852Y037552D01*
X032895Y037528D01*
X032937Y037500D01*
X032977Y037469D01*
X033014Y037435D01*
X033048Y037398D01*
X033079Y037358D01*
X033107Y037316D01*
X033131Y037273D01*
X033152Y037227D01*
X033170Y037180D01*
X033183Y037131D01*
X033193Y037082D01*
X033199Y037032D01*
X033201Y036982D01*
X033199Y036932D01*
X033193Y036882D01*
X033183Y036833D01*
X033170Y036784D01*
X033152Y036737D01*
X033131Y036691D01*
X033107Y036648D01*
X033079Y036606D01*
X033048Y036566D01*
X033014Y036529D01*
X032977Y036495D01*
X032937Y036464D01*
X032895Y036436D01*
X032852Y036412D01*
X032806Y036391D01*
X032759Y036373D01*
X032710Y036360D01*
X032661Y036350D01*
X032611Y036344D01*
X032561Y036342D01*
X032511Y036344D01*
X032461Y036350D01*
X032412Y036360D01*
X032363Y036373D01*
X032316Y036391D01*
X032270Y036412D01*
X032227Y036436D01*
X032185Y036464D01*
X032145Y036495D01*
X032108Y036529D01*
X032074Y036566D01*
X032043Y036606D01*
X032015Y036648D01*
X031991Y036691D01*
X031970Y036737D01*
X031952Y036784D01*
X031939Y036833D01*
X031929Y036882D01*
X031923Y036932D01*
X031921Y036982D01*
X036763Y036982D02*
X036765Y037032D01*
X036771Y037082D01*
X036781Y037131D01*
X036794Y037180D01*
X036812Y037227D01*
X036833Y037273D01*
X036857Y037316D01*
X036885Y037358D01*
X036916Y037398D01*
X036950Y037435D01*
X036987Y037469D01*
X037027Y037500D01*
X037069Y037528D01*
X037112Y037552D01*
X037158Y037573D01*
X037205Y037591D01*
X037254Y037604D01*
X037303Y037614D01*
X037353Y037620D01*
X037403Y037622D01*
X037453Y037620D01*
X037503Y037614D01*
X037552Y037604D01*
X037601Y037591D01*
X037648Y037573D01*
X037694Y037552D01*
X037737Y037528D01*
X037779Y037500D01*
X037819Y037469D01*
X037856Y037435D01*
X037890Y037398D01*
X037921Y037358D01*
X037949Y037316D01*
X037973Y037273D01*
X037994Y037227D01*
X038012Y037180D01*
X038025Y037131D01*
X038035Y037082D01*
X038041Y037032D01*
X038043Y036982D01*
X038041Y036932D01*
X038035Y036882D01*
X038025Y036833D01*
X038012Y036784D01*
X037994Y036737D01*
X037973Y036691D01*
X037949Y036648D01*
X037921Y036606D01*
X037890Y036566D01*
X037856Y036529D01*
X037819Y036495D01*
X037779Y036464D01*
X037737Y036436D01*
X037694Y036412D01*
X037648Y036391D01*
X037601Y036373D01*
X037552Y036360D01*
X037503Y036350D01*
X037453Y036344D01*
X037403Y036342D01*
X037353Y036344D01*
X037303Y036350D01*
X037254Y036360D01*
X037205Y036373D01*
X037158Y036391D01*
X037112Y036412D01*
X037069Y036436D01*
X037027Y036464D01*
X036987Y036495D01*
X036950Y036529D01*
X036916Y036566D01*
X036885Y036606D01*
X036857Y036648D01*
X036833Y036691D01*
X036812Y036737D01*
X036794Y036784D01*
X036781Y036833D01*
X036771Y036882D01*
X036765Y036932D01*
X036763Y036982D01*
D11*
X014916Y028714D02*
X014916Y028507D01*
X014812Y028404D01*
X014502Y028404D01*
X014709Y028404D02*
X014916Y028197D01*
X014502Y028197D02*
X014502Y028817D01*
X014812Y028817D01*
X014916Y028714D01*
X014271Y028817D02*
X013858Y028817D01*
X013858Y028197D01*
X014271Y028197D01*
X014064Y028507D02*
X013858Y028507D01*
X013627Y028507D02*
X013420Y028507D01*
X013627Y028507D02*
X013627Y028300D01*
X013523Y028197D01*
X013316Y028197D01*
X013213Y028300D01*
X013213Y028714D01*
X013316Y028817D01*
X013523Y028817D01*
X013627Y028714D01*
X012982Y028714D02*
X012879Y028817D01*
X012672Y028817D01*
X012569Y028714D01*
X012569Y028300D01*
X012672Y028197D01*
X012879Y028197D01*
X012982Y028300D01*
X012982Y028507D01*
X012775Y028507D01*
X012814Y027817D02*
X013021Y027610D01*
X013021Y027197D01*
X013252Y027300D02*
X013356Y027197D01*
X013562Y027197D01*
X013666Y027300D01*
X013666Y027507D01*
X013459Y027507D01*
X013252Y027714D02*
X013252Y027300D01*
X013021Y027507D02*
X012608Y027507D01*
X012608Y027610D02*
X012814Y027817D01*
X012608Y027610D02*
X012608Y027197D01*
X012170Y027197D02*
X012170Y027817D01*
X011963Y027817D02*
X012377Y027817D01*
X012234Y028197D02*
X012338Y028300D01*
X012338Y028817D01*
X011924Y028817D02*
X011924Y028300D01*
X012027Y028197D01*
X012234Y028197D01*
X011693Y028300D02*
X011590Y028197D01*
X011279Y028197D01*
X011279Y028817D01*
X011590Y028817D01*
X011693Y028714D01*
X011693Y028610D01*
X011590Y028507D01*
X011279Y028507D01*
X011590Y028507D02*
X011693Y028404D01*
X011693Y028300D01*
X011732Y027817D02*
X011525Y027817D01*
X011629Y027817D02*
X011629Y027300D01*
X011525Y027197D01*
X011422Y027197D01*
X011319Y027300D01*
X011049Y028197D02*
X010635Y028197D01*
X010635Y028817D01*
X011049Y028817D01*
X010842Y028507D02*
X010635Y028507D01*
X010404Y028300D02*
X010404Y028714D01*
X010301Y028817D01*
X009990Y028817D01*
X009990Y028197D01*
X010301Y028197D01*
X010404Y028300D01*
X013252Y027714D02*
X013356Y027817D01*
X013562Y027817D01*
X013666Y027714D01*
X007326Y024539D02*
X007223Y024642D01*
X007016Y024642D01*
X006912Y024539D01*
X006912Y024435D01*
X007016Y024332D01*
X007223Y024332D01*
X007326Y024229D01*
X007326Y024125D01*
X007223Y024022D01*
X007016Y024022D01*
X006912Y024125D01*
X006682Y024125D02*
X006682Y024539D01*
X006578Y024642D01*
X006371Y024642D01*
X006268Y024539D01*
X006268Y024125D01*
X006371Y024022D01*
X006578Y024022D01*
X006682Y024125D01*
X006037Y024332D02*
X006037Y024539D01*
X005934Y024642D01*
X005623Y024642D01*
X005623Y024022D01*
X005623Y024229D02*
X005934Y024229D01*
X006037Y024332D01*
X004748Y024022D02*
X004334Y024022D01*
X004334Y024642D01*
X004103Y024435D02*
X004103Y024022D01*
X004103Y024332D02*
X003690Y024332D01*
X003690Y024435D02*
X003690Y024022D01*
X003690Y024435D02*
X003897Y024642D01*
X004103Y024435D01*
X003459Y024642D02*
X003045Y024642D01*
X003252Y024642D02*
X003252Y024022D01*
X002822Y024022D02*
X002616Y024022D01*
X002719Y024022D02*
X002719Y024642D01*
X002616Y024642D02*
X002822Y024642D01*
X002385Y024539D02*
X002281Y024642D01*
X002074Y024642D01*
X001971Y024539D01*
X001971Y024125D01*
X002074Y024022D01*
X002281Y024022D01*
X002385Y024125D01*
X002385Y024332D01*
X002178Y024332D01*
X001748Y024022D02*
X001541Y024022D01*
X001645Y024022D02*
X001645Y024642D01*
X001748Y024642D02*
X001541Y024642D01*
X001310Y024539D02*
X001207Y024642D01*
X000897Y024642D01*
X000897Y024022D01*
X001207Y024022D01*
X001310Y024125D01*
X001310Y024539D01*
X001104Y014392D02*
X001310Y014185D01*
X001310Y013772D01*
X001541Y013772D02*
X001541Y014392D01*
X001955Y013772D01*
X001955Y014392D01*
X002186Y014185D02*
X002186Y013772D01*
X002186Y014082D02*
X002600Y014082D01*
X002600Y014185D02*
X002600Y013772D01*
X002830Y013772D02*
X002830Y014392D01*
X002600Y014185D02*
X002393Y014392D01*
X002186Y014185D01*
X002830Y013772D02*
X003244Y013772D01*
X003475Y013875D02*
X003578Y013772D01*
X003785Y013772D01*
X003889Y013875D01*
X003889Y014289D01*
X003785Y014392D01*
X003578Y014392D01*
X003475Y014289D01*
X003475Y013875D01*
X004119Y013875D02*
X004223Y013772D01*
X004430Y013772D01*
X004533Y013875D01*
X004533Y014082D01*
X004326Y014082D01*
X004119Y014289D02*
X004119Y013875D01*
X004119Y014289D02*
X004223Y014392D01*
X004430Y014392D01*
X004533Y014289D01*
X005409Y014392D02*
X005409Y013772D01*
X005409Y013979D02*
X005719Y013979D01*
X005822Y014082D01*
X005822Y014289D01*
X005719Y014392D01*
X005409Y014392D01*
X006053Y014289D02*
X006053Y013875D01*
X006156Y013772D01*
X006363Y013772D01*
X006467Y013875D01*
X006467Y014289D01*
X006363Y014392D01*
X006156Y014392D01*
X006053Y014289D01*
X006698Y014289D02*
X006698Y014185D01*
X006801Y014082D01*
X007008Y014082D01*
X007111Y013979D01*
X007111Y013875D01*
X007008Y013772D01*
X006801Y013772D01*
X006698Y013875D01*
X006698Y014289D02*
X006801Y014392D01*
X007008Y014392D01*
X007111Y014289D01*
X007008Y008892D02*
X006801Y008892D01*
X006698Y008789D01*
X006698Y008375D01*
X006801Y008272D01*
X007008Y008272D01*
X007111Y008375D01*
X007111Y008582D01*
X006904Y008582D01*
X007111Y008789D02*
X007008Y008892D01*
X006467Y008892D02*
X006053Y008892D01*
X006053Y008272D01*
X006467Y008272D01*
X006260Y008582D02*
X006053Y008582D01*
X005822Y008272D02*
X005822Y008892D01*
X005409Y008892D02*
X005822Y008272D01*
X005409Y008272D02*
X005409Y008892D01*
X004533Y008789D02*
X004430Y008892D01*
X004223Y008892D01*
X004119Y008789D01*
X004119Y008375D01*
X004223Y008272D01*
X004430Y008272D01*
X004533Y008375D01*
X004533Y008582D01*
X004326Y008582D01*
X003889Y008375D02*
X003785Y008272D01*
X003578Y008272D01*
X003475Y008375D01*
X003475Y008789D01*
X003578Y008892D01*
X003785Y008892D01*
X003889Y008789D01*
X003889Y008375D01*
X003244Y008272D02*
X002830Y008272D01*
X002830Y008892D01*
X002600Y008685D02*
X002600Y008272D01*
X002600Y008582D02*
X002186Y008582D01*
X002186Y008685D02*
X002393Y008892D01*
X002600Y008685D01*
X002186Y008685D02*
X002186Y008272D01*
X001955Y008272D02*
X001955Y008892D01*
X001541Y008892D02*
X001955Y008272D01*
X001541Y008272D02*
X001541Y008892D01*
X001310Y008685D02*
X001310Y008272D01*
X001310Y008582D02*
X000897Y008582D01*
X000897Y008685D02*
X001104Y008892D01*
X001310Y008685D01*
X000897Y008685D02*
X000897Y008272D01*
X000897Y013772D02*
X000897Y014185D01*
X001104Y014392D01*
X000897Y014082D02*
X001310Y014082D01*
X004125Y001642D02*
X004022Y001539D01*
X004022Y001125D01*
X004125Y001022D01*
X004332Y001022D01*
X004435Y001125D01*
X004666Y001022D02*
X004666Y001642D01*
X004435Y001539D02*
X004332Y001642D01*
X004125Y001642D01*
X004666Y001332D02*
X005080Y001332D01*
X005311Y001435D02*
X005518Y001642D01*
X005518Y001022D01*
X005311Y001022D02*
X005725Y001022D01*
X005080Y001022D02*
X005080Y001642D01*
X006600Y001642D02*
X006807Y001642D01*
X006703Y001642D02*
X006703Y001022D01*
X006600Y001022D02*
X006807Y001022D01*
X007030Y001022D02*
X007030Y001642D01*
X007443Y001022D01*
X007443Y001642D01*
X008272Y001539D02*
X008272Y001125D01*
X008375Y001022D01*
X008582Y001022D01*
X008685Y001125D01*
X008916Y001022D02*
X008916Y001642D01*
X008685Y001539D02*
X008582Y001642D01*
X008375Y001642D01*
X008272Y001539D01*
X008916Y001332D02*
X009330Y001332D01*
X009561Y001435D02*
X009768Y001642D01*
X009768Y001022D01*
X009561Y001022D02*
X009975Y001022D01*
X009330Y001022D02*
X009330Y001642D01*
X010850Y001539D02*
X010850Y001125D01*
X010953Y001022D01*
X011160Y001022D01*
X011264Y001125D01*
X011264Y001539D01*
X011160Y001642D01*
X010953Y001642D01*
X010850Y001539D01*
X011494Y001642D02*
X011494Y001125D01*
X011598Y001022D01*
X011805Y001022D01*
X011908Y001125D01*
X011908Y001642D01*
X012139Y001642D02*
X012553Y001642D01*
X012346Y001642D02*
X012346Y001022D01*
X015522Y001125D02*
X015625Y001022D01*
X015832Y001022D01*
X015935Y001125D01*
X016166Y001022D02*
X016166Y001642D01*
X015935Y001539D02*
X015832Y001642D01*
X015625Y001642D01*
X015522Y001539D01*
X015522Y001125D01*
X016166Y001332D02*
X016580Y001332D01*
X016811Y001539D02*
X016914Y001642D01*
X017121Y001642D01*
X017225Y001539D01*
X017225Y001435D01*
X016811Y001022D01*
X017225Y001022D01*
X016580Y001022D02*
X016580Y001642D01*
X018100Y001642D02*
X018307Y001642D01*
X018203Y001642D02*
X018203Y001022D01*
X018100Y001022D02*
X018307Y001022D01*
X018530Y001022D02*
X018530Y001642D01*
X018943Y001022D01*
X018943Y001642D01*
X019522Y001539D02*
X019522Y001125D01*
X019625Y001022D01*
X019832Y001022D01*
X019935Y001125D01*
X020166Y001022D02*
X020166Y001642D01*
X019935Y001539D02*
X019832Y001642D01*
X019625Y001642D01*
X019522Y001539D01*
X020166Y001332D02*
X020580Y001332D01*
X020811Y001539D02*
X020914Y001642D01*
X021121Y001642D01*
X021225Y001539D01*
X021225Y001435D01*
X020811Y001022D01*
X021225Y001022D01*
X020580Y001022D02*
X020580Y001642D01*
X022100Y001539D02*
X022100Y001125D01*
X022203Y001022D01*
X022410Y001022D01*
X022514Y001125D01*
X022514Y001539D01*
X022410Y001642D01*
X022203Y001642D01*
X022100Y001539D01*
X022744Y001642D02*
X022744Y001125D01*
X022848Y001022D01*
X023055Y001022D01*
X023158Y001125D01*
X023158Y001642D01*
X023389Y001642D02*
X023803Y001642D01*
X023596Y001642D02*
X023596Y001022D01*
X024500Y003397D02*
X024397Y003500D01*
X024500Y003397D02*
X024707Y003397D01*
X024810Y003500D01*
X024810Y003604D01*
X024707Y003707D01*
X024500Y003707D01*
X024397Y003810D01*
X024397Y003914D01*
X024500Y004017D01*
X024707Y004017D01*
X024810Y003914D01*
X025041Y003397D02*
X025455Y004017D01*
X025686Y004017D02*
X025686Y003397D01*
X026100Y003397D02*
X025686Y004017D01*
X026100Y004017D02*
X026100Y003397D01*
X026154Y005647D02*
X026154Y006267D01*
X026154Y005957D02*
X025741Y005957D01*
X025741Y005647D02*
X025741Y006267D01*
X025510Y006164D02*
X025406Y006267D01*
X025199Y006267D01*
X025096Y006164D01*
X025096Y005750D01*
X025199Y005647D01*
X025406Y005647D01*
X025510Y005750D01*
X024873Y005647D02*
X024666Y005647D01*
X024770Y005647D02*
X024770Y006267D01*
X024873Y006267D02*
X024666Y006267D01*
X024435Y006164D02*
X024332Y006267D01*
X024022Y006267D01*
X024022Y005647D01*
X024022Y005854D02*
X024332Y005854D01*
X024435Y005957D01*
X024435Y006164D01*
X024229Y005854D02*
X024435Y005647D01*
X024332Y006647D02*
X024125Y006647D01*
X024022Y006750D01*
X024125Y006957D02*
X024332Y006957D01*
X024435Y006854D01*
X024435Y006750D01*
X024332Y006647D01*
X024666Y006647D02*
X025080Y006647D01*
X025311Y006647D02*
X025311Y007267D01*
X025725Y006647D01*
X025725Y007267D01*
X025955Y007267D02*
X025955Y006647D01*
X025955Y006854D02*
X026369Y007267D01*
X026600Y007164D02*
X026600Y006750D01*
X026703Y006647D01*
X026910Y006647D01*
X027014Y006750D01*
X027014Y007164D01*
X026910Y007267D01*
X026703Y007267D01*
X026600Y007164D01*
X026369Y006647D02*
X026059Y006957D01*
X027030Y006267D02*
X027340Y006267D01*
X027443Y006164D01*
X027443Y005957D01*
X027340Y005854D01*
X027030Y005854D01*
X027236Y005854D02*
X027443Y005647D01*
X027674Y005647D02*
X027674Y006060D01*
X027881Y006267D01*
X028088Y006060D01*
X028088Y005647D01*
X028319Y005647D02*
X028629Y005647D01*
X028732Y005750D01*
X028732Y006164D01*
X028629Y006267D01*
X028319Y006267D01*
X028319Y005647D01*
X028088Y005957D02*
X027674Y005957D01*
X027030Y005647D02*
X027030Y006267D01*
X028096Y006647D02*
X028096Y007267D01*
X027889Y007267D02*
X028303Y007267D01*
X028534Y007267D02*
X028844Y007267D01*
X028947Y007164D01*
X028947Y006957D01*
X028844Y006854D01*
X028534Y006854D01*
X028740Y006854D02*
X028947Y006647D01*
X029178Y006647D02*
X029178Y007060D01*
X029385Y007267D01*
X029592Y007060D01*
X029592Y006647D01*
X029823Y006647D02*
X029823Y007267D01*
X030133Y007267D01*
X030236Y007164D01*
X030236Y006957D01*
X030133Y006854D01*
X029823Y006854D01*
X029592Y006957D02*
X029178Y006957D01*
X029377Y006267D02*
X028963Y006267D01*
X028963Y005647D01*
X029377Y005647D01*
X029608Y005647D02*
X029608Y006267D01*
X029815Y006060D01*
X030021Y006267D01*
X030021Y005647D01*
X030252Y005647D02*
X030252Y006060D01*
X030459Y006267D01*
X030666Y006060D01*
X030666Y005647D01*
X030897Y005750D02*
X030897Y006164D01*
X031000Y006267D01*
X031207Y006267D01*
X031310Y006164D01*
X031541Y006267D02*
X031541Y005647D01*
X031310Y005750D02*
X031207Y005647D01*
X031000Y005647D01*
X030897Y005750D01*
X030666Y005957D02*
X030252Y005957D01*
X030467Y006647D02*
X030467Y007267D01*
X030777Y007267D01*
X030881Y007164D01*
X030881Y006957D01*
X030777Y006854D01*
X030467Y006854D01*
X031112Y006957D02*
X031318Y006957D01*
X031112Y006647D02*
X031525Y006647D01*
X031756Y006647D02*
X032066Y006647D01*
X032170Y006750D01*
X032170Y007164D01*
X032066Y007267D01*
X031756Y007267D01*
X031756Y006647D01*
X031955Y006267D02*
X031955Y005647D01*
X032186Y005647D02*
X032599Y005647D01*
X032830Y005647D02*
X032830Y006267D01*
X033141Y006267D01*
X033244Y006164D01*
X033244Y005957D01*
X033141Y005854D01*
X032830Y005854D01*
X033037Y005854D02*
X033244Y005647D01*
X034119Y005647D02*
X034533Y005647D01*
X034326Y005647D02*
X034326Y006267D01*
X034119Y006060D01*
X034119Y006647D02*
X034119Y007267D01*
X034533Y006647D01*
X034533Y007267D01*
X033889Y007164D02*
X033889Y006750D01*
X033785Y006647D01*
X033578Y006647D01*
X033475Y006750D01*
X033475Y007164D01*
X033578Y007267D01*
X033785Y007267D01*
X033889Y007164D01*
X033252Y007267D02*
X033045Y007267D01*
X033149Y007267D02*
X033149Y006647D01*
X033252Y006647D02*
X033045Y006647D01*
X032599Y006267D02*
X032186Y006267D01*
X032186Y005647D01*
X032186Y005957D02*
X032393Y005957D01*
X031955Y005957D02*
X031541Y005957D01*
X031112Y006647D02*
X031112Y007267D01*
X031525Y007267D01*
X031525Y008522D02*
X031112Y008522D01*
X031112Y009142D01*
X030881Y009039D02*
X030881Y008832D01*
X030777Y008729D01*
X030467Y008729D01*
X030674Y008729D02*
X030881Y008522D01*
X030467Y008522D02*
X030467Y009142D01*
X030777Y009142D01*
X030881Y009039D01*
X030916Y009647D02*
X031227Y009647D01*
X031330Y009750D01*
X031330Y010164D01*
X031227Y010267D01*
X030916Y010267D01*
X030916Y009647D01*
X030693Y009647D02*
X030487Y009647D01*
X030590Y009647D02*
X030590Y010267D01*
X030487Y010267D02*
X030693Y010267D01*
X030256Y010164D02*
X030256Y009957D01*
X030152Y009854D01*
X029842Y009854D01*
X029842Y009647D02*
X029842Y010267D01*
X030152Y010267D01*
X030256Y010164D01*
X030236Y009142D02*
X029823Y009142D01*
X029823Y008522D01*
X030236Y008522D01*
X030029Y008832D02*
X029823Y008832D01*
X029592Y009142D02*
X029178Y009142D01*
X029385Y009142D02*
X029385Y008522D01*
X028947Y008522D02*
X028947Y008935D01*
X028740Y009142D01*
X028534Y008935D01*
X028534Y008522D01*
X028303Y008522D02*
X028303Y009142D01*
X028534Y008832D02*
X028947Y008832D01*
X028303Y008522D02*
X028096Y008729D01*
X027889Y008522D01*
X027889Y009142D01*
X027658Y009142D02*
X027658Y008625D01*
X027555Y008522D01*
X027348Y008522D01*
X027244Y008625D01*
X027244Y009142D01*
X027264Y009647D02*
X027574Y009647D01*
X027678Y009750D01*
X027678Y010164D01*
X027574Y010267D01*
X027264Y010267D01*
X027264Y009647D01*
X027909Y009750D02*
X028012Y009647D01*
X028219Y009647D01*
X028322Y009750D01*
X028322Y009854D01*
X028219Y009957D01*
X028012Y009957D01*
X027909Y010060D01*
X027909Y010164D01*
X028012Y010267D01*
X028219Y010267D01*
X028322Y010164D01*
X028553Y010267D02*
X028863Y010267D01*
X028967Y010164D01*
X028967Y009957D01*
X028863Y009854D01*
X028553Y009854D01*
X028553Y009647D02*
X028553Y010267D01*
X026389Y010267D02*
X026389Y009854D01*
X026182Y009647D01*
X025975Y009854D01*
X025975Y010267D01*
X025744Y010267D02*
X025330Y010267D01*
X025330Y009957D01*
X025537Y010060D01*
X025641Y010060D01*
X025744Y009957D01*
X025744Y009750D01*
X025641Y009647D01*
X025434Y009647D01*
X025330Y009750D01*
X025100Y009957D02*
X024686Y009957D01*
X024455Y010267D02*
X024041Y009647D01*
X023810Y009957D02*
X023397Y009957D01*
X023604Y010164D02*
X023604Y009750D01*
X024125Y009142D02*
X024022Y009039D01*
X024125Y009142D02*
X024332Y009142D01*
X024435Y009039D01*
X024435Y008935D01*
X024022Y008522D01*
X024435Y008522D01*
X024666Y008625D02*
X025080Y009039D01*
X025080Y008625D01*
X024977Y008522D01*
X024770Y008522D01*
X024666Y008625D01*
X024666Y009039D01*
X024770Y009142D01*
X024977Y009142D01*
X025080Y009039D01*
X025311Y008935D02*
X025518Y009142D01*
X025518Y008522D01*
X025311Y008522D02*
X025725Y008522D01*
X025955Y008625D02*
X025955Y008729D01*
X026059Y008832D01*
X026266Y008832D01*
X026369Y008729D01*
X026369Y008625D01*
X026266Y008522D01*
X026059Y008522D01*
X025955Y008625D01*
X026059Y008832D02*
X025955Y008935D01*
X025955Y009039D01*
X026059Y009142D01*
X026266Y009142D01*
X026369Y009039D01*
X026369Y008935D01*
X026266Y008832D01*
X025080Y007267D02*
X024666Y007267D01*
X024666Y006647D01*
X024666Y006957D02*
X024873Y006957D01*
X024435Y007164D02*
X024332Y007267D01*
X024125Y007267D01*
X024022Y007164D01*
X024022Y007060D01*
X024125Y006957D01*
X028534Y006647D02*
X028534Y007267D01*
X028963Y005957D02*
X029170Y005957D01*
X031756Y008625D02*
X031860Y008522D01*
X032066Y008522D01*
X032170Y008625D01*
X032170Y009039D01*
X032066Y009142D01*
X031860Y009142D01*
X031756Y009039D01*
X031756Y008625D01*
X032401Y008625D02*
X032504Y008522D01*
X032711Y008522D01*
X032814Y008625D01*
X032814Y009039D01*
X032711Y009142D01*
X032504Y009142D01*
X032401Y009039D01*
X032401Y008625D01*
X033045Y008522D02*
X033459Y009142D01*
X033690Y009142D02*
X033897Y009142D01*
X033793Y009142D02*
X033793Y008522D01*
X033690Y008522D02*
X033897Y008522D01*
X034119Y008625D02*
X034223Y008522D01*
X034430Y008522D01*
X034533Y008625D01*
X034533Y009039D01*
X034430Y009142D01*
X034223Y009142D01*
X034119Y009039D01*
X034119Y008625D01*
X034326Y008729D02*
X034533Y008522D01*
X034764Y008625D02*
X034764Y009039D01*
X034867Y009142D01*
X035074Y009142D01*
X035178Y009039D01*
X035178Y008625D02*
X035074Y008522D01*
X034867Y008522D01*
X034764Y008625D01*
X034783Y009647D02*
X034783Y010267D01*
X035094Y010267D01*
X035197Y010164D01*
X035197Y009957D01*
X035094Y009854D01*
X034783Y009854D01*
X034990Y009854D02*
X035197Y009647D01*
X035428Y009750D02*
X035531Y009647D01*
X035738Y009647D01*
X035842Y009750D01*
X035842Y010164D01*
X035738Y010267D01*
X035531Y010267D01*
X035428Y010164D01*
X035428Y009750D01*
X036073Y009647D02*
X036486Y009647D01*
X036717Y009647D02*
X036717Y010267D01*
X036717Y009647D02*
X037131Y009647D01*
X037362Y009647D02*
X037775Y009647D01*
X038006Y009647D02*
X038006Y010267D01*
X038316Y010267D01*
X038420Y010164D01*
X038420Y009957D01*
X038316Y009854D01*
X038006Y009854D01*
X038213Y009854D02*
X038420Y009647D01*
X037775Y010267D02*
X037362Y010267D01*
X037362Y009647D01*
X037362Y009957D02*
X037568Y009957D01*
X036073Y010267D02*
X036073Y009647D01*
X034553Y010267D02*
X034139Y010267D01*
X034346Y010267D02*
X034346Y009647D01*
X033908Y009647D02*
X033908Y010267D01*
X033494Y010267D02*
X033494Y009647D01*
X033264Y009750D02*
X033264Y010164D01*
X033160Y010267D01*
X032953Y010267D01*
X032850Y010164D01*
X032850Y009750D01*
X032953Y009647D01*
X033160Y009647D01*
X033264Y009750D01*
X033494Y010267D02*
X033908Y009647D01*
X032619Y009750D02*
X032516Y009647D01*
X032309Y009647D01*
X032205Y009750D01*
X032205Y010164D01*
X032309Y010267D01*
X032516Y010267D01*
X032619Y010164D01*
X035512Y007267D02*
X035408Y007164D01*
X035408Y006750D01*
X035512Y006647D01*
X035719Y006647D01*
X035822Y006750D01*
X035822Y006957D01*
X035615Y006957D01*
X035822Y007164D02*
X035719Y007267D01*
X035512Y007267D01*
X036053Y007267D02*
X036053Y006647D01*
X036053Y006854D02*
X036363Y006854D01*
X036467Y006957D01*
X036467Y007164D01*
X036363Y007267D01*
X036053Y007267D01*
X036260Y006854D02*
X036467Y006647D01*
X036698Y006750D02*
X036698Y007164D01*
X036801Y007267D01*
X037008Y007267D01*
X037111Y007164D01*
X037111Y006750D01*
X037008Y006647D01*
X036801Y006647D01*
X036698Y006750D01*
X036904Y006267D02*
X036904Y005647D01*
X036698Y005647D02*
X037111Y005647D01*
X037342Y005750D02*
X037342Y005854D01*
X037445Y005957D01*
X037652Y005957D01*
X037756Y005854D01*
X037756Y005750D01*
X037652Y005647D01*
X037445Y005647D01*
X037342Y005750D01*
X037445Y005957D02*
X037342Y006060D01*
X037342Y006164D01*
X037445Y006267D01*
X037652Y006267D01*
X037756Y006164D01*
X037756Y006060D01*
X037652Y005957D01*
X037652Y006647D02*
X037756Y006750D01*
X037756Y007267D01*
X037987Y007267D02*
X037987Y006647D01*
X037987Y006854D02*
X038297Y006854D01*
X038400Y006957D01*
X038400Y007164D01*
X038297Y007267D01*
X037987Y007267D01*
X037652Y006647D02*
X037445Y006647D01*
X037342Y006750D01*
X037342Y007267D01*
X036904Y006267D02*
X036698Y006060D01*
X036467Y006164D02*
X036467Y005750D01*
X036363Y005647D01*
X036156Y005647D01*
X036053Y005750D01*
X036467Y006164D01*
X036363Y006267D01*
X036156Y006267D01*
X036053Y006164D01*
X036053Y005750D01*
X035822Y005647D02*
X035408Y005647D01*
X035822Y006060D01*
X035822Y006164D01*
X035719Y006267D01*
X035512Y006267D01*
X035408Y006164D01*
X035178Y006267D02*
X034764Y005647D01*
D12*
X031357Y003732D03*
D13*
X023482Y005482D02*
X023482Y001982D01*
X019982Y001982D01*
X019982Y005482D01*
X023482Y005482D01*
X022032Y006782D02*
X021432Y006782D01*
X021432Y007182D01*
X022032Y007182D01*
X022032Y007082D01*
X021932Y007182D01*
X022032Y007182D01*
X022032Y006782D01*
X022032Y007125D02*
X021989Y007125D01*
X022032Y007174D02*
X021940Y007174D01*
X018982Y005482D02*
X015482Y005482D01*
X015482Y001982D01*
X018982Y001982D01*
X018982Y005482D01*
X017282Y006782D02*
X017282Y007182D01*
X017282Y007082D01*
X017182Y007182D01*
X017282Y007182D01*
X016682Y007182D01*
X016682Y006782D01*
X017282Y006782D01*
X017282Y007125D02*
X017239Y007125D01*
X017282Y007174D02*
X017190Y007174D01*
X011982Y005482D02*
X011982Y001982D01*
X008482Y001982D01*
X008482Y005482D01*
X011982Y005482D01*
X010282Y006782D02*
X009682Y006782D01*
X009682Y007182D01*
X010282Y007182D01*
X010282Y007082D01*
X010182Y007182D01*
X010282Y007182D01*
X010282Y006782D01*
X010282Y007125D02*
X010239Y007125D01*
X010282Y007174D02*
X010190Y007174D01*
X007482Y005482D02*
X003982Y005482D01*
X003982Y001982D01*
X007482Y001982D01*
X007482Y005482D01*
X006032Y006782D02*
X005432Y006782D01*
X005432Y007182D01*
X006032Y007182D01*
X006032Y007082D01*
X005932Y007182D01*
X006032Y007182D01*
X006032Y006782D01*
X006032Y007125D02*
X005989Y007125D01*
X006032Y007174D02*
X005940Y007174D01*
X004110Y008163D02*
X004110Y005801D01*
X001354Y005801D01*
X001354Y008163D01*
X004110Y008163D01*
X005182Y009801D02*
X005713Y009801D01*
X005713Y012163D01*
X005182Y012163D01*
X006632Y011632D02*
X006632Y011482D01*
X007832Y011482D01*
X007832Y011632D01*
X006632Y011632D01*
X006632Y011591D02*
X007832Y011591D01*
X007832Y011542D02*
X006632Y011542D01*
X006632Y011494D02*
X007832Y011494D01*
X007832Y011457D02*
X006632Y011457D01*
X006632Y013357D01*
X007832Y013357D01*
X007832Y011457D01*
X005713Y015301D02*
X005182Y015301D01*
X005713Y015301D02*
X005713Y017663D01*
X005182Y017663D01*
X004110Y019051D02*
X001354Y019051D01*
X001354Y021413D01*
X004110Y021413D01*
X004110Y019051D01*
X002032Y017663D02*
X001501Y017663D01*
X001501Y015301D01*
X002032Y015301D01*
X002032Y017663D02*
X002099Y017737D01*
X002169Y017807D01*
X002242Y017874D01*
X002318Y017938D01*
X002397Y017998D01*
X002479Y018054D01*
X002564Y018106D01*
X002651Y018154D01*
X002740Y018197D01*
X002832Y018237D01*
X002925Y018272D01*
X003019Y018302D01*
X003115Y018328D01*
X003212Y018349D01*
X003310Y018366D01*
X003409Y018377D01*
X003508Y018385D01*
X003607Y018387D01*
X003706Y018385D01*
X003805Y018377D01*
X003904Y018366D01*
X004002Y018349D01*
X004099Y018328D01*
X004195Y018302D01*
X004289Y018272D01*
X004382Y018237D01*
X004474Y018197D01*
X004563Y018154D01*
X004650Y018106D01*
X004735Y018054D01*
X004817Y017998D01*
X004896Y017938D01*
X004972Y017874D01*
X005045Y017807D01*
X005115Y017737D01*
X005182Y017663D01*
X005182Y015301D02*
X005115Y015227D01*
X005045Y015157D01*
X004972Y015090D01*
X004896Y015026D01*
X004817Y014966D01*
X004735Y014910D01*
X004650Y014858D01*
X004563Y014810D01*
X004474Y014767D01*
X004382Y014727D01*
X004289Y014692D01*
X004195Y014662D01*
X004099Y014636D01*
X004002Y014615D01*
X003904Y014598D01*
X003805Y014587D01*
X003706Y014579D01*
X003607Y014577D01*
X003508Y014579D01*
X003409Y014587D01*
X003310Y014598D01*
X003212Y014615D01*
X003115Y014636D01*
X003019Y014662D01*
X002925Y014692D01*
X002832Y014727D01*
X002740Y014767D01*
X002651Y014810D01*
X002564Y014858D01*
X002479Y014910D01*
X002397Y014966D01*
X002318Y015026D01*
X002242Y015090D01*
X002169Y015157D01*
X002099Y015227D01*
X002032Y015301D01*
X002032Y012163D02*
X001501Y012163D01*
X001501Y009801D01*
X002032Y009801D01*
X002032Y012163D02*
X002099Y012237D01*
X002169Y012307D01*
X002242Y012374D01*
X002318Y012438D01*
X002397Y012498D01*
X002479Y012554D01*
X002564Y012606D01*
X002651Y012654D01*
X002740Y012697D01*
X002832Y012737D01*
X002925Y012772D01*
X003019Y012802D01*
X003115Y012828D01*
X003212Y012849D01*
X003310Y012866D01*
X003409Y012877D01*
X003508Y012885D01*
X003607Y012887D01*
X003706Y012885D01*
X003805Y012877D01*
X003904Y012866D01*
X004002Y012849D01*
X004099Y012828D01*
X004195Y012802D01*
X004289Y012772D01*
X004382Y012737D01*
X004474Y012697D01*
X004563Y012654D01*
X004650Y012606D01*
X004735Y012554D01*
X004817Y012498D01*
X004896Y012438D01*
X004972Y012374D01*
X005045Y012307D01*
X005115Y012237D01*
X005182Y012163D01*
X005182Y009801D02*
X005115Y009727D01*
X005045Y009657D01*
X004972Y009590D01*
X004896Y009526D01*
X004817Y009466D01*
X004735Y009410D01*
X004650Y009358D01*
X004563Y009310D01*
X004474Y009267D01*
X004382Y009227D01*
X004289Y009192D01*
X004195Y009162D01*
X004099Y009136D01*
X004002Y009115D01*
X003904Y009098D01*
X003805Y009087D01*
X003706Y009079D01*
X003607Y009077D01*
X003508Y009079D01*
X003409Y009087D01*
X003310Y009098D01*
X003212Y009115D01*
X003115Y009136D01*
X003019Y009162D01*
X002925Y009192D01*
X002832Y009227D01*
X002740Y009267D01*
X002651Y009310D01*
X002564Y009358D01*
X002479Y009410D01*
X002397Y009466D01*
X002318Y009526D01*
X002242Y009590D01*
X002169Y009657D01*
X002099Y009727D01*
X002032Y009801D01*
X008107Y017632D02*
X008107Y018832D01*
X010007Y018832D01*
X010007Y017632D01*
X008107Y017632D01*
X008344Y018957D02*
X008344Y019757D01*
X010119Y019757D01*
X010119Y018957D01*
X008344Y018957D01*
X009832Y018832D02*
X009832Y017632D01*
X009982Y017632D01*
X009982Y018832D01*
X009832Y018832D01*
X009832Y018824D02*
X009982Y018824D01*
X009982Y018775D02*
X009832Y018775D01*
X009832Y018727D02*
X009982Y018727D01*
X009982Y018678D02*
X009832Y018678D01*
X009832Y018630D02*
X009982Y018630D01*
X009982Y018581D02*
X009832Y018581D01*
X009832Y018533D02*
X009982Y018533D01*
X009982Y018484D02*
X009832Y018484D01*
X009832Y018436D02*
X009982Y018436D01*
X009982Y018387D02*
X009832Y018387D01*
X009832Y018338D02*
X009982Y018338D01*
X009982Y018290D02*
X009832Y018290D01*
X009832Y018241D02*
X009982Y018241D01*
X009982Y018193D02*
X009832Y018193D01*
X009832Y018144D02*
X009982Y018144D01*
X009982Y018096D02*
X009832Y018096D01*
X009832Y018047D02*
X009982Y018047D01*
X009982Y017999D02*
X009832Y017999D01*
X009832Y017950D02*
X009982Y017950D01*
X009982Y017902D02*
X009832Y017902D01*
X009832Y017853D02*
X009982Y017853D01*
X009982Y017804D02*
X009832Y017804D01*
X009832Y017756D02*
X009982Y017756D01*
X009982Y017707D02*
X009832Y017707D01*
X009832Y017659D02*
X009982Y017659D01*
X010208Y017790D02*
X010219Y017780D01*
X010232Y017773D01*
X010248Y017770D01*
X010263Y017773D01*
X010276Y017780D01*
X010287Y017790D01*
X010294Y017804D01*
X010297Y017819D01*
X010294Y017835D01*
X010287Y017848D01*
X010276Y017859D01*
X010263Y017866D01*
X010248Y017869D01*
X010232Y017866D01*
X010219Y017859D01*
X010208Y017848D01*
X010201Y017835D01*
X010198Y017819D01*
X010201Y017804D01*
X010208Y017790D01*
X010201Y017804D02*
X010294Y017804D01*
X010283Y017853D02*
X010212Y017853D01*
X010395Y017819D02*
X010395Y019345D01*
X012068Y019345D01*
X012068Y017819D01*
X010395Y017819D01*
X010169Y017337D02*
X010169Y016877D01*
X011294Y016877D01*
X011294Y017337D01*
X010169Y017337D01*
X010094Y016507D02*
X011869Y016507D01*
X011869Y015707D01*
X010094Y015707D01*
X010094Y016507D01*
X010482Y015607D02*
X010482Y015407D01*
X010382Y015507D02*
X010582Y015507D01*
X012219Y016957D02*
X012219Y017757D01*
X013994Y017757D01*
X013994Y016957D01*
X012219Y016957D01*
X012252Y018044D02*
X012252Y019169D01*
X012712Y019169D01*
X012712Y018044D01*
X012252Y018044D01*
X012832Y018219D02*
X012832Y019994D01*
X013632Y019994D01*
X013632Y018219D01*
X012832Y018219D01*
X013507Y017957D02*
X013707Y017957D01*
X013607Y017857D02*
X013607Y018057D01*
X012632Y019507D02*
X012632Y019707D01*
X012732Y019607D02*
X012532Y019607D01*
X009832Y019957D02*
X009632Y019957D01*
X009732Y019857D02*
X009732Y020057D01*
X010082Y025482D02*
X008882Y025482D01*
X008882Y027382D01*
X010082Y027382D01*
X010082Y025482D01*
X010082Y027207D02*
X008882Y027207D01*
X008882Y027357D01*
X010082Y027357D01*
X010082Y027207D01*
X010082Y027222D02*
X008882Y027222D01*
X008882Y027270D02*
X010082Y027270D01*
X010082Y027319D02*
X008882Y027319D01*
X007794Y030064D02*
X006669Y030064D01*
X006669Y030524D01*
X007794Y030524D01*
X007794Y030064D01*
X007794Y030627D02*
X007794Y031087D01*
X006669Y031087D01*
X006669Y030627D01*
X007794Y030627D01*
X007794Y031189D02*
X006669Y031189D01*
X006669Y031649D01*
X007794Y031649D01*
X007794Y031189D01*
X007372Y032168D02*
X006092Y032168D01*
X006092Y033546D01*
X007372Y033546D01*
X007372Y032168D01*
X007582Y032520D02*
X007582Y034295D01*
X008382Y034295D01*
X008382Y032520D01*
X007582Y032520D01*
X008832Y032594D02*
X008832Y034369D01*
X009632Y034369D01*
X009632Y032594D01*
X008832Y032594D01*
X008632Y033882D02*
X008632Y034082D01*
X008732Y033982D02*
X008532Y033982D01*
X008982Y034707D02*
X007232Y034707D01*
X007232Y035507D01*
X008982Y035507D01*
X008982Y034707D01*
X010127Y034169D02*
X010587Y034169D01*
X010587Y033044D01*
X010127Y033044D01*
X010127Y034169D01*
X007482Y033907D02*
X007282Y033907D01*
X007382Y034007D02*
X007382Y033807D01*
X006794Y033814D02*
X006794Y034274D01*
X005669Y034274D01*
X005669Y033814D01*
X006794Y033814D01*
X006794Y034439D02*
X005669Y034439D01*
X005669Y034899D01*
X006794Y034899D01*
X006794Y034439D01*
X006794Y035064D02*
X005669Y035064D01*
X005669Y035524D01*
X006794Y035524D01*
X006794Y035064D01*
X005819Y033244D02*
X005819Y031469D01*
X005019Y031469D01*
X005019Y033244D01*
X005819Y033244D01*
X005944Y032365D02*
X005929Y032362D01*
X005915Y032355D01*
X005905Y032344D01*
X005898Y032331D01*
X005895Y032315D01*
X005898Y032300D01*
X005905Y032287D01*
X005915Y032276D01*
X005929Y032269D01*
X005944Y032266D01*
X005960Y032269D01*
X005973Y032276D01*
X005984Y032287D01*
X005991Y032300D01*
X005994Y032315D01*
X005991Y032331D01*
X005984Y032344D01*
X005973Y032355D01*
X005960Y032362D01*
X005944Y032365D01*
X005896Y032319D02*
X005993Y032319D01*
X005963Y032270D02*
X005926Y032270D01*
X006019Y031957D02*
X006019Y031757D01*
X005919Y031857D02*
X006119Y031857D01*
X006232Y031132D02*
X006232Y030332D01*
X004482Y030332D01*
X004482Y031132D01*
X006232Y031132D01*
X004869Y031857D02*
X004669Y031857D01*
X004769Y031757D02*
X004769Y031957D01*
X004569Y031469D02*
X004569Y033244D01*
X003769Y033244D01*
X003769Y031469D01*
X004569Y031469D01*
X003337Y031607D02*
X003337Y032732D01*
X002877Y032732D01*
X002877Y031607D01*
X003337Y031607D01*
X001907Y027913D02*
X001376Y027913D01*
X001376Y025551D01*
X001907Y025551D01*
X001354Y023913D02*
X004110Y023913D01*
X004110Y021551D01*
X001354Y021551D01*
X001354Y023913D01*
X001907Y027913D02*
X001974Y027987D01*
X002044Y028057D01*
X002117Y028124D01*
X002193Y028188D01*
X002272Y028248D01*
X002354Y028304D01*
X002439Y028356D01*
X002526Y028404D01*
X002615Y028447D01*
X002707Y028487D01*
X002800Y028522D01*
X002894Y028552D01*
X002990Y028578D01*
X003087Y028599D01*
X003185Y028616D01*
X003284Y028627D01*
X003383Y028635D01*
X003482Y028637D01*
X003581Y028635D01*
X003680Y028627D01*
X003779Y028616D01*
X003877Y028599D01*
X003974Y028578D01*
X004070Y028552D01*
X004164Y028522D01*
X004257Y028487D01*
X004349Y028447D01*
X004438Y028404D01*
X004525Y028356D01*
X004610Y028304D01*
X004692Y028248D01*
X004771Y028188D01*
X004847Y028124D01*
X004920Y028057D01*
X004990Y027987D01*
X005057Y027913D01*
X005588Y027913D01*
X005588Y025551D01*
X005057Y025551D01*
X004990Y025477D01*
X004920Y025407D01*
X004847Y025340D01*
X004771Y025276D01*
X004692Y025216D01*
X004610Y025160D01*
X004525Y025108D01*
X004438Y025060D01*
X004349Y025017D01*
X004257Y024977D01*
X004164Y024942D01*
X004070Y024912D01*
X003974Y024886D01*
X003877Y024865D01*
X003779Y024848D01*
X003680Y024837D01*
X003581Y024829D01*
X003482Y024827D01*
X003383Y024829D01*
X003284Y024837D01*
X003185Y024848D01*
X003087Y024865D01*
X002990Y024886D01*
X002894Y024912D01*
X002800Y024942D01*
X002707Y024977D01*
X002615Y025017D01*
X002526Y025060D01*
X002439Y025108D01*
X002354Y025160D01*
X002272Y025216D01*
X002193Y025276D01*
X002117Y025340D01*
X002044Y025407D01*
X001974Y025477D01*
X001907Y025551D01*
X011357Y029357D02*
X011357Y036857D01*
X013857Y036857D01*
X013857Y029357D01*
X011357Y029357D01*
X015169Y026212D02*
X015169Y025752D01*
X016294Y025752D01*
X016294Y026212D01*
X015169Y026212D01*
X015169Y025712D02*
X015169Y025252D01*
X016294Y025252D01*
X016294Y025712D01*
X015169Y025712D01*
X016502Y026294D02*
X016502Y027419D01*
X016962Y027419D01*
X016962Y026294D01*
X016502Y026294D01*
X016574Y026139D02*
X016574Y023324D01*
X019389Y023324D01*
X019389Y026139D01*
X016574Y026139D01*
X017002Y026294D02*
X017002Y027419D01*
X017462Y027419D01*
X017462Y026294D01*
X017002Y026294D01*
X017502Y026294D02*
X017502Y027419D01*
X017962Y027419D01*
X017962Y026294D01*
X017502Y026294D01*
X018127Y026294D02*
X018127Y027419D01*
X018587Y027419D01*
X018587Y026294D01*
X018127Y026294D01*
X019544Y027252D02*
X019544Y027712D01*
X020669Y027712D01*
X020669Y027252D01*
X019544Y027252D01*
X020169Y026462D02*
X021294Y026462D01*
X021294Y026002D01*
X020169Y026002D01*
X020169Y026462D01*
X020169Y025962D02*
X021294Y025962D01*
X021294Y025502D01*
X020169Y025502D01*
X020169Y025962D01*
X020169Y025462D02*
X021294Y025462D01*
X021294Y025002D01*
X020169Y025002D01*
X020169Y025462D01*
X020919Y024712D02*
X020919Y024252D01*
X022044Y024252D01*
X022044Y024712D01*
X020919Y024712D01*
X020212Y023919D02*
X019752Y023919D01*
X019752Y022794D01*
X020212Y022794D01*
X020212Y023919D01*
X019361Y023148D02*
X019377Y023124D01*
X019386Y023097D01*
X019389Y023068D01*
X019386Y023040D01*
X019377Y023013D01*
X019361Y022989D01*
X019341Y022968D01*
X019317Y022953D01*
X019290Y022944D01*
X019261Y022940D01*
X019233Y022944D01*
X019206Y022953D01*
X019182Y022968D01*
X019161Y022989D01*
X019146Y023013D01*
X019137Y023040D01*
X019133Y023068D01*
X019137Y023097D01*
X019146Y023124D01*
X019161Y023148D01*
X019182Y023168D01*
X019206Y023184D01*
X019233Y023193D01*
X019261Y023196D01*
X019290Y023193D01*
X019317Y023184D01*
X019341Y023168D01*
X019361Y023148D01*
X019364Y023144D02*
X019159Y023144D01*
X019136Y023096D02*
X019386Y023096D01*
X019387Y023047D02*
X019136Y023047D01*
X019155Y022999D02*
X019368Y022999D01*
X019308Y022950D02*
X019215Y022950D01*
X019232Y023193D02*
X019291Y023193D01*
X016044Y023877D02*
X016044Y024337D01*
X014919Y024337D01*
X014919Y023877D01*
X016044Y023877D01*
X019794Y019212D02*
X019794Y018752D01*
X020919Y018752D01*
X020919Y019212D01*
X019794Y019212D01*
X020544Y017962D02*
X020544Y017502D01*
X021669Y017502D01*
X021669Y017962D01*
X020544Y017962D01*
X021252Y017169D02*
X021712Y017169D01*
X021712Y016044D01*
X021252Y016044D01*
X021252Y017169D01*
X021752Y017169D02*
X022212Y017169D01*
X022212Y016044D01*
X021752Y016044D01*
X021752Y017169D01*
X021057Y016689D02*
X017907Y016689D01*
X017907Y014524D01*
X021057Y014524D01*
X021057Y016689D01*
X021169Y015837D02*
X022294Y015837D01*
X022294Y015377D01*
X021169Y015377D01*
X021169Y015837D01*
X021377Y015044D02*
X021837Y015044D01*
X021837Y013919D01*
X021377Y013919D01*
X021377Y015044D01*
X021877Y015044D02*
X022337Y015044D01*
X022337Y013919D01*
X021877Y013919D01*
X021877Y015044D01*
X021794Y013712D02*
X020669Y013712D01*
X020669Y013252D01*
X021794Y013252D01*
X021794Y013712D01*
X024002Y015294D02*
X024002Y016419D01*
X024462Y016419D01*
X024462Y015294D01*
X024002Y015294D01*
X026794Y016502D02*
X026794Y016962D01*
X027919Y016962D01*
X027919Y016502D01*
X026794Y016502D01*
X026794Y017002D02*
X026794Y017462D01*
X027919Y017462D01*
X027919Y017002D01*
X026794Y017002D01*
X026794Y017502D02*
X026794Y017962D01*
X027919Y017962D01*
X027919Y017502D01*
X026794Y017502D01*
X027377Y018169D02*
X027377Y019294D01*
X027837Y019294D01*
X027837Y018169D01*
X027377Y018169D01*
X028044Y018502D02*
X028044Y018962D01*
X029169Y018962D01*
X029169Y018502D01*
X028044Y018502D01*
X028282Y018314D02*
X031432Y018314D01*
X031432Y016149D01*
X028282Y016149D01*
X028282Y018314D01*
X028044Y019002D02*
X028044Y019462D01*
X029169Y019462D01*
X029169Y019002D01*
X028044Y019002D01*
X030127Y019544D02*
X030127Y018419D01*
X030587Y018419D01*
X030587Y019544D01*
X030127Y019544D01*
X030752Y019544D02*
X031212Y019544D01*
X031212Y018419D01*
X030752Y018419D01*
X030752Y019544D01*
X031502Y019544D02*
X031962Y019544D01*
X031962Y018419D01*
X031502Y018419D01*
X031502Y019544D01*
X031544Y017962D02*
X031544Y017502D01*
X032669Y017502D01*
X032669Y017962D01*
X031544Y017962D01*
X031544Y017462D02*
X031544Y017002D01*
X032669Y017002D01*
X032669Y017462D01*
X031544Y017462D01*
X031544Y016962D02*
X031544Y016502D01*
X032669Y016502D01*
X032669Y016962D01*
X031544Y016962D01*
X031502Y016044D02*
X031962Y016044D01*
X031962Y014919D01*
X031502Y014919D01*
X031502Y016044D01*
X031330Y015978D02*
X031320Y016001D01*
X031304Y016022D01*
X031284Y016038D01*
X031260Y016047D01*
X031235Y016051D01*
X031209Y016047D01*
X031186Y016038D01*
X031165Y016022D01*
X031150Y016001D01*
X031140Y015978D01*
X031136Y015952D01*
X031140Y015927D01*
X031150Y015903D01*
X031165Y015883D01*
X031186Y015867D01*
X031209Y015857D01*
X031235Y015854D01*
X031260Y015857D01*
X031284Y015867D01*
X031304Y015883D01*
X031320Y015903D01*
X031330Y015927D01*
X031333Y015952D01*
X031330Y015978D01*
X031332Y015960D02*
X031137Y015960D01*
X031146Y015911D02*
X031323Y015911D01*
X031274Y015863D02*
X031196Y015863D01*
X031155Y016008D02*
X031315Y016008D01*
X031087Y016044D02*
X030627Y016044D01*
X030627Y014919D01*
X031087Y014919D01*
X031087Y016044D01*
X032544Y015462D02*
X032544Y015002D01*
X033669Y015002D01*
X033669Y015462D01*
X032544Y015462D01*
X029462Y015794D02*
X029462Y014669D01*
X029002Y014669D01*
X029002Y015794D01*
X029462Y015794D01*
X028837Y015794D02*
X028377Y015794D01*
X028377Y014669D01*
X028837Y014669D01*
X028837Y015794D01*
X028337Y015794D02*
X028337Y014669D01*
X027877Y014669D01*
X027877Y015794D01*
X028337Y015794D01*
X018919Y017002D02*
X018919Y017462D01*
X017794Y017462D01*
X017794Y017002D01*
X018919Y017002D01*
X018544Y017502D02*
X018544Y017962D01*
X017419Y017962D01*
X017419Y017502D01*
X018544Y017502D01*
X018153Y016972D02*
X018129Y016981D01*
X018104Y016985D01*
X018078Y016981D01*
X018055Y016972D01*
X018034Y016956D01*
X018019Y016936D01*
X018009Y016912D01*
X018005Y016886D01*
X018009Y016861D01*
X018019Y016837D01*
X018034Y016817D01*
X018055Y016801D01*
X018078Y016791D01*
X018104Y016788D01*
X018129Y016791D01*
X018153Y016801D01*
X018173Y016817D01*
X018189Y016837D01*
X018199Y016861D01*
X018202Y016886D01*
X018199Y016912D01*
X018189Y016936D01*
X018173Y016956D01*
X018153Y016972D01*
X018135Y016979D02*
X018073Y016979D01*
X018017Y016931D02*
X018191Y016931D01*
X018202Y016882D02*
X018006Y016882D01*
X018021Y016834D02*
X018186Y016834D01*
X017462Y017044D02*
X017462Y015919D01*
X017002Y015919D01*
X017002Y017044D01*
X017462Y017044D01*
X016962Y017044D02*
X016962Y015919D01*
X016502Y015919D01*
X016502Y017044D01*
X016962Y017044D01*
X016544Y015837D02*
X017669Y015837D01*
X017669Y015377D01*
X016544Y015377D01*
X016544Y015837D01*
X016544Y015337D02*
X017669Y015337D01*
X017669Y014877D01*
X016544Y014877D01*
X016544Y015337D01*
X017252Y014419D02*
X017712Y014419D01*
X017712Y013294D01*
X017252Y013294D01*
X017252Y014419D01*
X016794Y013712D02*
X016794Y013252D01*
X015669Y013252D01*
X015669Y013712D01*
X016794Y013712D01*
X018127Y013294D02*
X018127Y014419D01*
X018587Y014419D01*
X018587Y013294D01*
X018127Y013294D01*
X027419Y026127D02*
X027419Y026587D01*
X028544Y026587D01*
X028544Y026127D01*
X027419Y026127D01*
X027788Y026774D02*
X025229Y026774D01*
X025229Y028939D01*
X027985Y028939D01*
X027985Y026971D01*
X027985Y026873D02*
X028010Y026869D01*
X028034Y026859D01*
X028054Y026844D01*
X028070Y026823D01*
X028080Y026800D01*
X028083Y026774D01*
X028080Y026749D01*
X028070Y026725D01*
X028054Y026705D01*
X028034Y026689D01*
X028010Y026679D01*
X027985Y026676D01*
X027959Y026679D01*
X027936Y026689D01*
X027915Y026705D01*
X027900Y026725D01*
X027890Y026749D01*
X027886Y026774D01*
X027890Y026800D01*
X027900Y026823D01*
X027915Y026844D01*
X027936Y026859D01*
X027959Y026869D01*
X027985Y026873D01*
X028062Y026834D02*
X027907Y026834D01*
X027888Y026785D02*
X028082Y026785D01*
X028075Y026736D02*
X027895Y026736D01*
X027938Y026688D02*
X028032Y026688D01*
X028377Y027919D02*
X028377Y029044D01*
X028837Y029044D01*
X028837Y027919D01*
X028377Y027919D01*
X028657Y030407D02*
X026657Y030407D01*
X026657Y036907D01*
X028657Y036907D01*
X028657Y030407D01*
X025712Y031294D02*
X025252Y031294D01*
X025252Y032419D01*
X025712Y032419D01*
X025712Y031294D01*
X025212Y031294D02*
X024752Y031294D01*
X024752Y032419D01*
X025212Y032419D01*
X025212Y031294D01*
X024712Y031294D02*
X024252Y031294D01*
X024252Y032419D01*
X024712Y032419D01*
X024712Y031294D01*
X024087Y030919D02*
X023627Y030919D01*
X023627Y029794D01*
X024087Y029794D01*
X024087Y030919D01*
X023477Y031032D02*
X023182Y030737D01*
X020032Y030737D01*
X019737Y031032D01*
X019737Y034182D01*
X020032Y034477D01*
X023182Y034477D01*
X023477Y034182D01*
X023477Y031032D01*
X022587Y029919D02*
X022127Y029919D01*
X022127Y028794D01*
X022587Y028794D01*
X022587Y029919D01*
X021837Y029919D02*
X021377Y029919D01*
X021377Y028794D01*
X021837Y028794D01*
X021837Y029919D01*
X020712Y030044D02*
X020712Y028919D01*
X020252Y028919D01*
X020252Y030044D01*
X020712Y030044D01*
X022044Y028212D02*
X022044Y027752D01*
X023169Y027752D01*
X023169Y028212D01*
X022044Y028212D01*
X023294Y027337D02*
X024419Y027337D01*
X024419Y026877D01*
X023294Y026877D01*
X023294Y027337D01*
X024127Y032794D02*
X024587Y032794D01*
X024587Y033919D01*
X024127Y033919D01*
X024127Y032794D01*
X025127Y032794D02*
X025127Y033919D01*
X025587Y033919D01*
X025587Y032794D01*
X025127Y032794D01*
X025127Y034294D02*
X025127Y035419D01*
X025587Y035419D01*
X025587Y034294D01*
X025127Y034294D01*
X023575Y034477D02*
X023572Y034451D01*
X023562Y034428D01*
X023546Y034407D01*
X023526Y034392D01*
X023502Y034382D01*
X023477Y034378D01*
X023451Y034382D01*
X023428Y034392D01*
X023407Y034407D01*
X023392Y034428D01*
X023382Y034451D01*
X023378Y034477D01*
X023382Y034502D01*
X023392Y034526D01*
X023407Y034546D01*
X023428Y034562D01*
X023451Y034572D01*
X023477Y034575D01*
X023502Y034572D01*
X023526Y034562D01*
X023546Y034546D01*
X023562Y034526D01*
X023572Y034502D01*
X023575Y034477D01*
X023572Y034455D02*
X023381Y034455D01*
X023382Y034503D02*
X023572Y034503D01*
X023539Y034552D02*
X023414Y034552D01*
X023409Y034406D02*
X023545Y034406D01*
X022962Y035107D02*
X022502Y035107D01*
X022502Y036232D01*
X022962Y036232D01*
X022962Y035107D01*
X021962Y035169D02*
X021502Y035169D01*
X021502Y036294D01*
X021962Y036294D01*
X021962Y035169D01*
X020919Y035252D02*
X020919Y035712D01*
X019794Y035712D01*
X019794Y035252D01*
X020919Y035252D01*
X022544Y036752D02*
X022544Y037212D01*
X023669Y037212D01*
X023669Y036752D01*
X022544Y036752D01*
X022516Y037463D02*
X022418Y037463D01*
X022418Y038251D01*
X022812Y038251D01*
X022419Y038502D02*
X022419Y038962D01*
X021294Y038962D01*
X021294Y038502D01*
X022419Y038502D01*
X023402Y038251D02*
X023796Y038251D01*
X023796Y037463D01*
X023697Y037463D01*
X018294Y032962D02*
X018294Y032502D01*
X017169Y032502D01*
X017169Y032962D01*
X018294Y032962D01*
X018294Y032337D02*
X018294Y031877D01*
X017169Y031877D01*
X017169Y032337D01*
X018294Y032337D01*
X017544Y031837D02*
X017544Y031377D01*
X016419Y031377D01*
X016419Y031837D01*
X017544Y031837D01*
X017544Y031337D02*
X017544Y030877D01*
X016419Y030877D01*
X016419Y031337D01*
X017544Y031337D01*
X017544Y030837D02*
X017544Y030377D01*
X016419Y030377D01*
X016419Y030837D01*
X017544Y030837D01*
X017087Y033169D02*
X016627Y033169D01*
X016627Y034294D01*
X017087Y034294D01*
X017087Y033169D01*
X016544Y033502D02*
X016544Y033962D01*
X015419Y033962D01*
X015419Y033502D01*
X016544Y033502D01*
X017044Y034627D02*
X015919Y034627D01*
X015919Y035087D01*
X017044Y035087D01*
X017044Y034627D01*
X030502Y035044D02*
X030502Y036169D01*
X030962Y036169D01*
X030962Y035044D01*
X030502Y035044D01*
X031482Y033482D02*
X031482Y038982D01*
X038482Y038982D02*
X038482Y033482D01*
X038482Y030982D02*
X038482Y027482D01*
X031482Y027482D01*
X031482Y030982D01*
D14*
X030152Y032666D02*
X029711Y032960D01*
X029858Y033126D02*
X029711Y033273D01*
X030152Y033273D01*
X030152Y033126D02*
X030152Y033420D01*
X030152Y032960D02*
X029711Y032666D01*
X024703Y037690D02*
X024556Y037690D01*
X024483Y037763D01*
X024556Y037910D02*
X024777Y037910D01*
X024777Y037763D02*
X024777Y038057D01*
X024703Y038130D01*
X024556Y038130D01*
X024483Y038057D01*
X024483Y037984D01*
X024556Y037910D01*
X024703Y037690D02*
X024777Y037763D01*
X024316Y037763D02*
X024316Y038130D01*
X024023Y038130D02*
X024023Y037763D01*
X024096Y037690D01*
X024243Y037690D01*
X024316Y037763D01*
X019703Y030510D02*
X019483Y030290D01*
X019776Y030290D01*
X019703Y030070D02*
X019703Y030510D01*
X019316Y030510D02*
X019316Y030143D01*
X019242Y030070D01*
X019096Y030070D01*
X019022Y030143D01*
X019022Y030510D01*
X025325Y026646D02*
X025325Y026279D01*
X025399Y026206D01*
X025545Y026206D01*
X025619Y026279D01*
X025619Y026646D01*
X025786Y026646D02*
X025786Y026426D01*
X025932Y026499D01*
X026006Y026499D01*
X026079Y026426D01*
X026079Y026279D01*
X026006Y026206D01*
X025859Y026206D01*
X025786Y026279D01*
X025786Y026646D02*
X026079Y026646D01*
X018869Y023093D02*
X018869Y023020D01*
X018795Y022947D01*
X018869Y022873D01*
X018869Y022800D01*
X018795Y022726D01*
X018648Y022726D01*
X018575Y022800D01*
X018408Y022800D02*
X018408Y023167D01*
X018575Y023093D02*
X018648Y023167D01*
X018795Y023167D01*
X018869Y023093D01*
X018795Y022947D02*
X018722Y022947D01*
X018408Y022800D02*
X018335Y022726D01*
X018188Y022726D01*
X018115Y022800D01*
X018115Y023167D01*
X014152Y019578D02*
X014152Y019431D01*
X014078Y019358D01*
X013932Y019358D01*
X013932Y019578D01*
X014005Y019651D01*
X014078Y019651D01*
X014152Y019578D01*
X013932Y019358D02*
X013785Y019504D01*
X013711Y019651D01*
X013932Y019191D02*
X013932Y018897D01*
X013711Y019117D01*
X014152Y019117D01*
X014078Y018730D02*
X014152Y018657D01*
X014152Y018510D01*
X014078Y018437D01*
X013785Y018437D01*
X013711Y018510D01*
X013711Y018657D01*
X013785Y018730D01*
X013347Y016777D02*
X013200Y016777D01*
X013126Y016704D01*
X012960Y016557D02*
X012666Y016557D01*
X012886Y016777D01*
X012886Y016337D01*
X013126Y016337D02*
X013420Y016630D01*
X013420Y016704D01*
X013347Y016777D01*
X013420Y016337D02*
X013126Y016337D01*
X012499Y016410D02*
X012426Y016337D01*
X012279Y016337D01*
X012206Y016410D01*
X012206Y016704D01*
X012279Y016777D01*
X012426Y016777D01*
X012499Y016704D01*
X010648Y015277D02*
X010648Y014837D01*
X010501Y014837D02*
X010795Y014837D01*
X010501Y015130D02*
X010648Y015277D01*
X010335Y015057D02*
X010041Y015057D01*
X010261Y015277D01*
X010261Y014837D01*
X009874Y014910D02*
X009801Y014837D01*
X009654Y014837D01*
X009581Y014910D01*
X009581Y015204D01*
X009654Y015277D01*
X009801Y015277D01*
X009874Y015204D01*
X009622Y017087D02*
X009475Y017087D01*
X009401Y017160D01*
X009401Y017307D01*
X009622Y017307D01*
X009695Y017234D01*
X009695Y017160D01*
X009622Y017087D01*
X009401Y017307D02*
X009548Y017454D01*
X009695Y017527D01*
X009235Y017454D02*
X009235Y017160D01*
X009161Y017087D01*
X008941Y017087D01*
X008941Y017527D01*
X009161Y017527D01*
X009235Y017454D01*
X009203Y019937D02*
X009056Y019937D01*
X008983Y020010D01*
X008983Y020157D02*
X009129Y020230D01*
X009203Y020230D01*
X009276Y020157D01*
X009276Y020010D01*
X009203Y019937D01*
X008983Y020157D02*
X008983Y020377D01*
X009276Y020377D01*
X008816Y020157D02*
X008522Y020157D01*
X008742Y020377D01*
X008742Y019937D01*
X008355Y020010D02*
X008282Y019937D01*
X008135Y019937D01*
X008062Y020010D01*
X008062Y020304D01*
X008135Y020377D01*
X008282Y020377D01*
X008355Y020304D01*
X006603Y017921D02*
X006310Y017921D01*
X006143Y017921D02*
X005996Y017921D01*
X006070Y017921D02*
X006070Y017554D01*
X005996Y017480D01*
X005923Y017480D01*
X005849Y017554D01*
X006310Y017554D02*
X006310Y017480D01*
X006310Y017554D02*
X006603Y017847D01*
X006603Y017921D01*
X004628Y020341D02*
X004702Y020414D01*
X004702Y020488D01*
X004628Y020561D01*
X004261Y020561D01*
X004261Y020488D02*
X004261Y020635D01*
X004335Y020801D02*
X004408Y020801D01*
X004482Y020875D01*
X004482Y021095D01*
X004628Y021095D02*
X004335Y021095D01*
X004261Y021022D01*
X004261Y020875D01*
X004335Y020801D01*
X004628Y020801D02*
X004702Y020875D01*
X004702Y021022D01*
X004628Y021095D01*
X004628Y022381D02*
X004702Y022454D01*
X004702Y022527D01*
X004628Y022601D01*
X004261Y022601D01*
X004261Y022674D02*
X004261Y022527D01*
X004408Y022841D02*
X004261Y022988D01*
X004702Y022988D01*
X004702Y022841D02*
X004702Y023135D01*
X004702Y023301D02*
X004702Y023595D01*
X004702Y023448D02*
X004261Y023448D01*
X004408Y023301D01*
X003226Y025762D02*
X003006Y025982D01*
X002933Y025909D02*
X003226Y026202D01*
X002933Y026202D02*
X002933Y025762D01*
X002766Y025762D02*
X002472Y025762D01*
X002472Y026202D01*
X002305Y026129D02*
X002305Y026055D01*
X002232Y025982D01*
X002012Y025982D01*
X002232Y025982D02*
X002305Y025909D01*
X002305Y025835D01*
X002232Y025762D01*
X002012Y025762D01*
X002012Y026202D01*
X002232Y026202D01*
X002305Y026129D01*
X004391Y029699D02*
X004685Y029699D01*
X004851Y029699D02*
X005145Y029699D01*
X004998Y029699D02*
X004998Y030140D01*
X004851Y029993D01*
X004391Y030140D02*
X004391Y029699D01*
X005871Y028171D02*
X006018Y028171D01*
X005945Y028171D02*
X005945Y027804D01*
X005871Y027730D01*
X005798Y027730D01*
X005724Y027804D01*
X006185Y027804D02*
X006258Y027730D01*
X006405Y027730D01*
X006478Y027804D01*
X006478Y027877D01*
X006405Y027950D01*
X006185Y027950D01*
X006185Y027804D01*
X006185Y027950D02*
X006332Y028097D01*
X006478Y028171D01*
X008822Y031069D02*
X008749Y031142D01*
X008749Y031289D01*
X008822Y031362D01*
X008822Y031529D02*
X008749Y031602D01*
X008749Y031749D01*
X008822Y031823D01*
X008896Y031823D01*
X008969Y031749D01*
X009043Y031823D01*
X009116Y031823D01*
X009189Y031749D01*
X009189Y031602D01*
X009116Y031529D01*
X009116Y031362D02*
X009189Y031289D01*
X009189Y031142D01*
X009116Y031069D01*
X008822Y031069D01*
X009371Y031126D02*
X009444Y031052D01*
X009738Y031052D01*
X009811Y031126D01*
X009811Y031273D01*
X009738Y031346D01*
X009738Y031513D02*
X009811Y031586D01*
X009811Y031733D01*
X009738Y031806D01*
X009664Y031806D01*
X009591Y031733D01*
X009591Y031660D01*
X009591Y031733D02*
X009517Y031806D01*
X009444Y031806D01*
X009371Y031733D01*
X009371Y031586D01*
X009444Y031513D01*
X009444Y031346D02*
X009371Y031273D01*
X009371Y031126D01*
X008969Y031676D02*
X008969Y031749D01*
X008896Y031989D02*
X008969Y032063D01*
X008969Y032283D01*
X008822Y032283D02*
X008749Y032210D01*
X008749Y032063D01*
X008822Y031989D01*
X008896Y031989D01*
X009116Y031989D02*
X009189Y032063D01*
X009189Y032210D01*
X009116Y032283D01*
X008822Y032283D01*
X008435Y032302D02*
X008435Y032229D01*
X008141Y031935D01*
X008141Y031862D01*
X007974Y031935D02*
X007974Y032302D01*
X008141Y032302D02*
X008435Y032302D01*
X007974Y031935D02*
X007901Y031862D01*
X007754Y031862D01*
X007681Y031935D01*
X007681Y032302D01*
X009371Y032193D02*
X009444Y032267D01*
X009517Y032267D01*
X009591Y032193D01*
X009591Y032047D01*
X009517Y031973D01*
X009444Y031973D01*
X009371Y032047D01*
X009371Y032193D01*
X009591Y032193D02*
X009664Y032267D01*
X009738Y032267D01*
X009811Y032193D01*
X009811Y032047D01*
X009738Y031973D01*
X009664Y031973D01*
X009591Y032047D01*
X008466Y035699D02*
X008172Y035699D01*
X008466Y035993D01*
X008466Y036066D01*
X008392Y036140D01*
X008246Y036140D01*
X008172Y036066D01*
X008005Y035699D02*
X007712Y035699D01*
X007712Y036140D01*
X004964Y034578D02*
X004964Y034431D01*
X004891Y034358D01*
X004597Y034651D01*
X004891Y034651D01*
X004964Y034578D01*
X004891Y034358D02*
X004597Y034358D01*
X004524Y034431D01*
X004524Y034578D01*
X004597Y034651D01*
X004744Y034191D02*
X004744Y033897D01*
X004524Y034117D01*
X004964Y034117D01*
X004891Y033730D02*
X004964Y033657D01*
X004964Y033510D01*
X004891Y033437D01*
X004597Y033437D01*
X004524Y033510D01*
X004524Y033657D01*
X004597Y033730D01*
X004030Y033748D02*
X003957Y033821D01*
X004030Y033748D02*
X004030Y033601D01*
X003957Y033528D01*
X003663Y033528D01*
X003590Y033601D01*
X003590Y033748D01*
X003663Y033821D01*
X003663Y033988D02*
X003590Y034061D01*
X003590Y034208D01*
X003663Y034281D01*
X003736Y034281D01*
X003810Y034208D01*
X003883Y034281D01*
X003957Y034281D01*
X004030Y034208D01*
X004030Y034061D01*
X003957Y033988D01*
X003810Y034135D02*
X003810Y034208D01*
X003957Y034448D02*
X004030Y034448D01*
X003957Y034448D02*
X003663Y034742D01*
X003590Y034742D01*
X003590Y034448D01*
X010186Y027070D02*
X010186Y026776D01*
X010407Y026776D01*
X010333Y026923D01*
X010333Y026997D01*
X010407Y027070D01*
X010553Y027070D01*
X010627Y026997D01*
X010627Y026850D01*
X010553Y026776D01*
X010553Y026610D02*
X010260Y026610D01*
X010186Y026536D01*
X010186Y026316D01*
X010627Y026316D01*
X010627Y026536D01*
X010553Y026610D01*
X010796Y020686D02*
X010796Y020319D01*
X010870Y020246D01*
X011016Y020246D01*
X011090Y020319D01*
X011090Y020686D01*
X011257Y020613D02*
X011257Y020540D01*
X011330Y020466D01*
X011477Y020466D01*
X011550Y020393D01*
X011550Y020319D01*
X011477Y020246D01*
X011330Y020246D01*
X011257Y020319D01*
X011257Y020393D01*
X011330Y020466D01*
X011477Y020466D02*
X011550Y020540D01*
X011550Y020613D01*
X011477Y020686D01*
X011330Y020686D01*
X011257Y020613D01*
X006160Y012416D02*
X006453Y012122D01*
X006527Y012122D01*
X006453Y011955D02*
X006160Y011955D01*
X006086Y011882D01*
X006086Y011662D01*
X006527Y011662D01*
X006527Y011882D01*
X006453Y011955D01*
X006086Y012122D02*
X006086Y012416D01*
X006160Y012416D01*
X006496Y010421D02*
X006643Y010421D01*
X006570Y010421D02*
X006570Y010054D01*
X006496Y009980D01*
X006423Y009980D01*
X006349Y010054D01*
X006810Y010054D02*
X006810Y010127D01*
X006883Y010200D01*
X007030Y010200D01*
X007103Y010127D01*
X007103Y010054D01*
X007030Y009980D01*
X006883Y009980D01*
X006810Y010054D01*
X006883Y010200D02*
X006810Y010274D01*
X006810Y010347D01*
X006883Y010421D01*
X007030Y010421D01*
X007103Y010347D01*
X007103Y010274D01*
X007030Y010200D01*
X006142Y007752D02*
X005922Y007532D01*
X006216Y007532D01*
X006142Y007312D02*
X006142Y007752D01*
X005755Y007679D02*
X005755Y007385D01*
X005682Y007312D01*
X005462Y007312D01*
X005462Y007752D01*
X005682Y007752D01*
X005755Y007679D01*
X004702Y007625D02*
X004628Y007551D01*
X004335Y007845D01*
X004628Y007845D01*
X004702Y007772D01*
X004702Y007625D01*
X004628Y007551D02*
X004335Y007551D01*
X004261Y007625D01*
X004261Y007772D01*
X004335Y007845D01*
X004702Y007385D02*
X004702Y007091D01*
X004702Y007238D02*
X004261Y007238D01*
X004408Y007091D01*
X004261Y006924D02*
X004261Y006777D01*
X004261Y006851D02*
X004628Y006851D01*
X004702Y006777D01*
X004702Y006704D01*
X004628Y006631D01*
X004909Y006202D02*
X005055Y006202D01*
X004982Y006202D02*
X004982Y005835D01*
X004909Y005762D01*
X004835Y005762D01*
X004762Y005835D01*
X005222Y005762D02*
X005516Y006055D01*
X005516Y006129D01*
X005442Y006202D01*
X005296Y006202D01*
X005222Y006129D01*
X005222Y005762D02*
X005516Y005762D01*
X009262Y005835D02*
X009335Y005762D01*
X009409Y005762D01*
X009482Y005835D01*
X009482Y006202D01*
X009409Y006202D02*
X009555Y006202D01*
X009722Y005982D02*
X010016Y005982D01*
X009942Y005762D02*
X009942Y006202D01*
X009722Y005982D01*
X009712Y007312D02*
X009932Y007312D01*
X010005Y007385D01*
X010005Y007679D01*
X009932Y007752D01*
X009712Y007752D01*
X009712Y007312D01*
X010172Y007312D02*
X010466Y007312D01*
X010319Y007312D02*
X010319Y007752D01*
X010172Y007605D01*
X016262Y005835D02*
X016335Y005762D01*
X016409Y005762D01*
X016482Y005835D01*
X016482Y006202D01*
X016409Y006202D02*
X016555Y006202D01*
X016722Y006129D02*
X016796Y006202D01*
X016942Y006202D01*
X017016Y006129D01*
X017016Y006055D01*
X016942Y005982D01*
X017016Y005909D01*
X017016Y005835D01*
X016942Y005762D01*
X016796Y005762D01*
X016722Y005835D01*
X016869Y005982D02*
X016942Y005982D01*
X016932Y007312D02*
X016712Y007312D01*
X016712Y007752D01*
X016932Y007752D01*
X017005Y007679D01*
X017005Y007385D01*
X016932Y007312D01*
X017172Y007385D02*
X017246Y007312D01*
X017392Y007312D01*
X017466Y007385D01*
X017466Y007459D01*
X017392Y007532D01*
X017319Y007532D01*
X017392Y007532D02*
X017466Y007605D01*
X017466Y007679D01*
X017392Y007752D01*
X017246Y007752D01*
X017172Y007679D01*
X020909Y006202D02*
X021055Y006202D01*
X020982Y006202D02*
X020982Y005835D01*
X020909Y005762D01*
X020835Y005762D01*
X020762Y005835D01*
X021222Y005835D02*
X021296Y005762D01*
X021442Y005762D01*
X021516Y005835D01*
X021516Y005982D01*
X021442Y006055D01*
X021369Y006055D01*
X021222Y005982D01*
X021222Y006202D01*
X021516Y006202D01*
X021462Y007312D02*
X021682Y007312D01*
X021755Y007385D01*
X021755Y007679D01*
X021682Y007752D01*
X021462Y007752D01*
X021462Y007312D01*
X021922Y007312D02*
X022216Y007605D01*
X022216Y007679D01*
X022142Y007752D01*
X021996Y007752D01*
X021922Y007679D01*
X021922Y007312D02*
X022216Y007312D01*
X020406Y013916D02*
X020113Y013916D01*
X020260Y013916D02*
X020260Y014357D01*
X020113Y014210D01*
X019946Y014357D02*
X019946Y013990D01*
X019873Y013916D01*
X019726Y013916D01*
X019653Y013990D01*
X019653Y014357D01*
X029575Y015556D02*
X029649Y015482D01*
X029795Y015482D01*
X029869Y015556D01*
X029869Y015923D01*
X030036Y015849D02*
X030109Y015923D01*
X030256Y015923D01*
X030329Y015849D01*
X030329Y015776D01*
X030036Y015482D01*
X030329Y015482D01*
X029575Y015556D02*
X029575Y015923D01*
X034085Y026512D02*
X034232Y026512D01*
X034305Y026585D01*
X034305Y026952D01*
X034472Y026732D02*
X034692Y026732D01*
X034766Y026659D01*
X034766Y026585D01*
X034692Y026512D01*
X034546Y026512D01*
X034472Y026585D01*
X034472Y026732D01*
X034619Y026879D01*
X034766Y026952D01*
X034012Y026952D02*
X034012Y026585D01*
X034085Y026512D01*
X013391Y037137D02*
X013097Y037137D01*
X013244Y037137D02*
X013244Y037577D01*
X013097Y037430D01*
X012930Y037577D02*
X012784Y037577D01*
X012857Y037577D02*
X012857Y037210D01*
X012784Y037137D01*
X012710Y037137D01*
X012637Y037210D01*
X003278Y015952D02*
X003058Y015952D01*
X003058Y015512D01*
X003278Y015512D01*
X003351Y015585D01*
X003351Y015879D01*
X003278Y015952D01*
X002891Y015952D02*
X002597Y015952D01*
X002597Y015512D01*
X002891Y015512D01*
X002744Y015732D02*
X002597Y015732D01*
X002430Y015732D02*
X002357Y015659D01*
X002137Y015659D01*
X002284Y015659D02*
X002430Y015512D01*
X002430Y015732D02*
X002430Y015879D01*
X002357Y015952D01*
X002137Y015952D01*
X002137Y015512D01*
X002137Y010452D02*
X002357Y010452D01*
X002430Y010379D01*
X002430Y010305D01*
X002357Y010232D01*
X002137Y010232D01*
X002357Y010232D02*
X002430Y010159D01*
X002430Y010085D01*
X002357Y010012D01*
X002137Y010012D01*
X002137Y010452D01*
X002597Y010452D02*
X002597Y010012D01*
X002891Y010012D01*
X003058Y010085D02*
X003131Y010012D01*
X003278Y010012D01*
X003351Y010085D01*
X003351Y010452D01*
X003058Y010452D02*
X003058Y010085D01*
D15*
X009115Y016707D02*
X009208Y016707D01*
X009255Y016754D01*
X009363Y016847D02*
X009549Y016847D01*
X009657Y016940D02*
X009704Y016987D01*
X009797Y016987D01*
X009844Y016940D01*
X009844Y016894D01*
X009797Y016847D01*
X009844Y016800D01*
X009844Y016754D01*
X009797Y016707D01*
X009704Y016707D01*
X009657Y016754D01*
X009751Y016847D02*
X009797Y016847D01*
X009503Y016987D02*
X009363Y016847D01*
X009255Y016940D02*
X009208Y016987D01*
X009115Y016987D01*
X009068Y016940D01*
X009068Y016754D01*
X009115Y016707D01*
X009503Y016707D02*
X009503Y016987D01*
X012082Y019474D02*
X012128Y019427D01*
X012315Y019427D01*
X012362Y019474D01*
X012362Y019567D01*
X012315Y019614D01*
X012222Y019721D02*
X012222Y019908D01*
X012222Y020016D02*
X012222Y020203D01*
X012362Y020156D02*
X012082Y020156D01*
X012222Y020016D01*
X012362Y019862D02*
X012082Y019862D01*
X012222Y019721D01*
X012128Y019614D02*
X012082Y019567D01*
X012082Y019474D01*
X015409Y015737D02*
X015363Y015690D01*
X015363Y015504D01*
X015409Y015457D01*
X015503Y015457D01*
X015549Y015504D01*
X015657Y015457D02*
X015844Y015644D01*
X015844Y015690D01*
X015797Y015737D01*
X015704Y015737D01*
X015657Y015690D01*
X015549Y015690D02*
X015503Y015737D01*
X015409Y015737D01*
X015657Y015457D02*
X015844Y015457D01*
X015797Y015237D02*
X015844Y015190D01*
X015844Y015144D01*
X015797Y015097D01*
X015704Y015097D01*
X015657Y015144D01*
X015657Y015190D01*
X015704Y015237D01*
X015797Y015237D01*
X015797Y015097D02*
X015844Y015050D01*
X015844Y015004D01*
X015797Y014957D01*
X015704Y014957D01*
X015657Y015004D01*
X015657Y015050D01*
X015704Y015097D01*
X015549Y014957D02*
X015363Y014957D01*
X015456Y014957D02*
X015456Y015237D01*
X015363Y015144D01*
X015255Y015190D02*
X015208Y015237D01*
X015115Y015237D01*
X015068Y015190D01*
X015068Y015004D01*
X015115Y014957D01*
X015208Y014957D01*
X015255Y015004D01*
X015297Y013612D02*
X015344Y013565D01*
X015157Y013379D01*
X015204Y013332D01*
X015297Y013332D01*
X015344Y013379D01*
X015344Y013565D01*
X015297Y013612D02*
X015204Y013612D01*
X015157Y013565D01*
X015157Y013379D01*
X015049Y013332D02*
X014863Y013332D01*
X015049Y013519D01*
X015049Y013565D01*
X015003Y013612D01*
X014909Y013612D01*
X014863Y013565D01*
X014755Y013565D02*
X014755Y013472D01*
X014708Y013425D01*
X014568Y013425D01*
X014568Y013332D02*
X014568Y013612D01*
X014708Y013612D01*
X014755Y013565D01*
X014661Y013425D02*
X014755Y013332D01*
X017352Y013001D02*
X017632Y013001D01*
X017632Y013094D02*
X017632Y012907D01*
X017632Y012799D02*
X017632Y012613D01*
X017445Y012799D01*
X017398Y012799D01*
X017352Y012753D01*
X017352Y012659D01*
X017398Y012613D01*
X017398Y012505D02*
X017492Y012505D01*
X017538Y012458D01*
X017538Y012318D01*
X017538Y012411D02*
X017632Y012505D01*
X017632Y012318D02*
X017352Y012318D01*
X017352Y012458D01*
X017398Y012505D01*
X017445Y012907D02*
X017352Y013001D01*
X018727Y013490D02*
X018773Y013443D01*
X018960Y013443D01*
X019007Y013490D01*
X019007Y013583D01*
X018960Y013630D01*
X019007Y013738D02*
X019007Y013924D01*
X019007Y013831D02*
X018727Y013831D01*
X018820Y013738D01*
X018773Y013630D02*
X018727Y013583D01*
X018727Y013490D01*
X018773Y014032D02*
X018820Y014032D01*
X018867Y014079D01*
X018867Y014219D01*
X018960Y014219D02*
X018773Y014219D01*
X018727Y014172D01*
X018727Y014079D01*
X018773Y014032D01*
X018960Y014032D02*
X019007Y014079D01*
X019007Y014172D01*
X018960Y014219D01*
X020443Y012940D02*
X020443Y012754D01*
X020490Y012707D01*
X020583Y012707D01*
X020630Y012754D01*
X020738Y012707D02*
X020924Y012894D01*
X020924Y012940D01*
X020878Y012987D01*
X020784Y012987D01*
X020738Y012940D01*
X020630Y012940D02*
X020583Y012987D01*
X020490Y012987D01*
X020443Y012940D01*
X020738Y012707D02*
X020924Y012707D01*
X021032Y012754D02*
X021079Y012707D01*
X021172Y012707D01*
X021219Y012754D01*
X021219Y012847D01*
X021172Y012894D01*
X021126Y012894D01*
X021032Y012847D01*
X021032Y012987D01*
X021219Y012987D01*
X022602Y013943D02*
X022602Y014083D01*
X022648Y014130D01*
X022742Y014130D01*
X022788Y014083D01*
X022788Y013943D01*
X022788Y014036D02*
X022882Y014130D01*
X022977Y014083D02*
X022977Y013990D01*
X023023Y013943D01*
X023210Y013943D01*
X023257Y013990D01*
X023257Y014083D01*
X023210Y014130D01*
X023257Y014238D02*
X023070Y014424D01*
X023023Y014424D01*
X022977Y014378D01*
X022977Y014284D01*
X023023Y014238D01*
X023023Y014130D02*
X022977Y014083D01*
X022882Y013943D02*
X022602Y013943D01*
X022648Y014238D02*
X022602Y014284D01*
X022602Y014378D01*
X022648Y014424D01*
X022695Y014424D01*
X022882Y014238D01*
X022882Y014424D01*
X022882Y014532D02*
X022835Y014532D01*
X022648Y014719D01*
X022602Y014719D01*
X022602Y014532D01*
X022977Y014672D02*
X023117Y014532D01*
X023117Y014719D01*
X023257Y014672D02*
X022977Y014672D01*
X023257Y014424D02*
X023257Y014238D01*
X023268Y015477D02*
X023221Y015524D01*
X023268Y015477D02*
X023362Y015477D01*
X023408Y015524D01*
X023408Y015570D01*
X023362Y015617D01*
X023315Y015617D01*
X023362Y015617D02*
X023408Y015664D01*
X023408Y015710D01*
X023362Y015757D01*
X023268Y015757D01*
X023221Y015710D01*
X023114Y015710D02*
X023067Y015757D01*
X022974Y015757D01*
X022927Y015710D01*
X022927Y015524D01*
X022974Y015477D01*
X023067Y015477D01*
X023114Y015524D01*
X023516Y015524D02*
X023563Y015477D01*
X023656Y015477D01*
X023703Y015524D01*
X023703Y015617D01*
X023656Y015664D01*
X023609Y015664D01*
X023516Y015617D01*
X023516Y015757D01*
X023703Y015757D01*
X022987Y016224D02*
X022987Y016317D01*
X022940Y016364D01*
X022987Y016471D02*
X022800Y016658D01*
X022753Y016658D01*
X022707Y016612D01*
X022707Y016518D01*
X022753Y016471D01*
X022753Y016364D02*
X022707Y016317D01*
X022707Y016224D01*
X022753Y016177D01*
X022940Y016177D01*
X022987Y016224D01*
X022987Y016471D02*
X022987Y016658D01*
X022987Y016766D02*
X022800Y016953D01*
X022753Y016953D01*
X022707Y016906D01*
X022707Y016813D01*
X022753Y016766D01*
X022612Y016813D02*
X022565Y016766D01*
X022612Y016813D02*
X022612Y016906D01*
X022565Y016953D01*
X022472Y016953D01*
X022425Y016906D01*
X022425Y016859D01*
X022472Y016766D01*
X022332Y016766D01*
X022332Y016953D01*
X022378Y016658D02*
X022332Y016612D01*
X022332Y016518D01*
X022378Y016471D01*
X022378Y016364D02*
X022472Y016364D01*
X022518Y016317D01*
X022518Y016177D01*
X022518Y016270D02*
X022612Y016364D01*
X022612Y016471D02*
X022425Y016658D01*
X022378Y016658D01*
X022612Y016658D02*
X022612Y016471D01*
X022378Y016364D02*
X022332Y016317D01*
X022332Y016177D01*
X022612Y016177D01*
X022987Y016766D02*
X022987Y016953D01*
X024082Y017018D02*
X024128Y016971D01*
X024082Y017018D02*
X024082Y017112D01*
X024128Y017158D01*
X024175Y017158D01*
X024362Y016971D01*
X024362Y017158D01*
X024315Y017266D02*
X024362Y017313D01*
X024362Y017406D01*
X024315Y017453D01*
X024268Y017453D01*
X024222Y017406D01*
X024222Y017266D01*
X024315Y017266D01*
X024222Y017266D02*
X024128Y017359D01*
X024082Y017453D01*
X024128Y016864D02*
X024222Y016864D01*
X024268Y016817D01*
X024268Y016677D01*
X024268Y016770D02*
X024362Y016864D01*
X024362Y016677D02*
X024082Y016677D01*
X024082Y016817D01*
X024128Y016864D01*
X025318Y016815D02*
X025318Y016629D01*
X025365Y016582D01*
X025458Y016582D01*
X025505Y016629D01*
X025613Y016582D02*
X025799Y016769D01*
X025799Y016815D01*
X025753Y016862D01*
X025659Y016862D01*
X025613Y016815D01*
X025505Y016815D02*
X025458Y016862D01*
X025365Y016862D01*
X025318Y016815D01*
X025365Y017082D02*
X025458Y017082D01*
X025505Y017129D01*
X025613Y017129D02*
X025659Y017082D01*
X025753Y017082D01*
X025799Y017129D01*
X025799Y017175D01*
X025753Y017222D01*
X025706Y017222D01*
X025753Y017222D02*
X025799Y017269D01*
X025799Y017315D01*
X025753Y017362D01*
X025659Y017362D01*
X025613Y017315D01*
X025505Y017315D02*
X025458Y017362D01*
X025365Y017362D01*
X025318Y017315D01*
X025318Y017129D01*
X025365Y017082D01*
X025365Y017582D02*
X025458Y017582D01*
X025505Y017629D01*
X025613Y017582D02*
X025799Y017769D01*
X025799Y017815D01*
X025753Y017862D01*
X025659Y017862D01*
X025613Y017815D01*
X025505Y017815D02*
X025458Y017862D01*
X025365Y017862D01*
X025318Y017815D01*
X025318Y017629D01*
X025365Y017582D01*
X025613Y017582D02*
X025799Y017582D01*
X025907Y017629D02*
X025954Y017582D01*
X026047Y017582D01*
X026094Y017629D01*
X026094Y017675D01*
X026047Y017722D01*
X025907Y017722D01*
X025907Y017629D01*
X025907Y017722D02*
X026001Y017815D01*
X026094Y017862D01*
X026094Y017362D02*
X026001Y017315D01*
X025907Y017222D01*
X026047Y017222D01*
X026094Y017175D01*
X026094Y017129D01*
X026047Y017082D01*
X025954Y017082D01*
X025907Y017129D01*
X025907Y017222D01*
X025954Y016862D02*
X026047Y016862D01*
X026094Y016815D01*
X026094Y016769D01*
X026047Y016722D01*
X025954Y016722D01*
X025907Y016769D01*
X025907Y016815D01*
X025954Y016862D01*
X025954Y016722D02*
X025907Y016675D01*
X025907Y016629D01*
X025954Y016582D01*
X026047Y016582D01*
X026094Y016629D01*
X026094Y016675D01*
X026047Y016722D01*
X025799Y016582D02*
X025613Y016582D01*
X027977Y014251D02*
X028257Y014251D01*
X028257Y014344D02*
X028257Y014157D01*
X028210Y014049D02*
X028257Y014003D01*
X028257Y013909D01*
X028210Y013863D01*
X028257Y013755D02*
X028163Y013661D01*
X028163Y013708D02*
X028163Y013568D01*
X028257Y013568D02*
X027977Y013568D01*
X027977Y013708D01*
X028023Y013755D01*
X028117Y013755D01*
X028163Y013708D01*
X028023Y013863D02*
X027977Y013909D01*
X027977Y014003D01*
X028023Y014049D01*
X028070Y014049D01*
X028117Y014003D01*
X028163Y014049D01*
X028210Y014049D01*
X028117Y014003D02*
X028117Y013956D01*
X028070Y014157D02*
X027977Y014251D01*
X028477Y014297D02*
X028477Y014204D01*
X028523Y014157D01*
X028570Y014157D01*
X028617Y014204D01*
X028617Y014344D01*
X028710Y014344D02*
X028523Y014344D01*
X028477Y014297D01*
X028710Y014344D02*
X028757Y014297D01*
X028757Y014204D01*
X028710Y014157D01*
X028757Y014049D02*
X028757Y013863D01*
X028570Y014049D01*
X028523Y014049D01*
X028477Y014003D01*
X028477Y013909D01*
X028523Y013863D01*
X028523Y013755D02*
X028477Y013708D01*
X028477Y013615D01*
X028523Y013568D01*
X028710Y013568D01*
X028757Y013615D01*
X028757Y013708D01*
X028710Y013755D01*
X029102Y013708D02*
X029102Y013568D01*
X029382Y013568D01*
X029288Y013568D02*
X029288Y013708D01*
X029242Y013755D01*
X029148Y013755D01*
X029102Y013708D01*
X029148Y013863D02*
X029102Y013909D01*
X029102Y014003D01*
X029148Y014049D01*
X029195Y014049D01*
X029242Y014003D01*
X029288Y014049D01*
X029335Y014049D01*
X029382Y014003D01*
X029382Y013909D01*
X029335Y013863D01*
X029382Y013755D02*
X029288Y013661D01*
X029242Y013956D02*
X029242Y014003D01*
X029335Y014157D02*
X029148Y014344D01*
X029335Y014344D01*
X029382Y014297D01*
X029382Y014204D01*
X029335Y014157D01*
X029148Y014157D01*
X029102Y014204D01*
X029102Y014297D01*
X029148Y014344D01*
X030727Y014253D02*
X030773Y014299D01*
X030820Y014299D01*
X030867Y014253D01*
X030913Y014299D01*
X030960Y014299D01*
X031007Y014253D01*
X031007Y014159D01*
X030960Y014113D01*
X030960Y014005D02*
X031007Y013958D01*
X031007Y013865D01*
X030960Y013818D01*
X030773Y013818D01*
X030727Y013865D01*
X030727Y013958D01*
X030773Y014005D01*
X030773Y014113D02*
X030727Y014159D01*
X030727Y014253D01*
X030867Y014253D02*
X030867Y014206D01*
X030820Y014407D02*
X030727Y014501D01*
X031007Y014501D01*
X031007Y014594D02*
X031007Y014407D01*
X031602Y014454D02*
X031602Y014547D01*
X031648Y014594D01*
X031695Y014594D01*
X031742Y014547D01*
X031788Y014594D01*
X031835Y014594D01*
X031882Y014547D01*
X031882Y014454D01*
X031835Y014407D01*
X031835Y014299D02*
X031882Y014253D01*
X031882Y014159D01*
X031835Y014113D01*
X031882Y014005D02*
X031788Y013911D01*
X031788Y013958D02*
X031788Y013818D01*
X031882Y013818D02*
X031602Y013818D01*
X031602Y013958D01*
X031648Y014005D01*
X031742Y014005D01*
X031788Y013958D01*
X031648Y014113D02*
X031602Y014159D01*
X031602Y014253D01*
X031648Y014299D01*
X031695Y014299D01*
X031742Y014253D01*
X031788Y014299D01*
X031835Y014299D01*
X031742Y014253D02*
X031742Y014206D01*
X031648Y014407D02*
X031602Y014454D01*
X031742Y014501D02*
X031742Y014547D01*
X032677Y014602D02*
X032677Y014882D01*
X032817Y014882D01*
X032864Y014835D01*
X032864Y014742D01*
X032817Y014695D01*
X032677Y014695D01*
X032770Y014695D02*
X032864Y014602D01*
X032971Y014649D02*
X033018Y014602D01*
X033112Y014602D01*
X033158Y014649D01*
X033158Y014695D01*
X033112Y014742D01*
X033065Y014742D01*
X033112Y014742D02*
X033158Y014789D01*
X033158Y014835D01*
X033112Y014882D01*
X033018Y014882D01*
X032971Y014835D01*
X033266Y014835D02*
X033313Y014882D01*
X033406Y014882D01*
X033453Y014835D01*
X033453Y014789D01*
X033266Y014602D01*
X033453Y014602D01*
X033442Y016602D02*
X033489Y016649D01*
X033442Y016602D02*
X033349Y016602D01*
X033302Y016649D01*
X033302Y016835D01*
X033349Y016882D01*
X033442Y016882D01*
X033489Y016835D01*
X033596Y016835D02*
X033643Y016882D01*
X033737Y016882D01*
X033783Y016835D01*
X033783Y016789D01*
X033737Y016742D01*
X033783Y016695D01*
X033783Y016649D01*
X033737Y016602D01*
X033643Y016602D01*
X033596Y016649D01*
X033690Y016742D02*
X033737Y016742D01*
X033891Y016835D02*
X033938Y016882D01*
X034031Y016882D01*
X034078Y016835D01*
X033891Y016649D01*
X033938Y016602D01*
X034031Y016602D01*
X034078Y016649D01*
X034078Y016835D01*
X033891Y016835D02*
X033891Y016649D01*
X033783Y017102D02*
X033596Y017102D01*
X033690Y017102D02*
X033690Y017382D01*
X033596Y017289D01*
X033489Y017335D02*
X033442Y017382D01*
X033349Y017382D01*
X033302Y017335D01*
X033302Y017149D01*
X033349Y017102D01*
X033442Y017102D01*
X033489Y017149D01*
X033442Y017602D02*
X033489Y017649D01*
X033442Y017602D02*
X033349Y017602D01*
X033302Y017649D01*
X033302Y017835D01*
X033349Y017882D01*
X033442Y017882D01*
X033489Y017835D01*
X033596Y017835D02*
X033643Y017882D01*
X033737Y017882D01*
X033783Y017835D01*
X033783Y017789D01*
X033737Y017742D01*
X033783Y017695D01*
X033783Y017649D01*
X033737Y017602D01*
X033643Y017602D01*
X033596Y017649D01*
X033690Y017742D02*
X033737Y017742D01*
X033891Y017835D02*
X033938Y017882D01*
X034031Y017882D01*
X034078Y017835D01*
X034078Y017789D01*
X033891Y017602D01*
X034078Y017602D01*
X031862Y019802D02*
X031582Y019802D01*
X031582Y019942D01*
X031628Y019989D01*
X031722Y019989D01*
X031768Y019942D01*
X031768Y019802D01*
X031768Y019895D02*
X031862Y019989D01*
X031815Y020096D02*
X031862Y020143D01*
X031862Y020237D01*
X031815Y020283D01*
X031768Y020283D01*
X031722Y020237D01*
X031722Y020190D01*
X031722Y020237D02*
X031675Y020283D01*
X031628Y020283D01*
X031582Y020237D01*
X031582Y020143D01*
X031628Y020096D01*
X031582Y020391D02*
X031722Y020391D01*
X031675Y020484D01*
X031675Y020531D01*
X031722Y020578D01*
X031815Y020578D01*
X031862Y020531D01*
X031862Y020438D01*
X031815Y020391D01*
X031582Y020391D02*
X031582Y020578D01*
X031112Y020531D02*
X031112Y020438D01*
X031065Y020391D01*
X031065Y020283D02*
X031112Y020237D01*
X031112Y020143D01*
X031065Y020096D01*
X031065Y019989D02*
X031112Y019942D01*
X031112Y019849D01*
X031065Y019802D01*
X030878Y019802D01*
X030832Y019849D01*
X030832Y019942D01*
X030878Y019989D01*
X030878Y020096D02*
X030832Y020143D01*
X030832Y020237D01*
X030878Y020283D01*
X030925Y020283D01*
X030972Y020237D01*
X031018Y020283D01*
X031065Y020283D01*
X030972Y020237D02*
X030972Y020190D01*
X030878Y020391D02*
X030832Y020438D01*
X030832Y020531D01*
X030878Y020578D01*
X030925Y020578D01*
X030972Y020531D01*
X031018Y020578D01*
X031065Y020578D01*
X031112Y020531D01*
X030972Y020531D02*
X030972Y020484D01*
X030487Y020531D02*
X030207Y020531D01*
X030347Y020391D01*
X030347Y020578D01*
X030393Y020283D02*
X030440Y020283D01*
X030487Y020237D01*
X030487Y020143D01*
X030440Y020096D01*
X030487Y019989D02*
X030393Y019895D01*
X030393Y019942D02*
X030393Y019802D01*
X030487Y019802D02*
X030207Y019802D01*
X030207Y019942D01*
X030253Y019989D01*
X030347Y019989D01*
X030393Y019942D01*
X030253Y020096D02*
X030207Y020143D01*
X030207Y020237D01*
X030253Y020283D01*
X030300Y020283D01*
X030347Y020237D01*
X030393Y020283D01*
X030347Y020237D02*
X030347Y020190D01*
X029969Y019382D02*
X030015Y019335D01*
X030015Y019289D01*
X029969Y019242D01*
X029875Y019242D01*
X029829Y019289D01*
X029829Y019335D01*
X029875Y019382D01*
X029969Y019382D01*
X029969Y019242D02*
X030015Y019195D01*
X030015Y019149D01*
X029969Y019102D01*
X029875Y019102D01*
X029829Y019149D01*
X029829Y019195D01*
X029875Y019242D01*
X029721Y019289D02*
X029721Y019335D01*
X029674Y019382D01*
X029581Y019382D01*
X029534Y019335D01*
X029426Y019335D02*
X029426Y019242D01*
X029379Y019195D01*
X029239Y019195D01*
X029239Y019102D02*
X029239Y019382D01*
X029379Y019382D01*
X029426Y019335D01*
X029333Y019195D02*
X029426Y019102D01*
X029534Y019102D02*
X029721Y019289D01*
X029721Y019102D02*
X029534Y019102D01*
X029581Y018882D02*
X029534Y018835D01*
X029581Y018882D02*
X029674Y018882D01*
X029721Y018835D01*
X029721Y018789D01*
X029534Y018602D01*
X029721Y018602D01*
X029829Y018602D02*
X029829Y018649D01*
X030015Y018835D01*
X030015Y018882D01*
X029829Y018882D01*
X029426Y018835D02*
X029379Y018882D01*
X029286Y018882D01*
X029239Y018835D01*
X029239Y018649D01*
X029286Y018602D01*
X029379Y018602D01*
X029426Y018649D01*
X027737Y019552D02*
X027457Y019552D01*
X027457Y019692D01*
X027503Y019739D01*
X027597Y019739D01*
X027643Y019692D01*
X027643Y019552D01*
X027643Y019645D02*
X027737Y019739D01*
X027737Y019846D02*
X027550Y020033D01*
X027503Y020033D01*
X027457Y019987D01*
X027457Y019893D01*
X027503Y019846D01*
X027737Y019846D02*
X027737Y020033D01*
X027690Y020141D02*
X027737Y020188D01*
X027737Y020281D01*
X027690Y020328D01*
X027503Y020328D01*
X027457Y020281D01*
X027457Y020188D01*
X027503Y020141D01*
X027550Y020141D01*
X027597Y020188D01*
X027597Y020328D01*
X027552Y025727D02*
X027552Y026007D01*
X027692Y026007D01*
X027739Y025960D01*
X027739Y025867D01*
X027692Y025820D01*
X027552Y025820D01*
X027645Y025820D02*
X027739Y025727D01*
X027846Y025727D02*
X028033Y025727D01*
X027940Y025727D02*
X027940Y026007D01*
X027846Y025914D01*
X028141Y025914D02*
X028234Y026007D01*
X028234Y025727D01*
X028141Y025727D02*
X028328Y025727D01*
X028582Y029177D02*
X028582Y029317D01*
X028628Y029364D01*
X028722Y029364D01*
X028768Y029317D01*
X028768Y029177D01*
X028768Y029270D02*
X028862Y029364D01*
X028862Y029471D02*
X028862Y029658D01*
X028862Y029565D02*
X028582Y029565D01*
X028675Y029471D01*
X028628Y029766D02*
X028582Y029813D01*
X028582Y029906D01*
X028628Y029953D01*
X028815Y029766D01*
X028862Y029813D01*
X028862Y029906D01*
X028815Y029953D01*
X028628Y029953D01*
X028628Y029766D02*
X028815Y029766D01*
X028862Y029177D02*
X028582Y029177D01*
X026132Y031490D02*
X026132Y031583D01*
X026085Y031630D01*
X026132Y031738D02*
X026132Y031924D01*
X026132Y031831D02*
X025852Y031831D01*
X025945Y031738D01*
X025898Y031630D02*
X025852Y031583D01*
X025852Y031490D01*
X025898Y031443D01*
X026085Y031443D01*
X026132Y031490D01*
X026085Y032032D02*
X026132Y032079D01*
X026132Y032172D01*
X026085Y032219D01*
X026038Y032219D01*
X025992Y032172D01*
X025992Y032032D01*
X026085Y032032D01*
X025992Y032032D02*
X025898Y032126D01*
X025852Y032219D01*
X025913Y032943D02*
X025913Y033083D01*
X025867Y033130D01*
X025773Y033130D01*
X025727Y033083D01*
X025727Y032943D01*
X026007Y032943D01*
X025913Y033036D02*
X026007Y033130D01*
X026007Y033238D02*
X026007Y033424D01*
X026007Y033331D02*
X025727Y033331D01*
X025820Y033238D01*
X025820Y033532D02*
X025773Y033532D01*
X025727Y033579D01*
X025727Y033672D01*
X025773Y033719D01*
X025820Y033719D01*
X025867Y033672D01*
X025867Y033579D01*
X025820Y033532D01*
X025867Y033579D02*
X025913Y033532D01*
X025960Y033532D01*
X026007Y033579D01*
X026007Y033672D01*
X025960Y033719D01*
X025913Y033719D01*
X025867Y033672D01*
X025773Y034443D02*
X025960Y034443D01*
X026007Y034490D01*
X026007Y034583D01*
X025960Y034630D01*
X026007Y034738D02*
X026007Y034924D01*
X026007Y034831D02*
X025727Y034831D01*
X025820Y034738D01*
X025773Y034630D02*
X025727Y034583D01*
X025727Y034490D01*
X025773Y034443D01*
X025727Y035032D02*
X025727Y035219D01*
X025773Y035219D01*
X025960Y035032D01*
X026007Y035032D01*
X025007Y033719D02*
X025007Y033532D01*
X025007Y033626D02*
X024727Y033626D01*
X024820Y033532D01*
X025007Y033424D02*
X025007Y033238D01*
X025007Y033331D02*
X024727Y033331D01*
X024820Y033238D01*
X024773Y033130D02*
X024727Y033083D01*
X024727Y032990D01*
X024773Y032943D01*
X024960Y032943D01*
X025007Y032990D01*
X025007Y033083D01*
X024960Y033130D01*
X023335Y035300D02*
X023382Y035347D01*
X023382Y035440D01*
X023335Y035487D01*
X023242Y035595D02*
X023102Y035735D01*
X023382Y035735D01*
X023242Y035781D02*
X023242Y035595D01*
X023148Y035487D02*
X023102Y035440D01*
X023102Y035347D01*
X023148Y035300D01*
X023335Y035300D01*
X023927Y036602D02*
X023927Y036882D01*
X024067Y036882D01*
X024114Y036835D01*
X024114Y036742D01*
X024067Y036695D01*
X023927Y036695D01*
X024020Y036695D02*
X024114Y036602D01*
X024221Y036742D02*
X024408Y036742D01*
X024516Y036649D02*
X024516Y036602D01*
X024516Y036649D02*
X024703Y036835D01*
X024703Y036882D01*
X024516Y036882D01*
X024362Y036882D02*
X024221Y036742D01*
X024362Y036602D02*
X024362Y036882D01*
X022219Y038129D02*
X022219Y038315D01*
X022172Y038362D01*
X022079Y038362D01*
X022032Y038315D01*
X022032Y038269D01*
X022079Y038222D01*
X022219Y038222D01*
X022219Y038129D02*
X022172Y038082D01*
X022079Y038082D01*
X022032Y038129D01*
X021924Y038222D02*
X021738Y038222D01*
X021878Y038362D01*
X021878Y038082D01*
X021630Y038129D02*
X021583Y038082D01*
X021490Y038082D01*
X021443Y038129D01*
X021443Y038315D01*
X021490Y038362D01*
X021583Y038362D01*
X021630Y038315D01*
X021315Y036578D02*
X021362Y036531D01*
X021362Y036438D01*
X021315Y036391D01*
X021222Y036391D02*
X021175Y036484D01*
X021175Y036531D01*
X021222Y036578D01*
X021315Y036578D01*
X021222Y036391D02*
X021082Y036391D01*
X021082Y036578D01*
X021082Y036190D02*
X021362Y036190D01*
X021362Y036283D02*
X021362Y036096D01*
X021315Y035989D02*
X021362Y035942D01*
X021362Y035849D01*
X021315Y035802D01*
X021128Y035802D01*
X021082Y035849D01*
X021082Y035942D01*
X021128Y035989D01*
X021175Y036096D02*
X021082Y036190D01*
X020469Y036065D02*
X020469Y035879D01*
X020422Y035832D01*
X020329Y035832D01*
X020282Y035879D01*
X020329Y035972D02*
X020282Y036019D01*
X020282Y036065D01*
X020329Y036112D01*
X020422Y036112D01*
X020469Y036065D01*
X020469Y035972D02*
X020329Y035972D01*
X020174Y035832D02*
X019988Y035832D01*
X020081Y035832D02*
X020081Y036112D01*
X019988Y036019D01*
X019880Y036065D02*
X019880Y035972D01*
X019833Y035925D01*
X019693Y035925D01*
X019693Y035832D02*
X019693Y036112D01*
X019833Y036112D01*
X019880Y036065D01*
X019786Y035925D02*
X019880Y035832D01*
X017547Y033487D02*
X017454Y033487D01*
X017407Y033440D01*
X017299Y033440D02*
X017253Y033487D01*
X017159Y033487D01*
X017113Y033440D01*
X017113Y033254D01*
X017159Y033207D01*
X017253Y033207D01*
X017299Y033254D01*
X017407Y033254D02*
X017454Y033207D01*
X017547Y033207D01*
X017594Y033254D01*
X017594Y033300D01*
X017547Y033347D01*
X017501Y033347D01*
X017547Y033347D02*
X017594Y033394D01*
X017594Y033440D01*
X017547Y033487D01*
X016507Y033047D02*
X016507Y032954D01*
X016460Y032907D01*
X016507Y032799D02*
X016413Y032706D01*
X016413Y032753D02*
X016413Y032613D01*
X016507Y032613D02*
X016227Y032613D01*
X016227Y032753D01*
X016273Y032799D01*
X016367Y032799D01*
X016413Y032753D01*
X016273Y032907D02*
X016227Y032954D01*
X016227Y033047D01*
X016273Y033094D01*
X016320Y033094D01*
X016367Y033047D01*
X016413Y033094D01*
X016460Y033094D01*
X016507Y033047D01*
X016367Y033047D02*
X016367Y033001D01*
X016422Y032237D02*
X016282Y032097D01*
X016469Y032097D01*
X016422Y031957D02*
X016422Y032237D01*
X016081Y032237D02*
X016081Y031957D01*
X015988Y031957D02*
X016174Y031957D01*
X015988Y032144D02*
X016081Y032237D01*
X015880Y032190D02*
X015833Y032237D01*
X015740Y032237D01*
X015693Y032190D01*
X015693Y032004D01*
X015740Y031957D01*
X015833Y031957D01*
X015880Y032004D01*
X015672Y031737D02*
X015579Y031737D01*
X015532Y031690D01*
X015672Y031737D02*
X015719Y031690D01*
X015719Y031644D01*
X015532Y031457D01*
X015719Y031457D01*
X015672Y031237D02*
X015532Y031097D01*
X015719Y031097D01*
X015672Y030957D02*
X015672Y031237D01*
X015424Y031457D02*
X015238Y031457D01*
X015331Y031457D02*
X015331Y031737D01*
X015238Y031644D01*
X015130Y031690D02*
X015130Y031597D01*
X015083Y031550D01*
X014943Y031550D01*
X014943Y031457D02*
X014943Y031737D01*
X015083Y031737D01*
X015130Y031690D01*
X015036Y031550D02*
X015130Y031457D01*
X015083Y031237D02*
X015130Y031190D01*
X015130Y031097D01*
X015083Y031050D01*
X014943Y031050D01*
X014943Y030957D02*
X014943Y031237D01*
X015083Y031237D01*
X015238Y031144D02*
X015331Y031237D01*
X015331Y030957D01*
X015238Y030957D02*
X015424Y030957D01*
X015331Y030737D02*
X015331Y030457D01*
X015238Y030457D02*
X015424Y030457D01*
X015532Y030504D02*
X015579Y030457D01*
X015672Y030457D01*
X015719Y030504D01*
X015719Y030550D01*
X015672Y030597D01*
X015626Y030597D01*
X015672Y030597D02*
X015719Y030644D01*
X015719Y030690D01*
X015672Y030737D01*
X015579Y030737D01*
X015532Y030690D01*
X015331Y030737D02*
X015238Y030644D01*
X015130Y030690D02*
X015130Y030597D01*
X015083Y030550D01*
X014943Y030550D01*
X014943Y030457D02*
X014943Y030737D01*
X015083Y030737D01*
X015130Y030690D01*
X015036Y030550D02*
X015130Y030457D01*
X015130Y030957D02*
X015036Y031050D01*
X015032Y033582D02*
X015219Y033582D01*
X015126Y033582D02*
X015126Y033862D01*
X015032Y033769D01*
X014924Y033815D02*
X014924Y033722D01*
X014878Y033675D01*
X014738Y033675D01*
X014831Y033675D02*
X014924Y033582D01*
X014738Y033582D02*
X014738Y033862D01*
X014878Y033862D01*
X014924Y033815D01*
X015113Y034707D02*
X015113Y034987D01*
X015253Y034987D01*
X015299Y034940D01*
X015299Y034847D01*
X015253Y034800D01*
X015113Y034800D01*
X015206Y034800D02*
X015299Y034707D01*
X015407Y034707D02*
X015594Y034894D01*
X015594Y034940D01*
X015547Y034987D01*
X015454Y034987D01*
X015407Y034940D01*
X015407Y034707D02*
X015594Y034707D01*
X019878Y029828D02*
X020065Y029641D01*
X020112Y029688D01*
X020112Y029781D01*
X020065Y029828D01*
X019878Y029828D01*
X019832Y029781D01*
X019832Y029688D01*
X019878Y029641D01*
X020065Y029641D01*
X020112Y029533D02*
X020112Y029346D01*
X020112Y029440D02*
X019832Y029440D01*
X019925Y029346D01*
X019878Y029239D02*
X019832Y029192D01*
X019832Y029099D01*
X019878Y029052D01*
X020065Y029052D01*
X020112Y029099D01*
X020112Y029192D01*
X020065Y029239D01*
X020065Y028132D02*
X020065Y027852D01*
X020158Y027852D02*
X019971Y027852D01*
X019864Y027852D02*
X019770Y027945D01*
X019817Y027945D02*
X019677Y027945D01*
X019677Y027852D02*
X019677Y028132D01*
X019817Y028132D01*
X019864Y028085D01*
X019864Y027992D01*
X019817Y027945D01*
X019971Y028039D02*
X020065Y028132D01*
X020266Y028132D02*
X020266Y027992D01*
X020359Y028039D01*
X020406Y028039D01*
X020453Y027992D01*
X020453Y027899D01*
X020406Y027852D01*
X020313Y027852D01*
X020266Y027899D01*
X020266Y028132D02*
X020453Y028132D01*
X021477Y028047D02*
X021523Y028094D01*
X021570Y028094D01*
X021617Y028047D01*
X021663Y028094D01*
X021710Y028094D01*
X021757Y028047D01*
X021757Y027954D01*
X021710Y027907D01*
X021757Y027799D02*
X021757Y027613D01*
X021757Y027706D02*
X021477Y027706D01*
X021570Y027613D01*
X021523Y027505D02*
X021477Y027458D01*
X021477Y027365D01*
X021523Y027318D01*
X021710Y027318D01*
X021757Y027365D01*
X021757Y027458D01*
X021710Y027505D01*
X021523Y027907D02*
X021477Y027954D01*
X021477Y028047D01*
X021617Y028047D02*
X021617Y028001D01*
X022852Y028488D02*
X022852Y028628D01*
X022898Y028674D01*
X022992Y028674D01*
X023038Y028628D01*
X023038Y028488D01*
X023038Y028581D02*
X023132Y028674D01*
X023085Y028782D02*
X023132Y028829D01*
X023132Y028922D01*
X023085Y028969D01*
X023038Y028969D01*
X022992Y028922D01*
X022992Y028829D01*
X022945Y028782D01*
X022898Y028782D01*
X022852Y028829D01*
X022852Y028922D01*
X022898Y028969D01*
X022945Y028969D01*
X022992Y028922D01*
X022992Y028829D02*
X023038Y028782D01*
X023085Y028782D01*
X023132Y028488D02*
X022852Y028488D01*
X023427Y028132D02*
X023427Y027852D01*
X023427Y027945D02*
X023567Y027945D01*
X023614Y027992D01*
X023614Y028085D01*
X023567Y028132D01*
X023427Y028132D01*
X023520Y027945D02*
X023614Y027852D01*
X023721Y027852D02*
X023721Y027899D01*
X023908Y028085D01*
X023908Y028132D01*
X023721Y028132D01*
X023507Y029693D02*
X023227Y029693D01*
X023227Y029833D01*
X023273Y029880D01*
X023367Y029880D01*
X023413Y029833D01*
X023413Y029693D01*
X023413Y029786D02*
X023507Y029880D01*
X023460Y029988D02*
X023507Y030034D01*
X023507Y030128D01*
X023460Y030174D01*
X023413Y030174D01*
X023367Y030128D01*
X023367Y030081D01*
X023367Y030128D02*
X023320Y030174D01*
X023273Y030174D01*
X023227Y030128D01*
X023227Y030034D01*
X023273Y029988D01*
X023273Y030282D02*
X023320Y030282D01*
X023367Y030329D01*
X023367Y030422D01*
X023413Y030469D01*
X023460Y030469D01*
X023507Y030422D01*
X023507Y030329D01*
X023460Y030282D01*
X023413Y030282D01*
X023367Y030329D01*
X023367Y030422D02*
X023320Y030469D01*
X023273Y030469D01*
X023227Y030422D01*
X023227Y030329D01*
X023273Y030282D01*
X024352Y030331D02*
X024632Y030331D01*
X024632Y030238D02*
X024632Y030424D01*
X024632Y030532D02*
X024445Y030719D01*
X024398Y030719D01*
X024352Y030672D01*
X024352Y030579D01*
X024398Y030532D01*
X024352Y030331D02*
X024445Y030238D01*
X024398Y030130D02*
X024352Y030083D01*
X024352Y029990D01*
X024398Y029943D01*
X024585Y029943D01*
X024632Y029990D01*
X024632Y030083D01*
X024585Y030130D01*
X024852Y030068D02*
X024852Y030208D01*
X024898Y030255D01*
X024992Y030255D01*
X025038Y030208D01*
X025038Y030068D01*
X025038Y030161D02*
X025132Y030255D01*
X024992Y030363D02*
X024992Y030549D01*
X024992Y030657D02*
X024992Y030797D01*
X025038Y030844D01*
X025085Y030844D01*
X025132Y030797D01*
X025132Y030704D01*
X025085Y030657D01*
X024992Y030657D01*
X024898Y030751D01*
X024852Y030844D01*
X024632Y030719D02*
X024632Y030532D01*
X024852Y030503D02*
X024992Y030363D01*
X025132Y030503D02*
X024852Y030503D01*
X024852Y030068D02*
X025132Y030068D01*
X024094Y026737D02*
X023907Y026737D01*
X023907Y026597D01*
X024001Y026644D01*
X024047Y026644D01*
X024094Y026597D01*
X024094Y026504D01*
X024047Y026457D01*
X023954Y026457D01*
X023907Y026504D01*
X023799Y026504D02*
X023753Y026457D01*
X023659Y026457D01*
X023613Y026504D01*
X023613Y026690D01*
X023659Y026737D01*
X023753Y026737D01*
X023799Y026690D01*
X022328Y026335D02*
X022328Y026289D01*
X022281Y026242D01*
X022328Y026195D01*
X022328Y026149D01*
X022281Y026102D01*
X022188Y026102D01*
X022141Y026149D01*
X022234Y026242D02*
X022281Y026242D01*
X022328Y026335D02*
X022281Y026382D01*
X022188Y026382D01*
X022141Y026335D01*
X022033Y026242D02*
X021846Y026242D01*
X021987Y026382D01*
X021987Y026102D01*
X021987Y025882D02*
X021893Y025882D01*
X021846Y025835D01*
X021846Y025789D01*
X021893Y025742D01*
X022033Y025742D01*
X022033Y025835D02*
X021987Y025882D01*
X022033Y025835D02*
X022033Y025649D01*
X021987Y025602D01*
X021893Y025602D01*
X021846Y025649D01*
X021739Y025602D02*
X021645Y025695D01*
X021692Y025695D02*
X021552Y025695D01*
X021552Y025602D02*
X021552Y025882D01*
X021692Y025882D01*
X021739Y025835D01*
X021739Y025742D01*
X021692Y025695D01*
X021739Y026102D02*
X021645Y026195D01*
X021692Y026195D02*
X021552Y026195D01*
X021552Y026102D02*
X021552Y026382D01*
X021692Y026382D01*
X021739Y026335D01*
X021739Y026242D01*
X021692Y026195D01*
X022177Y025382D02*
X022317Y025382D01*
X022364Y025335D01*
X022364Y025242D01*
X022317Y025195D01*
X022177Y025195D01*
X022270Y025195D02*
X022364Y025102D01*
X022471Y025242D02*
X022658Y025242D01*
X022612Y025382D02*
X022471Y025242D01*
X022612Y025102D02*
X022612Y025382D01*
X022177Y025382D02*
X022177Y025102D01*
X021969Y024112D02*
X021782Y024112D01*
X021674Y024065D02*
X021628Y024112D01*
X021534Y024112D01*
X021488Y024065D01*
X021488Y023879D01*
X021534Y023832D01*
X021628Y023832D01*
X021674Y023879D01*
X021782Y023879D02*
X021782Y023832D01*
X021782Y023879D02*
X021969Y024065D01*
X021969Y024112D01*
X020612Y023612D02*
X020612Y023518D01*
X020565Y023471D01*
X020472Y023471D01*
X020472Y023612D01*
X020518Y023658D01*
X020565Y023658D01*
X020612Y023612D01*
X020472Y023471D02*
X020378Y023565D01*
X020332Y023658D01*
X020378Y023364D02*
X020332Y023317D01*
X020332Y023224D01*
X020378Y023177D01*
X020565Y023177D01*
X020612Y023224D01*
X020612Y023317D01*
X020565Y023364D01*
X020656Y019882D02*
X020516Y019742D01*
X020703Y019742D01*
X020656Y019602D02*
X020656Y019882D01*
X020408Y019835D02*
X020362Y019882D01*
X020268Y019882D01*
X020221Y019835D01*
X020114Y019835D02*
X020114Y019742D01*
X020067Y019695D01*
X019927Y019695D01*
X020020Y019695D02*
X020114Y019602D01*
X020221Y019602D02*
X020408Y019789D01*
X020408Y019835D01*
X020408Y019602D02*
X020221Y019602D01*
X020114Y019835D02*
X020067Y019882D01*
X019927Y019882D01*
X019927Y019602D01*
X020849Y018382D02*
X020802Y018335D01*
X020802Y018149D01*
X020849Y018102D01*
X020942Y018102D01*
X020989Y018149D01*
X021096Y018102D02*
X021283Y018289D01*
X021283Y018335D01*
X021237Y018382D01*
X021143Y018382D01*
X021096Y018335D01*
X020989Y018335D02*
X020942Y018382D01*
X020849Y018382D01*
X021096Y018102D02*
X021283Y018102D01*
X021391Y018149D02*
X021438Y018102D01*
X021531Y018102D01*
X021578Y018149D01*
X021578Y018195D01*
X021531Y018242D01*
X021484Y018242D01*
X021531Y018242D02*
X021578Y018289D01*
X021578Y018335D01*
X021531Y018382D01*
X021438Y018382D01*
X021391Y018335D01*
X019953Y017335D02*
X019906Y017382D01*
X019813Y017382D01*
X019766Y017335D01*
X019658Y017335D02*
X019612Y017382D01*
X019518Y017382D01*
X019471Y017335D01*
X019364Y017335D02*
X019364Y017242D01*
X019317Y017195D01*
X019177Y017195D01*
X019270Y017195D02*
X019364Y017102D01*
X019471Y017102D02*
X019658Y017289D01*
X019658Y017335D01*
X019658Y017102D02*
X019471Y017102D01*
X019364Y017335D02*
X019317Y017382D01*
X019177Y017382D01*
X019177Y017102D01*
X019766Y017102D02*
X019953Y017289D01*
X019953Y017335D01*
X019953Y017102D02*
X019766Y017102D01*
X018328Y018102D02*
X018141Y018102D01*
X018234Y018102D02*
X018234Y018382D01*
X018141Y018289D01*
X018033Y018289D02*
X018033Y018335D01*
X017987Y018382D01*
X017893Y018382D01*
X017846Y018335D01*
X017739Y018335D02*
X017692Y018382D01*
X017599Y018382D01*
X017552Y018335D01*
X017552Y018149D01*
X017599Y018102D01*
X017692Y018102D01*
X017739Y018149D01*
X017846Y018102D02*
X018033Y018289D01*
X018033Y018102D02*
X017846Y018102D01*
X017299Y017906D02*
X017299Y017813D01*
X017253Y017766D01*
X017299Y017658D02*
X017299Y017471D01*
X017113Y017658D01*
X017066Y017658D01*
X017019Y017612D01*
X017019Y017518D01*
X017066Y017471D01*
X017066Y017364D02*
X017159Y017364D01*
X017206Y017317D01*
X017206Y017177D01*
X017206Y017270D02*
X017299Y017364D01*
X017299Y017177D02*
X017019Y017177D01*
X017019Y017317D01*
X017066Y017364D01*
X017066Y017766D02*
X017019Y017813D01*
X017019Y017906D01*
X017066Y017953D01*
X017113Y017953D01*
X017159Y017906D01*
X017206Y017953D01*
X017253Y017953D01*
X017299Y017906D01*
X017159Y017906D02*
X017159Y017859D01*
X016799Y017817D02*
X016799Y017724D01*
X016753Y017677D01*
X016566Y017677D01*
X016519Y017724D01*
X016519Y017817D01*
X016566Y017864D01*
X016566Y017971D02*
X016519Y018018D01*
X016519Y018112D01*
X016566Y018158D01*
X016613Y018158D01*
X016799Y017971D01*
X016799Y018158D01*
X016753Y018266D02*
X016566Y018453D01*
X016753Y018453D01*
X016799Y018406D01*
X016799Y018313D01*
X016753Y018266D01*
X016566Y018266D01*
X016519Y018313D01*
X016519Y018406D01*
X016566Y018453D01*
X016753Y017864D02*
X016799Y017817D01*
X014172Y023957D02*
X014172Y024237D01*
X014032Y024097D01*
X014219Y024097D01*
X013924Y024050D02*
X013924Y024004D01*
X013878Y023957D01*
X013784Y023957D01*
X013738Y024004D01*
X013630Y024004D02*
X013583Y023957D01*
X013490Y023957D01*
X013443Y024004D01*
X013443Y024190D01*
X013490Y024237D01*
X013583Y024237D01*
X013630Y024190D01*
X013738Y024190D02*
X013784Y024237D01*
X013878Y024237D01*
X013924Y024190D01*
X013924Y024144D01*
X013878Y024097D01*
X013924Y024050D01*
X013878Y024097D02*
X013831Y024097D01*
X013880Y025332D02*
X013786Y025425D01*
X013833Y025425D02*
X013693Y025425D01*
X013693Y025332D02*
X013693Y025612D01*
X013833Y025612D01*
X013880Y025565D01*
X013880Y025472D01*
X013833Y025425D01*
X013988Y025472D02*
X014174Y025472D01*
X014282Y025472D02*
X014376Y025519D01*
X014422Y025519D01*
X014469Y025472D01*
X014469Y025379D01*
X014422Y025332D01*
X014329Y025332D01*
X014282Y025379D01*
X014282Y025472D02*
X014282Y025612D01*
X014469Y025612D01*
X014422Y025832D02*
X014422Y026112D01*
X014282Y025972D01*
X014469Y025972D01*
X014174Y025972D02*
X013988Y025972D01*
X014128Y026112D01*
X014128Y025832D01*
X014128Y025612D02*
X013988Y025472D01*
X014128Y025332D02*
X014128Y025612D01*
X013880Y025832D02*
X013786Y025925D01*
X013833Y025925D02*
X013693Y025925D01*
X013693Y025832D02*
X013693Y026112D01*
X013833Y026112D01*
X013880Y026065D01*
X013880Y025972D01*
X013833Y025925D01*
X016582Y027677D02*
X016582Y027817D01*
X016628Y027864D01*
X016722Y027864D01*
X016768Y027817D01*
X016768Y027677D01*
X016768Y027770D02*
X016862Y027864D01*
X016862Y027971D02*
X016862Y028158D01*
X016862Y028065D02*
X016582Y028065D01*
X016675Y027971D01*
X016722Y028266D02*
X016722Y028406D01*
X016768Y028453D01*
X016815Y028453D01*
X016862Y028406D01*
X016862Y028313D01*
X016815Y028266D01*
X016722Y028266D01*
X016628Y028359D01*
X016582Y028453D01*
X017082Y028453D02*
X017128Y028453D01*
X017315Y028266D01*
X017362Y028266D01*
X017362Y028158D02*
X017362Y027971D01*
X017362Y028065D02*
X017082Y028065D01*
X017175Y027971D01*
X017222Y027864D02*
X017268Y027817D01*
X017268Y027677D01*
X017268Y027770D02*
X017362Y027864D01*
X017222Y027864D02*
X017128Y027864D01*
X017082Y027817D01*
X017082Y027677D01*
X017362Y027677D01*
X017582Y027677D02*
X017582Y027817D01*
X017628Y027864D01*
X017722Y027864D01*
X017768Y027817D01*
X017768Y027677D01*
X017768Y027770D02*
X017862Y027864D01*
X017815Y027971D02*
X017862Y028018D01*
X017862Y028112D01*
X017815Y028158D01*
X017722Y028158D01*
X017675Y028112D01*
X017675Y028065D01*
X017722Y027971D01*
X017582Y027971D01*
X017582Y028158D01*
X018207Y028158D02*
X018253Y028065D01*
X018347Y027971D01*
X018347Y028112D01*
X018393Y028158D01*
X018440Y028158D01*
X018487Y028112D01*
X018487Y028018D01*
X018440Y027971D01*
X018347Y027971D01*
X018347Y027864D02*
X018393Y027817D01*
X018393Y027677D01*
X018393Y027770D02*
X018487Y027864D01*
X018347Y027864D02*
X018253Y027864D01*
X018207Y027817D01*
X018207Y027677D01*
X018487Y027677D01*
X017862Y027677D02*
X017582Y027677D01*
X016862Y027677D02*
X016582Y027677D01*
X017082Y028266D02*
X017082Y028453D01*
X011007Y033284D02*
X011007Y033378D01*
X010960Y033424D01*
X010960Y033532D02*
X011007Y033579D01*
X011007Y033672D01*
X010960Y033719D01*
X010773Y033719D01*
X010727Y033672D01*
X010727Y033579D01*
X010773Y033532D01*
X010820Y033532D01*
X010867Y033579D01*
X010867Y033719D01*
X010773Y033424D02*
X010727Y033378D01*
X010727Y033284D01*
X010773Y033238D01*
X010960Y033238D01*
X011007Y033284D01*
X009984Y030945D02*
X009891Y030851D01*
X009783Y030804D02*
X009596Y030804D01*
X009737Y030945D01*
X009737Y030664D01*
X009891Y030664D02*
X010078Y030664D01*
X009984Y030664D02*
X009984Y030945D01*
X009891Y030507D02*
X010078Y030507D01*
X010078Y030460D01*
X009891Y030274D01*
X009891Y030227D01*
X009737Y030227D02*
X009737Y030507D01*
X009596Y030367D01*
X009783Y030367D01*
X009737Y030070D02*
X009596Y029929D01*
X009783Y029929D01*
X009891Y030023D02*
X009938Y030070D01*
X010031Y030070D01*
X010078Y030023D01*
X010078Y029976D01*
X009891Y029789D01*
X010078Y029789D01*
X009737Y029789D02*
X009737Y030070D01*
X009489Y030023D02*
X009489Y029929D01*
X009442Y029883D01*
X009302Y029883D01*
X009395Y029883D02*
X009489Y029789D01*
X009302Y029789D02*
X009302Y030070D01*
X009442Y030070D01*
X009489Y030023D01*
X009442Y030227D02*
X009489Y030274D01*
X009442Y030227D02*
X009348Y030227D01*
X009302Y030274D01*
X009302Y030460D01*
X009348Y030507D01*
X009442Y030507D01*
X009489Y030460D01*
X009489Y030664D02*
X009395Y030758D01*
X009442Y030758D02*
X009302Y030758D01*
X009302Y030664D02*
X009302Y030945D01*
X009442Y030945D01*
X009489Y030898D01*
X009489Y030804D01*
X009442Y030758D01*
X006672Y036769D02*
X006719Y036816D01*
X006719Y037003D01*
X006672Y037050D01*
X006579Y037050D01*
X006532Y037003D01*
X006532Y036956D01*
X006579Y036909D01*
X006719Y036909D01*
X006672Y036769D02*
X006579Y036769D01*
X006532Y036816D01*
X006424Y036816D02*
X006378Y036769D01*
X006284Y036769D01*
X006238Y036816D01*
X006130Y036769D02*
X006036Y036863D01*
X006083Y036863D02*
X005943Y036863D01*
X005943Y036769D02*
X005943Y037050D01*
X006083Y037050D01*
X006130Y037003D01*
X006130Y036909D01*
X006083Y036863D01*
X006238Y037003D02*
X006284Y037050D01*
X006378Y037050D01*
X006424Y037003D01*
X006424Y036956D01*
X006378Y036909D01*
X006424Y036863D01*
X006424Y036816D01*
X006378Y036909D02*
X006331Y036909D01*
X006378Y037144D02*
X006378Y037425D01*
X006238Y037284D01*
X006424Y037284D01*
X006532Y037238D02*
X006579Y037284D01*
X006672Y037284D01*
X006719Y037238D01*
X006719Y037191D01*
X006672Y037144D01*
X006579Y037144D01*
X006532Y037191D01*
X006532Y037238D01*
X006579Y037284D02*
X006532Y037331D01*
X006532Y037378D01*
X006579Y037425D01*
X006672Y037425D01*
X006719Y037378D01*
X006719Y037331D01*
X006672Y037284D01*
X006672Y037519D02*
X006579Y037519D01*
X006532Y037566D01*
X006719Y037753D01*
X006719Y037566D01*
X006672Y037519D01*
X006532Y037566D02*
X006532Y037753D01*
X006579Y037800D01*
X006672Y037800D01*
X006719Y037753D01*
X006424Y037659D02*
X006238Y037659D01*
X006378Y037800D01*
X006378Y037519D01*
X006130Y037519D02*
X006036Y037613D01*
X006083Y037613D02*
X005943Y037613D01*
X005943Y037519D02*
X005943Y037800D01*
X006083Y037800D01*
X006130Y037753D01*
X006130Y037659D01*
X006083Y037613D01*
X006083Y037425D02*
X005990Y037425D01*
X005943Y037378D01*
X005943Y037191D01*
X005990Y037144D01*
X006083Y037144D01*
X006130Y037191D01*
X006130Y037378D02*
X006083Y037425D01*
X002690Y032346D02*
X002737Y032299D01*
X002737Y032206D01*
X002690Y032159D01*
X002643Y032159D01*
X002597Y032206D01*
X002597Y032299D01*
X002643Y032346D01*
X002690Y032346D01*
X002597Y032299D02*
X002550Y032346D01*
X002503Y032346D01*
X002457Y032299D01*
X002457Y032206D01*
X002503Y032159D01*
X002550Y032159D01*
X002597Y032206D01*
X002690Y032051D02*
X002737Y032004D01*
X002737Y031911D01*
X002690Y031864D01*
X002503Y031864D01*
X002457Y031911D01*
X002457Y032004D01*
X002503Y032051D01*
X031102Y035068D02*
X031102Y035208D01*
X031148Y035255D01*
X031242Y035255D01*
X031288Y035208D01*
X031288Y035068D01*
X031288Y035161D02*
X031382Y035255D01*
X031335Y035363D02*
X031382Y035409D01*
X031382Y035503D01*
X031335Y035549D01*
X031288Y035549D01*
X031242Y035503D01*
X031242Y035456D01*
X031242Y035503D02*
X031195Y035549D01*
X031148Y035549D01*
X031102Y035503D01*
X031102Y035409D01*
X031148Y035363D01*
X031102Y035068D02*
X031382Y035068D01*
X031335Y035657D02*
X031382Y035704D01*
X031382Y035797D01*
X031335Y035844D01*
X031288Y035844D01*
X031242Y035797D01*
X031242Y035657D01*
X031335Y035657D01*
X031242Y035657D02*
X031148Y035751D01*
X031102Y035844D01*
M02*
