G75*
G70*
%OFA0B0*%
%FSLAX24Y24*%
%IPPOS*%
%LPD*%
%AMOC8*
5,1,8,0,0,1.08239X$1,22.5*
%
%ADD10R,0.0375X0.0190*%
%ADD11R,0.0206X0.0297*%
%ADD12R,0.0297X0.0206*%
%ADD13R,0.2580X0.2580*%
%ADD14R,0.0910X0.2280*%
%ADD15R,0.0671X0.0289*%
%ADD16R,0.0670X0.0670*%
%ADD17C,0.0670*%
%ADD18R,0.0430X0.0380*%
%ADD19R,0.0380X0.0430*%
%ADD20R,0.0710X0.0218*%
%ADD21C,0.1085*%
%ADD22C,0.0770*%
%ADD23R,0.0220X0.0320*%
%ADD24C,0.1360*%
%ADD25C,0.1025*%
%ADD26C,0.0634*%
%ADD27R,0.0186X0.0316*%
%ADD28R,0.1064X0.0730*%
%ADD29R,0.0580X0.0730*%
%ADD30R,0.0580X0.0580*%
%ADD31R,0.1080X0.1130*%
%ADD32R,0.0580X0.0380*%
%ADD33C,0.2620*%
%ADD34R,0.0178X0.0356*%
%ADD35R,0.0781X0.0730*%
%ADD36R,0.0501X0.0730*%
%ADD37C,0.1084*%
%ADD38C,0.1261*%
%ADD39R,0.1130X0.1080*%
%ADD40R,0.0380X0.0580*%
%ADD41R,0.0848X0.0848*%
%ADD42C,0.0848*%
%ADD43C,0.0390*%
%ADD44C,0.0476*%
%ADD45C,0.0490*%
D10*
X016801Y023580D03*
X016801Y023836D03*
X016801Y024092D03*
X016801Y024348D03*
X016801Y024604D03*
X016801Y024860D03*
X016801Y025116D03*
X016801Y025372D03*
X016801Y025627D03*
X016801Y025883D03*
X019163Y025883D03*
X019163Y025627D03*
X019163Y025372D03*
X019163Y025116D03*
X019163Y024860D03*
X019163Y024604D03*
X019163Y024348D03*
X019163Y024092D03*
X019163Y023836D03*
X019163Y023580D03*
D11*
X020130Y030914D03*
X020327Y030914D03*
X020524Y030914D03*
X020721Y030914D03*
X020918Y030914D03*
X021115Y030914D03*
X021312Y030914D03*
X021508Y030914D03*
X021705Y030914D03*
X021902Y030914D03*
X022099Y030914D03*
X022296Y030914D03*
X022493Y030914D03*
X022689Y030914D03*
X022886Y030914D03*
X023083Y030914D03*
X023083Y034300D03*
X022886Y034300D03*
X022689Y034300D03*
X022493Y034300D03*
X022296Y034300D03*
X022099Y034300D03*
X021902Y034300D03*
X021705Y034300D03*
X021508Y034300D03*
X021312Y034300D03*
X021115Y034300D03*
X020918Y034300D03*
X020721Y034300D03*
X020524Y034300D03*
X020327Y034300D03*
X020130Y034300D03*
D12*
X019914Y034083D03*
X019914Y033886D03*
X019914Y033689D03*
X019914Y033493D03*
X019914Y033296D03*
X019914Y033099D03*
X019914Y032902D03*
X019914Y032705D03*
X019914Y032508D03*
X019914Y032312D03*
X019914Y032115D03*
X019914Y031918D03*
X019914Y031721D03*
X019914Y031524D03*
X019914Y031327D03*
X019914Y031130D03*
X023300Y031130D03*
X023300Y031327D03*
X023300Y031524D03*
X023300Y031721D03*
X023300Y031918D03*
X023300Y032115D03*
X023300Y032312D03*
X023300Y032508D03*
X023300Y032705D03*
X023300Y032902D03*
X023300Y033099D03*
X023300Y033296D03*
X023300Y033493D03*
X023300Y033689D03*
X023300Y033886D03*
X023300Y034083D03*
D13*
X021607Y032607D03*
D14*
X027657Y031787D03*
X027657Y035527D03*
D15*
X027589Y028593D03*
X027589Y028102D03*
X027589Y027611D03*
X027589Y027120D03*
X025625Y027120D03*
X025625Y027611D03*
X025625Y028102D03*
X025625Y028593D03*
D16*
X012107Y036107D03*
D17*
X013107Y036107D03*
X013107Y035107D03*
X013107Y034107D03*
X013107Y033107D03*
X012107Y033107D03*
X012107Y034107D03*
X012107Y035107D03*
X012107Y032107D03*
X013107Y032107D03*
X013107Y031107D03*
X012107Y031107D03*
X012107Y030107D03*
X013107Y030107D03*
D18*
X016682Y030607D03*
X016682Y031107D03*
X016682Y031607D03*
X017282Y031607D03*
X017282Y031107D03*
X017282Y030607D03*
X017432Y032107D03*
X018032Y032107D03*
X018032Y032732D03*
X017432Y032732D03*
X016282Y033732D03*
X015682Y033732D03*
X016182Y034857D03*
X016782Y034857D03*
X020057Y035482D03*
X020657Y035482D03*
X022307Y027982D03*
X022907Y027982D03*
X023557Y027107D03*
X024157Y027107D03*
X021782Y024482D03*
X021182Y024482D03*
X021032Y025232D03*
X021032Y025732D03*
X021032Y026232D03*
X020432Y026232D03*
X020432Y025732D03*
X020432Y025232D03*
X020407Y027482D03*
X019807Y027482D03*
X016032Y025982D03*
X016032Y025482D03*
X015432Y025482D03*
X015432Y025982D03*
X015182Y024107D03*
X015782Y024107D03*
X020057Y018982D03*
X020657Y018982D03*
X020807Y017732D03*
X021407Y017732D03*
X021432Y015607D03*
X022032Y015607D03*
X021532Y013482D03*
X020932Y013482D03*
X017407Y015107D03*
X017407Y015607D03*
X016807Y015607D03*
X016807Y015107D03*
X016532Y013482D03*
X015932Y013482D03*
X018057Y017232D03*
X018282Y017732D03*
X017682Y017732D03*
X018657Y017232D03*
X011032Y017107D03*
X010432Y017107D03*
X007532Y030294D03*
X007532Y030857D03*
X007532Y031419D03*
X006932Y031419D03*
X006932Y030857D03*
X006932Y030294D03*
X006532Y034044D03*
X006532Y034669D03*
X005932Y034669D03*
X005932Y034044D03*
X005932Y035294D03*
X006532Y035294D03*
X027057Y017732D03*
X027057Y017232D03*
X027057Y016732D03*
X027657Y016732D03*
X027657Y017232D03*
X027657Y017732D03*
X028307Y018732D03*
X028307Y019232D03*
X028907Y019232D03*
X028907Y018732D03*
X031807Y017732D03*
X031807Y017232D03*
X031807Y016732D03*
X032407Y016732D03*
X032407Y017232D03*
X032407Y017732D03*
X032807Y015232D03*
X033407Y015232D03*
X029282Y027107D03*
X028682Y027107D03*
D19*
X028607Y028182D03*
X028607Y028782D03*
X025357Y031557D03*
X025357Y032157D03*
X025357Y033057D03*
X025357Y033657D03*
X025357Y034557D03*
X025357Y035157D03*
X024357Y033657D03*
X024357Y033057D03*
X024357Y032157D03*
X024357Y031557D03*
X023857Y030657D03*
X023857Y030057D03*
X022357Y029657D03*
X022357Y029057D03*
X021607Y029057D03*
X021607Y029657D03*
X020482Y029782D03*
X020482Y029182D03*
X018357Y027157D03*
X018357Y026557D03*
X017732Y026557D03*
X017232Y026557D03*
X016732Y026557D03*
X016732Y027157D03*
X017232Y027157D03*
X017732Y027157D03*
X019982Y023782D03*
X019982Y023182D03*
X021482Y016907D03*
X021482Y016307D03*
X021982Y016307D03*
X021982Y016907D03*
X022107Y014782D03*
X021607Y014782D03*
X021607Y014182D03*
X022107Y014182D03*
X024232Y015557D03*
X024232Y016157D03*
X027607Y018432D03*
X027607Y019032D03*
X030357Y019282D03*
X030357Y018682D03*
X030982Y018682D03*
X030982Y019282D03*
X031732Y019282D03*
X031732Y018682D03*
X031732Y015782D03*
X031732Y015182D03*
X030857Y015182D03*
X030857Y015782D03*
X029232Y015532D03*
X029232Y014932D03*
X028607Y014932D03*
X028107Y014932D03*
X028107Y015532D03*
X028607Y015532D03*
X018357Y014157D03*
X018357Y013557D03*
X017482Y013557D03*
X017482Y014157D03*
X017232Y016182D03*
X016732Y016182D03*
X016732Y016782D03*
X017232Y016782D03*
X012482Y018307D03*
X012482Y018907D03*
X003107Y031869D03*
X003107Y032469D03*
X010357Y033307D03*
X010357Y033907D03*
X016857Y034032D03*
X016857Y033432D03*
X021732Y035432D03*
X021732Y036032D03*
X022732Y036032D03*
X022732Y035432D03*
X030732Y035307D03*
X030732Y035907D03*
D20*
X030959Y018000D03*
X030959Y017744D03*
X030959Y017488D03*
X030959Y017232D03*
X030959Y016976D03*
X030959Y016720D03*
X030959Y016464D03*
X028754Y016464D03*
X028754Y016720D03*
X028754Y016976D03*
X028754Y017232D03*
X028754Y017488D03*
X028754Y017744D03*
X028754Y018000D03*
X020584Y016375D03*
X020584Y016119D03*
X020584Y015863D03*
X020584Y015607D03*
X020584Y015351D03*
X020584Y015095D03*
X020584Y014839D03*
X018379Y014839D03*
X018379Y015095D03*
X018379Y015351D03*
X018379Y015607D03*
X018379Y015863D03*
X018379Y016119D03*
X018379Y016375D03*
D21*
X018232Y004732D03*
X018232Y002732D03*
X016232Y002732D03*
X016232Y004732D03*
X020732Y004732D03*
X022732Y004732D03*
X022732Y002732D03*
X020732Y002732D03*
X011232Y002732D03*
X011232Y004732D03*
X009232Y004732D03*
X009232Y002732D03*
X006732Y002732D03*
X006732Y004732D03*
X004732Y004732D03*
X004732Y002732D03*
D22*
X005732Y003732D03*
X010232Y003732D03*
X017232Y003732D03*
X021732Y003732D03*
D23*
X021857Y006982D03*
X021607Y006982D03*
X017107Y006982D03*
X016857Y006982D03*
X010107Y006982D03*
X009857Y006982D03*
X005857Y006982D03*
X005607Y006982D03*
D24*
X032561Y036982D03*
X037403Y036982D03*
D25*
X038141Y032769D02*
X038141Y031824D01*
X031822Y031824D02*
X031822Y032769D01*
D26*
X033482Y033482D03*
X034482Y033482D03*
X035482Y033482D03*
X036482Y033482D03*
X036982Y034482D03*
X035982Y034482D03*
X034982Y034482D03*
X033982Y034482D03*
D27*
X007214Y033361D03*
X007021Y033361D03*
X006828Y033361D03*
X006635Y033361D03*
X006442Y033361D03*
X006250Y033361D03*
X006250Y032353D03*
X006442Y032353D03*
X006635Y032353D03*
X006828Y032353D03*
X007021Y032353D03*
X007214Y032353D03*
D28*
X006732Y032857D03*
D29*
X005907Y030732D03*
X004807Y030732D03*
X007557Y035107D03*
X008657Y035107D03*
D30*
X009232Y034012D03*
X009232Y032952D03*
X007982Y032877D03*
X007982Y033937D03*
X005419Y032887D03*
X005419Y031827D03*
X004169Y031827D03*
X004169Y032887D03*
X013232Y019637D03*
X013232Y018577D03*
X013637Y017357D03*
X012577Y017357D03*
X011512Y016107D03*
X010452Y016107D03*
X009762Y019357D03*
X008702Y019357D03*
D31*
X007232Y012207D03*
X009482Y026632D03*
D32*
X009482Y025707D03*
X007232Y013132D03*
D33*
X001857Y001857D03*
X001982Y037732D03*
X037732Y022732D03*
X037732Y001857D03*
D34*
X011822Y018056D03*
X011626Y018056D03*
X011429Y018056D03*
X011232Y018056D03*
X011035Y018056D03*
X010838Y018056D03*
X010641Y018056D03*
X010641Y019158D03*
X010838Y019158D03*
X011035Y019158D03*
X011232Y019158D03*
X011429Y019158D03*
X011626Y019158D03*
X011822Y019158D03*
D35*
X010937Y018607D03*
D36*
X011675Y018607D03*
D37*
X003607Y017112D03*
X003607Y011612D03*
X003482Y027362D03*
D38*
X005509Y026732D03*
X001454Y026732D03*
X001579Y016482D03*
X005634Y016482D03*
X005634Y010982D03*
X001579Y010982D03*
D39*
X009257Y018232D03*
D40*
X008332Y018232D03*
D41*
X002732Y020732D03*
X002732Y023232D03*
X002732Y007482D03*
D42*
X002732Y006482D03*
X002732Y019732D03*
X002732Y022232D03*
D43*
X007982Y019357D03*
X010607Y019607D03*
X011607Y019732D03*
X010982Y018607D03*
X011357Y017607D03*
X011857Y017357D03*
X012232Y016107D03*
X013857Y016107D03*
X014357Y017357D03*
X015357Y016107D03*
X016232Y015607D03*
X016232Y015107D03*
X016732Y017232D03*
X018982Y015607D03*
X019982Y015607D03*
X021982Y017482D03*
X022482Y015607D03*
X022107Y013732D03*
X026482Y016732D03*
X026482Y017232D03*
X026482Y017732D03*
X028482Y019732D03*
X028982Y020107D03*
X029357Y017232D03*
X030357Y017232D03*
X032982Y017232D03*
X032982Y017732D03*
X032982Y016732D03*
X028732Y007857D03*
X021232Y006982D03*
X016482Y006982D03*
X009482Y006982D03*
X006982Y007482D03*
X005232Y006982D03*
X009732Y016107D03*
X013232Y020357D03*
X014482Y024107D03*
X014982Y025482D03*
X014982Y025982D03*
X015732Y026732D03*
X017232Y025357D03*
X018732Y024107D03*
X019982Y024232D03*
X021107Y023982D03*
X021857Y025107D03*
X021607Y026607D03*
X021607Y028482D03*
X020482Y028607D03*
X021607Y030107D03*
X020482Y030357D03*
X019232Y030732D03*
X019357Y031357D03*
X018482Y032232D03*
X018732Y032857D03*
X018107Y033232D03*
X018857Y033982D03*
X020357Y034982D03*
X021732Y034857D03*
X022732Y034857D03*
X024357Y035107D03*
X024357Y034107D03*
X023857Y032982D03*
X023857Y032357D03*
X024357Y031107D03*
X024357Y030107D03*
X023857Y029482D03*
X023107Y029482D03*
X022982Y030482D03*
X025357Y030107D03*
X026357Y030107D03*
X027357Y030107D03*
X028357Y030107D03*
X029357Y030107D03*
X029357Y031107D03*
X029357Y032107D03*
X029357Y033107D03*
X029357Y034107D03*
X029357Y035107D03*
X029357Y036107D03*
X029357Y037107D03*
X028357Y037107D03*
X027357Y037107D03*
X026357Y037107D03*
X025357Y037107D03*
X024357Y037107D03*
X024357Y036107D03*
X022732Y036607D03*
X021732Y036607D03*
X016857Y032857D03*
X016982Y032107D03*
X016107Y031607D03*
X016107Y031107D03*
X016107Y030607D03*
X017732Y031107D03*
X018857Y027482D03*
X019982Y022607D03*
X024857Y027107D03*
X026232Y027482D03*
X026857Y028607D03*
X029732Y027107D03*
X016107Y035232D03*
X010357Y032794D03*
X007232Y031982D03*
X006232Y033669D03*
X003107Y032982D03*
D44*
X021107Y033107D03*
X022107Y033107D03*
X022107Y032107D03*
X021107Y032107D03*
X022857Y027082D03*
D45*
X030732Y026982D03*
X030732Y028482D03*
X030732Y029732D03*
X030732Y031232D03*
X032232Y026982D03*
X033732Y026982D03*
X035232Y026982D03*
X036482Y026982D03*
X037982Y026982D03*
X038982Y026982D03*
X038982Y028482D03*
X038982Y029732D03*
X038982Y031482D03*
X010389Y034782D03*
X010389Y035482D03*
X009482Y035482D03*
X009482Y034782D03*
X007982Y033982D03*
X006732Y032857D03*
X005669Y031982D03*
X003919Y030919D03*
X003919Y030419D03*
X003169Y030419D03*
X003169Y030919D03*
X005669Y029669D03*
X007044Y029607D03*
X007044Y029044D03*
X007607Y029044D03*
X008169Y029044D03*
X008169Y029607D03*
X007607Y029607D03*
X008169Y030232D03*
X008732Y030232D03*
X008732Y029607D03*
X008732Y029044D03*
X009482Y028294D03*
X005107Y035294D03*
X004419Y035294D03*
X003732Y035294D03*
X003732Y036232D03*
X004419Y036232D03*
X005107Y036232D03*
X005794Y036232D03*
X006482Y036232D03*
M02*
