G75*
G70*
%OFA0B0*%
%FSLAX24Y24*%
%IPPOS*%
%LPD*%
%AMOC8*
5,1,8,0,0,1.08239X$1,22.5*
%
%ADD10R,0.0590X0.0590*%
%ADD11C,0.0590*%
%ADD12C,0.1005*%
%ADD13C,0.0690*%
%ADD14C,0.0945*%
%ADD15C,0.0554*%
%ADD16R,0.0650X0.0500*%
%ADD17C,0.2540*%
%ADD18C,0.1004*%
%ADD19C,0.1181*%
%ADD20R,0.0768X0.0768*%
%ADD21C,0.0768*%
%ADD22C,0.0310*%
%ADD23C,0.0396*%
%ADD24C,0.0100*%
%ADD25C,0.0410*%
%ADD26C,0.0120*%
%ADD27C,0.0320*%
D10*
X027724Y036107D03*
D11*
X026724Y036107D03*
X026724Y035107D03*
X026724Y034107D03*
X026724Y033107D03*
X027724Y033107D03*
X027724Y034107D03*
X027724Y035107D03*
X027724Y032107D03*
X026724Y032107D03*
X026724Y031107D03*
X027724Y031107D03*
X027724Y030107D03*
X026724Y030107D03*
D12*
X028599Y004732D03*
X028599Y002732D03*
X030599Y002732D03*
X030599Y004732D03*
X033099Y004732D03*
X033099Y002732D03*
X035099Y002732D03*
X035099Y004732D03*
X023599Y004732D03*
X021599Y004732D03*
X021599Y002732D03*
X023599Y002732D03*
X019099Y002732D03*
X017099Y002732D03*
X017099Y004732D03*
X019099Y004732D03*
D13*
X018099Y003732D03*
X022599Y003732D03*
X029599Y003732D03*
X034099Y003732D03*
D14*
X008009Y031824D02*
X008009Y032769D01*
X001690Y032769D02*
X001690Y031824D01*
D15*
X003349Y033482D03*
X004349Y033482D03*
X005349Y033482D03*
X006349Y033482D03*
X005849Y034482D03*
X004849Y034482D03*
X003849Y034482D03*
X002849Y034482D03*
D16*
X010849Y025282D03*
X010849Y024182D03*
D17*
X002099Y022732D03*
X002099Y001857D03*
X037974Y001857D03*
X037849Y037732D03*
D18*
X036349Y027362D03*
X036224Y017112D03*
X036224Y011612D03*
D19*
X034197Y010982D03*
X038252Y010982D03*
X038252Y016482D03*
X034197Y016482D03*
X034322Y026732D03*
X038377Y026732D03*
D20*
X037099Y023232D03*
X037099Y020732D03*
X037099Y007482D03*
D21*
X037099Y006482D03*
X037099Y019732D03*
X037099Y022232D03*
D22*
X031849Y019357D03*
X029224Y019607D03*
X028224Y019732D03*
X028849Y018607D03*
X028474Y017607D03*
X027974Y017357D03*
X027599Y016107D03*
X025974Y016107D03*
X025474Y017357D03*
X024474Y016107D03*
X023599Y015607D03*
X023599Y015107D03*
X023099Y017232D03*
X020849Y015607D03*
X019849Y015607D03*
X017849Y017482D03*
X017349Y015607D03*
X017724Y013732D03*
X013349Y016732D03*
X013349Y017232D03*
X013349Y017732D03*
X011349Y019732D03*
X010849Y020107D03*
X010474Y017232D03*
X009474Y017232D03*
X006849Y017232D03*
X006849Y017732D03*
X006849Y016732D03*
X011099Y007857D03*
X018599Y006982D03*
X023349Y006982D03*
X030349Y006982D03*
X032849Y007482D03*
X034599Y006982D03*
X030099Y016107D03*
X026599Y020357D03*
X025349Y024107D03*
X024849Y025482D03*
X024849Y025982D03*
X024099Y026732D03*
X022599Y025357D03*
X021099Y024107D03*
X019849Y024232D03*
X018724Y023982D03*
X017974Y025107D03*
X018224Y026607D03*
X018224Y028482D03*
X019349Y028607D03*
X018224Y030107D03*
X019349Y030357D03*
X020599Y030732D03*
X020474Y031357D03*
X021349Y032232D03*
X021099Y032857D03*
X021724Y033232D03*
X020974Y033982D03*
X019474Y034982D03*
X018099Y034857D03*
X017099Y034857D03*
X015474Y035107D03*
X015474Y034107D03*
X015974Y032982D03*
X015974Y032357D03*
X015474Y031107D03*
X014474Y030107D03*
X013474Y030107D03*
X012474Y030107D03*
X011474Y030107D03*
X010474Y030107D03*
X010474Y031107D03*
X010474Y032107D03*
X010474Y033107D03*
X010474Y034107D03*
X010474Y035107D03*
X010474Y036107D03*
X010474Y037107D03*
X011474Y037107D03*
X012474Y037107D03*
X013474Y037107D03*
X014474Y037107D03*
X015474Y037107D03*
X015474Y036107D03*
X017099Y036607D03*
X018099Y036607D03*
X022974Y032857D03*
X022849Y032107D03*
X023724Y031607D03*
X023724Y031107D03*
X023724Y030607D03*
X022099Y031107D03*
X020974Y027482D03*
X016849Y030482D03*
X016724Y029482D03*
X015974Y029482D03*
X014974Y027107D03*
X012974Y027482D03*
X012849Y026482D03*
X012974Y028607D03*
X019849Y022607D03*
X029474Y032794D03*
X032599Y031982D03*
X033599Y033669D03*
X036724Y032982D03*
X023724Y035357D03*
D23*
X018724Y033107D03*
X017724Y033107D03*
X017724Y032107D03*
X018724Y032107D03*
X016974Y027082D03*
X016224Y022732D03*
X025474Y022732D03*
D24*
X001619Y000557D02*
X000599Y000557D01*
X000599Y024482D01*
X010374Y024482D01*
X010374Y024232D01*
X010799Y024232D01*
X010799Y024132D01*
X010374Y024132D01*
X010374Y023870D01*
X010462Y023782D01*
X010799Y023782D01*
X010799Y024132D01*
X010899Y024132D01*
X010899Y023782D01*
X011237Y023782D01*
X011324Y023870D01*
X011324Y024132D01*
X010900Y024132D01*
X010900Y024232D01*
X011324Y024232D01*
X011324Y024482D01*
X019761Y024482D01*
X019699Y024456D01*
X019625Y024382D01*
X019584Y024285D01*
X019584Y024179D01*
X019625Y024082D01*
X019699Y024007D01*
X019797Y023967D01*
X019902Y023967D01*
X019999Y024007D01*
X020074Y024082D01*
X020114Y024179D01*
X020114Y024285D01*
X020074Y024382D01*
X019999Y024456D01*
X019938Y024482D01*
X034349Y024482D01*
X034349Y021357D01*
X039099Y021357D01*
X039099Y002668D01*
X039079Y002704D01*
X038822Y002961D01*
X038507Y003143D01*
X038156Y003237D01*
X037793Y003237D01*
X037442Y003143D01*
X037127Y002961D01*
X036870Y002704D01*
X036688Y002389D01*
X036594Y002039D01*
X036594Y001675D01*
X036688Y001324D01*
X036870Y001009D01*
X037127Y000753D01*
X037442Y000571D01*
X037494Y000557D01*
X002579Y000557D01*
X002632Y000571D01*
X002947Y000753D01*
X003204Y001009D01*
X003385Y001324D01*
X003479Y001675D01*
X003479Y002039D01*
X003385Y002389D01*
X003204Y002704D01*
X002947Y002961D01*
X002632Y003143D01*
X002281Y003237D01*
X001918Y003237D01*
X001567Y003143D01*
X001252Y002961D01*
X000995Y002704D01*
X000813Y002389D01*
X000719Y002039D01*
X000719Y001675D01*
X000813Y001324D01*
X000995Y001009D01*
X001252Y000753D01*
X001567Y000571D01*
X001619Y000557D01*
X001471Y000626D02*
X000599Y000626D01*
X000599Y000725D02*
X001301Y000725D01*
X001181Y000823D02*
X000599Y000823D01*
X000599Y000922D02*
X001083Y000922D01*
X000989Y001020D02*
X000599Y001020D01*
X000599Y001119D02*
X000932Y001119D01*
X000875Y001217D02*
X000599Y001217D01*
X000599Y001316D02*
X000818Y001316D01*
X000789Y001414D02*
X000599Y001414D01*
X000599Y001513D02*
X000763Y001513D01*
X000736Y001611D02*
X000599Y001611D01*
X000599Y001710D02*
X000719Y001710D01*
X000719Y001809D02*
X000599Y001809D01*
X000599Y001907D02*
X000719Y001907D01*
X000719Y002006D02*
X000599Y002006D01*
X000599Y002104D02*
X000737Y002104D01*
X000763Y002203D02*
X000599Y002203D01*
X000599Y002301D02*
X000790Y002301D01*
X000819Y002400D02*
X000599Y002400D01*
X000599Y002498D02*
X000876Y002498D01*
X000933Y002597D02*
X000599Y002597D01*
X000599Y002695D02*
X000990Y002695D01*
X001085Y002794D02*
X000599Y002794D01*
X000599Y002892D02*
X001183Y002892D01*
X001304Y002991D02*
X000599Y002991D01*
X000599Y003090D02*
X001475Y003090D01*
X001736Y003188D02*
X000599Y003188D01*
X000599Y003287D02*
X016734Y003287D01*
X016730Y003285D02*
X016970Y003384D01*
X017049Y003384D01*
X017049Y002782D01*
X016447Y002782D01*
X016447Y002862D01*
X016546Y003101D01*
X016730Y003285D01*
X016633Y003188D02*
X002463Y003188D01*
X002724Y003090D02*
X016541Y003090D01*
X016500Y002991D02*
X002895Y002991D01*
X003015Y002892D02*
X016460Y002892D01*
X016447Y002794D02*
X003114Y002794D01*
X003209Y002695D02*
X017049Y002695D01*
X017049Y002682D02*
X017049Y002782D01*
X017149Y002782D01*
X017149Y003384D01*
X017229Y003384D01*
X017469Y003285D01*
X017653Y003101D01*
X017752Y002862D01*
X017752Y002782D01*
X017150Y002782D01*
X017150Y002682D01*
X017752Y002682D01*
X017752Y002602D01*
X017653Y002362D01*
X017469Y002179D01*
X017229Y002079D01*
X017149Y002079D01*
X017149Y002682D01*
X017049Y002682D01*
X016447Y002682D01*
X016447Y002602D01*
X016546Y002362D01*
X016730Y002179D01*
X016970Y002079D01*
X017049Y002079D01*
X017049Y002682D01*
X017049Y002597D02*
X017149Y002597D01*
X017150Y002695D02*
X019049Y002695D01*
X019049Y002682D02*
X019049Y002782D01*
X018447Y002782D01*
X018447Y002862D01*
X018546Y003101D01*
X018730Y003285D01*
X018970Y003384D01*
X019049Y003384D01*
X019049Y002782D01*
X019149Y002782D01*
X019149Y003384D01*
X019229Y003384D01*
X019469Y003285D01*
X019653Y003101D01*
X019752Y002862D01*
X019752Y002782D01*
X019150Y002782D01*
X019150Y002682D01*
X019752Y002682D01*
X019752Y002602D01*
X019653Y002362D01*
X019469Y002179D01*
X019229Y002079D01*
X019149Y002079D01*
X019149Y002682D01*
X019049Y002682D01*
X018447Y002682D01*
X018447Y002602D01*
X018546Y002362D01*
X018730Y002179D01*
X018970Y002079D01*
X019049Y002079D01*
X019049Y002682D01*
X019049Y002597D02*
X019149Y002597D01*
X019150Y002695D02*
X021549Y002695D01*
X021549Y002682D02*
X021549Y002782D01*
X020947Y002782D01*
X020947Y002862D01*
X021046Y003101D01*
X021230Y003285D01*
X021470Y003384D01*
X021549Y003384D01*
X021549Y002782D01*
X021649Y002782D01*
X021649Y003384D01*
X021729Y003384D01*
X021969Y003285D01*
X022153Y003101D01*
X022252Y002862D01*
X022252Y002782D01*
X021650Y002782D01*
X021650Y002682D01*
X022252Y002682D01*
X022252Y002602D01*
X022153Y002362D01*
X021969Y002179D01*
X021729Y002079D01*
X021649Y002079D01*
X021649Y002682D01*
X021549Y002682D01*
X020947Y002682D01*
X020947Y002602D01*
X021046Y002362D01*
X021230Y002179D01*
X021470Y002079D01*
X021549Y002079D01*
X021549Y002682D01*
X021549Y002597D02*
X021649Y002597D01*
X021650Y002695D02*
X023549Y002695D01*
X023549Y002682D02*
X023549Y002782D01*
X022947Y002782D01*
X022947Y002862D01*
X023046Y003101D01*
X023230Y003285D01*
X023470Y003384D01*
X023549Y003384D01*
X023549Y002782D01*
X023649Y002782D01*
X023649Y003384D01*
X023729Y003384D01*
X023969Y003285D01*
X024153Y003101D01*
X024252Y002862D01*
X024252Y002782D01*
X023650Y002782D01*
X023650Y002682D01*
X024252Y002682D01*
X024252Y002602D01*
X024153Y002362D01*
X023969Y002179D01*
X023729Y002079D01*
X023649Y002079D01*
X023649Y002682D01*
X023549Y002682D01*
X022947Y002682D01*
X022947Y002602D01*
X023046Y002362D01*
X023230Y002179D01*
X023470Y002079D01*
X023549Y002079D01*
X023549Y002682D01*
X023549Y002597D02*
X023649Y002597D01*
X023650Y002695D02*
X028549Y002695D01*
X028549Y002682D02*
X028549Y002782D01*
X027947Y002782D01*
X027947Y002862D01*
X028046Y003101D01*
X028230Y003285D01*
X028470Y003384D01*
X028549Y003384D01*
X028549Y002782D01*
X028649Y002782D01*
X028649Y003384D01*
X028729Y003384D01*
X028969Y003285D01*
X029153Y003101D01*
X029252Y002862D01*
X029252Y002782D01*
X028650Y002782D01*
X028650Y002682D01*
X029252Y002682D01*
X029252Y002602D01*
X029153Y002362D01*
X028969Y002179D01*
X028729Y002079D01*
X028649Y002079D01*
X028649Y002682D01*
X028549Y002682D01*
X027947Y002682D01*
X027947Y002602D01*
X028046Y002362D01*
X028230Y002179D01*
X028470Y002079D01*
X028549Y002079D01*
X028549Y002682D01*
X028549Y002597D02*
X028649Y002597D01*
X028650Y002695D02*
X030549Y002695D01*
X030549Y002682D02*
X030549Y002782D01*
X029947Y002782D01*
X029947Y002862D01*
X030046Y003101D01*
X030230Y003285D01*
X030470Y003384D01*
X030549Y003384D01*
X030549Y002782D01*
X030649Y002782D01*
X030649Y003384D01*
X030729Y003384D01*
X030969Y003285D01*
X031153Y003101D01*
X031252Y002862D01*
X031252Y002782D01*
X030650Y002782D01*
X030650Y002682D01*
X031252Y002682D01*
X031252Y002602D01*
X031153Y002362D01*
X030969Y002179D01*
X030729Y002079D01*
X030649Y002079D01*
X030649Y002682D01*
X030549Y002682D01*
X029947Y002682D01*
X029947Y002602D01*
X030046Y002362D01*
X030230Y002179D01*
X030470Y002079D01*
X030549Y002079D01*
X030549Y002682D01*
X030549Y002597D02*
X030649Y002597D01*
X030650Y002695D02*
X033049Y002695D01*
X033049Y002682D02*
X033049Y002782D01*
X032447Y002782D01*
X032447Y002862D01*
X032546Y003101D01*
X032730Y003285D01*
X032970Y003384D01*
X033049Y003384D01*
X033049Y002782D01*
X033149Y002782D01*
X033149Y003384D01*
X033229Y003384D01*
X033469Y003285D01*
X033653Y003101D01*
X033752Y002862D01*
X033752Y002782D01*
X033150Y002782D01*
X033150Y002682D01*
X033752Y002682D01*
X033752Y002602D01*
X033653Y002362D01*
X033469Y002179D01*
X033229Y002079D01*
X033149Y002079D01*
X033149Y002682D01*
X033049Y002682D01*
X032447Y002682D01*
X032447Y002602D01*
X032546Y002362D01*
X032730Y002179D01*
X032970Y002079D01*
X033049Y002079D01*
X033049Y002682D01*
X033049Y002597D02*
X033149Y002597D01*
X033150Y002695D02*
X035049Y002695D01*
X035049Y002682D02*
X035049Y002782D01*
X034447Y002782D01*
X034447Y002862D01*
X034546Y003101D01*
X034730Y003285D01*
X034970Y003384D01*
X035049Y003384D01*
X035049Y002782D01*
X035149Y002782D01*
X035149Y003384D01*
X035229Y003384D01*
X035469Y003285D01*
X035653Y003101D01*
X035752Y002862D01*
X035752Y002782D01*
X035150Y002782D01*
X035150Y002682D01*
X035752Y002682D01*
X035752Y002602D01*
X035653Y002362D01*
X035469Y002179D01*
X035229Y002079D01*
X035149Y002079D01*
X035149Y002682D01*
X035049Y002682D01*
X034447Y002682D01*
X034447Y002602D01*
X034546Y002362D01*
X034730Y002179D01*
X034970Y002079D01*
X035049Y002079D01*
X035049Y002682D01*
X035049Y002597D02*
X035149Y002597D01*
X035150Y002695D02*
X036865Y002695D01*
X036808Y002597D02*
X035750Y002597D01*
X035709Y002498D02*
X036751Y002498D01*
X036694Y002400D02*
X035668Y002400D01*
X035592Y002301D02*
X036665Y002301D01*
X036638Y002203D02*
X035493Y002203D01*
X035289Y002104D02*
X036612Y002104D01*
X036594Y002006D02*
X003479Y002006D01*
X003479Y001907D02*
X036594Y001907D01*
X036594Y001809D02*
X003479Y001809D01*
X003479Y001710D02*
X036594Y001710D01*
X036611Y001611D02*
X003462Y001611D01*
X003436Y001513D02*
X036638Y001513D01*
X036664Y001414D02*
X003410Y001414D01*
X003381Y001316D02*
X036693Y001316D01*
X036750Y001217D02*
X003324Y001217D01*
X003267Y001119D02*
X036807Y001119D01*
X036864Y001020D02*
X003210Y001020D01*
X003116Y000922D02*
X036958Y000922D01*
X037056Y000823D02*
X003017Y000823D01*
X002898Y000725D02*
X037176Y000725D01*
X037346Y000626D02*
X002728Y000626D01*
X003462Y002104D02*
X016910Y002104D01*
X017049Y002104D02*
X017149Y002104D01*
X017149Y002203D02*
X017049Y002203D01*
X017049Y002301D02*
X017149Y002301D01*
X017149Y002400D02*
X017049Y002400D01*
X017049Y002498D02*
X017149Y002498D01*
X017149Y002794D02*
X017049Y002794D01*
X017049Y002892D02*
X017149Y002892D01*
X017149Y002991D02*
X017049Y002991D01*
X017049Y003090D02*
X017149Y003090D01*
X017149Y003188D02*
X017049Y003188D01*
X017049Y003287D02*
X017149Y003287D01*
X017465Y003287D02*
X017985Y003287D01*
X018009Y003277D02*
X017842Y003346D01*
X017714Y003474D01*
X017644Y003641D01*
X017644Y003822D01*
X017714Y003990D01*
X017842Y004118D01*
X018009Y004187D01*
X018190Y004187D01*
X018357Y004118D01*
X018485Y003990D01*
X018554Y003822D01*
X018554Y003641D01*
X018485Y003474D01*
X018357Y003346D01*
X018190Y003277D01*
X018009Y003277D01*
X018214Y003287D02*
X018734Y003287D01*
X018633Y003188D02*
X017566Y003188D01*
X017657Y003090D02*
X018541Y003090D01*
X018500Y002991D02*
X017698Y002991D01*
X017739Y002892D02*
X018460Y002892D01*
X018447Y002794D02*
X017752Y002794D01*
X017750Y002597D02*
X018449Y002597D01*
X018490Y002498D02*
X017709Y002498D01*
X017668Y002400D02*
X018531Y002400D01*
X018607Y002301D02*
X017592Y002301D01*
X017493Y002203D02*
X018706Y002203D01*
X018910Y002104D02*
X017289Y002104D01*
X016706Y002203D02*
X003435Y002203D01*
X003409Y002301D02*
X016607Y002301D01*
X016531Y002400D02*
X003379Y002400D01*
X003322Y002498D02*
X016490Y002498D01*
X016449Y002597D02*
X003266Y002597D01*
X000599Y003385D02*
X017803Y003385D01*
X017710Y003484D02*
X000599Y003484D01*
X000599Y003582D02*
X017669Y003582D01*
X017644Y003681D02*
X000599Y003681D01*
X000599Y003779D02*
X017644Y003779D01*
X017667Y003878D02*
X000599Y003878D01*
X000599Y003976D02*
X017708Y003976D01*
X017799Y004075D02*
X000599Y004075D01*
X000599Y004174D02*
X016742Y004174D01*
X016730Y004179D02*
X016546Y004362D01*
X016447Y004602D01*
X016447Y004682D01*
X017049Y004682D01*
X017049Y004782D01*
X016447Y004782D01*
X016447Y004862D01*
X016546Y005101D01*
X016730Y005285D01*
X016970Y005384D01*
X017049Y005384D01*
X017049Y004782D01*
X017149Y004782D01*
X017149Y005384D01*
X017229Y005384D01*
X017469Y005285D01*
X017653Y005101D01*
X017752Y004862D01*
X017752Y004782D01*
X017150Y004782D01*
X017150Y004682D01*
X017752Y004682D01*
X017752Y004602D01*
X017653Y004362D01*
X017469Y004179D01*
X017229Y004079D01*
X017149Y004079D01*
X017149Y004682D01*
X017049Y004682D01*
X017049Y004079D01*
X016970Y004079D01*
X016730Y004179D01*
X016636Y004272D02*
X000599Y004272D01*
X000599Y004371D02*
X016543Y004371D01*
X016502Y004469D02*
X000599Y004469D01*
X000599Y004568D02*
X016461Y004568D01*
X016447Y004666D02*
X000599Y004666D01*
X000599Y004765D02*
X017049Y004765D01*
X017049Y004863D02*
X017149Y004863D01*
X017150Y004765D02*
X019049Y004765D01*
X019049Y004782D02*
X018447Y004782D01*
X018447Y004862D01*
X018546Y005101D01*
X018730Y005285D01*
X018970Y005384D01*
X019049Y005384D01*
X019049Y004782D01*
X019049Y004682D01*
X018447Y004682D01*
X018447Y004602D01*
X018546Y004362D01*
X018730Y004179D01*
X018970Y004079D01*
X019049Y004079D01*
X019049Y004682D01*
X019149Y004682D01*
X019149Y004079D01*
X019229Y004079D01*
X019469Y004179D01*
X019653Y004362D01*
X019752Y004602D01*
X019752Y004682D01*
X019150Y004682D01*
X019150Y004782D01*
X019752Y004782D01*
X019752Y004862D01*
X019653Y005101D01*
X019469Y005285D01*
X019229Y005384D01*
X019149Y005384D01*
X019149Y004782D01*
X019049Y004782D01*
X019049Y004863D02*
X019149Y004863D01*
X019150Y004765D02*
X021549Y004765D01*
X021549Y004782D02*
X020947Y004782D01*
X020947Y004862D01*
X021046Y005101D01*
X021230Y005285D01*
X021470Y005384D01*
X021549Y005384D01*
X021549Y004782D01*
X021549Y004682D01*
X020947Y004682D01*
X020947Y004602D01*
X021046Y004362D01*
X021230Y004179D01*
X021470Y004079D01*
X021549Y004079D01*
X021549Y004682D01*
X021649Y004682D01*
X021649Y004079D01*
X021729Y004079D01*
X021969Y004179D01*
X022153Y004362D01*
X022252Y004602D01*
X022252Y004682D01*
X021650Y004682D01*
X021650Y004782D01*
X022252Y004782D01*
X022252Y004862D01*
X022153Y005101D01*
X021969Y005285D01*
X021729Y005384D01*
X021649Y005384D01*
X021649Y004782D01*
X021549Y004782D01*
X021549Y004863D02*
X021649Y004863D01*
X021650Y004765D02*
X023549Y004765D01*
X023549Y004782D02*
X022947Y004782D01*
X022947Y004862D01*
X023046Y005101D01*
X023230Y005285D01*
X023470Y005384D01*
X023549Y005384D01*
X023549Y004782D01*
X023549Y004682D01*
X022947Y004682D01*
X022947Y004602D01*
X023046Y004362D01*
X023230Y004179D01*
X023470Y004079D01*
X023549Y004079D01*
X023549Y004682D01*
X023649Y004682D01*
X023649Y004079D01*
X023729Y004079D01*
X023969Y004179D01*
X024153Y004362D01*
X024252Y004602D01*
X024252Y004682D01*
X023650Y004682D01*
X023650Y004782D01*
X024252Y004782D01*
X024252Y004862D01*
X024153Y005101D01*
X023969Y005285D01*
X023729Y005384D01*
X023649Y005384D01*
X023649Y004782D01*
X023549Y004782D01*
X023549Y004863D02*
X023649Y004863D01*
X023650Y004765D02*
X028549Y004765D01*
X028549Y004782D02*
X027947Y004782D01*
X027947Y004862D01*
X028046Y005101D01*
X028230Y005285D01*
X028470Y005384D01*
X028549Y005384D01*
X028549Y004782D01*
X028549Y004682D01*
X027947Y004682D01*
X027947Y004602D01*
X028046Y004362D01*
X028230Y004179D01*
X028470Y004079D01*
X028549Y004079D01*
X028549Y004682D01*
X028649Y004682D01*
X028649Y004079D01*
X028729Y004079D01*
X028969Y004179D01*
X029153Y004362D01*
X029252Y004602D01*
X029252Y004682D01*
X028650Y004682D01*
X028650Y004782D01*
X029252Y004782D01*
X029252Y004862D01*
X029153Y005101D01*
X028969Y005285D01*
X028729Y005384D01*
X028649Y005384D01*
X028649Y004782D01*
X028549Y004782D01*
X028549Y004863D02*
X028649Y004863D01*
X028650Y004765D02*
X030549Y004765D01*
X030549Y004782D02*
X029947Y004782D01*
X029947Y004862D01*
X030046Y005101D01*
X030230Y005285D01*
X030470Y005384D01*
X030549Y005384D01*
X030549Y004782D01*
X030549Y004682D01*
X029947Y004682D01*
X029947Y004602D01*
X030046Y004362D01*
X030230Y004179D01*
X030470Y004079D01*
X030549Y004079D01*
X030549Y004682D01*
X030649Y004682D01*
X030649Y004079D01*
X030729Y004079D01*
X030969Y004179D01*
X031153Y004362D01*
X031252Y004602D01*
X031252Y004682D01*
X030650Y004682D01*
X030650Y004782D01*
X031252Y004782D01*
X031252Y004862D01*
X031153Y005101D01*
X030969Y005285D01*
X030729Y005384D01*
X030649Y005384D01*
X030649Y004782D01*
X030549Y004782D01*
X030549Y004863D02*
X030649Y004863D01*
X030650Y004765D02*
X033049Y004765D01*
X033049Y004782D02*
X032447Y004782D01*
X032447Y004862D01*
X032546Y005101D01*
X032730Y005285D01*
X032970Y005384D01*
X033049Y005384D01*
X033049Y004782D01*
X033049Y004682D01*
X032447Y004682D01*
X032447Y004602D01*
X032546Y004362D01*
X032730Y004179D01*
X032970Y004079D01*
X033049Y004079D01*
X033049Y004682D01*
X033149Y004682D01*
X033149Y004079D01*
X033229Y004079D01*
X033469Y004179D01*
X033653Y004362D01*
X033752Y004602D01*
X033752Y004682D01*
X033150Y004682D01*
X033150Y004782D01*
X033752Y004782D01*
X033752Y004862D01*
X033653Y005101D01*
X033469Y005285D01*
X033229Y005384D01*
X033149Y005384D01*
X033149Y004782D01*
X033049Y004782D01*
X033049Y004863D02*
X033149Y004863D01*
X033150Y004765D02*
X035049Y004765D01*
X035049Y004782D02*
X034447Y004782D01*
X034447Y004862D01*
X034546Y005101D01*
X034730Y005285D01*
X034970Y005384D01*
X035049Y005384D01*
X035049Y004782D01*
X035049Y004682D01*
X034447Y004682D01*
X034447Y004602D01*
X034546Y004362D01*
X034730Y004179D01*
X034970Y004079D01*
X035049Y004079D01*
X035049Y004682D01*
X035149Y004682D01*
X035149Y004079D01*
X035229Y004079D01*
X035469Y004179D01*
X035653Y004362D01*
X035752Y004602D01*
X035752Y004682D01*
X035150Y004682D01*
X035150Y004782D01*
X035752Y004782D01*
X035752Y004862D01*
X035653Y005101D01*
X035469Y005285D01*
X035229Y005384D01*
X035149Y005384D01*
X035149Y004782D01*
X035049Y004782D01*
X035049Y004863D02*
X035149Y004863D01*
X035150Y004765D02*
X039099Y004765D01*
X039099Y004863D02*
X035751Y004863D01*
X035710Y004962D02*
X039099Y004962D01*
X039099Y005060D02*
X035670Y005060D01*
X035595Y005159D02*
X039099Y005159D01*
X039099Y005258D02*
X035496Y005258D01*
X035297Y005356D02*
X039099Y005356D01*
X039099Y005455D02*
X000599Y005455D01*
X000599Y005553D02*
X039099Y005553D01*
X039099Y005652D02*
X000599Y005652D01*
X000599Y005750D02*
X039099Y005750D01*
X039099Y005849D02*
X000599Y005849D01*
X000599Y005947D02*
X039099Y005947D01*
X039099Y006046D02*
X037418Y006046D01*
X037402Y006029D02*
X037206Y005948D01*
X037149Y005948D01*
X037149Y006432D01*
X037049Y006432D01*
X037049Y006532D01*
X036566Y006532D01*
X036566Y006588D01*
X036647Y006784D01*
X036797Y006934D01*
X036926Y006988D01*
X036670Y006988D01*
X036606Y007052D01*
X036606Y007911D01*
X036670Y007976D01*
X037529Y007976D01*
X037593Y007911D01*
X037593Y007052D01*
X037529Y006988D01*
X037272Y006988D01*
X037402Y006934D01*
X037552Y006784D01*
X037633Y006588D01*
X037633Y006532D01*
X037150Y006532D01*
X037150Y006432D01*
X037633Y006432D01*
X037633Y006376D01*
X037552Y006179D01*
X037402Y006029D01*
X037517Y006144D02*
X039099Y006144D01*
X039099Y006243D02*
X037578Y006243D01*
X037619Y006341D02*
X039099Y006341D01*
X039099Y006440D02*
X037150Y006440D01*
X037149Y006341D02*
X037049Y006341D01*
X037049Y006432D02*
X037049Y005948D01*
X036993Y005948D01*
X036797Y006029D01*
X036647Y006179D01*
X036566Y006376D01*
X036566Y006432D01*
X037049Y006432D01*
X037049Y006440D02*
X000599Y006440D01*
X000599Y006341D02*
X036580Y006341D01*
X036621Y006243D02*
X000599Y006243D01*
X000599Y006144D02*
X036682Y006144D01*
X036780Y006046D02*
X000599Y006046D01*
X000599Y006539D02*
X036566Y006539D01*
X036586Y006637D02*
X000599Y006637D01*
X000599Y006736D02*
X036627Y006736D01*
X036697Y006834D02*
X000599Y006834D01*
X000599Y006933D02*
X036795Y006933D01*
X036627Y007031D02*
X000599Y007031D01*
X000599Y007130D02*
X036606Y007130D01*
X036606Y007228D02*
X032930Y007228D01*
X032902Y007217D02*
X032797Y007217D01*
X032699Y007257D01*
X032625Y007332D01*
X032584Y007429D01*
X032584Y007535D01*
X032625Y007632D01*
X032699Y007706D01*
X032797Y007747D01*
X032902Y007747D01*
X032999Y007706D01*
X033074Y007632D01*
X033114Y007535D01*
X033114Y007429D01*
X033074Y007332D01*
X032999Y007257D01*
X032902Y007217D01*
X032769Y007228D02*
X000599Y007228D01*
X000599Y007327D02*
X032630Y007327D01*
X032586Y007425D02*
X000599Y007425D01*
X000599Y007524D02*
X032584Y007524D01*
X032621Y007623D02*
X011226Y007623D01*
X011249Y007632D02*
X011152Y007592D01*
X011047Y007592D01*
X010949Y007632D01*
X010875Y007707D01*
X010834Y007804D01*
X010834Y007910D01*
X010875Y008007D01*
X010929Y008062D01*
X010929Y019286D01*
X010929Y019427D01*
X011113Y019611D01*
X011084Y019679D01*
X011084Y019785D01*
X011125Y019882D01*
X011199Y019956D01*
X011297Y019997D01*
X011402Y019997D01*
X011499Y019956D01*
X011574Y019882D01*
X011614Y019785D01*
X011614Y019679D01*
X011574Y019582D01*
X011499Y019507D01*
X011484Y019501D01*
X011420Y019437D01*
X011269Y019286D01*
X011269Y008062D01*
X011324Y008007D01*
X011364Y007910D01*
X011364Y007804D01*
X011324Y007707D01*
X011249Y007632D01*
X011330Y007721D02*
X032735Y007721D01*
X032964Y007721D02*
X036606Y007721D01*
X036606Y007623D02*
X033078Y007623D01*
X033114Y007524D02*
X036606Y007524D01*
X036606Y007425D02*
X033113Y007425D01*
X033069Y007327D02*
X036606Y007327D01*
X036606Y007820D02*
X011364Y007820D01*
X011361Y007918D02*
X036613Y007918D01*
X037586Y007918D02*
X039099Y007918D01*
X039099Y007820D02*
X037593Y007820D01*
X037593Y007721D02*
X039099Y007721D01*
X039099Y007623D02*
X037593Y007623D01*
X037593Y007524D02*
X039099Y007524D01*
X039099Y007425D02*
X037593Y007425D01*
X037593Y007327D02*
X039099Y007327D01*
X039099Y007228D02*
X037593Y007228D01*
X037593Y007130D02*
X039099Y007130D01*
X039099Y007031D02*
X037572Y007031D01*
X037403Y006933D02*
X039099Y006933D01*
X039099Y006834D02*
X037502Y006834D01*
X037572Y006736D02*
X039099Y006736D01*
X039099Y006637D02*
X037613Y006637D01*
X037633Y006539D02*
X039099Y006539D01*
X039099Y008017D02*
X011314Y008017D01*
X011269Y008115D02*
X039099Y008115D01*
X039099Y008214D02*
X011269Y008214D01*
X011269Y008312D02*
X039099Y008312D01*
X039099Y008411D02*
X011269Y008411D01*
X011269Y008509D02*
X039099Y008509D01*
X039099Y008608D02*
X011269Y008608D01*
X011269Y008707D02*
X039099Y008707D01*
X039099Y008805D02*
X011269Y008805D01*
X011269Y008904D02*
X039099Y008904D01*
X039099Y009002D02*
X011269Y009002D01*
X011269Y009101D02*
X039099Y009101D01*
X039099Y009199D02*
X011269Y009199D01*
X011269Y009298D02*
X039099Y009298D01*
X039099Y009396D02*
X011269Y009396D01*
X011269Y009495D02*
X039099Y009495D01*
X039099Y009593D02*
X011269Y009593D01*
X011269Y009692D02*
X039099Y009692D01*
X039099Y009791D02*
X011269Y009791D01*
X011269Y009889D02*
X039099Y009889D01*
X039099Y009988D02*
X011269Y009988D01*
X011269Y010086D02*
X039099Y010086D01*
X039099Y010185D02*
X011269Y010185D01*
X011269Y010283D02*
X033948Y010283D01*
X034050Y010241D02*
X033777Y010354D01*
X033569Y010562D01*
X033456Y010834D01*
X033456Y010932D01*
X034147Y010932D01*
X034147Y011032D01*
X034247Y011032D01*
X034247Y011722D01*
X034344Y011722D01*
X034616Y011610D01*
X034825Y011401D01*
X034937Y011129D01*
X034937Y011032D01*
X034247Y011032D01*
X034247Y010932D01*
X034937Y010932D01*
X034937Y010834D01*
X034825Y010562D01*
X034616Y010354D01*
X034344Y010241D01*
X034247Y010241D01*
X034247Y010932D01*
X034147Y010932D01*
X034147Y010241D01*
X034050Y010241D01*
X034147Y010283D02*
X034247Y010283D01*
X034247Y010382D02*
X034147Y010382D01*
X034147Y010480D02*
X034247Y010480D01*
X034247Y010579D02*
X034147Y010579D01*
X034147Y010677D02*
X034247Y010677D01*
X034247Y010776D02*
X034147Y010776D01*
X034147Y010874D02*
X034247Y010874D01*
X034247Y010973D02*
X038202Y010973D01*
X038202Y010932D02*
X038202Y011032D01*
X038302Y011032D01*
X038302Y011722D01*
X038399Y011722D01*
X038671Y011610D01*
X038880Y011401D01*
X038992Y011129D01*
X038992Y011032D01*
X038302Y011032D01*
X038302Y010932D01*
X038992Y010932D01*
X038992Y010834D01*
X038880Y010562D01*
X038671Y010354D01*
X038399Y010241D01*
X038302Y010241D01*
X038302Y010932D01*
X038202Y010932D01*
X037511Y010932D01*
X037511Y010834D01*
X037624Y010562D01*
X037832Y010354D01*
X038105Y010241D01*
X038202Y010241D01*
X038202Y010932D01*
X038202Y010874D02*
X038302Y010874D01*
X038302Y010776D02*
X038202Y010776D01*
X038202Y010677D02*
X038302Y010677D01*
X038302Y010579D02*
X038202Y010579D01*
X038202Y010480D02*
X038302Y010480D01*
X038302Y010382D02*
X038202Y010382D01*
X038202Y010283D02*
X038302Y010283D01*
X038501Y010283D02*
X039099Y010283D01*
X039099Y010382D02*
X038699Y010382D01*
X038798Y010480D02*
X039099Y010480D01*
X039099Y010579D02*
X038887Y010579D01*
X038927Y010677D02*
X039099Y010677D01*
X039099Y010776D02*
X038968Y010776D01*
X038992Y010874D02*
X039099Y010874D01*
X039099Y010973D02*
X038302Y010973D01*
X038302Y011072D02*
X038202Y011072D01*
X038202Y011032D02*
X038202Y011722D01*
X038105Y011722D01*
X037832Y011610D01*
X037624Y011401D01*
X037511Y011129D01*
X037511Y011032D01*
X038202Y011032D01*
X038202Y011170D02*
X038302Y011170D01*
X038302Y011269D02*
X038202Y011269D01*
X038202Y011367D02*
X038302Y011367D01*
X038302Y011466D02*
X038202Y011466D01*
X038202Y011564D02*
X038302Y011564D01*
X038302Y011663D02*
X038202Y011663D01*
X037961Y011663D02*
X036836Y011663D01*
X036836Y011733D02*
X036836Y011490D01*
X036743Y011265D01*
X036571Y011093D01*
X036346Y011000D01*
X036103Y011000D01*
X035878Y011093D01*
X035706Y011265D01*
X035612Y011490D01*
X035612Y011733D01*
X035706Y011958D01*
X011269Y011958D01*
X011269Y011860D02*
X035665Y011860D01*
X035706Y011958D02*
X035878Y012131D01*
X036103Y012224D01*
X036346Y012224D01*
X036571Y012131D01*
X036743Y011958D01*
X036836Y011733D01*
X036825Y011761D02*
X039099Y011761D01*
X039099Y011663D02*
X038543Y011663D01*
X038717Y011564D02*
X039099Y011564D01*
X039099Y011466D02*
X038815Y011466D01*
X038894Y011367D02*
X039099Y011367D01*
X039099Y011269D02*
X038935Y011269D01*
X038975Y011170D02*
X039099Y011170D01*
X039099Y011072D02*
X038992Y011072D01*
X039099Y011860D02*
X036784Y011860D01*
X036743Y011958D02*
X039099Y011958D01*
X039099Y012057D02*
X036645Y012057D01*
X036511Y012156D02*
X039099Y012156D01*
X039099Y012254D02*
X011269Y012254D01*
X011269Y012156D02*
X035938Y012156D01*
X035804Y012057D02*
X011269Y012057D01*
X011269Y012353D02*
X039099Y012353D01*
X039099Y012451D02*
X011269Y012451D01*
X011269Y012550D02*
X039099Y012550D01*
X039099Y012648D02*
X011269Y012648D01*
X011269Y012747D02*
X039099Y012747D01*
X039099Y012845D02*
X011269Y012845D01*
X011269Y012944D02*
X039099Y012944D01*
X039099Y013042D02*
X011269Y013042D01*
X011269Y013141D02*
X039099Y013141D01*
X039099Y013240D02*
X011269Y013240D01*
X011269Y013338D02*
X039099Y013338D01*
X039099Y013437D02*
X011269Y013437D01*
X011269Y013535D02*
X039099Y013535D01*
X039099Y013634D02*
X011269Y013634D01*
X011269Y013732D02*
X039099Y013732D01*
X039099Y013831D02*
X011269Y013831D01*
X011269Y013929D02*
X039099Y013929D01*
X039099Y014028D02*
X011269Y014028D01*
X011269Y014126D02*
X039099Y014126D01*
X039099Y014225D02*
X011269Y014225D01*
X011269Y014324D02*
X039099Y014324D01*
X039099Y014422D02*
X011269Y014422D01*
X011269Y014521D02*
X039099Y014521D01*
X039099Y014619D02*
X011269Y014619D01*
X011269Y014718D02*
X039099Y014718D01*
X039099Y014816D02*
X011269Y014816D01*
X011269Y014915D02*
X039099Y014915D01*
X039099Y015013D02*
X011269Y015013D01*
X011269Y015112D02*
X039099Y015112D01*
X039099Y015210D02*
X011269Y015210D01*
X011269Y015309D02*
X039099Y015309D01*
X039099Y015407D02*
X021025Y015407D01*
X020999Y015382D02*
X020902Y015342D01*
X020797Y015342D01*
X020699Y015382D01*
X020625Y015457D01*
X020584Y015554D01*
X020584Y015660D01*
X020625Y015757D01*
X020699Y015831D01*
X020797Y015872D01*
X020902Y015872D01*
X020999Y015831D01*
X021074Y015757D01*
X021114Y015660D01*
X021114Y015554D01*
X021074Y015457D01*
X020999Y015382D01*
X021094Y015506D02*
X039099Y015506D01*
X039099Y015605D02*
X021114Y015605D01*
X021096Y015703D02*
X039099Y015703D01*
X039099Y015802D02*
X038545Y015802D01*
X038671Y015854D02*
X038399Y015741D01*
X038302Y015741D01*
X038302Y016432D01*
X038992Y016432D01*
X038992Y016334D01*
X038880Y016062D01*
X038671Y015854D01*
X038718Y015900D02*
X039099Y015900D01*
X039099Y015999D02*
X038816Y015999D01*
X038894Y016097D02*
X039099Y016097D01*
X039099Y016196D02*
X038935Y016196D01*
X038976Y016294D02*
X039099Y016294D01*
X039099Y016393D02*
X038992Y016393D01*
X038992Y016532D02*
X038302Y016532D01*
X038302Y017222D01*
X038399Y017222D01*
X038671Y017110D01*
X038880Y016901D01*
X038992Y016629D01*
X038992Y016532D01*
X038992Y016590D02*
X039099Y016590D01*
X039099Y016689D02*
X038968Y016689D01*
X038927Y016787D02*
X039099Y016787D01*
X039099Y016886D02*
X038886Y016886D01*
X038797Y016984D02*
X039099Y016984D01*
X039099Y017083D02*
X038698Y017083D01*
X038498Y017181D02*
X039099Y017181D01*
X039099Y017280D02*
X036817Y017280D01*
X036836Y017233D02*
X036836Y016990D01*
X036743Y016765D01*
X036571Y016593D01*
X036346Y016500D01*
X036103Y016500D01*
X035878Y016593D01*
X035706Y016765D01*
X035612Y016990D01*
X035612Y017233D01*
X035706Y017458D01*
X035878Y017631D01*
X036103Y017724D01*
X036346Y017724D01*
X036571Y017631D01*
X036743Y017458D01*
X036836Y017233D01*
X036836Y017181D02*
X038005Y017181D01*
X038105Y017222D02*
X038202Y017222D01*
X038202Y016532D01*
X038302Y016532D01*
X038302Y016432D01*
X038202Y016432D01*
X038202Y016532D01*
X037511Y016532D01*
X037511Y016629D01*
X037624Y016901D01*
X037832Y017110D01*
X038105Y017222D01*
X038202Y017181D02*
X038302Y017181D01*
X038302Y017083D02*
X038202Y017083D01*
X038202Y016984D02*
X038302Y016984D01*
X038302Y016886D02*
X038202Y016886D01*
X038202Y016787D02*
X038302Y016787D01*
X038302Y016689D02*
X038202Y016689D01*
X038202Y016590D02*
X038302Y016590D01*
X038302Y016491D02*
X039099Y016491D01*
X038302Y016393D02*
X038202Y016393D01*
X038202Y016432D02*
X038202Y015741D01*
X038105Y015741D01*
X037832Y015854D01*
X037624Y016062D01*
X037511Y016334D01*
X037511Y016432D01*
X038202Y016432D01*
X038202Y016491D02*
X034247Y016491D01*
X034247Y016532D02*
X034247Y016432D01*
X034937Y016432D01*
X034937Y016334D01*
X034825Y016062D01*
X034616Y015854D01*
X034344Y015741D01*
X034247Y015741D01*
X034247Y016432D01*
X034147Y016432D01*
X034147Y016532D01*
X034247Y016532D01*
X034247Y017222D01*
X034344Y017222D01*
X034616Y017110D01*
X034825Y016901D01*
X034937Y016629D01*
X034937Y016532D01*
X034247Y016532D01*
X034247Y016590D02*
X034147Y016590D01*
X034147Y016532D02*
X034147Y017222D01*
X034050Y017222D01*
X033777Y017110D01*
X033569Y016901D01*
X033456Y016629D01*
X033456Y016532D01*
X034147Y016532D01*
X034147Y016491D02*
X011269Y016491D01*
X011269Y016393D02*
X033456Y016393D01*
X033456Y016432D02*
X034147Y016432D01*
X034147Y015741D01*
X034050Y015741D01*
X033777Y015854D01*
X033569Y016062D01*
X033456Y016334D01*
X033456Y016432D01*
X033473Y016294D02*
X030287Y016294D01*
X030324Y016257D02*
X030364Y016160D01*
X030364Y016054D01*
X030324Y015957D01*
X030249Y015882D01*
X030152Y015842D01*
X030047Y015842D01*
X029949Y015882D01*
X029875Y015957D01*
X029834Y016054D01*
X029834Y016160D01*
X029875Y016257D01*
X029949Y016331D01*
X030047Y016372D01*
X030152Y016372D01*
X030249Y016331D01*
X030324Y016257D01*
X030349Y016196D02*
X033514Y016196D01*
X033555Y016097D02*
X030364Y016097D01*
X030341Y015999D02*
X033633Y015999D01*
X033731Y015900D02*
X030268Y015900D01*
X029931Y015900D02*
X026143Y015900D01*
X026124Y015882D02*
X026027Y015842D01*
X025922Y015842D01*
X025824Y015882D01*
X025750Y015957D01*
X025709Y016054D01*
X025709Y016160D01*
X025750Y016257D01*
X025824Y016331D01*
X025922Y016372D01*
X026027Y016372D01*
X026124Y016331D01*
X026199Y016257D01*
X026239Y016160D01*
X026239Y016054D01*
X026199Y015957D01*
X026124Y015882D01*
X026216Y015999D02*
X029857Y015999D01*
X029834Y016097D02*
X026239Y016097D01*
X026224Y016196D02*
X029849Y016196D01*
X029912Y016294D02*
X026162Y016294D01*
X025787Y016294D02*
X024662Y016294D01*
X024699Y016257D02*
X024624Y016331D01*
X024527Y016372D01*
X024422Y016372D01*
X024324Y016331D01*
X024250Y016257D01*
X024209Y016160D01*
X024209Y016054D01*
X024250Y015957D01*
X024324Y015882D01*
X024422Y015842D01*
X024527Y015842D01*
X024624Y015882D01*
X024699Y015957D01*
X024739Y016054D01*
X024739Y016160D01*
X024699Y016257D01*
X024724Y016196D02*
X025724Y016196D01*
X025709Y016097D02*
X024739Y016097D01*
X024716Y015999D02*
X025732Y015999D01*
X025806Y015900D02*
X024643Y015900D01*
X024306Y015900D02*
X011269Y015900D01*
X011269Y015802D02*
X019670Y015802D01*
X019699Y015831D02*
X019797Y015872D01*
X019902Y015872D01*
X019999Y015831D01*
X020074Y015757D01*
X020114Y015660D01*
X020114Y015554D01*
X020074Y015457D01*
X019999Y015382D01*
X019902Y015342D01*
X019797Y015342D01*
X019699Y015382D01*
X019625Y015457D01*
X019584Y015554D01*
X019584Y015660D01*
X019625Y015757D01*
X019699Y015831D01*
X019602Y015703D02*
X011269Y015703D01*
X011269Y015605D02*
X019584Y015605D01*
X019604Y015506D02*
X011269Y015506D01*
X011269Y015407D02*
X019674Y015407D01*
X020025Y015407D02*
X020674Y015407D01*
X020604Y015506D02*
X020094Y015506D01*
X020114Y015605D02*
X020584Y015605D01*
X020602Y015703D02*
X020096Y015703D01*
X020029Y015802D02*
X020670Y015802D01*
X021029Y015802D02*
X033904Y015802D01*
X034147Y015802D02*
X034247Y015802D01*
X034247Y015900D02*
X034147Y015900D01*
X034147Y015999D02*
X034247Y015999D01*
X034247Y016097D02*
X034147Y016097D01*
X034147Y016196D02*
X034247Y016196D01*
X034247Y016294D02*
X034147Y016294D01*
X034147Y016393D02*
X034247Y016393D01*
X034247Y016689D02*
X034147Y016689D01*
X034147Y016787D02*
X034247Y016787D01*
X034247Y016886D02*
X034147Y016886D01*
X034147Y016984D02*
X034247Y016984D01*
X034247Y017083D02*
X034147Y017083D01*
X034147Y017181D02*
X034247Y017181D01*
X034443Y017181D02*
X035612Y017181D01*
X035612Y017083D02*
X034643Y017083D01*
X034742Y016984D02*
X035615Y016984D01*
X035656Y016886D02*
X034831Y016886D01*
X034872Y016787D02*
X035696Y016787D01*
X035782Y016689D02*
X034913Y016689D01*
X034937Y016590D02*
X035885Y016590D01*
X036564Y016590D02*
X037511Y016590D01*
X037536Y016689D02*
X036667Y016689D01*
X036752Y016787D02*
X037577Y016787D01*
X037618Y016886D02*
X036793Y016886D01*
X036834Y016984D02*
X037707Y016984D01*
X037806Y017083D02*
X036836Y017083D01*
X036776Y017378D02*
X039099Y017378D01*
X039099Y017477D02*
X036725Y017477D01*
X036626Y017575D02*
X039099Y017575D01*
X039099Y017674D02*
X036466Y017674D01*
X035983Y017674D02*
X011269Y017674D01*
X011269Y017773D02*
X039099Y017773D01*
X039099Y017871D02*
X011269Y017871D01*
X011269Y017970D02*
X039099Y017970D01*
X039099Y018068D02*
X011269Y018068D01*
X011269Y018167D02*
X039099Y018167D01*
X039099Y018265D02*
X011269Y018265D01*
X011269Y018364D02*
X039099Y018364D01*
X039099Y018462D02*
X011269Y018462D01*
X011269Y018561D02*
X039099Y018561D01*
X039099Y018659D02*
X011269Y018659D01*
X011269Y018758D02*
X039099Y018758D01*
X039099Y018856D02*
X011269Y018856D01*
X011269Y018955D02*
X039099Y018955D01*
X039099Y019054D02*
X011269Y019054D01*
X011269Y019152D02*
X039099Y019152D01*
X039099Y019251D02*
X037333Y019251D01*
X037402Y019279D02*
X037206Y019198D01*
X037149Y019198D01*
X037149Y019682D01*
X037049Y019682D01*
X037049Y019782D01*
X036566Y019782D01*
X036566Y019838D01*
X036647Y020034D01*
X036797Y020184D01*
X036926Y020238D01*
X036670Y020238D01*
X036606Y020302D01*
X036606Y021161D01*
X036670Y021226D01*
X037529Y021226D01*
X037593Y021161D01*
X037593Y020302D01*
X037529Y020238D01*
X037272Y020238D01*
X037402Y020184D01*
X037552Y020034D01*
X037633Y019838D01*
X037633Y019782D01*
X037150Y019782D01*
X037150Y019682D01*
X037633Y019682D01*
X037633Y019626D01*
X037552Y019429D01*
X037402Y019279D01*
X037472Y019349D02*
X039099Y019349D01*
X039099Y019448D02*
X037560Y019448D01*
X037600Y019546D02*
X039099Y019546D01*
X039099Y019645D02*
X037633Y019645D01*
X037632Y019842D02*
X039099Y019842D01*
X039099Y019940D02*
X037591Y019940D01*
X037547Y020039D02*
X039099Y020039D01*
X039099Y020138D02*
X037449Y020138D01*
X037277Y020236D02*
X039099Y020236D01*
X039099Y020335D02*
X037593Y020335D01*
X037593Y020433D02*
X039099Y020433D01*
X039099Y020532D02*
X037593Y020532D01*
X037593Y020630D02*
X039099Y020630D01*
X039099Y020729D02*
X037593Y020729D01*
X037593Y020827D02*
X039099Y020827D01*
X039099Y020926D02*
X037593Y020926D01*
X037593Y021024D02*
X039099Y021024D01*
X039099Y021123D02*
X037593Y021123D01*
X037533Y021222D02*
X039099Y021222D01*
X039099Y021320D02*
X000599Y021320D01*
X000599Y021222D02*
X036666Y021222D01*
X036606Y021123D02*
X000599Y021123D01*
X000599Y021024D02*
X036606Y021024D01*
X036606Y020926D02*
X000599Y020926D01*
X000599Y020827D02*
X036606Y020827D01*
X036606Y020729D02*
X000599Y020729D01*
X000599Y020630D02*
X036606Y020630D01*
X036606Y020532D02*
X000599Y020532D01*
X000599Y020433D02*
X036606Y020433D01*
X036606Y020335D02*
X010992Y020335D01*
X010999Y020331D02*
X011074Y020257D01*
X011114Y020160D01*
X011114Y020054D01*
X011074Y019957D01*
X010999Y019882D01*
X010902Y019842D01*
X010797Y019842D01*
X010699Y019882D01*
X010625Y019957D01*
X010584Y020054D01*
X010584Y020160D01*
X010625Y020257D01*
X010699Y020331D01*
X010797Y020372D01*
X010902Y020372D01*
X010999Y020331D01*
X011083Y020236D02*
X036922Y020236D01*
X036750Y020138D02*
X011114Y020138D01*
X011108Y020039D02*
X036652Y020039D01*
X036608Y019940D02*
X028390Y019940D01*
X028374Y019956D02*
X028449Y019882D01*
X028489Y019785D01*
X028489Y019679D01*
X028449Y019582D01*
X028374Y019507D01*
X028277Y019467D01*
X028172Y019467D01*
X028074Y019507D01*
X028000Y019582D01*
X027959Y019679D01*
X027959Y019785D01*
X028000Y019882D01*
X028074Y019956D01*
X028172Y019997D01*
X028277Y019997D01*
X028374Y019956D01*
X028466Y019842D02*
X029100Y019842D01*
X029074Y019831D02*
X029172Y019872D01*
X029277Y019872D01*
X029374Y019831D01*
X029449Y019757D01*
X029489Y019660D01*
X029489Y019554D01*
X029449Y019457D01*
X029374Y019382D01*
X029277Y019342D01*
X029172Y019342D01*
X029074Y019382D01*
X029000Y019457D01*
X028959Y019554D01*
X028959Y019660D01*
X029000Y019757D01*
X029074Y019831D01*
X028994Y019743D02*
X028489Y019743D01*
X028475Y019645D02*
X028959Y019645D01*
X028963Y019546D02*
X028414Y019546D01*
X028035Y019546D02*
X011539Y019546D01*
X011600Y019645D02*
X027974Y019645D01*
X027959Y019743D02*
X011614Y019743D01*
X011591Y019842D02*
X027983Y019842D01*
X028058Y019940D02*
X011515Y019940D01*
X011183Y019940D02*
X011058Y019940D01*
X011108Y019842D02*
X010902Y019842D01*
X010796Y019842D02*
X000599Y019842D01*
X000599Y019940D02*
X010641Y019940D01*
X010591Y020039D02*
X000599Y020039D01*
X000599Y020138D02*
X010584Y020138D01*
X010616Y020236D02*
X000599Y020236D01*
X000599Y020335D02*
X010707Y020335D01*
X011084Y019743D02*
X000599Y019743D01*
X000599Y019645D02*
X011099Y019645D01*
X011049Y019546D02*
X000599Y019546D01*
X000599Y019448D02*
X010950Y019448D01*
X010929Y019349D02*
X000599Y019349D01*
X000599Y019251D02*
X010929Y019251D01*
X010929Y019152D02*
X000599Y019152D01*
X000599Y019054D02*
X010929Y019054D01*
X010929Y018955D02*
X000599Y018955D01*
X000599Y018856D02*
X010929Y018856D01*
X010929Y018758D02*
X000599Y018758D01*
X000599Y018659D02*
X010929Y018659D01*
X010929Y018561D02*
X000599Y018561D01*
X000599Y018462D02*
X010929Y018462D01*
X010929Y018364D02*
X000599Y018364D01*
X000599Y018265D02*
X010929Y018265D01*
X010929Y018167D02*
X000599Y018167D01*
X000599Y018068D02*
X010929Y018068D01*
X010929Y017970D02*
X000599Y017970D01*
X000599Y017871D02*
X010929Y017871D01*
X010929Y017773D02*
X000599Y017773D01*
X000599Y017674D02*
X010929Y017674D01*
X010929Y017575D02*
X000599Y017575D01*
X000599Y017477D02*
X009374Y017477D01*
X009422Y017497D02*
X009527Y017497D01*
X009624Y017456D01*
X009699Y017382D01*
X009739Y017285D01*
X009739Y017179D01*
X009699Y017082D01*
X009624Y017007D01*
X009527Y016967D01*
X009422Y016967D01*
X009324Y017007D01*
X009250Y017082D01*
X009209Y017179D01*
X009209Y017285D01*
X009250Y017382D01*
X009324Y017456D01*
X009422Y017497D01*
X009575Y017477D02*
X010374Y017477D01*
X010422Y017497D02*
X010527Y017497D01*
X010624Y017456D01*
X010699Y017382D01*
X010739Y017285D01*
X010739Y017179D01*
X010699Y017082D01*
X010624Y017007D01*
X010527Y016967D01*
X010422Y016967D01*
X010324Y017007D01*
X010250Y017082D01*
X010209Y017179D01*
X010209Y017285D01*
X010250Y017382D01*
X010324Y017456D01*
X010422Y017497D01*
X010575Y017477D02*
X010929Y017477D01*
X010929Y017378D02*
X010700Y017378D01*
X010739Y017280D02*
X010929Y017280D01*
X010929Y017181D02*
X010739Y017181D01*
X010699Y017083D02*
X010929Y017083D01*
X010929Y016984D02*
X010569Y016984D01*
X010380Y016984D02*
X009569Y016984D01*
X009699Y017083D02*
X010249Y017083D01*
X010209Y017181D02*
X009739Y017181D01*
X009739Y017280D02*
X010209Y017280D01*
X010248Y017378D02*
X009700Y017378D01*
X009248Y017378D02*
X000599Y017378D01*
X000599Y017280D02*
X009209Y017280D01*
X009209Y017181D02*
X000599Y017181D01*
X000599Y017083D02*
X009249Y017083D01*
X009380Y016984D02*
X000599Y016984D01*
X000599Y016886D02*
X010929Y016886D01*
X010929Y016787D02*
X000599Y016787D01*
X000599Y016689D02*
X010929Y016689D01*
X010929Y016590D02*
X000599Y016590D01*
X000599Y016491D02*
X010929Y016491D01*
X010929Y016393D02*
X000599Y016393D01*
X000599Y016294D02*
X010929Y016294D01*
X010929Y016196D02*
X000599Y016196D01*
X000599Y016097D02*
X010929Y016097D01*
X010929Y015999D02*
X000599Y015999D01*
X000599Y015900D02*
X010929Y015900D01*
X010929Y015802D02*
X000599Y015802D01*
X000599Y015703D02*
X010929Y015703D01*
X010929Y015605D02*
X000599Y015605D01*
X000599Y015506D02*
X010929Y015506D01*
X010929Y015407D02*
X000599Y015407D01*
X000599Y015309D02*
X010929Y015309D01*
X010929Y015210D02*
X000599Y015210D01*
X000599Y015112D02*
X010929Y015112D01*
X010929Y015013D02*
X000599Y015013D01*
X000599Y014915D02*
X010929Y014915D01*
X010929Y014816D02*
X000599Y014816D01*
X000599Y014718D02*
X010929Y014718D01*
X010929Y014619D02*
X000599Y014619D01*
X000599Y014521D02*
X010929Y014521D01*
X010929Y014422D02*
X000599Y014422D01*
X000599Y014324D02*
X010929Y014324D01*
X010929Y014225D02*
X000599Y014225D01*
X000599Y014126D02*
X010929Y014126D01*
X010929Y014028D02*
X000599Y014028D01*
X000599Y013929D02*
X010929Y013929D01*
X010929Y013831D02*
X000599Y013831D01*
X000599Y013732D02*
X010929Y013732D01*
X010929Y013634D02*
X000599Y013634D01*
X000599Y013535D02*
X010929Y013535D01*
X010929Y013437D02*
X000599Y013437D01*
X000599Y013338D02*
X010929Y013338D01*
X010929Y013240D02*
X000599Y013240D01*
X000599Y013141D02*
X010929Y013141D01*
X010929Y013042D02*
X000599Y013042D01*
X000599Y012944D02*
X010929Y012944D01*
X010929Y012845D02*
X000599Y012845D01*
X000599Y012747D02*
X010929Y012747D01*
X010929Y012648D02*
X000599Y012648D01*
X000599Y012550D02*
X010929Y012550D01*
X010929Y012451D02*
X000599Y012451D01*
X000599Y012353D02*
X010929Y012353D01*
X010929Y012254D02*
X000599Y012254D01*
X000599Y012156D02*
X010929Y012156D01*
X010929Y012057D02*
X000599Y012057D01*
X000599Y011958D02*
X010929Y011958D01*
X010929Y011860D02*
X000599Y011860D01*
X000599Y011761D02*
X010929Y011761D01*
X010929Y011663D02*
X000599Y011663D01*
X000599Y011564D02*
X010929Y011564D01*
X010929Y011466D02*
X000599Y011466D01*
X000599Y011367D02*
X010929Y011367D01*
X010929Y011269D02*
X000599Y011269D01*
X000599Y011170D02*
X010929Y011170D01*
X010929Y011072D02*
X000599Y011072D01*
X000599Y010973D02*
X010929Y010973D01*
X010929Y010874D02*
X000599Y010874D01*
X000599Y010776D02*
X010929Y010776D01*
X010929Y010677D02*
X000599Y010677D01*
X000599Y010579D02*
X010929Y010579D01*
X010929Y010480D02*
X000599Y010480D01*
X000599Y010382D02*
X010929Y010382D01*
X010929Y010283D02*
X000599Y010283D01*
X000599Y010185D02*
X010929Y010185D01*
X010929Y010086D02*
X000599Y010086D01*
X000599Y009988D02*
X010929Y009988D01*
X010929Y009889D02*
X000599Y009889D01*
X000599Y009791D02*
X010929Y009791D01*
X010929Y009692D02*
X000599Y009692D01*
X000599Y009593D02*
X010929Y009593D01*
X010929Y009495D02*
X000599Y009495D01*
X000599Y009396D02*
X010929Y009396D01*
X010929Y009298D02*
X000599Y009298D01*
X000599Y009199D02*
X010929Y009199D01*
X010929Y009101D02*
X000599Y009101D01*
X000599Y009002D02*
X010929Y009002D01*
X010929Y008904D02*
X000599Y008904D01*
X000599Y008805D02*
X010929Y008805D01*
X010929Y008707D02*
X000599Y008707D01*
X000599Y008608D02*
X010929Y008608D01*
X010929Y008509D02*
X000599Y008509D01*
X000599Y008411D02*
X010929Y008411D01*
X010929Y008312D02*
X000599Y008312D01*
X000599Y008214D02*
X010929Y008214D01*
X010929Y008115D02*
X000599Y008115D01*
X000599Y008017D02*
X010885Y008017D01*
X010838Y007918D02*
X000599Y007918D01*
X000599Y007820D02*
X010834Y007820D01*
X010869Y007721D02*
X000599Y007721D01*
X000599Y007623D02*
X010972Y007623D01*
X011269Y010382D02*
X033750Y010382D01*
X033651Y010480D02*
X011269Y010480D01*
X011269Y010579D02*
X033562Y010579D01*
X033521Y010677D02*
X011269Y010677D01*
X011269Y010776D02*
X033481Y010776D01*
X033456Y010874D02*
X011269Y010874D01*
X011269Y010973D02*
X034147Y010973D01*
X034147Y011032D02*
X033456Y011032D01*
X033456Y011129D01*
X033569Y011401D01*
X033777Y011610D01*
X034050Y011722D01*
X034147Y011722D01*
X034147Y011032D01*
X034147Y011072D02*
X034247Y011072D01*
X034247Y011170D02*
X034147Y011170D01*
X034147Y011269D02*
X034247Y011269D01*
X034247Y011367D02*
X034147Y011367D01*
X034147Y011466D02*
X034247Y011466D01*
X034247Y011564D02*
X034147Y011564D01*
X034147Y011663D02*
X034247Y011663D01*
X034488Y011663D02*
X035612Y011663D01*
X035612Y011564D02*
X034662Y011564D01*
X034760Y011466D02*
X035622Y011466D01*
X035663Y011367D02*
X034839Y011367D01*
X034880Y011269D02*
X035704Y011269D01*
X035801Y011170D02*
X034920Y011170D01*
X034937Y011072D02*
X035929Y011072D01*
X036520Y011072D02*
X037511Y011072D01*
X037528Y011170D02*
X036648Y011170D01*
X036745Y011269D02*
X037569Y011269D01*
X037610Y011367D02*
X036786Y011367D01*
X036826Y011466D02*
X037689Y011466D01*
X037787Y011564D02*
X036836Y011564D01*
X037511Y010874D02*
X034937Y010874D01*
X034913Y010776D02*
X037536Y010776D01*
X037576Y010677D02*
X034872Y010677D01*
X034831Y010579D02*
X037617Y010579D01*
X037706Y010480D02*
X034743Y010480D01*
X034644Y010382D02*
X037805Y010382D01*
X038003Y010283D02*
X034445Y010283D01*
X033456Y011072D02*
X011269Y011072D01*
X011269Y011170D02*
X033473Y011170D01*
X033514Y011269D02*
X011269Y011269D01*
X011269Y011367D02*
X033555Y011367D01*
X033634Y011466D02*
X011269Y011466D01*
X011269Y011564D02*
X033732Y011564D01*
X033906Y011663D02*
X011269Y011663D01*
X011269Y011761D02*
X035624Y011761D01*
X034490Y015802D02*
X037959Y015802D01*
X037786Y015900D02*
X034663Y015900D01*
X034761Y015999D02*
X037688Y015999D01*
X037610Y016097D02*
X034839Y016097D01*
X034880Y016196D02*
X037569Y016196D01*
X037528Y016294D02*
X034921Y016294D01*
X034937Y016393D02*
X037511Y016393D01*
X038202Y016294D02*
X038302Y016294D01*
X038302Y016196D02*
X038202Y016196D01*
X038202Y016097D02*
X038302Y016097D01*
X038302Y015999D02*
X038202Y015999D01*
X038202Y015900D02*
X038302Y015900D01*
X038302Y015802D02*
X038202Y015802D01*
X035632Y017280D02*
X028229Y017280D01*
X028239Y017304D02*
X028199Y017207D01*
X028124Y017132D01*
X028027Y017092D01*
X027922Y017092D01*
X027824Y017132D01*
X027750Y017207D01*
X027709Y017304D01*
X027709Y017410D01*
X027750Y017507D01*
X027824Y017581D01*
X027922Y017622D01*
X028027Y017622D01*
X028124Y017581D01*
X028199Y017507D01*
X028239Y017410D01*
X028239Y017304D01*
X028239Y017378D02*
X035672Y017378D01*
X035724Y017477D02*
X028211Y017477D01*
X028130Y017575D02*
X035823Y017575D01*
X033950Y017181D02*
X028174Y017181D01*
X027775Y017181D02*
X011269Y017181D01*
X011269Y017083D02*
X033750Y017083D01*
X033652Y016984D02*
X011269Y016984D01*
X011269Y016886D02*
X033563Y016886D01*
X033522Y016787D02*
X011269Y016787D01*
X011269Y016689D02*
X033481Y016689D01*
X033456Y016590D02*
X011269Y016590D01*
X011269Y016294D02*
X024287Y016294D01*
X024224Y016196D02*
X011269Y016196D01*
X011269Y016097D02*
X024209Y016097D01*
X024232Y015999D02*
X011269Y015999D01*
X011269Y017280D02*
X027719Y017280D01*
X027709Y017378D02*
X011269Y017378D01*
X011269Y017477D02*
X027737Y017477D01*
X027818Y017575D02*
X011269Y017575D01*
X011269Y019251D02*
X036866Y019251D01*
X036797Y019279D02*
X036647Y019429D01*
X036566Y019626D01*
X036566Y019682D01*
X037049Y019682D01*
X037049Y019198D01*
X036993Y019198D01*
X036797Y019279D01*
X036727Y019349D02*
X029295Y019349D01*
X029154Y019349D02*
X011332Y019349D01*
X011431Y019448D02*
X029009Y019448D01*
X029440Y019448D02*
X036639Y019448D01*
X036598Y019546D02*
X029486Y019546D01*
X029489Y019645D02*
X036566Y019645D01*
X036567Y019842D02*
X029349Y019842D01*
X029455Y019743D02*
X037049Y019743D01*
X037049Y019645D02*
X037149Y019645D01*
X037150Y019743D02*
X039099Y019743D01*
X037149Y019546D02*
X037049Y019546D01*
X037049Y019448D02*
X037149Y019448D01*
X037149Y019349D02*
X037049Y019349D01*
X037049Y019251D02*
X037149Y019251D01*
X037287Y021732D02*
X039099Y021732D01*
X039099Y026541D01*
X039005Y026312D01*
X038796Y026104D01*
X038524Y025991D01*
X038427Y025991D01*
X038427Y026682D01*
X038327Y026682D01*
X038327Y026782D01*
X038427Y026782D01*
X038427Y027472D01*
X038524Y027472D01*
X038796Y027360D01*
X039005Y027151D01*
X039099Y026923D01*
X039099Y037137D01*
X038954Y036884D01*
X038697Y036628D01*
X038382Y036446D01*
X038031Y036352D01*
X037668Y036352D01*
X037317Y036446D01*
X037002Y036628D01*
X036745Y036884D01*
X036563Y037199D01*
X036469Y037550D01*
X036469Y037914D01*
X036563Y038264D01*
X036745Y038579D01*
X037002Y038836D01*
X037317Y039018D01*
X037668Y039112D01*
X038031Y039112D01*
X038382Y039018D01*
X038697Y038836D01*
X038954Y038579D01*
X039099Y038327D01*
X039099Y039232D01*
X000599Y039232D01*
X000599Y024982D01*
X010374Y024982D01*
X010374Y025232D01*
X010799Y025232D01*
X010799Y025332D01*
X010374Y025332D01*
X010374Y025594D01*
X010462Y025682D01*
X010799Y025682D01*
X010799Y025332D01*
X010899Y025332D01*
X010899Y025682D01*
X011237Y025682D01*
X011324Y025594D01*
X011324Y025332D01*
X010900Y025332D01*
X010900Y025232D01*
X011324Y025232D01*
X011324Y024982D01*
X034849Y024982D01*
X034849Y021732D01*
X036912Y021732D01*
X036797Y021779D01*
X036647Y021929D01*
X036566Y022126D01*
X036566Y022182D01*
X037049Y022182D01*
X037049Y022282D01*
X036566Y022282D01*
X036566Y022338D01*
X036647Y022534D01*
X036797Y022684D01*
X036926Y022738D01*
X036670Y022738D01*
X036606Y022802D01*
X036606Y023661D01*
X036670Y023726D01*
X037529Y023726D01*
X037593Y023661D01*
X037593Y022802D01*
X037529Y022738D01*
X037272Y022738D01*
X037402Y022684D01*
X037552Y022534D01*
X037633Y022338D01*
X037633Y022282D01*
X037150Y022282D01*
X037150Y022182D01*
X037633Y022182D01*
X037633Y022126D01*
X037552Y021929D01*
X037402Y021779D01*
X037287Y021732D01*
X037435Y021813D02*
X039099Y021813D01*
X039099Y021911D02*
X037534Y021911D01*
X037585Y022010D02*
X039099Y022010D01*
X039099Y022108D02*
X037626Y022108D01*
X037633Y022306D02*
X039099Y022306D01*
X039099Y022404D02*
X037606Y022404D01*
X037565Y022503D02*
X039099Y022503D01*
X039099Y022601D02*
X037485Y022601D01*
X037365Y022700D02*
X039099Y022700D01*
X039099Y022798D02*
X037589Y022798D01*
X037593Y022897D02*
X039099Y022897D01*
X039099Y022995D02*
X037593Y022995D01*
X037593Y023094D02*
X039099Y023094D01*
X039099Y023192D02*
X037593Y023192D01*
X037593Y023291D02*
X039099Y023291D01*
X039099Y023389D02*
X037593Y023389D01*
X037593Y023488D02*
X039099Y023488D01*
X039099Y023587D02*
X037593Y023587D01*
X037569Y023685D02*
X039099Y023685D01*
X039099Y023784D02*
X034849Y023784D01*
X034849Y023882D02*
X039099Y023882D01*
X039099Y023981D02*
X034849Y023981D01*
X034849Y024079D02*
X039099Y024079D01*
X039099Y024178D02*
X034849Y024178D01*
X034849Y024276D02*
X039099Y024276D01*
X039099Y024375D02*
X034849Y024375D01*
X034849Y024473D02*
X039099Y024473D01*
X039099Y024572D02*
X034849Y024572D01*
X034849Y024671D02*
X039099Y024671D01*
X039099Y024769D02*
X034849Y024769D01*
X034849Y024868D02*
X039099Y024868D01*
X039099Y024966D02*
X034849Y024966D01*
X034349Y024473D02*
X019958Y024473D01*
X020077Y024375D02*
X034349Y024375D01*
X034349Y024276D02*
X020114Y024276D01*
X020114Y024178D02*
X034349Y024178D01*
X034349Y024079D02*
X020072Y024079D01*
X019936Y023981D02*
X034349Y023981D01*
X034349Y023882D02*
X018970Y023882D01*
X018989Y023929D02*
X018949Y023832D01*
X018874Y023757D01*
X018777Y023717D01*
X018672Y023717D01*
X018574Y023757D01*
X018500Y023832D01*
X018459Y023929D01*
X018459Y024035D01*
X018500Y024132D01*
X018574Y024206D01*
X018672Y024247D01*
X018777Y024247D01*
X018874Y024206D01*
X018949Y024132D01*
X018989Y024035D01*
X018989Y023929D01*
X018989Y023981D02*
X019763Y023981D01*
X019627Y024079D02*
X018971Y024079D01*
X018903Y024178D02*
X019585Y024178D01*
X019584Y024276D02*
X011324Y024276D01*
X011324Y024375D02*
X019622Y024375D01*
X019740Y024473D02*
X011324Y024473D01*
X011324Y024079D02*
X018478Y024079D01*
X018459Y023981D02*
X011324Y023981D01*
X011324Y023882D02*
X018479Y023882D01*
X018548Y023784D02*
X011238Y023784D01*
X010899Y023784D02*
X010799Y023784D01*
X010799Y023882D02*
X010899Y023882D01*
X010899Y023981D02*
X010799Y023981D01*
X010799Y024079D02*
X010899Y024079D01*
X010900Y024178D02*
X018546Y024178D01*
X018901Y023784D02*
X034349Y023784D01*
X034349Y023685D02*
X003098Y023685D01*
X003196Y023587D02*
X034349Y023587D01*
X034349Y023488D02*
X003256Y023488D01*
X003204Y023579D02*
X003385Y023264D01*
X003479Y022914D01*
X003479Y022550D01*
X003385Y022199D01*
X003204Y021884D01*
X002947Y021628D01*
X002632Y021446D01*
X002281Y021352D01*
X001918Y021352D01*
X001567Y021446D01*
X001252Y021628D01*
X000995Y021884D01*
X000813Y022199D01*
X000719Y022550D01*
X000719Y022914D01*
X000813Y023264D01*
X000995Y023579D01*
X001252Y023836D01*
X001567Y024018D01*
X001918Y024112D01*
X002281Y024112D01*
X002632Y024018D01*
X002947Y023836D01*
X003204Y023579D01*
X003313Y023389D02*
X034349Y023389D01*
X034349Y023291D02*
X003370Y023291D01*
X003405Y023192D02*
X034349Y023192D01*
X034349Y023094D02*
X003431Y023094D01*
X003457Y022995D02*
X016055Y022995D01*
X016050Y022993D02*
X016163Y023040D01*
X016286Y023040D01*
X016399Y022993D01*
X016486Y022906D01*
X016492Y022892D01*
X025207Y022892D01*
X025213Y022906D01*
X025300Y022993D01*
X025413Y023040D01*
X025536Y023040D01*
X025649Y022993D01*
X025736Y022906D01*
X025782Y022793D01*
X025782Y022671D01*
X025736Y022557D01*
X025649Y022471D01*
X025536Y022424D01*
X025413Y022424D01*
X025300Y022471D01*
X025213Y022557D01*
X025207Y022572D01*
X016492Y022572D01*
X016486Y022557D01*
X016399Y022471D01*
X016286Y022424D01*
X016163Y022424D01*
X016050Y022471D01*
X015963Y022557D01*
X015916Y022671D01*
X015916Y022793D01*
X015963Y022906D01*
X016050Y022993D01*
X015959Y022897D02*
X003479Y022897D01*
X003479Y022798D02*
X015918Y022798D01*
X015916Y022700D02*
X003479Y022700D01*
X003479Y022601D02*
X015945Y022601D01*
X016018Y022503D02*
X003467Y022503D01*
X003440Y022404D02*
X034349Y022404D01*
X034349Y022306D02*
X003414Y022306D01*
X003387Y022207D02*
X034349Y022207D01*
X034349Y022108D02*
X003333Y022108D01*
X003276Y022010D02*
X034349Y022010D01*
X034349Y021911D02*
X003219Y021911D01*
X003132Y021813D02*
X034349Y021813D01*
X034349Y021714D02*
X003033Y021714D01*
X002926Y021616D02*
X034349Y021616D01*
X034349Y021517D02*
X002756Y021517D01*
X002530Y021419D02*
X034349Y021419D01*
X034849Y021813D02*
X036763Y021813D01*
X036665Y021911D02*
X034849Y021911D01*
X034849Y022010D02*
X036614Y022010D01*
X036573Y022108D02*
X034849Y022108D01*
X034849Y022207D02*
X037049Y022207D01*
X037150Y022207D02*
X039099Y022207D01*
X036834Y022700D02*
X034849Y022700D01*
X034849Y022798D02*
X036610Y022798D01*
X036606Y022897D02*
X034849Y022897D01*
X034849Y022995D02*
X036606Y022995D01*
X036606Y023094D02*
X034849Y023094D01*
X034849Y023192D02*
X036606Y023192D01*
X036606Y023291D02*
X034849Y023291D01*
X034849Y023389D02*
X036606Y023389D01*
X036606Y023488D02*
X034849Y023488D01*
X034849Y023587D02*
X036606Y023587D01*
X036629Y023685D02*
X034849Y023685D01*
X034349Y022995D02*
X025643Y022995D01*
X025740Y022897D02*
X034349Y022897D01*
X034349Y022798D02*
X025780Y022798D01*
X025782Y022700D02*
X034349Y022700D01*
X034349Y022601D02*
X025754Y022601D01*
X025681Y022503D02*
X034349Y022503D01*
X034849Y022503D02*
X036634Y022503D01*
X036593Y022404D02*
X034849Y022404D01*
X034849Y022306D02*
X036566Y022306D01*
X036714Y022601D02*
X034849Y022601D01*
X034469Y025991D02*
X034372Y025991D01*
X034372Y026682D01*
X035062Y026682D01*
X035062Y026584D01*
X034950Y026312D01*
X034741Y026104D01*
X034469Y025991D01*
X034372Y026050D02*
X034272Y026050D01*
X034272Y025991D02*
X034175Y025991D01*
X033902Y026104D01*
X033694Y026312D01*
X033581Y026584D01*
X033581Y026682D01*
X034272Y026682D01*
X034272Y026782D01*
X034372Y026782D01*
X034372Y027472D01*
X034469Y027472D01*
X034741Y027360D01*
X034950Y027151D01*
X035062Y026879D01*
X035062Y026782D01*
X034372Y026782D01*
X034372Y026682D01*
X034272Y026682D01*
X034272Y025991D01*
X034272Y026149D02*
X034372Y026149D01*
X034372Y026247D02*
X034272Y026247D01*
X034272Y026346D02*
X034372Y026346D01*
X034372Y026444D02*
X034272Y026444D01*
X034272Y026543D02*
X034372Y026543D01*
X034372Y026641D02*
X034272Y026641D01*
X034272Y026740D02*
X024364Y026740D01*
X024364Y026785D02*
X024364Y026679D01*
X024324Y026582D01*
X024249Y026507D01*
X024152Y026467D01*
X024047Y026467D01*
X023949Y026507D01*
X023875Y026582D01*
X023834Y026679D01*
X023834Y026785D01*
X023875Y026882D01*
X023949Y026956D01*
X024047Y026997D01*
X024152Y026997D01*
X024249Y026956D01*
X024324Y026882D01*
X024364Y026785D01*
X024342Y026839D02*
X033581Y026839D01*
X033581Y026879D02*
X033694Y027151D01*
X033902Y027360D01*
X034175Y027472D01*
X034272Y027472D01*
X034272Y026782D01*
X033581Y026782D01*
X033581Y026879D01*
X033605Y026937D02*
X024269Y026937D01*
X024349Y026641D02*
X033581Y026641D01*
X033599Y026543D02*
X024285Y026543D01*
X023914Y026543D02*
X018485Y026543D01*
X018489Y026554D02*
X018449Y026457D01*
X018374Y026382D01*
X018277Y026342D01*
X018172Y026342D01*
X018074Y026382D01*
X018000Y026457D01*
X017959Y026554D01*
X017959Y026660D01*
X018000Y026757D01*
X018074Y026831D01*
X018172Y026872D01*
X018277Y026872D01*
X018374Y026831D01*
X018449Y026757D01*
X018489Y026660D01*
X018489Y026554D01*
X018489Y026641D02*
X023850Y026641D01*
X023834Y026740D02*
X018456Y026740D01*
X018357Y026839D02*
X023857Y026839D01*
X023930Y026937D02*
X015179Y026937D01*
X015199Y026957D02*
X015124Y026882D01*
X015027Y026842D01*
X014922Y026842D01*
X014824Y026882D01*
X014750Y026957D01*
X014709Y027054D01*
X014709Y027160D01*
X014750Y027257D01*
X014824Y027331D01*
X013199Y027331D01*
X013199Y027332D02*
X013124Y027257D01*
X013027Y027217D01*
X012922Y027217D01*
X012824Y027257D01*
X012750Y027332D01*
X012709Y027429D01*
X012709Y027535D01*
X012750Y027632D01*
X012824Y027706D01*
X012922Y027747D01*
X013027Y027747D01*
X013124Y027706D01*
X013199Y027632D01*
X013239Y027535D01*
X013239Y027429D01*
X013199Y027332D01*
X013239Y027430D02*
X020709Y027430D01*
X020709Y027429D02*
X020750Y027332D01*
X020824Y027257D01*
X020922Y027217D01*
X021027Y027217D01*
X021124Y027257D01*
X021199Y027332D01*
X021239Y027429D01*
X021239Y027535D01*
X021199Y027632D01*
X021124Y027706D01*
X021027Y027747D01*
X020922Y027747D01*
X020824Y027706D01*
X020750Y027632D01*
X020709Y027535D01*
X020709Y027429D01*
X020709Y027528D02*
X013239Y027528D01*
X013201Y027627D02*
X020748Y027627D01*
X020870Y027725D02*
X013079Y027725D01*
X012870Y027725D02*
X000599Y027725D01*
X000599Y027627D02*
X012748Y027627D01*
X012709Y027528D02*
X000599Y027528D01*
X000599Y027430D02*
X012709Y027430D01*
X012750Y027331D02*
X000599Y027331D01*
X000599Y027233D02*
X012883Y027233D01*
X013065Y027233D02*
X014740Y027233D01*
X014709Y027134D02*
X000599Y027134D01*
X000599Y027036D02*
X014717Y027036D01*
X014769Y026937D02*
X000599Y026937D01*
X000599Y026839D02*
X018091Y026839D01*
X017993Y026740D02*
X012919Y026740D01*
X012902Y026747D02*
X012999Y026706D01*
X013074Y026632D01*
X013114Y026535D01*
X013114Y026429D01*
X013074Y026332D01*
X012999Y026257D01*
X012902Y026217D01*
X012797Y026217D01*
X012699Y026257D01*
X012625Y026332D01*
X012584Y026429D01*
X012584Y026535D01*
X012625Y026632D01*
X012699Y026706D01*
X012797Y026747D01*
X012902Y026747D01*
X012780Y026740D02*
X000599Y026740D01*
X000599Y026641D02*
X012634Y026641D01*
X012588Y026543D02*
X000599Y026543D01*
X000599Y026444D02*
X012584Y026444D01*
X012619Y026346D02*
X000599Y026346D01*
X000599Y026247D02*
X012723Y026247D01*
X012976Y026247D02*
X033759Y026247D01*
X033680Y026346D02*
X018287Y026346D01*
X018162Y026346D02*
X013080Y026346D01*
X013114Y026444D02*
X018012Y026444D01*
X017964Y026543D02*
X013111Y026543D01*
X013064Y026641D02*
X017959Y026641D01*
X018437Y026444D02*
X033639Y026444D01*
X033858Y026149D02*
X025057Y026149D01*
X025074Y026132D02*
X025114Y026035D01*
X025114Y025929D01*
X025074Y025832D01*
X024999Y025757D01*
X024938Y025732D01*
X024999Y025706D01*
X025074Y025632D01*
X025114Y025535D01*
X025114Y025429D01*
X025074Y025332D01*
X024999Y025257D01*
X024902Y025217D01*
X024797Y025217D01*
X024699Y025257D01*
X024625Y025332D01*
X024584Y025429D01*
X024584Y025535D01*
X024625Y025632D01*
X024699Y025706D01*
X024761Y025732D01*
X024699Y025757D01*
X024625Y025832D01*
X024584Y025929D01*
X024584Y026035D01*
X024625Y026132D01*
X024699Y026206D01*
X024797Y026247D01*
X024902Y026247D01*
X024999Y026206D01*
X025074Y026132D01*
X025108Y026050D02*
X034032Y026050D01*
X034611Y026050D02*
X038087Y026050D01*
X037957Y026104D02*
X038230Y025991D01*
X038327Y025991D01*
X038327Y026682D01*
X037636Y026682D01*
X037636Y026584D01*
X037749Y026312D01*
X037957Y026104D01*
X037913Y026149D02*
X034786Y026149D01*
X034885Y026247D02*
X037814Y026247D01*
X037735Y026346D02*
X034964Y026346D01*
X035004Y026444D02*
X037694Y026444D01*
X037654Y026543D02*
X035045Y026543D01*
X035062Y026641D02*
X037636Y026641D01*
X037636Y026782D02*
X037636Y026879D01*
X037749Y027151D01*
X037957Y027360D01*
X038230Y027472D01*
X038327Y027472D01*
X038327Y026782D01*
X037636Y026782D01*
X037636Y026839D02*
X036685Y026839D01*
X036696Y026843D02*
X036471Y026750D01*
X036228Y026750D01*
X036003Y026843D01*
X035831Y027015D01*
X035737Y027240D01*
X035737Y027483D01*
X035831Y027708D01*
X036003Y027881D01*
X036228Y027974D01*
X036471Y027974D01*
X036696Y027881D01*
X036868Y027708D01*
X036961Y027483D01*
X036961Y027240D01*
X036868Y027015D01*
X036696Y026843D01*
X036790Y026937D02*
X037660Y026937D01*
X037701Y027036D02*
X036877Y027036D01*
X036918Y027134D02*
X037742Y027134D01*
X037831Y027233D02*
X036958Y027233D01*
X036961Y027331D02*
X037929Y027331D01*
X038127Y027430D02*
X036961Y027430D01*
X036943Y027528D02*
X039099Y027528D01*
X039099Y027430D02*
X038627Y027430D01*
X038427Y027430D02*
X038327Y027430D01*
X038327Y027331D02*
X038427Y027331D01*
X038427Y027233D02*
X038327Y027233D01*
X038327Y027134D02*
X038427Y027134D01*
X038427Y027036D02*
X038327Y027036D01*
X038327Y026937D02*
X038427Y026937D01*
X038427Y026839D02*
X038327Y026839D01*
X038327Y026740D02*
X034372Y026740D01*
X034372Y026839D02*
X034272Y026839D01*
X034272Y026937D02*
X034372Y026937D01*
X034372Y027036D02*
X034272Y027036D01*
X034272Y027134D02*
X034372Y027134D01*
X034372Y027233D02*
X034272Y027233D01*
X034272Y027331D02*
X034372Y027331D01*
X034372Y027430D02*
X034272Y027430D01*
X034072Y027430D02*
X021239Y027430D01*
X021239Y027528D02*
X035756Y027528D01*
X035737Y027430D02*
X034572Y027430D01*
X034770Y027331D02*
X035737Y027331D01*
X035740Y027233D02*
X034868Y027233D01*
X034957Y027134D02*
X035781Y027134D01*
X035822Y027036D02*
X034998Y027036D01*
X035038Y026937D02*
X035909Y026937D01*
X036013Y026839D02*
X035062Y026839D01*
X035797Y027627D02*
X021201Y027627D01*
X021079Y027725D02*
X035848Y027725D01*
X035946Y027824D02*
X000599Y027824D01*
X000599Y027922D02*
X036104Y027922D01*
X036595Y027922D02*
X039099Y027922D01*
X039099Y027824D02*
X036753Y027824D01*
X036851Y027725D02*
X039099Y027725D01*
X039099Y027627D02*
X036902Y027627D01*
X038327Y026641D02*
X038427Y026641D01*
X038427Y026543D02*
X038327Y026543D01*
X038327Y026444D02*
X038427Y026444D01*
X038427Y026346D02*
X038327Y026346D01*
X038327Y026247D02*
X038427Y026247D01*
X038427Y026149D02*
X038327Y026149D01*
X038327Y026050D02*
X038427Y026050D01*
X038666Y026050D02*
X039099Y026050D01*
X039099Y025952D02*
X025114Y025952D01*
X025083Y025853D02*
X039099Y025853D01*
X039099Y025755D02*
X024993Y025755D01*
X025050Y025656D02*
X039099Y025656D01*
X039099Y025557D02*
X025105Y025557D01*
X025114Y025459D02*
X039099Y025459D01*
X039099Y025360D02*
X025086Y025360D01*
X025004Y025262D02*
X039099Y025262D01*
X039099Y025163D02*
X022781Y025163D01*
X022749Y025132D02*
X022652Y025092D01*
X022547Y025092D01*
X022449Y025132D01*
X022375Y025207D01*
X022334Y025304D01*
X022334Y025410D01*
X022375Y025507D01*
X022449Y025581D01*
X022547Y025622D01*
X022652Y025622D01*
X022749Y025581D01*
X022824Y025507D01*
X022864Y025410D01*
X022864Y025304D01*
X022824Y025207D01*
X022749Y025132D01*
X022847Y025262D02*
X024695Y025262D01*
X024613Y025360D02*
X022864Y025360D01*
X022844Y025459D02*
X024584Y025459D01*
X024594Y025557D02*
X022773Y025557D01*
X022425Y025557D02*
X011324Y025557D01*
X011324Y025459D02*
X022355Y025459D01*
X022334Y025360D02*
X011324Y025360D01*
X011324Y025163D02*
X022418Y025163D01*
X022352Y025262D02*
X010900Y025262D01*
X010899Y025360D02*
X010799Y025360D01*
X010799Y025262D02*
X000599Y025262D01*
X000599Y025360D02*
X010374Y025360D01*
X010374Y025459D02*
X000599Y025459D01*
X000599Y025557D02*
X010374Y025557D01*
X010436Y025656D02*
X000599Y025656D01*
X000599Y025755D02*
X024706Y025755D01*
X024649Y025656D02*
X011262Y025656D01*
X010899Y025656D02*
X010799Y025656D01*
X010799Y025557D02*
X010899Y025557D01*
X010899Y025459D02*
X010799Y025459D01*
X010374Y025163D02*
X000599Y025163D01*
X000599Y025065D02*
X010374Y025065D01*
X010374Y024473D02*
X000599Y024473D01*
X000599Y024375D02*
X010374Y024375D01*
X010374Y024276D02*
X000599Y024276D01*
X000599Y024178D02*
X010799Y024178D01*
X010374Y024079D02*
X002402Y024079D01*
X002696Y023981D02*
X010374Y023981D01*
X010374Y023882D02*
X002867Y023882D01*
X002999Y023784D02*
X010460Y023784D01*
X011324Y025065D02*
X039099Y025065D01*
X039099Y026149D02*
X038841Y026149D01*
X038940Y026247D02*
X039099Y026247D01*
X039099Y026346D02*
X039019Y026346D01*
X039059Y026444D02*
X039099Y026444D01*
X039099Y026937D02*
X039093Y026937D01*
X039099Y027036D02*
X039053Y027036D01*
X039012Y027134D02*
X039099Y027134D01*
X039099Y027233D02*
X038923Y027233D01*
X038825Y027331D02*
X039099Y027331D01*
X039099Y028021D02*
X030513Y028021D01*
X030528Y028027D02*
X030412Y027979D01*
X030287Y027979D01*
X030171Y028027D01*
X030082Y028116D01*
X030034Y028232D01*
X030034Y028357D01*
X030079Y028466D01*
X030079Y033928D01*
X030079Y034036D01*
X030121Y034135D01*
X030196Y034211D01*
X030296Y034252D01*
X031678Y034252D01*
X031787Y034297D01*
X031912Y034297D01*
X032028Y034249D01*
X032116Y034160D01*
X032124Y034142D01*
X033666Y034142D01*
X033759Y034048D01*
X033759Y033916D01*
X033759Y033884D01*
X033824Y033819D01*
X033864Y033722D01*
X033864Y033617D01*
X033824Y033519D01*
X033749Y033445D01*
X033652Y033404D01*
X033547Y033404D01*
X033449Y033445D01*
X033375Y033519D01*
X033334Y033617D01*
X033334Y033722D01*
X033375Y033819D01*
X033377Y033822D01*
X032124Y033822D01*
X032116Y033803D01*
X032028Y033715D01*
X031912Y033667D01*
X031787Y033667D01*
X031678Y033712D01*
X030619Y033712D01*
X030619Y028466D01*
X030664Y028357D01*
X030664Y028232D01*
X030616Y028116D01*
X030528Y028027D01*
X030618Y028120D02*
X039099Y028120D01*
X039099Y028218D02*
X030659Y028218D01*
X030664Y028317D02*
X039099Y028317D01*
X039099Y028415D02*
X030640Y028415D01*
X030619Y028514D02*
X039099Y028514D01*
X039099Y028612D02*
X030619Y028612D01*
X030619Y028711D02*
X039099Y028711D01*
X039099Y028809D02*
X030619Y028809D01*
X030619Y028908D02*
X039099Y028908D01*
X039099Y029006D02*
X030619Y029006D01*
X030619Y029105D02*
X039099Y029105D01*
X039099Y029204D02*
X030619Y029204D01*
X030619Y029302D02*
X039099Y029302D01*
X039099Y029401D02*
X034336Y029401D01*
X034340Y029402D02*
X034225Y029354D01*
X034099Y029354D01*
X033983Y029402D01*
X033895Y029491D01*
X033847Y029607D01*
X033847Y029732D01*
X033892Y029841D01*
X033892Y031811D01*
X033887Y031822D01*
X032814Y031822D01*
X032749Y031757D01*
X032652Y031717D01*
X032547Y031717D01*
X032449Y031757D01*
X032375Y031832D01*
X032334Y031929D01*
X032334Y032035D01*
X032375Y032132D01*
X032449Y032206D01*
X032547Y032247D01*
X032652Y032247D01*
X032749Y032206D01*
X032814Y032142D01*
X033887Y032142D01*
X033895Y032160D01*
X033983Y032249D01*
X034099Y032297D01*
X034225Y032297D01*
X034340Y032249D01*
X034429Y032160D01*
X039099Y032160D01*
X039099Y032258D02*
X034317Y032258D01*
X034429Y032160D02*
X034477Y032044D01*
X034477Y031919D01*
X034432Y031811D01*
X034432Y029841D01*
X034477Y029732D01*
X034477Y029607D01*
X034429Y029491D01*
X034340Y029402D01*
X034432Y029499D02*
X039099Y029499D01*
X039099Y029598D02*
X034473Y029598D01*
X034477Y029696D02*
X039099Y029696D01*
X039099Y029795D02*
X034451Y029795D01*
X034432Y029893D02*
X039099Y029893D01*
X039099Y029992D02*
X034432Y029992D01*
X034432Y030090D02*
X039099Y030090D01*
X039099Y030189D02*
X036877Y030189D01*
X036840Y030152D02*
X036725Y030104D01*
X036599Y030104D01*
X036483Y030152D01*
X036395Y030241D01*
X036347Y030357D01*
X036347Y030482D01*
X036395Y030598D01*
X036466Y030669D01*
X036395Y030741D01*
X036347Y030857D01*
X036347Y030982D01*
X036395Y031098D01*
X036483Y031186D01*
X036599Y031234D01*
X036725Y031234D01*
X036840Y031186D01*
X036929Y031098D01*
X036977Y030982D01*
X036977Y030857D01*
X036929Y030741D01*
X036857Y030669D01*
X036929Y030598D01*
X036977Y030482D01*
X036977Y030357D01*
X036929Y030241D01*
X036840Y030152D01*
X036948Y030288D02*
X039099Y030288D01*
X039099Y030386D02*
X036977Y030386D01*
X036976Y030485D02*
X039099Y030485D01*
X039099Y030583D02*
X036935Y030583D01*
X036870Y030682D02*
X039099Y030682D01*
X039099Y030780D02*
X036945Y030780D01*
X036977Y030879D02*
X039099Y030879D01*
X039099Y030977D02*
X036977Y030977D01*
X036938Y031076D02*
X039099Y031076D01*
X039099Y031174D02*
X036852Y031174D01*
X036472Y031174D02*
X036102Y031174D01*
X036090Y031186D02*
X036179Y031098D01*
X036227Y030982D01*
X036227Y030857D01*
X036179Y030741D01*
X036107Y030669D01*
X036179Y030598D01*
X036227Y030482D01*
X036227Y030357D01*
X036179Y030241D01*
X036090Y030152D01*
X035975Y030104D01*
X035849Y030104D01*
X035733Y030152D01*
X035645Y030241D01*
X035597Y030357D01*
X035597Y030482D01*
X035645Y030598D01*
X035716Y030669D01*
X035645Y030741D01*
X035597Y030857D01*
X035597Y030982D01*
X035645Y031098D01*
X035733Y031186D01*
X035849Y031234D01*
X035975Y031234D01*
X036090Y031186D01*
X036188Y031076D02*
X036386Y031076D01*
X036347Y030977D02*
X036227Y030977D01*
X036227Y030879D02*
X036347Y030879D01*
X036379Y030780D02*
X036195Y030780D01*
X036120Y030682D02*
X036454Y030682D01*
X036389Y030583D02*
X036185Y030583D01*
X036226Y030485D02*
X036348Y030485D01*
X036347Y030386D02*
X036227Y030386D01*
X036198Y030288D02*
X036376Y030288D01*
X036447Y030189D02*
X036127Y030189D01*
X035697Y030189D02*
X034432Y030189D01*
X034432Y030288D02*
X035626Y030288D01*
X035597Y030386D02*
X034432Y030386D01*
X034432Y030485D02*
X035598Y030485D01*
X035639Y030583D02*
X034432Y030583D01*
X034432Y030682D02*
X035704Y030682D01*
X035629Y030780D02*
X034432Y030780D01*
X034432Y030879D02*
X035597Y030879D01*
X035597Y030977D02*
X034432Y030977D01*
X034432Y031076D02*
X035636Y031076D01*
X035722Y031174D02*
X034432Y031174D01*
X034432Y031273D02*
X039099Y031273D01*
X039099Y031371D02*
X034432Y031371D01*
X034432Y031470D02*
X039099Y031470D01*
X039099Y031569D02*
X034432Y031569D01*
X034432Y031667D02*
X039099Y031667D01*
X039099Y031766D02*
X034432Y031766D01*
X034454Y031864D02*
X039099Y031864D01*
X039099Y031963D02*
X034477Y031963D01*
X034470Y032061D02*
X039099Y032061D01*
X039099Y032357D02*
X030619Y032357D01*
X030619Y032455D02*
X039099Y032455D01*
X039099Y032554D02*
X030619Y032554D01*
X030619Y032653D02*
X039099Y032653D01*
X039099Y032751D02*
X030619Y032751D01*
X030619Y032850D02*
X039099Y032850D01*
X039099Y032948D02*
X030619Y032948D01*
X030619Y033047D02*
X039099Y033047D01*
X039099Y033145D02*
X030619Y033145D01*
X030619Y033244D02*
X039099Y033244D01*
X039099Y033342D02*
X030619Y033342D01*
X030619Y033441D02*
X033458Y033441D01*
X033366Y033539D02*
X030619Y033539D01*
X030619Y033638D02*
X033334Y033638D01*
X033340Y033737D02*
X032050Y033737D01*
X031849Y033982D02*
X033599Y033982D01*
X033599Y033669D01*
X033832Y033539D02*
X039099Y033539D01*
X039099Y033441D02*
X033740Y033441D01*
X033864Y033638D02*
X039099Y033638D01*
X039099Y033737D02*
X033858Y033737D01*
X033808Y033835D02*
X039099Y033835D01*
X039099Y033934D02*
X033759Y033934D01*
X033759Y034032D02*
X039099Y034032D01*
X039099Y034131D02*
X033677Y034131D01*
X032047Y034229D02*
X039099Y034229D01*
X039099Y034328D02*
X028071Y034328D01*
X028068Y034336D02*
X028129Y034187D01*
X028129Y034026D01*
X028068Y033877D01*
X027954Y033763D01*
X027805Y033702D01*
X027644Y033702D01*
X027495Y033763D01*
X027381Y033877D01*
X027319Y034026D01*
X027319Y034187D01*
X027381Y034336D01*
X027495Y034450D01*
X027644Y034512D01*
X027805Y034512D01*
X027954Y034450D01*
X028068Y034336D01*
X028112Y034229D02*
X030241Y034229D01*
X030119Y034131D02*
X028129Y034131D01*
X028129Y034032D02*
X030079Y034032D01*
X030079Y033934D02*
X028091Y033934D01*
X028025Y033835D02*
X030079Y033835D01*
X030079Y033737D02*
X027889Y033737D01*
X027813Y033552D02*
X027976Y033484D01*
X028102Y033359D01*
X028169Y033195D01*
X028169Y033154D01*
X027772Y033154D01*
X027772Y033059D01*
X027677Y033059D01*
X027677Y032662D01*
X027636Y032662D01*
X027472Y032730D01*
X027347Y032855D01*
X027279Y033018D01*
X027279Y033059D01*
X027677Y033059D01*
X027677Y033154D01*
X027279Y033154D01*
X027279Y033195D01*
X027347Y033359D01*
X027472Y033484D01*
X027636Y033552D01*
X027677Y033552D01*
X027677Y033155D01*
X027772Y033155D01*
X027772Y033552D01*
X027813Y033552D01*
X027843Y033539D02*
X030079Y033539D01*
X030079Y033441D02*
X028020Y033441D01*
X028108Y033342D02*
X030079Y033342D01*
X030079Y033244D02*
X028149Y033244D01*
X028169Y033059D02*
X028169Y033018D01*
X028102Y032855D01*
X027976Y032730D01*
X027813Y032662D01*
X027772Y032662D01*
X027772Y033059D01*
X028169Y033059D01*
X028169Y033047D02*
X030079Y033047D01*
X030079Y033145D02*
X027772Y033145D01*
X027677Y033145D02*
X027129Y033145D01*
X027129Y033187D02*
X027129Y033026D01*
X027068Y032877D01*
X026954Y032763D01*
X026805Y032702D01*
X026644Y032702D01*
X026495Y032763D01*
X026381Y032877D01*
X026319Y033026D01*
X026319Y033187D01*
X026381Y033336D01*
X026495Y033450D01*
X026644Y033512D01*
X026805Y033512D01*
X026954Y033450D01*
X027068Y033336D01*
X027129Y033187D01*
X027106Y033244D02*
X027299Y033244D01*
X027340Y033342D02*
X027062Y033342D01*
X026963Y033441D02*
X027429Y033441D01*
X027606Y033539D02*
X006777Y033539D01*
X006777Y033520D02*
X006388Y033520D01*
X006388Y033443D01*
X006311Y033443D01*
X006311Y033055D01*
X006264Y033055D01*
X006107Y033120D01*
X005987Y033240D01*
X005922Y033397D01*
X005922Y033443D01*
X006311Y033443D01*
X006311Y033520D01*
X005922Y033520D01*
X005922Y033567D01*
X005987Y033724D01*
X006107Y033844D01*
X006264Y033909D01*
X006311Y033909D01*
X006311Y033521D01*
X006388Y033521D01*
X006388Y033909D01*
X006434Y033909D01*
X006591Y033844D01*
X006711Y033724D01*
X006777Y033567D01*
X006777Y033520D01*
X006777Y033443D02*
X006777Y033397D01*
X006711Y033240D01*
X006591Y033120D01*
X006434Y033055D01*
X006388Y033055D01*
X006388Y033443D01*
X006777Y033443D01*
X006777Y033441D02*
X021559Y033441D01*
X021574Y033456D02*
X021672Y033497D01*
X021777Y033497D01*
X021874Y033456D01*
X021949Y033382D01*
X021989Y033285D01*
X021989Y033179D01*
X021949Y033082D01*
X021874Y033007D01*
X021777Y032967D01*
X021672Y032967D01*
X021574Y033007D01*
X021500Y033082D01*
X021459Y033179D01*
X021459Y033285D01*
X021500Y033382D01*
X021574Y033456D01*
X021483Y033342D02*
X008252Y033342D01*
X008361Y033297D02*
X008536Y033122D01*
X008631Y032893D01*
X008631Y032347D01*
X008059Y032347D01*
X008059Y033392D01*
X008133Y033392D01*
X008361Y033297D01*
X008414Y033244D02*
X015915Y033244D01*
X015922Y033247D02*
X016027Y033247D01*
X016124Y033206D01*
X016199Y033132D01*
X016239Y033035D01*
X016239Y032929D01*
X016199Y032832D01*
X016124Y032757D01*
X016027Y032717D01*
X015922Y032717D01*
X015824Y032757D01*
X015750Y032832D01*
X015709Y032929D01*
X015709Y033035D01*
X015750Y033132D01*
X015824Y033206D01*
X015922Y033247D01*
X016034Y033244D02*
X021459Y033244D01*
X021473Y033145D02*
X016186Y033145D01*
X016234Y033047D02*
X020915Y033047D01*
X020949Y033081D02*
X021047Y033122D01*
X021152Y033122D01*
X021249Y033081D01*
X021324Y033007D01*
X021364Y032910D01*
X021364Y032804D01*
X021324Y032707D01*
X021249Y032632D01*
X021152Y032592D01*
X021047Y032592D01*
X020949Y032632D01*
X020875Y032707D01*
X020834Y032804D01*
X020834Y032910D01*
X020875Y033007D01*
X020949Y033081D01*
X020850Y032948D02*
X016239Y032948D01*
X016206Y032850D02*
X020834Y032850D01*
X020856Y032751D02*
X016110Y032751D01*
X016027Y032622D02*
X016124Y032581D01*
X016199Y032507D01*
X016239Y032410D01*
X016239Y032304D01*
X016199Y032207D01*
X016124Y032132D01*
X016027Y032092D01*
X015922Y032092D01*
X015824Y032132D01*
X015750Y032207D01*
X015709Y032304D01*
X015709Y032410D01*
X015750Y032507D01*
X015824Y032581D01*
X015922Y032622D01*
X016027Y032622D01*
X016152Y032554D02*
X030079Y032554D01*
X030079Y032653D02*
X023145Y032653D01*
X023124Y032632D02*
X023027Y032592D01*
X022922Y032592D01*
X022824Y032632D01*
X022750Y032707D01*
X022709Y032804D01*
X022709Y032910D01*
X022750Y033007D01*
X022824Y033081D01*
X022922Y033122D01*
X023027Y033122D01*
X023124Y033081D01*
X023199Y033007D01*
X023239Y032910D01*
X023239Y032804D01*
X023199Y032707D01*
X023124Y032632D01*
X023217Y032751D02*
X026525Y032751D01*
X026409Y032850D02*
X023239Y032850D01*
X023223Y032948D02*
X026352Y032948D01*
X026319Y033047D02*
X023159Y033047D01*
X022790Y033047D02*
X021914Y033047D01*
X021975Y033145D02*
X026319Y033145D01*
X026343Y033244D02*
X021989Y033244D01*
X021965Y033342D02*
X026387Y033342D01*
X026486Y033441D02*
X021890Y033441D01*
X021535Y033047D02*
X021284Y033047D01*
X021348Y032948D02*
X022725Y032948D01*
X022709Y032850D02*
X021364Y032850D01*
X021342Y032751D02*
X022731Y032751D01*
X022804Y032653D02*
X021270Y032653D01*
X021297Y032497D02*
X021402Y032497D01*
X021499Y032456D01*
X021574Y032382D01*
X021614Y032285D01*
X021614Y032179D01*
X021574Y032082D01*
X021499Y032007D01*
X021402Y031967D01*
X021297Y031967D01*
X021199Y032007D01*
X021125Y032082D01*
X021084Y032179D01*
X021084Y032285D01*
X021125Y032382D01*
X021199Y032456D01*
X021297Y032497D01*
X021198Y032455D02*
X016220Y032455D01*
X016239Y032357D02*
X021114Y032357D01*
X021084Y032258D02*
X016220Y032258D01*
X016152Y032160D02*
X021092Y032160D01*
X021145Y032061D02*
X008631Y032061D01*
X008631Y031963D02*
X026346Y031963D01*
X026319Y032026D02*
X026381Y031877D01*
X026495Y031763D01*
X026644Y031702D01*
X026805Y031702D01*
X026954Y031763D01*
X027068Y031877D01*
X027129Y032026D01*
X027129Y032187D01*
X027068Y032336D01*
X026954Y032450D01*
X026805Y032512D01*
X026644Y032512D01*
X026495Y032450D01*
X026381Y032336D01*
X026319Y032187D01*
X026319Y032026D01*
X026319Y032061D02*
X021554Y032061D01*
X021606Y032160D02*
X026319Y032160D01*
X026349Y032258D02*
X021614Y032258D01*
X021584Y032357D02*
X026402Y032357D01*
X026508Y032455D02*
X021500Y032455D01*
X020929Y032653D02*
X008631Y032653D01*
X008631Y032751D02*
X015839Y032751D01*
X015742Y032850D02*
X008631Y032850D01*
X008608Y032948D02*
X015709Y032948D01*
X015714Y033047D02*
X008568Y033047D01*
X008513Y033145D02*
X015763Y033145D01*
X015797Y032554D02*
X008631Y032554D01*
X008631Y032455D02*
X015728Y032455D01*
X015709Y032357D02*
X008631Y032357D01*
X008631Y032247D02*
X008631Y031700D01*
X008536Y031472D01*
X008361Y031297D01*
X008133Y031202D01*
X008059Y031202D01*
X008059Y032247D01*
X008631Y032247D01*
X008631Y032160D02*
X015797Y032160D01*
X015728Y032258D02*
X008059Y032258D01*
X008059Y032247D02*
X008059Y032347D01*
X007959Y032347D01*
X007959Y033392D01*
X007885Y033392D01*
X007656Y033297D01*
X007481Y033122D01*
X007386Y032893D01*
X007386Y032347D01*
X007959Y032347D01*
X007959Y032247D01*
X007386Y032247D01*
X007386Y031700D01*
X007481Y031472D01*
X007656Y031297D01*
X007885Y031202D01*
X007959Y031202D01*
X007959Y032247D01*
X008059Y032247D01*
X008059Y032160D02*
X007959Y032160D01*
X007959Y032258D02*
X001740Y032258D01*
X001740Y032247D02*
X002312Y032247D01*
X002312Y031700D01*
X002218Y031472D01*
X002043Y031297D01*
X001814Y031202D01*
X001740Y031202D01*
X001740Y032247D01*
X001740Y032347D01*
X001740Y033392D01*
X001814Y033392D01*
X002043Y033297D01*
X002218Y033122D01*
X002312Y032893D01*
X002312Y032347D01*
X001740Y032347D01*
X001640Y032347D01*
X001640Y033392D01*
X001566Y033392D01*
X001337Y033297D01*
X001162Y033122D01*
X001068Y032893D01*
X001068Y032347D01*
X001640Y032347D01*
X001640Y032247D01*
X001068Y032247D01*
X001068Y031700D01*
X001162Y031472D01*
X001337Y031297D01*
X001566Y031202D01*
X001640Y031202D01*
X001640Y032247D01*
X001740Y032247D01*
X001740Y032160D02*
X001640Y032160D01*
X001640Y032258D02*
X000599Y032258D01*
X000599Y032160D02*
X001068Y032160D01*
X001068Y032061D02*
X000599Y032061D01*
X000599Y031963D02*
X001068Y031963D01*
X001068Y031864D02*
X000599Y031864D01*
X000599Y031766D02*
X001068Y031766D01*
X001081Y031667D02*
X000599Y031667D01*
X000599Y031569D02*
X001122Y031569D01*
X001164Y031470D02*
X000599Y031470D01*
X000599Y031371D02*
X001263Y031371D01*
X001395Y031273D02*
X000599Y031273D01*
X000599Y031174D02*
X021841Y031174D01*
X021834Y031160D02*
X021875Y031257D01*
X021949Y031331D01*
X022047Y031372D01*
X022152Y031372D01*
X022249Y031331D01*
X022324Y031257D01*
X022364Y031160D01*
X022364Y031054D01*
X022324Y030957D01*
X022249Y030882D01*
X022152Y030842D01*
X022047Y030842D01*
X021949Y030882D01*
X021875Y030957D01*
X021834Y031054D01*
X021834Y031160D01*
X021834Y031076D02*
X000599Y031076D01*
X000599Y030977D02*
X020500Y030977D01*
X020547Y030997D02*
X020652Y030997D01*
X020749Y030956D01*
X020824Y030882D01*
X020864Y030785D01*
X020864Y030679D01*
X020824Y030582D01*
X020749Y030507D01*
X020652Y030467D01*
X020547Y030467D01*
X020449Y030507D01*
X020375Y030582D01*
X020334Y030679D01*
X020334Y030785D01*
X020375Y030882D01*
X020449Y030956D01*
X020547Y030997D01*
X020699Y030977D02*
X021866Y030977D01*
X021957Y030879D02*
X020825Y030879D01*
X020864Y030780D02*
X026478Y030780D01*
X026495Y030763D02*
X026381Y030877D01*
X026319Y031026D01*
X026319Y031187D01*
X026381Y031336D01*
X026495Y031450D01*
X026644Y031512D01*
X026805Y031512D01*
X026954Y031450D01*
X027068Y031336D01*
X027129Y031187D01*
X027129Y031026D01*
X027068Y030877D01*
X026954Y030763D01*
X026805Y030702D01*
X026644Y030702D01*
X026495Y030763D01*
X026381Y030879D02*
X023866Y030879D01*
X023874Y030882D02*
X023777Y030842D01*
X023672Y030842D01*
X023574Y030882D01*
X023500Y030957D01*
X023459Y031054D01*
X023459Y031160D01*
X023500Y031257D01*
X023574Y031331D01*
X023672Y031372D01*
X023777Y031372D01*
X023874Y031331D01*
X023949Y031257D01*
X023989Y031160D01*
X023989Y031054D01*
X023949Y030957D01*
X023874Y030882D01*
X023958Y030977D02*
X026340Y030977D01*
X026319Y031076D02*
X023989Y031076D01*
X023983Y031174D02*
X026319Y031174D01*
X026355Y031273D02*
X023933Y031273D01*
X023778Y031371D02*
X026416Y031371D01*
X026543Y031470D02*
X008535Y031470D01*
X008577Y031569D02*
X030079Y031569D01*
X030079Y031667D02*
X027826Y031667D01*
X027813Y031662D02*
X027976Y031730D01*
X028102Y031855D01*
X028169Y032018D01*
X028169Y032059D01*
X027772Y032059D01*
X027677Y032059D01*
X027677Y031662D01*
X027636Y031662D01*
X027472Y031730D01*
X027347Y031855D01*
X027279Y032018D01*
X027279Y032059D01*
X027677Y032059D01*
X027677Y032154D01*
X027279Y032154D01*
X027279Y032195D01*
X027347Y032359D01*
X027472Y032484D01*
X027636Y032552D01*
X027677Y032552D01*
X027677Y032155D01*
X027772Y032155D01*
X027772Y032552D01*
X027813Y032552D01*
X027976Y032484D01*
X028102Y032359D01*
X028169Y032195D01*
X028169Y032154D01*
X027772Y032154D01*
X027772Y032059D01*
X027772Y031662D01*
X027813Y031662D01*
X027772Y031667D02*
X027677Y031667D01*
X027623Y031667D02*
X008617Y031667D01*
X008631Y031766D02*
X026493Y031766D01*
X026394Y031864D02*
X008631Y031864D01*
X008059Y031864D02*
X007959Y031864D01*
X007959Y031766D02*
X008059Y031766D01*
X008059Y031667D02*
X007959Y031667D01*
X007959Y031569D02*
X008059Y031569D01*
X008059Y031470D02*
X007959Y031470D01*
X007959Y031371D02*
X008059Y031371D01*
X008059Y031273D02*
X007959Y031273D01*
X007714Y031273D02*
X001985Y031273D01*
X002117Y031371D02*
X007581Y031371D01*
X007483Y031470D02*
X002216Y031470D01*
X002258Y031569D02*
X007441Y031569D01*
X007400Y031667D02*
X002299Y031667D01*
X002312Y031766D02*
X007386Y031766D01*
X007386Y031864D02*
X002312Y031864D01*
X002312Y031963D02*
X007386Y031963D01*
X007386Y032061D02*
X002312Y032061D01*
X002312Y032160D02*
X007386Y032160D01*
X007386Y032357D02*
X002312Y032357D01*
X002312Y032455D02*
X007386Y032455D01*
X007386Y032554D02*
X002312Y032554D01*
X002312Y032653D02*
X007386Y032653D01*
X007386Y032751D02*
X002312Y032751D01*
X002312Y032850D02*
X007386Y032850D01*
X007409Y032948D02*
X002289Y032948D01*
X002249Y033047D02*
X007450Y033047D01*
X007505Y033145D02*
X006617Y033145D01*
X006713Y033244D02*
X007603Y033244D01*
X007766Y033342D02*
X006754Y033342D01*
X006747Y033638D02*
X030079Y033638D01*
X030079Y032948D02*
X028140Y032948D01*
X028097Y032850D02*
X030079Y032850D01*
X030079Y032751D02*
X027998Y032751D01*
X027772Y032751D02*
X027677Y032751D01*
X027677Y032850D02*
X027772Y032850D01*
X027772Y032948D02*
X027677Y032948D01*
X027677Y033047D02*
X027772Y033047D01*
X027772Y033244D02*
X027677Y033244D01*
X027677Y033342D02*
X027772Y033342D01*
X027772Y033441D02*
X027677Y033441D01*
X027677Y033539D02*
X027772Y033539D01*
X027560Y033737D02*
X026889Y033737D01*
X026954Y033763D02*
X026805Y033702D01*
X026644Y033702D01*
X026495Y033763D01*
X026381Y033877D01*
X026319Y034026D01*
X026319Y034187D01*
X026381Y034336D01*
X026495Y034450D01*
X026644Y034512D01*
X026805Y034512D01*
X026954Y034450D01*
X027068Y034336D01*
X027129Y034187D01*
X027129Y034026D01*
X027068Y033877D01*
X026954Y033763D01*
X027025Y033835D02*
X027423Y033835D01*
X027358Y033934D02*
X027091Y033934D01*
X027129Y034032D02*
X027319Y034032D01*
X027319Y034131D02*
X027129Y034131D01*
X027112Y034229D02*
X027337Y034229D01*
X027378Y034328D02*
X027071Y034328D01*
X026978Y034426D02*
X027471Y034426D01*
X027595Y034722D02*
X026854Y034722D01*
X026805Y034702D02*
X026644Y034702D01*
X026495Y034763D01*
X026381Y034877D01*
X026319Y035026D01*
X026319Y035187D01*
X026381Y035336D01*
X026495Y035450D01*
X026644Y035512D01*
X026805Y035512D01*
X026954Y035450D01*
X027068Y035336D01*
X027129Y035187D01*
X027129Y035026D01*
X027068Y034877D01*
X026954Y034763D01*
X026805Y034702D01*
X026595Y034722D02*
X019540Y034722D01*
X019527Y034717D02*
X019422Y034717D01*
X019324Y034757D01*
X019250Y034832D01*
X019209Y034929D01*
X019209Y035035D01*
X019250Y035132D01*
X019324Y035206D01*
X019422Y035247D01*
X019527Y035247D01*
X019624Y035206D01*
X019699Y035132D01*
X019739Y035035D01*
X019739Y034929D01*
X019699Y034832D01*
X019624Y034757D01*
X019527Y034717D01*
X019409Y034722D02*
X018330Y034722D01*
X018324Y034707D02*
X018249Y034632D01*
X018152Y034592D01*
X018047Y034592D01*
X017949Y034632D01*
X017875Y034707D01*
X017834Y034804D01*
X017834Y034910D01*
X017875Y035007D01*
X017949Y035081D01*
X018047Y035122D01*
X018152Y035122D01*
X018249Y035081D01*
X018324Y035007D01*
X018364Y034910D01*
X018364Y034804D01*
X018324Y034707D01*
X018364Y034821D02*
X019261Y034821D01*
X019214Y034919D02*
X018360Y034919D01*
X018313Y035018D02*
X019209Y035018D01*
X019243Y035116D02*
X018166Y035116D01*
X018033Y035116D02*
X017166Y035116D01*
X017152Y035122D02*
X017249Y035081D01*
X017324Y035007D01*
X017364Y034910D01*
X017364Y034804D01*
X017324Y034707D01*
X017249Y034632D01*
X017152Y034592D01*
X017047Y034592D01*
X016949Y034632D01*
X016875Y034707D01*
X016834Y034804D01*
X016834Y034910D01*
X016875Y035007D01*
X016949Y035081D01*
X017047Y035122D01*
X017152Y035122D01*
X017033Y035116D02*
X000599Y035116D01*
X000599Y035018D02*
X016885Y035018D01*
X016838Y034919D02*
X000599Y034919D01*
X000599Y034821D02*
X002655Y034821D01*
X002630Y034810D02*
X002772Y034869D01*
X002926Y034869D01*
X003069Y034810D01*
X003178Y034701D01*
X003237Y034559D01*
X003237Y034405D01*
X003178Y034262D01*
X003069Y034154D01*
X002926Y034095D01*
X002772Y034095D01*
X002630Y034154D01*
X002521Y034262D01*
X002462Y034405D01*
X002462Y034559D01*
X002521Y034701D01*
X002630Y034810D01*
X002542Y034722D02*
X000599Y034722D01*
X000599Y034623D02*
X002489Y034623D01*
X002462Y034525D02*
X000599Y034525D01*
X000599Y034426D02*
X002462Y034426D01*
X002494Y034328D02*
X000599Y034328D01*
X000599Y034229D02*
X002554Y034229D01*
X002685Y034131D02*
X000599Y034131D01*
X000599Y034032D02*
X020709Y034032D01*
X020709Y034035D02*
X020750Y034132D01*
X020824Y034206D01*
X020922Y034247D01*
X021027Y034247D01*
X021124Y034206D01*
X021199Y034132D01*
X021239Y034035D01*
X021239Y033929D01*
X021199Y033832D01*
X021124Y033757D01*
X021027Y033717D01*
X020922Y033717D01*
X020824Y033757D01*
X020750Y033832D01*
X020709Y033929D01*
X020709Y034035D01*
X020709Y033934D02*
X000599Y033934D01*
X000599Y033835D02*
X003191Y033835D01*
X003130Y033810D02*
X003272Y033869D01*
X003426Y033869D01*
X003569Y033810D01*
X003678Y033701D01*
X003737Y033559D01*
X003737Y033405D01*
X003678Y033262D01*
X003569Y033154D01*
X003426Y033095D01*
X003272Y033095D01*
X003130Y033154D01*
X003021Y033262D01*
X002962Y033405D01*
X002962Y033559D01*
X003021Y033701D01*
X003130Y033810D01*
X003057Y033737D02*
X000599Y033737D01*
X000599Y033638D02*
X002995Y033638D01*
X002962Y033539D02*
X000599Y033539D01*
X000599Y033441D02*
X002962Y033441D01*
X002988Y033342D02*
X001933Y033342D01*
X002096Y033244D02*
X003040Y033244D01*
X003150Y033145D02*
X002194Y033145D01*
X001740Y033145D02*
X001640Y033145D01*
X001640Y033047D02*
X001740Y033047D01*
X001740Y032948D02*
X001640Y032948D01*
X001640Y032850D02*
X001740Y032850D01*
X001740Y032751D02*
X001640Y032751D01*
X001640Y032653D02*
X001740Y032653D01*
X001740Y032554D02*
X001640Y032554D01*
X001640Y032455D02*
X001740Y032455D01*
X001740Y032357D02*
X001640Y032357D01*
X001640Y032061D02*
X001740Y032061D01*
X001740Y031963D02*
X001640Y031963D01*
X001640Y031864D02*
X001740Y031864D01*
X001740Y031766D02*
X001640Y031766D01*
X001640Y031667D02*
X001740Y031667D01*
X001740Y031569D02*
X001640Y031569D01*
X001640Y031470D02*
X001740Y031470D01*
X001740Y031371D02*
X001640Y031371D01*
X001640Y031273D02*
X001740Y031273D01*
X000599Y030879D02*
X020373Y030879D01*
X020334Y030780D02*
X000599Y030780D01*
X000599Y030682D02*
X016675Y030682D01*
X016699Y030706D02*
X016797Y030747D01*
X016902Y030747D01*
X016999Y030706D01*
X017074Y030632D01*
X017114Y030535D01*
X017114Y030429D01*
X017074Y030332D01*
X016999Y030257D01*
X016902Y030217D01*
X016797Y030217D01*
X016699Y030257D01*
X016625Y030332D01*
X016584Y030429D01*
X016584Y030535D01*
X016625Y030632D01*
X016699Y030706D01*
X016605Y030583D02*
X000599Y030583D01*
X000599Y030485D02*
X016584Y030485D01*
X016602Y030386D02*
X000599Y030386D01*
X000599Y030288D02*
X016669Y030288D01*
X017030Y030288D02*
X018030Y030288D01*
X018000Y030257D02*
X018074Y030331D01*
X018172Y030372D01*
X018277Y030372D01*
X018374Y030331D01*
X018449Y030257D01*
X018489Y030160D01*
X018489Y030054D01*
X018449Y029957D01*
X018374Y029882D01*
X018277Y029842D01*
X018172Y029842D01*
X018074Y029882D01*
X018000Y029957D01*
X017959Y030054D01*
X017959Y030160D01*
X018000Y030257D01*
X017972Y030189D02*
X000599Y030189D01*
X000599Y030090D02*
X017959Y030090D01*
X017985Y029992D02*
X000599Y029992D01*
X000599Y029893D02*
X018063Y029893D01*
X018386Y029893D02*
X026374Y029893D01*
X026381Y029877D02*
X026319Y030026D01*
X026319Y030187D01*
X026381Y030336D01*
X026495Y030450D01*
X026644Y030512D01*
X026805Y030512D01*
X026954Y030450D01*
X027068Y030336D01*
X027129Y030187D01*
X027129Y030026D01*
X027068Y029877D01*
X026954Y029763D01*
X026805Y029702D01*
X026644Y029702D01*
X026495Y029763D01*
X026381Y029877D01*
X026464Y029795D02*
X000599Y029795D01*
X000599Y029696D02*
X015814Y029696D01*
X015824Y029706D02*
X015922Y029747D01*
X016027Y029747D01*
X016124Y029706D01*
X016199Y029632D01*
X016239Y029535D01*
X016239Y029429D01*
X016199Y029332D01*
X016124Y029257D01*
X016027Y029217D01*
X015922Y029217D01*
X015824Y029257D01*
X015750Y029332D01*
X015709Y029429D01*
X015709Y029535D01*
X015750Y029632D01*
X015824Y029706D01*
X015736Y029598D02*
X000599Y029598D01*
X000599Y029499D02*
X015709Y029499D01*
X015721Y029401D02*
X000599Y029401D01*
X000599Y029302D02*
X015779Y029302D01*
X016169Y029302D02*
X016529Y029302D01*
X016500Y029332D02*
X016459Y029429D01*
X016459Y029535D01*
X016500Y029632D01*
X016574Y029706D01*
X016672Y029747D01*
X016777Y029747D01*
X016874Y029706D01*
X016949Y029632D01*
X016989Y029535D01*
X016989Y029429D01*
X016949Y029332D01*
X016874Y029257D01*
X016777Y029217D01*
X016672Y029217D01*
X016574Y029257D01*
X016500Y029332D01*
X016471Y029401D02*
X016228Y029401D01*
X016239Y029499D02*
X016459Y029499D01*
X016486Y029598D02*
X016213Y029598D01*
X016135Y029696D02*
X016564Y029696D01*
X016885Y029696D02*
X027553Y029696D01*
X027472Y029730D02*
X027636Y029662D01*
X027677Y029662D01*
X027677Y030059D01*
X027772Y030059D01*
X027772Y029662D01*
X027813Y029662D01*
X027976Y029730D01*
X028102Y029855D01*
X028169Y030018D01*
X028169Y030059D01*
X027772Y030059D01*
X027772Y030154D01*
X028169Y030154D01*
X028169Y030195D01*
X028102Y030359D01*
X027976Y030484D01*
X027813Y030552D01*
X027772Y030552D01*
X027772Y030155D01*
X027677Y030155D01*
X027677Y030552D01*
X027636Y030552D01*
X027472Y030484D01*
X027347Y030359D01*
X027279Y030195D01*
X027279Y030154D01*
X027677Y030154D01*
X027677Y030059D01*
X027279Y030059D01*
X027279Y030018D01*
X027347Y029855D01*
X027472Y029730D01*
X027407Y029795D02*
X026985Y029795D01*
X027074Y029893D02*
X027331Y029893D01*
X027290Y029992D02*
X027115Y029992D01*
X027129Y030090D02*
X027677Y030090D01*
X027772Y030090D02*
X030079Y030090D01*
X030079Y029992D02*
X028158Y029992D01*
X028118Y029893D02*
X030079Y029893D01*
X030079Y029795D02*
X028042Y029795D01*
X027896Y029696D02*
X030079Y029696D01*
X030079Y029598D02*
X016963Y029598D01*
X016989Y029499D02*
X030079Y029499D01*
X030079Y029401D02*
X016978Y029401D01*
X016919Y029302D02*
X030079Y029302D01*
X030079Y029204D02*
X000599Y029204D01*
X000599Y029105D02*
X030079Y029105D01*
X030079Y029006D02*
X000599Y029006D01*
X000599Y028908D02*
X030079Y028908D01*
X030079Y028809D02*
X000599Y028809D01*
X000599Y028711D02*
X030079Y028711D01*
X030079Y028612D02*
X000599Y028612D01*
X000599Y028514D02*
X030079Y028514D01*
X030059Y028415D02*
X000599Y028415D01*
X000599Y028317D02*
X030034Y028317D01*
X030040Y028218D02*
X000599Y028218D01*
X000599Y028120D02*
X030081Y028120D01*
X030186Y028021D02*
X000599Y028021D01*
X000599Y026149D02*
X024642Y026149D01*
X024591Y026050D02*
X000599Y026050D01*
X000599Y025952D02*
X024584Y025952D01*
X024616Y025853D02*
X000599Y025853D01*
X000599Y024079D02*
X001796Y024079D01*
X001503Y023981D02*
X000599Y023981D01*
X000599Y023882D02*
X001332Y023882D01*
X001200Y023784D02*
X000599Y023784D01*
X000599Y023685D02*
X001101Y023685D01*
X001003Y023587D02*
X000599Y023587D01*
X000599Y023488D02*
X000943Y023488D01*
X000886Y023389D02*
X000599Y023389D01*
X000599Y023291D02*
X000829Y023291D01*
X000794Y023192D02*
X000599Y023192D01*
X000599Y023094D02*
X000768Y023094D01*
X000741Y022995D02*
X000599Y022995D01*
X000599Y022897D02*
X000719Y022897D01*
X000719Y022798D02*
X000599Y022798D01*
X000599Y022700D02*
X000719Y022700D01*
X000719Y022601D02*
X000599Y022601D01*
X000599Y022503D02*
X000732Y022503D01*
X000759Y022404D02*
X000599Y022404D01*
X000599Y022306D02*
X000785Y022306D01*
X000811Y022207D02*
X000599Y022207D01*
X000599Y022108D02*
X000866Y022108D01*
X000923Y022010D02*
X000599Y022010D01*
X000599Y021911D02*
X000980Y021911D01*
X001067Y021813D02*
X000599Y021813D01*
X000599Y021714D02*
X001165Y021714D01*
X001273Y021616D02*
X000599Y021616D01*
X000599Y021517D02*
X001443Y021517D01*
X001668Y021419D02*
X000599Y021419D01*
X008304Y031273D02*
X021891Y031273D01*
X022046Y031371D02*
X008436Y031371D01*
X008059Y031963D02*
X007959Y031963D01*
X007959Y032061D02*
X008059Y032061D01*
X008059Y032357D02*
X007959Y032357D01*
X007959Y032455D02*
X008059Y032455D01*
X008059Y032554D02*
X007959Y032554D01*
X007959Y032653D02*
X008059Y032653D01*
X008059Y032751D02*
X007959Y032751D01*
X007959Y032850D02*
X008059Y032850D01*
X008059Y032948D02*
X007959Y032948D01*
X007959Y033047D02*
X008059Y033047D01*
X008059Y033145D02*
X007959Y033145D01*
X007959Y033244D02*
X008059Y033244D01*
X008059Y033342D02*
X007959Y033342D01*
X006699Y033737D02*
X020874Y033737D01*
X020748Y033835D02*
X006600Y033835D01*
X006388Y033835D02*
X006311Y033835D01*
X006311Y033737D02*
X006388Y033737D01*
X006388Y033638D02*
X006311Y033638D01*
X006311Y033539D02*
X006388Y033539D01*
X006388Y033441D02*
X006311Y033441D01*
X006311Y033342D02*
X006388Y033342D01*
X006388Y033244D02*
X006311Y033244D01*
X006311Y033145D02*
X006388Y033145D01*
X006082Y033145D02*
X005549Y033145D01*
X005569Y033154D02*
X005426Y033095D01*
X005272Y033095D01*
X005130Y033154D01*
X005021Y033262D01*
X004962Y033405D01*
X004962Y033559D01*
X005021Y033701D01*
X005130Y033810D01*
X005272Y033869D01*
X005426Y033869D01*
X005569Y033810D01*
X005678Y033701D01*
X005737Y033559D01*
X005737Y033405D01*
X005678Y033262D01*
X005569Y033154D01*
X005659Y033244D02*
X005986Y033244D01*
X005945Y033342D02*
X005711Y033342D01*
X005737Y033441D02*
X005922Y033441D01*
X005922Y033539D02*
X005737Y033539D01*
X005704Y033638D02*
X005952Y033638D01*
X006000Y033737D02*
X005642Y033737D01*
X005508Y033835D02*
X006099Y033835D01*
X006014Y034131D02*
X020749Y034131D01*
X020879Y034229D02*
X006144Y034229D01*
X006178Y034262D02*
X006069Y034154D01*
X005926Y034095D01*
X005772Y034095D01*
X005630Y034154D01*
X005521Y034262D01*
X005462Y034405D01*
X005462Y034559D01*
X005521Y034701D01*
X005630Y034810D01*
X005772Y034869D01*
X005926Y034869D01*
X006069Y034810D01*
X006178Y034701D01*
X006237Y034559D01*
X006237Y034405D01*
X006178Y034262D01*
X006205Y034328D02*
X026378Y034328D01*
X026337Y034229D02*
X021069Y034229D01*
X021199Y034131D02*
X026319Y034131D01*
X026319Y034032D02*
X021239Y034032D01*
X021239Y033934D02*
X026358Y033934D01*
X026423Y033835D02*
X021200Y033835D01*
X021075Y033737D02*
X026560Y033737D01*
X026471Y034426D02*
X006237Y034426D01*
X006237Y034525D02*
X029254Y034525D01*
X029264Y034515D02*
X029175Y034604D01*
X029127Y034720D01*
X029127Y034845D01*
X029175Y034961D01*
X029264Y035049D01*
X029379Y035097D01*
X029505Y035097D01*
X029621Y035049D01*
X029709Y034961D01*
X029757Y034845D01*
X029757Y034720D01*
X029709Y034604D01*
X029621Y034515D01*
X029505Y034467D01*
X029379Y034467D01*
X029264Y034515D01*
X029167Y034623D02*
X018228Y034623D01*
X017970Y034623D02*
X017228Y034623D01*
X017330Y034722D02*
X017868Y034722D01*
X017834Y034821D02*
X017364Y034821D01*
X017360Y034919D02*
X017838Y034919D01*
X017885Y035018D02*
X017313Y035018D01*
X016834Y034821D02*
X006043Y034821D01*
X006157Y034722D02*
X016868Y034722D01*
X016970Y034623D02*
X006210Y034623D01*
X005655Y034821D02*
X005043Y034821D01*
X005069Y034810D02*
X005178Y034701D01*
X005237Y034559D01*
X005237Y034405D01*
X005178Y034262D01*
X005069Y034154D01*
X004926Y034095D01*
X004772Y034095D01*
X004630Y034154D01*
X004521Y034262D01*
X004462Y034405D01*
X004462Y034559D01*
X004521Y034701D01*
X004630Y034810D01*
X004772Y034869D01*
X004926Y034869D01*
X005069Y034810D01*
X005157Y034722D02*
X005542Y034722D01*
X005489Y034623D02*
X005210Y034623D01*
X005237Y034525D02*
X005462Y034525D01*
X005462Y034426D02*
X005237Y034426D01*
X005205Y034328D02*
X005494Y034328D01*
X005554Y034229D02*
X005144Y034229D01*
X005014Y034131D02*
X005685Y034131D01*
X005191Y033835D02*
X004508Y033835D01*
X004569Y033810D02*
X004678Y033701D01*
X004737Y033559D01*
X004737Y033405D01*
X004678Y033262D01*
X004569Y033154D01*
X004426Y033095D01*
X004272Y033095D01*
X004130Y033154D01*
X004021Y033262D01*
X003962Y033405D01*
X003962Y033559D01*
X004021Y033701D01*
X004130Y033810D01*
X004272Y033869D01*
X004426Y033869D01*
X004569Y033810D01*
X004642Y033737D02*
X005057Y033737D01*
X004995Y033638D02*
X004704Y033638D01*
X004737Y033539D02*
X004962Y033539D01*
X004962Y033441D02*
X004737Y033441D01*
X004711Y033342D02*
X004988Y033342D01*
X005040Y033244D02*
X004659Y033244D01*
X004549Y033145D02*
X005150Y033145D01*
X004150Y033145D02*
X003549Y033145D01*
X003659Y033244D02*
X004040Y033244D01*
X003988Y033342D02*
X003711Y033342D01*
X003737Y033441D02*
X003962Y033441D01*
X003962Y033539D02*
X003737Y033539D01*
X003704Y033638D02*
X003995Y033638D01*
X004057Y033737D02*
X003642Y033737D01*
X003508Y033835D02*
X004191Y033835D01*
X004069Y034154D02*
X003926Y034095D01*
X003772Y034095D01*
X003630Y034154D01*
X003521Y034262D01*
X003462Y034405D01*
X003462Y034559D01*
X003521Y034701D01*
X003630Y034810D01*
X003772Y034869D01*
X003926Y034869D01*
X004069Y034810D01*
X004178Y034701D01*
X004237Y034559D01*
X004237Y034405D01*
X004178Y034262D01*
X004069Y034154D01*
X004014Y034131D02*
X004685Y034131D01*
X004554Y034229D02*
X004144Y034229D01*
X004205Y034328D02*
X004494Y034328D01*
X004462Y034426D02*
X004237Y034426D01*
X004237Y034525D02*
X004462Y034525D01*
X004489Y034623D02*
X004210Y034623D01*
X004157Y034722D02*
X004542Y034722D01*
X004655Y034821D02*
X004043Y034821D01*
X003655Y034821D02*
X003043Y034821D01*
X003157Y034722D02*
X003542Y034722D01*
X003489Y034623D02*
X003210Y034623D01*
X003237Y034525D02*
X003462Y034525D01*
X003462Y034426D02*
X003237Y034426D01*
X003205Y034328D02*
X003494Y034328D01*
X003554Y034229D02*
X003144Y034229D01*
X003014Y034131D02*
X003685Y034131D01*
X002849Y035966D02*
X002572Y035892D01*
X002285Y035892D01*
X002007Y035966D01*
X001759Y036110D01*
X001556Y036313D01*
X001413Y036561D01*
X001338Y036838D01*
X001338Y037125D01*
X001413Y037402D01*
X001556Y037651D01*
X001759Y037854D01*
X002007Y037997D01*
X002285Y038072D01*
X002572Y038072D01*
X002849Y037997D01*
X003097Y037854D01*
X003300Y037651D01*
X003444Y037402D01*
X003518Y037125D01*
X003518Y036838D01*
X003444Y036561D01*
X003300Y036313D01*
X003097Y036110D01*
X002849Y035966D01*
X002912Y036003D02*
X006786Y036003D01*
X006850Y035966D02*
X006602Y036110D01*
X006399Y036313D01*
X006255Y036561D01*
X006181Y036838D01*
X006181Y037125D01*
X006255Y037402D01*
X006399Y037651D01*
X006602Y037854D01*
X006850Y037997D01*
X007127Y038072D01*
X007414Y038072D01*
X007691Y037997D01*
X007940Y037854D01*
X008143Y037651D01*
X008286Y037402D01*
X008360Y037125D01*
X008360Y036838D01*
X008286Y036561D01*
X008143Y036313D01*
X007940Y036110D01*
X007691Y035966D01*
X007414Y035892D01*
X007127Y035892D01*
X006850Y035966D01*
X007081Y035904D02*
X002618Y035904D01*
X002238Y035904D02*
X000599Y035904D01*
X000599Y035806D02*
X026452Y035806D01*
X026495Y035763D02*
X026381Y035877D01*
X026319Y036026D01*
X026319Y036187D01*
X026381Y036336D01*
X026495Y036450D01*
X026644Y036512D01*
X026805Y036512D01*
X026954Y036450D01*
X027068Y036336D01*
X027129Y036187D01*
X027129Y036026D01*
X027068Y035877D01*
X026954Y035763D01*
X026805Y035702D01*
X026644Y035702D01*
X026495Y035763D01*
X026630Y035707D02*
X000599Y035707D01*
X000599Y035609D02*
X023640Y035609D01*
X023672Y035622D02*
X023777Y035622D01*
X023874Y035581D01*
X023949Y035507D01*
X023989Y035410D01*
X023989Y035304D01*
X023949Y035207D01*
X023874Y035132D01*
X023777Y035092D01*
X023672Y035092D01*
X023574Y035132D01*
X023500Y035207D01*
X023459Y035304D01*
X023459Y035410D01*
X023500Y035507D01*
X023574Y035581D01*
X023672Y035622D01*
X023808Y035609D02*
X029154Y035609D01*
X029175Y035660D02*
X029264Y035749D01*
X029379Y035797D01*
X029505Y035797D01*
X029621Y035749D01*
X029709Y035660D01*
X029757Y035544D01*
X029757Y035419D01*
X029709Y035303D01*
X029621Y035215D01*
X029505Y035167D01*
X029379Y035167D01*
X029264Y035215D01*
X028118Y035215D01*
X028129Y035187D02*
X028129Y035026D01*
X028068Y034877D01*
X027954Y034763D01*
X027805Y034702D01*
X027644Y034702D01*
X027495Y034763D01*
X027381Y034877D01*
X027319Y035026D01*
X027319Y035187D01*
X027381Y035336D01*
X027495Y035450D01*
X027644Y035512D01*
X027805Y035512D01*
X027954Y035450D01*
X028068Y035336D01*
X028129Y035187D01*
X028129Y035116D02*
X039099Y035116D01*
X039099Y035018D02*
X030560Y035018D01*
X030528Y035049D02*
X030616Y034961D01*
X030664Y034845D01*
X030664Y034720D01*
X030616Y034604D01*
X030528Y034515D01*
X030412Y034467D01*
X030287Y034467D01*
X030171Y034515D01*
X030082Y034604D01*
X030034Y034720D01*
X030034Y034845D01*
X030082Y034961D01*
X030171Y035049D01*
X030287Y035097D01*
X030412Y035097D01*
X030528Y035049D01*
X030412Y035167D02*
X030287Y035167D01*
X030171Y035215D01*
X030082Y035303D01*
X030034Y035419D01*
X030034Y035544D01*
X030082Y035660D01*
X030171Y035749D01*
X030287Y035797D01*
X030412Y035797D01*
X030528Y035749D01*
X030616Y035660D01*
X030664Y035544D01*
X030664Y035419D01*
X030616Y035303D01*
X030528Y035215D01*
X030412Y035167D01*
X030528Y035215D02*
X039099Y035215D01*
X039099Y035313D02*
X030621Y035313D01*
X030661Y035412D02*
X039099Y035412D01*
X039099Y035510D02*
X030664Y035510D01*
X030638Y035609D02*
X039099Y035609D01*
X039099Y035707D02*
X030569Y035707D01*
X030130Y035707D02*
X029662Y035707D01*
X029730Y035609D02*
X030061Y035609D01*
X030034Y035510D02*
X029757Y035510D01*
X029754Y035412D02*
X030037Y035412D01*
X030078Y035313D02*
X029713Y035313D01*
X029620Y035215D02*
X030171Y035215D01*
X030139Y035018D02*
X029652Y035018D01*
X029726Y034919D02*
X030065Y034919D01*
X030034Y034821D02*
X029757Y034821D01*
X029757Y034722D02*
X030034Y034722D01*
X030074Y034623D02*
X029717Y034623D01*
X029630Y034525D02*
X030161Y034525D01*
X030537Y034525D02*
X039099Y034525D01*
X039099Y034623D02*
X030625Y034623D01*
X030664Y034722D02*
X039099Y034722D01*
X039099Y034821D02*
X030664Y034821D01*
X030634Y034919D02*
X039099Y034919D01*
X039099Y034426D02*
X027978Y034426D01*
X027854Y034722D02*
X029127Y034722D01*
X029127Y034821D02*
X028011Y034821D01*
X028085Y034919D02*
X029158Y034919D01*
X029232Y035018D02*
X028126Y035018D01*
X028077Y035313D02*
X029171Y035313D01*
X029175Y035303D02*
X029127Y035419D01*
X029127Y035544D01*
X029175Y035660D01*
X029222Y035707D02*
X028127Y035707D01*
X028169Y035750D02*
X028082Y035662D01*
X027772Y035662D01*
X027772Y036059D01*
X027677Y036059D01*
X027677Y035662D01*
X027367Y035662D01*
X027279Y035750D01*
X027279Y036059D01*
X027677Y036059D01*
X027677Y036154D01*
X027279Y036154D01*
X027279Y036464D01*
X027367Y036552D01*
X027677Y036552D01*
X027677Y036155D01*
X027772Y036155D01*
X027772Y036552D01*
X028082Y036552D01*
X028169Y036464D01*
X028169Y036154D01*
X027772Y036154D01*
X027772Y036059D01*
X028169Y036059D01*
X028169Y035750D01*
X028169Y035806D02*
X039099Y035806D01*
X039099Y035904D02*
X028169Y035904D01*
X028169Y036003D02*
X039099Y036003D01*
X039099Y036102D02*
X027772Y036102D01*
X027677Y036102D02*
X027129Y036102D01*
X027124Y036200D02*
X027279Y036200D01*
X027279Y036299D02*
X027083Y036299D01*
X027007Y036397D02*
X027279Y036397D01*
X027311Y036496D02*
X026844Y036496D01*
X026605Y036496D02*
X008248Y036496D01*
X008295Y036594D02*
X037060Y036594D01*
X036937Y036693D02*
X008321Y036693D01*
X008348Y036791D02*
X036838Y036791D01*
X036742Y036890D02*
X008360Y036890D01*
X008360Y036988D02*
X036685Y036988D01*
X036628Y037087D02*
X008360Y037087D01*
X008344Y037186D02*
X036571Y037186D01*
X036541Y037284D02*
X008318Y037284D01*
X008291Y037383D02*
X036514Y037383D01*
X036488Y037481D02*
X008241Y037481D01*
X008184Y037580D02*
X036469Y037580D01*
X036469Y037678D02*
X008115Y037678D01*
X008017Y037777D02*
X036469Y037777D01*
X036469Y037875D02*
X007902Y037875D01*
X007732Y037974D02*
X036486Y037974D01*
X036512Y038072D02*
X000599Y038072D01*
X000599Y037974D02*
X001967Y037974D01*
X001796Y037875D02*
X000599Y037875D01*
X000599Y037777D02*
X001682Y037777D01*
X001583Y037678D02*
X000599Y037678D01*
X000599Y037580D02*
X001515Y037580D01*
X001458Y037481D02*
X000599Y037481D01*
X000599Y037383D02*
X001407Y037383D01*
X001381Y037284D02*
X000599Y037284D01*
X000599Y037186D02*
X001355Y037186D01*
X001338Y037087D02*
X000599Y037087D01*
X000599Y036988D02*
X001338Y036988D01*
X001338Y036890D02*
X000599Y036890D01*
X000599Y036791D02*
X001351Y036791D01*
X001377Y036693D02*
X000599Y036693D01*
X000599Y036594D02*
X001404Y036594D01*
X001450Y036496D02*
X000599Y036496D01*
X000599Y036397D02*
X001507Y036397D01*
X001570Y036299D02*
X000599Y036299D01*
X000599Y036200D02*
X001669Y036200D01*
X001773Y036102D02*
X000599Y036102D01*
X000599Y036003D02*
X001944Y036003D01*
X003083Y036102D02*
X006616Y036102D01*
X006511Y036200D02*
X003188Y036200D01*
X003286Y036299D02*
X006413Y036299D01*
X006350Y036397D02*
X003349Y036397D01*
X003406Y036496D02*
X006293Y036496D01*
X006246Y036594D02*
X003453Y036594D01*
X003479Y036693D02*
X006220Y036693D01*
X006194Y036791D02*
X003505Y036791D01*
X003518Y036890D02*
X006181Y036890D01*
X006181Y036988D02*
X003518Y036988D01*
X003518Y037087D02*
X006181Y037087D01*
X006197Y037186D02*
X003502Y037186D01*
X003475Y037284D02*
X006223Y037284D01*
X006250Y037383D02*
X003449Y037383D01*
X003398Y037481D02*
X006301Y037481D01*
X006358Y037580D02*
X003341Y037580D01*
X003273Y037678D02*
X006426Y037678D01*
X006525Y037777D02*
X003174Y037777D01*
X003060Y037875D02*
X006639Y037875D01*
X006809Y037974D02*
X002889Y037974D01*
X000599Y038171D02*
X036538Y038171D01*
X036566Y038270D02*
X000599Y038270D01*
X000599Y038368D02*
X036623Y038368D01*
X036680Y038467D02*
X000599Y038467D01*
X000599Y038565D02*
X036737Y038565D01*
X036830Y038664D02*
X000599Y038664D01*
X000599Y038762D02*
X036928Y038762D01*
X037045Y038861D02*
X000599Y038861D01*
X000599Y038959D02*
X037216Y038959D01*
X037467Y039058D02*
X000599Y039058D01*
X000599Y039156D02*
X039099Y039156D01*
X039099Y039058D02*
X038232Y039058D01*
X038483Y038959D02*
X039099Y038959D01*
X039099Y038861D02*
X038654Y038861D01*
X038771Y038762D02*
X039099Y038762D01*
X039099Y038664D02*
X038869Y038664D01*
X038962Y038565D02*
X039099Y038565D01*
X039099Y038467D02*
X039019Y038467D01*
X039075Y038368D02*
X039099Y038368D01*
X039099Y037087D02*
X039071Y037087D01*
X039099Y036988D02*
X039014Y036988D01*
X038957Y036890D02*
X039099Y036890D01*
X039099Y036791D02*
X038861Y036791D01*
X038762Y036693D02*
X039099Y036693D01*
X039099Y036594D02*
X038639Y036594D01*
X038468Y036496D02*
X039099Y036496D01*
X039099Y036397D02*
X038201Y036397D01*
X037498Y036397D02*
X028169Y036397D01*
X028169Y036299D02*
X039099Y036299D01*
X039099Y036200D02*
X028169Y036200D01*
X028138Y036496D02*
X037230Y036496D01*
X034787Y032419D02*
X033599Y032419D01*
X033599Y031482D01*
X034787Y031482D01*
X034787Y032419D01*
X034787Y032357D02*
X033599Y032357D01*
X033599Y032258D02*
X034787Y032258D01*
X034787Y032160D02*
X033599Y032160D01*
X033599Y032061D02*
X034787Y032061D01*
X034787Y031963D02*
X033599Y031963D01*
X033599Y031864D02*
X034787Y031864D01*
X034787Y031766D02*
X033599Y031766D01*
X033599Y031667D02*
X034787Y031667D01*
X034787Y031569D02*
X033599Y031569D01*
X033892Y031569D02*
X030619Y031569D01*
X030619Y031667D02*
X033892Y031667D01*
X033892Y031766D02*
X032758Y031766D01*
X032599Y031982D02*
X034162Y031982D01*
X034006Y032258D02*
X030619Y032258D01*
X030619Y032160D02*
X032403Y032160D01*
X032345Y032061D02*
X030619Y032061D01*
X030619Y031963D02*
X032334Y031963D01*
X032361Y031864D02*
X030619Y031864D01*
X030619Y031766D02*
X032441Y031766D01*
X032796Y032160D02*
X033895Y032160D01*
X033892Y031470D02*
X030619Y031470D01*
X030619Y031371D02*
X033892Y031371D01*
X033892Y031273D02*
X030619Y031273D01*
X030619Y031174D02*
X033892Y031174D01*
X033892Y031076D02*
X030619Y031076D01*
X030619Y030977D02*
X033892Y030977D01*
X033892Y030879D02*
X030619Y030879D01*
X030619Y030780D02*
X033892Y030780D01*
X033892Y030682D02*
X030619Y030682D01*
X030619Y030583D02*
X033892Y030583D01*
X033892Y030485D02*
X030619Y030485D01*
X030619Y030386D02*
X033892Y030386D01*
X033892Y030288D02*
X030619Y030288D01*
X030619Y030189D02*
X033892Y030189D01*
X033892Y030090D02*
X030619Y030090D01*
X030619Y029992D02*
X033892Y029992D01*
X033892Y029893D02*
X030619Y029893D01*
X030619Y029795D02*
X033873Y029795D01*
X033847Y029696D02*
X030619Y029696D01*
X030619Y029598D02*
X033851Y029598D01*
X033891Y029499D02*
X030619Y029499D01*
X030619Y029401D02*
X033987Y029401D01*
X033874Y027331D02*
X021199Y027331D01*
X021065Y027233D02*
X033775Y027233D01*
X033687Y027134D02*
X015239Y027134D01*
X015239Y027160D02*
X015239Y027054D01*
X015199Y026957D01*
X015232Y027036D02*
X033646Y027036D01*
X030079Y030189D02*
X028169Y030189D01*
X028131Y030288D02*
X030079Y030288D01*
X030079Y030386D02*
X028074Y030386D01*
X027975Y030485D02*
X030079Y030485D01*
X030079Y030583D02*
X020825Y030583D01*
X020864Y030682D02*
X027588Y030682D01*
X027636Y030662D02*
X027472Y030730D01*
X027347Y030855D01*
X027279Y031018D01*
X027279Y031059D01*
X027677Y031059D01*
X027677Y030662D01*
X027636Y030662D01*
X027677Y030682D02*
X027772Y030682D01*
X027772Y030662D02*
X027772Y031059D01*
X027677Y031059D01*
X027677Y031154D01*
X027279Y031154D01*
X027279Y031195D01*
X027347Y031359D01*
X027472Y031484D01*
X027636Y031552D01*
X027677Y031552D01*
X027677Y031155D01*
X027772Y031155D01*
X027772Y031552D01*
X027813Y031552D01*
X027976Y031484D01*
X028102Y031359D01*
X028169Y031195D01*
X028169Y031154D01*
X027772Y031154D01*
X027772Y031059D01*
X028169Y031059D01*
X028169Y031018D01*
X028102Y030855D01*
X027976Y030730D01*
X027813Y030662D01*
X027772Y030662D01*
X027861Y030682D02*
X030079Y030682D01*
X030079Y030780D02*
X028027Y030780D01*
X028112Y030879D02*
X030079Y030879D01*
X030079Y030977D02*
X028152Y030977D01*
X028169Y031174D02*
X030079Y031174D01*
X030079Y031076D02*
X027772Y031076D01*
X027677Y031076D02*
X027129Y031076D01*
X027129Y031174D02*
X027279Y031174D01*
X027312Y031273D02*
X027094Y031273D01*
X027032Y031371D02*
X027360Y031371D01*
X027458Y031470D02*
X026906Y031470D01*
X026956Y031766D02*
X027436Y031766D01*
X027343Y031864D02*
X027055Y031864D01*
X027103Y031963D02*
X027302Y031963D01*
X027279Y032160D02*
X027129Y032160D01*
X027129Y032061D02*
X027677Y032061D01*
X027772Y032061D02*
X030079Y032061D01*
X030079Y031963D02*
X028146Y031963D01*
X028106Y031864D02*
X030079Y031864D01*
X030079Y031766D02*
X028013Y031766D01*
X027772Y031766D02*
X027677Y031766D01*
X027677Y031864D02*
X027772Y031864D01*
X027772Y031963D02*
X027677Y031963D01*
X027677Y032160D02*
X027772Y032160D01*
X027772Y032258D02*
X027677Y032258D01*
X027677Y032357D02*
X027772Y032357D01*
X027772Y032455D02*
X027677Y032455D01*
X027444Y032455D02*
X026941Y032455D01*
X027047Y032357D02*
X027346Y032357D01*
X027306Y032258D02*
X027100Y032258D01*
X027677Y031470D02*
X027772Y031470D01*
X027772Y031371D02*
X027677Y031371D01*
X027677Y031273D02*
X027772Y031273D01*
X027772Y031174D02*
X027677Y031174D01*
X027677Y030977D02*
X027772Y030977D01*
X027772Y030879D02*
X027677Y030879D01*
X027677Y030780D02*
X027772Y030780D01*
X027772Y030485D02*
X027677Y030485D01*
X027677Y030386D02*
X027772Y030386D01*
X027772Y030288D02*
X027677Y030288D01*
X027677Y030189D02*
X027772Y030189D01*
X027772Y029992D02*
X027677Y029992D01*
X027677Y029893D02*
X027772Y029893D01*
X027772Y029795D02*
X027677Y029795D01*
X027677Y029696D02*
X027772Y029696D01*
X027279Y030189D02*
X027129Y030189D01*
X027088Y030288D02*
X027318Y030288D01*
X027374Y030386D02*
X027018Y030386D01*
X026871Y030485D02*
X027474Y030485D01*
X027422Y030780D02*
X026971Y030780D01*
X027068Y030879D02*
X027337Y030879D01*
X027296Y030977D02*
X027109Y030977D01*
X026578Y030485D02*
X020695Y030485D01*
X020504Y030485D02*
X019583Y030485D01*
X019574Y030507D02*
X019614Y030410D01*
X019614Y030304D01*
X019574Y030207D01*
X019499Y030132D01*
X019402Y030092D01*
X019297Y030092D01*
X019199Y030132D01*
X019125Y030207D01*
X019084Y030304D01*
X019084Y030410D01*
X019125Y030507D01*
X019199Y030581D01*
X019297Y030622D01*
X019402Y030622D01*
X019499Y030581D01*
X019574Y030507D01*
X019495Y030583D02*
X020374Y030583D01*
X020334Y030682D02*
X017024Y030682D01*
X017094Y030583D02*
X019203Y030583D01*
X019116Y030485D02*
X017114Y030485D01*
X017097Y030386D02*
X019084Y030386D01*
X019091Y030288D02*
X018418Y030288D01*
X018477Y030189D02*
X019142Y030189D01*
X019556Y030189D02*
X026320Y030189D01*
X026319Y030090D02*
X018489Y030090D01*
X018464Y029992D02*
X026334Y029992D01*
X026361Y030288D02*
X019608Y030288D01*
X019614Y030386D02*
X026431Y030386D01*
X027990Y031470D02*
X030079Y031470D01*
X030079Y031371D02*
X028089Y031371D01*
X028137Y031273D02*
X030079Y031273D01*
X030079Y032160D02*
X028169Y032160D01*
X028143Y032258D02*
X030079Y032258D01*
X030079Y032357D02*
X028102Y032357D01*
X028005Y032455D02*
X030079Y032455D01*
X027451Y032751D02*
X026924Y032751D01*
X027040Y032850D02*
X027352Y032850D01*
X027308Y032948D02*
X027097Y032948D01*
X027129Y033047D02*
X027279Y033047D01*
X027438Y034821D02*
X027011Y034821D01*
X027085Y034919D02*
X027364Y034919D01*
X027323Y035018D02*
X027126Y035018D01*
X027129Y035116D02*
X027319Y035116D01*
X027331Y035215D02*
X027118Y035215D01*
X027077Y035313D02*
X027372Y035313D01*
X027457Y035412D02*
X026992Y035412D01*
X026808Y035510D02*
X027640Y035510D01*
X027808Y035510D02*
X029127Y035510D01*
X029130Y035412D02*
X027992Y035412D01*
X027772Y035707D02*
X027677Y035707D01*
X027677Y035806D02*
X027772Y035806D01*
X027772Y035904D02*
X027677Y035904D01*
X027677Y036003D02*
X027772Y036003D01*
X027772Y036200D02*
X027677Y036200D01*
X027677Y036299D02*
X027772Y036299D01*
X027772Y036397D02*
X027677Y036397D01*
X027677Y036496D02*
X027772Y036496D01*
X027279Y036003D02*
X027120Y036003D01*
X027079Y035904D02*
X027279Y035904D01*
X027279Y035806D02*
X026996Y035806D01*
X026818Y035707D02*
X027322Y035707D01*
X026640Y035510D02*
X023946Y035510D01*
X023988Y035412D02*
X026457Y035412D01*
X026372Y035313D02*
X023989Y035313D01*
X023952Y035215D02*
X026331Y035215D01*
X026319Y035116D02*
X023836Y035116D01*
X023613Y035116D02*
X019706Y035116D01*
X019739Y035018D02*
X026323Y035018D01*
X026364Y034919D02*
X019735Y034919D01*
X019688Y034821D02*
X026438Y034821D01*
X026370Y035904D02*
X007461Y035904D01*
X007755Y036003D02*
X026329Y036003D01*
X026319Y036102D02*
X007926Y036102D01*
X008030Y036200D02*
X026325Y036200D01*
X026365Y036299D02*
X008129Y036299D01*
X008191Y036397D02*
X026442Y036397D01*
X029175Y035303D02*
X029264Y035215D01*
X023503Y035510D02*
X000599Y035510D01*
X000599Y035412D02*
X023460Y035412D01*
X023459Y035313D02*
X000599Y035313D01*
X000599Y035215D02*
X019344Y035215D01*
X019605Y035215D02*
X023496Y035215D01*
X023671Y031371D02*
X022153Y031371D01*
X022308Y031273D02*
X023516Y031273D01*
X023466Y031174D02*
X022358Y031174D01*
X022364Y031076D02*
X023459Y031076D01*
X023491Y030977D02*
X022333Y030977D01*
X022241Y030879D02*
X023582Y030879D01*
X020750Y027331D02*
X015125Y027331D01*
X015124Y027331D02*
X015199Y027257D01*
X015239Y027160D01*
X015209Y027233D02*
X020883Y027233D01*
X025305Y022995D02*
X016393Y022995D01*
X016490Y022897D02*
X025209Y022897D01*
X025474Y022732D02*
X016224Y022732D01*
X016431Y022503D02*
X025268Y022503D01*
X015124Y027331D02*
X015027Y027372D01*
X014922Y027372D01*
X014824Y027331D01*
X001740Y033244D02*
X001640Y033244D01*
X001640Y033342D02*
X001740Y033342D01*
X001447Y033342D02*
X000599Y033342D01*
X000599Y033244D02*
X001284Y033244D01*
X001186Y033145D02*
X000599Y033145D01*
X000599Y033047D02*
X001131Y033047D01*
X001090Y032948D02*
X000599Y032948D01*
X000599Y032850D02*
X001068Y032850D01*
X001068Y032751D02*
X000599Y032751D01*
X000599Y032653D02*
X001068Y032653D01*
X001068Y032554D02*
X000599Y032554D01*
X000599Y032455D02*
X001068Y032455D01*
X001068Y032357D02*
X000599Y032357D01*
X000599Y005356D02*
X016901Y005356D01*
X017049Y005356D02*
X017149Y005356D01*
X017149Y005258D02*
X017049Y005258D01*
X017049Y005159D02*
X017149Y005159D01*
X017149Y005060D02*
X017049Y005060D01*
X017049Y004962D02*
X017149Y004962D01*
X017149Y004666D02*
X017049Y004666D01*
X017049Y004568D02*
X017149Y004568D01*
X017149Y004469D02*
X017049Y004469D01*
X017049Y004371D02*
X017149Y004371D01*
X017149Y004272D02*
X017049Y004272D01*
X017049Y004174D02*
X017149Y004174D01*
X017457Y004174D02*
X017977Y004174D01*
X018222Y004174D02*
X018742Y004174D01*
X018636Y004272D02*
X017562Y004272D01*
X017656Y004371D02*
X018543Y004371D01*
X018502Y004469D02*
X017697Y004469D01*
X017738Y004568D02*
X018461Y004568D01*
X018447Y004666D02*
X017752Y004666D01*
X017751Y004863D02*
X018448Y004863D01*
X018488Y004962D02*
X017710Y004962D01*
X017670Y005060D02*
X018529Y005060D01*
X018604Y005159D02*
X017595Y005159D01*
X017496Y005258D02*
X018702Y005258D01*
X018901Y005356D02*
X017297Y005356D01*
X016702Y005258D02*
X000599Y005258D01*
X000599Y005159D02*
X016604Y005159D01*
X016529Y005060D02*
X000599Y005060D01*
X000599Y004962D02*
X016488Y004962D01*
X016448Y004863D02*
X000599Y004863D01*
X018400Y004075D02*
X022299Y004075D01*
X022342Y004118D02*
X022214Y003990D01*
X022144Y003822D01*
X022144Y003641D01*
X022214Y003474D01*
X022342Y003346D01*
X022509Y003277D01*
X022690Y003277D01*
X022857Y003346D01*
X022985Y003474D01*
X023054Y003641D01*
X023054Y003822D01*
X022985Y003990D01*
X022857Y004118D01*
X022690Y004187D01*
X022509Y004187D01*
X022342Y004118D01*
X022477Y004174D02*
X021957Y004174D01*
X022062Y004272D02*
X023136Y004272D01*
X023043Y004371D02*
X022156Y004371D01*
X022197Y004469D02*
X023002Y004469D01*
X022961Y004568D02*
X022238Y004568D01*
X022252Y004666D02*
X022947Y004666D01*
X022948Y004863D02*
X022251Y004863D01*
X022210Y004962D02*
X022988Y004962D01*
X023029Y005060D02*
X022170Y005060D01*
X022095Y005159D02*
X023104Y005159D01*
X023202Y005258D02*
X021996Y005258D01*
X021797Y005356D02*
X023401Y005356D01*
X023549Y005356D02*
X023649Y005356D01*
X023649Y005258D02*
X023549Y005258D01*
X023549Y005159D02*
X023649Y005159D01*
X023649Y005060D02*
X023549Y005060D01*
X023549Y004962D02*
X023649Y004962D01*
X023649Y004666D02*
X023549Y004666D01*
X023549Y004568D02*
X023649Y004568D01*
X023649Y004469D02*
X023549Y004469D01*
X023549Y004371D02*
X023649Y004371D01*
X023649Y004272D02*
X023549Y004272D01*
X023549Y004174D02*
X023649Y004174D01*
X023957Y004174D02*
X028242Y004174D01*
X028136Y004272D02*
X024062Y004272D01*
X024156Y004371D02*
X028043Y004371D01*
X028002Y004469D02*
X024197Y004469D01*
X024238Y004568D02*
X027961Y004568D01*
X027947Y004666D02*
X024252Y004666D01*
X024251Y004863D02*
X027948Y004863D01*
X027988Y004962D02*
X024210Y004962D01*
X024170Y005060D02*
X028029Y005060D01*
X028104Y005159D02*
X024095Y005159D01*
X023996Y005258D02*
X028202Y005258D01*
X028401Y005356D02*
X023797Y005356D01*
X023242Y004174D02*
X022722Y004174D01*
X022900Y004075D02*
X029299Y004075D01*
X029342Y004118D02*
X029509Y004187D01*
X029690Y004187D01*
X029857Y004118D01*
X029985Y003990D01*
X030054Y003822D01*
X030054Y003641D01*
X029985Y003474D01*
X029857Y003346D01*
X029690Y003277D01*
X029509Y003277D01*
X029342Y003346D01*
X029214Y003474D01*
X029144Y003641D01*
X029144Y003822D01*
X029214Y003990D01*
X029342Y004118D01*
X029477Y004174D02*
X028957Y004174D01*
X029062Y004272D02*
X030136Y004272D01*
X030043Y004371D02*
X029156Y004371D01*
X029197Y004469D02*
X030002Y004469D01*
X029961Y004568D02*
X029238Y004568D01*
X029252Y004666D02*
X029947Y004666D01*
X029948Y004863D02*
X029251Y004863D01*
X029210Y004962D02*
X029988Y004962D01*
X030029Y005060D02*
X029170Y005060D01*
X029095Y005159D02*
X030104Y005159D01*
X030202Y005258D02*
X028996Y005258D01*
X028797Y005356D02*
X030401Y005356D01*
X030549Y005356D02*
X030649Y005356D01*
X030649Y005258D02*
X030549Y005258D01*
X030549Y005159D02*
X030649Y005159D01*
X030649Y005060D02*
X030549Y005060D01*
X030549Y004962D02*
X030649Y004962D01*
X030649Y004666D02*
X030549Y004666D01*
X030549Y004568D02*
X030649Y004568D01*
X030649Y004469D02*
X030549Y004469D01*
X030549Y004371D02*
X030649Y004371D01*
X030649Y004272D02*
X030549Y004272D01*
X030549Y004174D02*
X030649Y004174D01*
X030957Y004174D02*
X032742Y004174D01*
X032636Y004272D02*
X031062Y004272D01*
X031156Y004371D02*
X032543Y004371D01*
X032502Y004469D02*
X031197Y004469D01*
X031238Y004568D02*
X032461Y004568D01*
X032447Y004666D02*
X031252Y004666D01*
X031251Y004863D02*
X032448Y004863D01*
X032488Y004962D02*
X031210Y004962D01*
X031170Y005060D02*
X032529Y005060D01*
X032604Y005159D02*
X031095Y005159D01*
X030996Y005258D02*
X032702Y005258D01*
X032901Y005356D02*
X030797Y005356D01*
X030242Y004174D02*
X029722Y004174D01*
X029900Y004075D02*
X033799Y004075D01*
X033842Y004118D02*
X034009Y004187D01*
X034190Y004187D01*
X034357Y004118D01*
X034485Y003990D01*
X034554Y003822D01*
X034554Y003641D01*
X034485Y003474D01*
X034357Y003346D01*
X034190Y003277D01*
X034009Y003277D01*
X033842Y003346D01*
X033714Y003474D01*
X033644Y003641D01*
X033644Y003822D01*
X033714Y003990D01*
X033842Y004118D01*
X033977Y004174D02*
X033457Y004174D01*
X033562Y004272D02*
X034636Y004272D01*
X034543Y004371D02*
X033656Y004371D01*
X033697Y004469D02*
X034502Y004469D01*
X034461Y004568D02*
X033738Y004568D01*
X033752Y004666D02*
X034447Y004666D01*
X034448Y004863D02*
X033751Y004863D01*
X033710Y004962D02*
X034488Y004962D01*
X034529Y005060D02*
X033670Y005060D01*
X033595Y005159D02*
X034604Y005159D01*
X034702Y005258D02*
X033496Y005258D01*
X033297Y005356D02*
X034901Y005356D01*
X035049Y005356D02*
X035149Y005356D01*
X035149Y005258D02*
X035049Y005258D01*
X035049Y005159D02*
X035149Y005159D01*
X035149Y005060D02*
X035049Y005060D01*
X035049Y004962D02*
X035149Y004962D01*
X035149Y004666D02*
X035049Y004666D01*
X035049Y004568D02*
X035149Y004568D01*
X035149Y004469D02*
X035049Y004469D01*
X035049Y004371D02*
X035149Y004371D01*
X035149Y004272D02*
X035049Y004272D01*
X035049Y004174D02*
X035149Y004174D01*
X035457Y004174D02*
X039099Y004174D01*
X039099Y004272D02*
X035562Y004272D01*
X035656Y004371D02*
X039099Y004371D01*
X039099Y004469D02*
X035697Y004469D01*
X035738Y004568D02*
X039099Y004568D01*
X039099Y004666D02*
X035752Y004666D01*
X034742Y004174D02*
X034222Y004174D01*
X034400Y004075D02*
X039099Y004075D01*
X039099Y003976D02*
X034491Y003976D01*
X034531Y003878D02*
X039099Y003878D01*
X039099Y003779D02*
X034554Y003779D01*
X034554Y003681D02*
X039099Y003681D01*
X039099Y003582D02*
X034530Y003582D01*
X034489Y003484D02*
X039099Y003484D01*
X039099Y003385D02*
X034396Y003385D01*
X034214Y003287D02*
X034734Y003287D01*
X034633Y003188D02*
X033566Y003188D01*
X033657Y003090D02*
X034541Y003090D01*
X034500Y002991D02*
X033698Y002991D01*
X033739Y002892D02*
X034460Y002892D01*
X034447Y002794D02*
X033752Y002794D01*
X033750Y002597D02*
X034449Y002597D01*
X034490Y002498D02*
X033709Y002498D01*
X033668Y002400D02*
X034531Y002400D01*
X034607Y002301D02*
X033592Y002301D01*
X033493Y002203D02*
X034706Y002203D01*
X034910Y002104D02*
X033289Y002104D01*
X033149Y002104D02*
X033049Y002104D01*
X033049Y002203D02*
X033149Y002203D01*
X033149Y002301D02*
X033049Y002301D01*
X033049Y002400D02*
X033149Y002400D01*
X033149Y002498D02*
X033049Y002498D01*
X033049Y002794D02*
X033149Y002794D01*
X033149Y002892D02*
X033049Y002892D01*
X033049Y002991D02*
X033149Y002991D01*
X033149Y003090D02*
X033049Y003090D01*
X033049Y003188D02*
X033149Y003188D01*
X033149Y003287D02*
X033049Y003287D01*
X032734Y003287D02*
X030965Y003287D01*
X031066Y003188D02*
X032633Y003188D01*
X032541Y003090D02*
X031157Y003090D01*
X031198Y002991D02*
X032500Y002991D01*
X032460Y002892D02*
X031239Y002892D01*
X031252Y002794D02*
X032447Y002794D01*
X032449Y002597D02*
X031250Y002597D01*
X031209Y002498D02*
X032490Y002498D01*
X032531Y002400D02*
X031168Y002400D01*
X031092Y002301D02*
X032607Y002301D01*
X032706Y002203D02*
X030993Y002203D01*
X030789Y002104D02*
X032910Y002104D01*
X033465Y003287D02*
X033985Y003287D01*
X033803Y003385D02*
X029896Y003385D01*
X029989Y003484D02*
X033710Y003484D01*
X033669Y003582D02*
X030030Y003582D01*
X030054Y003681D02*
X033644Y003681D01*
X033644Y003779D02*
X030054Y003779D01*
X030031Y003878D02*
X033667Y003878D01*
X033708Y003976D02*
X029991Y003976D01*
X030234Y003287D02*
X029714Y003287D01*
X029485Y003287D02*
X028965Y003287D01*
X029066Y003188D02*
X030133Y003188D01*
X030041Y003090D02*
X029157Y003090D01*
X029198Y002991D02*
X030000Y002991D01*
X029960Y002892D02*
X029239Y002892D01*
X029252Y002794D02*
X029947Y002794D01*
X029949Y002597D02*
X029250Y002597D01*
X029209Y002498D02*
X029990Y002498D01*
X030031Y002400D02*
X029168Y002400D01*
X029092Y002301D02*
X030107Y002301D01*
X030206Y002203D02*
X028993Y002203D01*
X028789Y002104D02*
X030410Y002104D01*
X030549Y002104D02*
X030649Y002104D01*
X030649Y002203D02*
X030549Y002203D01*
X030549Y002301D02*
X030649Y002301D01*
X030649Y002400D02*
X030549Y002400D01*
X030549Y002498D02*
X030649Y002498D01*
X030649Y002794D02*
X030549Y002794D01*
X030549Y002892D02*
X030649Y002892D01*
X030649Y002991D02*
X030549Y002991D01*
X030549Y003090D02*
X030649Y003090D01*
X030649Y003188D02*
X030549Y003188D01*
X030549Y003287D02*
X030649Y003287D01*
X029303Y003385D02*
X022896Y003385D01*
X022989Y003484D02*
X029210Y003484D01*
X029169Y003582D02*
X023030Y003582D01*
X023054Y003681D02*
X029144Y003681D01*
X029144Y003779D02*
X023054Y003779D01*
X023031Y003878D02*
X029167Y003878D01*
X029208Y003976D02*
X022991Y003976D01*
X023234Y003287D02*
X022714Y003287D01*
X022485Y003287D02*
X021965Y003287D01*
X022066Y003188D02*
X023133Y003188D01*
X023041Y003090D02*
X022157Y003090D01*
X022198Y002991D02*
X023000Y002991D01*
X022960Y002892D02*
X022239Y002892D01*
X022252Y002794D02*
X022947Y002794D01*
X022949Y002597D02*
X022250Y002597D01*
X022209Y002498D02*
X022990Y002498D01*
X023031Y002400D02*
X022168Y002400D01*
X022092Y002301D02*
X023107Y002301D01*
X023206Y002203D02*
X021993Y002203D01*
X021789Y002104D02*
X023410Y002104D01*
X023549Y002104D02*
X023649Y002104D01*
X023649Y002203D02*
X023549Y002203D01*
X023549Y002301D02*
X023649Y002301D01*
X023649Y002400D02*
X023549Y002400D01*
X023549Y002498D02*
X023649Y002498D01*
X023649Y002794D02*
X023549Y002794D01*
X023549Y002892D02*
X023649Y002892D01*
X023649Y002991D02*
X023549Y002991D01*
X023549Y003090D02*
X023649Y003090D01*
X023649Y003188D02*
X023549Y003188D01*
X023549Y003287D02*
X023649Y003287D01*
X023965Y003287D02*
X028234Y003287D01*
X028133Y003188D02*
X024066Y003188D01*
X024157Y003090D02*
X028041Y003090D01*
X028000Y002991D02*
X024198Y002991D01*
X024239Y002892D02*
X027960Y002892D01*
X027947Y002794D02*
X024252Y002794D01*
X024250Y002597D02*
X027949Y002597D01*
X027990Y002498D02*
X024209Y002498D01*
X024168Y002400D02*
X028031Y002400D01*
X028107Y002301D02*
X024092Y002301D01*
X023993Y002203D02*
X028206Y002203D01*
X028410Y002104D02*
X023789Y002104D01*
X022303Y003385D02*
X018396Y003385D01*
X018489Y003484D02*
X022210Y003484D01*
X022169Y003582D02*
X018530Y003582D01*
X018554Y003681D02*
X022144Y003681D01*
X022144Y003779D02*
X018554Y003779D01*
X018531Y003878D02*
X022167Y003878D01*
X022208Y003976D02*
X018491Y003976D01*
X019049Y004174D02*
X019149Y004174D01*
X019149Y004272D02*
X019049Y004272D01*
X019049Y004371D02*
X019149Y004371D01*
X019149Y004469D02*
X019049Y004469D01*
X019049Y004568D02*
X019149Y004568D01*
X019149Y004666D02*
X019049Y004666D01*
X019049Y004962D02*
X019149Y004962D01*
X019149Y005060D02*
X019049Y005060D01*
X019049Y005159D02*
X019149Y005159D01*
X019149Y005258D02*
X019049Y005258D01*
X019049Y005356D02*
X019149Y005356D01*
X019297Y005356D02*
X021401Y005356D01*
X021549Y005356D02*
X021649Y005356D01*
X021649Y005258D02*
X021549Y005258D01*
X021549Y005159D02*
X021649Y005159D01*
X021649Y005060D02*
X021549Y005060D01*
X021549Y004962D02*
X021649Y004962D01*
X021649Y004666D02*
X021549Y004666D01*
X021549Y004568D02*
X021649Y004568D01*
X021649Y004469D02*
X021549Y004469D01*
X021549Y004371D02*
X021649Y004371D01*
X021649Y004272D02*
X021549Y004272D01*
X021549Y004174D02*
X021649Y004174D01*
X021242Y004174D02*
X019457Y004174D01*
X019562Y004272D02*
X021136Y004272D01*
X021043Y004371D02*
X019656Y004371D01*
X019697Y004469D02*
X021002Y004469D01*
X020961Y004568D02*
X019738Y004568D01*
X019752Y004666D02*
X020947Y004666D01*
X020948Y004863D02*
X019751Y004863D01*
X019710Y004962D02*
X020988Y004962D01*
X021029Y005060D02*
X019670Y005060D01*
X019595Y005159D02*
X021104Y005159D01*
X021202Y005258D02*
X019496Y005258D01*
X019465Y003287D02*
X021234Y003287D01*
X021133Y003188D02*
X019566Y003188D01*
X019657Y003090D02*
X021041Y003090D01*
X021000Y002991D02*
X019698Y002991D01*
X019739Y002892D02*
X020960Y002892D01*
X020947Y002794D02*
X019752Y002794D01*
X019750Y002597D02*
X020949Y002597D01*
X020990Y002498D02*
X019709Y002498D01*
X019668Y002400D02*
X021031Y002400D01*
X021107Y002301D02*
X019592Y002301D01*
X019493Y002203D02*
X021206Y002203D01*
X021410Y002104D02*
X019289Y002104D01*
X019149Y002104D02*
X019049Y002104D01*
X019049Y002203D02*
X019149Y002203D01*
X019149Y002301D02*
X019049Y002301D01*
X019049Y002400D02*
X019149Y002400D01*
X019149Y002498D02*
X019049Y002498D01*
X019049Y002794D02*
X019149Y002794D01*
X019149Y002892D02*
X019049Y002892D01*
X019049Y002991D02*
X019149Y002991D01*
X019149Y003090D02*
X019049Y003090D01*
X019049Y003188D02*
X019149Y003188D01*
X019149Y003287D02*
X019049Y003287D01*
X021549Y003287D02*
X021649Y003287D01*
X021649Y003188D02*
X021549Y003188D01*
X021549Y003090D02*
X021649Y003090D01*
X021649Y002991D02*
X021549Y002991D01*
X021549Y002892D02*
X021649Y002892D01*
X021649Y002794D02*
X021549Y002794D01*
X021549Y002498D02*
X021649Y002498D01*
X021649Y002400D02*
X021549Y002400D01*
X021549Y002301D02*
X021649Y002301D01*
X021649Y002203D02*
X021549Y002203D01*
X021549Y002104D02*
X021649Y002104D01*
X028549Y002104D02*
X028649Y002104D01*
X028649Y002203D02*
X028549Y002203D01*
X028549Y002301D02*
X028649Y002301D01*
X028649Y002400D02*
X028549Y002400D01*
X028549Y002498D02*
X028649Y002498D01*
X028649Y002794D02*
X028549Y002794D01*
X028549Y002892D02*
X028649Y002892D01*
X028649Y002991D02*
X028549Y002991D01*
X028549Y003090D02*
X028649Y003090D01*
X028649Y003188D02*
X028549Y003188D01*
X028549Y003287D02*
X028649Y003287D01*
X028649Y004174D02*
X028549Y004174D01*
X028549Y004272D02*
X028649Y004272D01*
X028649Y004371D02*
X028549Y004371D01*
X028549Y004469D02*
X028649Y004469D01*
X028649Y004568D02*
X028549Y004568D01*
X028549Y004666D02*
X028649Y004666D01*
X028649Y004962D02*
X028549Y004962D01*
X028549Y005060D02*
X028649Y005060D01*
X028649Y005159D02*
X028549Y005159D01*
X028549Y005258D02*
X028649Y005258D01*
X028649Y005356D02*
X028549Y005356D01*
X033049Y005356D02*
X033149Y005356D01*
X033149Y005258D02*
X033049Y005258D01*
X033049Y005159D02*
X033149Y005159D01*
X033149Y005060D02*
X033049Y005060D01*
X033049Y004962D02*
X033149Y004962D01*
X033149Y004666D02*
X033049Y004666D01*
X033049Y004568D02*
X033149Y004568D01*
X033149Y004469D02*
X033049Y004469D01*
X033049Y004371D02*
X033149Y004371D01*
X033149Y004272D02*
X033049Y004272D01*
X033049Y004174D02*
X033149Y004174D01*
X035049Y003287D02*
X035149Y003287D01*
X035149Y003188D02*
X035049Y003188D01*
X035049Y003090D02*
X035149Y003090D01*
X035149Y002991D02*
X035049Y002991D01*
X035049Y002892D02*
X035149Y002892D01*
X035149Y002794D02*
X035049Y002794D01*
X035049Y002498D02*
X035149Y002498D01*
X035149Y002400D02*
X035049Y002400D01*
X035049Y002301D02*
X035149Y002301D01*
X035149Y002203D02*
X035049Y002203D01*
X035049Y002104D02*
X035149Y002104D01*
X035752Y002794D02*
X036960Y002794D01*
X037058Y002892D02*
X035739Y002892D01*
X035698Y002991D02*
X037179Y002991D01*
X037350Y003090D02*
X035657Y003090D01*
X035566Y003188D02*
X037611Y003188D01*
X038338Y003188D02*
X039099Y003188D01*
X039099Y003090D02*
X038599Y003090D01*
X038770Y002991D02*
X039099Y002991D01*
X039099Y002892D02*
X038890Y002892D01*
X038989Y002794D02*
X039099Y002794D01*
X039099Y002695D02*
X039084Y002695D01*
X039099Y003287D02*
X035465Y003287D01*
X037049Y006046D02*
X037149Y006046D01*
X037149Y006144D02*
X037049Y006144D01*
X037049Y006243D02*
X037149Y006243D01*
D25*
X030349Y028294D03*
X031099Y029044D03*
X031099Y029607D03*
X031662Y029607D03*
X032224Y029607D03*
X032224Y029044D03*
X031662Y029044D03*
X032787Y029044D03*
X032787Y029607D03*
X031662Y030232D03*
X031099Y030232D03*
X033099Y032857D03*
X034162Y031982D03*
X035912Y030919D03*
X035912Y030419D03*
X036662Y030419D03*
X036662Y030919D03*
X034162Y029669D03*
X031849Y033982D03*
X030349Y034782D03*
X030349Y035482D03*
X029442Y035482D03*
X029442Y034782D03*
X033349Y036232D03*
X034037Y036232D03*
X034724Y036232D03*
X035412Y036232D03*
X036099Y036232D03*
X036099Y035294D03*
X035412Y035294D03*
X034724Y035294D03*
X009099Y031232D03*
X009099Y029732D03*
X009099Y028482D03*
X009099Y026982D03*
X007599Y026982D03*
X006099Y026982D03*
X004599Y026982D03*
X003349Y026982D03*
X001849Y026982D03*
X000849Y026982D03*
X000849Y028482D03*
X000849Y029732D03*
X000849Y031482D03*
D26*
X011349Y019732D02*
X011349Y019607D01*
X011099Y019357D01*
X011099Y007857D01*
D27*
X030349Y028294D02*
X030349Y033982D01*
X031849Y033982D01*
X034162Y031982D02*
X034162Y029669D01*
M02*
