%
M48
M72
T01C0.0150
T02C0.0160
T03C0.0236
T04C0.0250
T05C0.0354
T06C0.0390
T07C0.0460
T08C0.0512
T09C0.0630
T10C0.0669
T11C0.0670
T12C0.0787
T13C0.1280
T14C0.1285
%
T01
X5169Y6982
X6982Y7482
X9419Y6982
X16357Y6982
X21107Y6982
X22107Y13607
X22607Y15607
X21982Y17482
X19982Y15607
X18982Y15607
X16732Y17357
X16232Y15607
X16232Y15107
X15357Y16107
X14357Y17357
X13857Y16107
X12232Y16107
X11857Y17357
X11357Y17607
X10982Y18607
X10607Y19607
X11607Y19732
X13232Y20357
X14482Y24107
X14857Y25482
X14857Y25982
X15732Y26732
X17232Y25357
X18732Y24107
X19982Y24232
X21107Y23982
X21857Y25107
X21607Y26607
X21607Y28482
X20482Y28607
X20482Y30357
X21607Y30232
X22982Y30482
X23107Y29482
X23857Y29482
X24357Y30982
X25357Y30107
X26357Y30107
X27357Y30107
X28357Y30107
X29357Y30107
X29357Y31107
X29357Y32107
X29357Y33107
X29357Y34107
X29357Y35107
X29357Y36107
X29357Y37169
X28357Y37169
X27357Y37169
X26357Y37169
X25357Y37169
X24357Y37232
X24357Y36107
X24357Y35107
X24357Y34169
X23857Y32982
X23982Y32357
X22732Y34857
X21732Y34857
X20357Y34982
X18857Y33982
X18107Y33232
X18732Y32857
X18607Y32232
X19357Y31357
X19232Y30732
X17732Y31107
X16857Y32107
X16857Y32857
X16107Y31607
X16107Y31107
X16107Y30607
X18857Y27482
X19982Y22357
X24857Y27107
X26857Y27482
X26982Y26482
X26857Y28607
X22732Y36482
X22232Y36857
X22107Y37357
X21732Y36607
X20982Y38732
X16107Y35357
X10357Y32794
X7232Y31982
X6232Y33669
X3107Y32982
X7982Y19357
X9732Y16107
X26482Y16732
X26482Y17232
X26482Y17732
X28482Y19732
X28982Y20107
X29357Y17232
X30357Y17232
X32982Y17232
X32982Y17732
X32982Y16732
X28732Y7857
T02
X23732Y31732
X23357Y36107
X23607Y38482
X23107Y38732
T03
X22107Y33107
X22107Y32107
X21107Y32107
X21107Y33107
X22857Y27082
X23607Y22732
X14357Y22732
T04
X9482Y28294
X8732Y29044
X8169Y29044
X7607Y29044
X7607Y29607
X8169Y29607
X8732Y29607
X8732Y30232
X8169Y30232
X7044Y29607
X7044Y29044
X5669Y29669
X3919Y30419
X3919Y30919
X3169Y30919
X3169Y30419
X5669Y31982
X6732Y32857
X7982Y33982
X9482Y34782
X9482Y35482
X10389Y35482
X10389Y34782
X6482Y36232
X5794Y36232
X5107Y36232
X4419Y36232
X3732Y36232
X3732Y35294
X4419Y35294
X5107Y35294
X30732Y31232
X30732Y29732
X30732Y28482
X30732Y26982
X32232Y26982
X33732Y26982
X35232Y26982
X36482Y26982
X37982Y26982
X38982Y26982
X38982Y28482
X38982Y29732
X38982Y31482
T05
X36482Y33482
X35482Y33482
X34482Y33482
X33482Y33482
X33982Y34482
X34982Y34482
X35982Y34482
X36982Y34482
T06
X13107Y34107
X13107Y35107
X12107Y35107
X12107Y34107
X12107Y33107
X13107Y33107
X13107Y32107
X13107Y31107
X12107Y31107
X12107Y32107
X12107Y30107
X13107Y30107
X13107Y36107
X12107Y36107
T07
X10232Y3732
X5732Y3732
X17232Y3732
X21732Y3732
T08
X2732Y6482
X2732Y7482
X2732Y19732
X2732Y20732
X2732Y22232
X2732Y23232
T09
X31822Y32297
X38141Y32297
T10
X3607Y17112
X3607Y11612
X3482Y27362
T11
X4732Y4732
X6732Y4732
X6732Y2732
X4732Y2732
X9232Y2732
X9232Y4732
X11232Y4732
X11232Y2732
X16232Y2732
X16232Y4732
X18232Y4732
X18232Y2732
X20732Y2732
X20732Y4732
X22732Y4732
X22732Y2732
T12
X5634Y10982
X1579Y10982
X1579Y16482
X5634Y16482
X5509Y26732
X1454Y26732
T13
X32561Y36982
X37403Y36982
T14
X1857Y1857
X1982Y37732
X37732Y22732
X37732Y1857
M30
