G75*
G70*
%OFA0B0*%
%FSLAX24Y24*%
%IPPOS*%
%LPD*%
%AMOC8*
5,1,8,0,0,1.08239X$1,22.5*
%
%ADD10C,0.0000*%
%ADD11C,0.0050*%
%ADD12C,0.0060*%
D10*
X000104Y000107D02*
X000104Y039727D01*
X039724Y039727D01*
X039724Y000107D01*
X000104Y000107D01*
X001788Y036982D02*
X001790Y037032D01*
X001796Y037082D01*
X001806Y037131D01*
X001819Y037180D01*
X001837Y037227D01*
X001858Y037273D01*
X001882Y037316D01*
X001910Y037358D01*
X001941Y037398D01*
X001975Y037435D01*
X002012Y037469D01*
X002052Y037500D01*
X002094Y037528D01*
X002137Y037552D01*
X002183Y037573D01*
X002230Y037591D01*
X002279Y037604D01*
X002328Y037614D01*
X002378Y037620D01*
X002428Y037622D01*
X002478Y037620D01*
X002528Y037614D01*
X002577Y037604D01*
X002626Y037591D01*
X002673Y037573D01*
X002719Y037552D01*
X002762Y037528D01*
X002804Y037500D01*
X002844Y037469D01*
X002881Y037435D01*
X002915Y037398D01*
X002946Y037358D01*
X002974Y037316D01*
X002998Y037273D01*
X003019Y037227D01*
X003037Y037180D01*
X003050Y037131D01*
X003060Y037082D01*
X003066Y037032D01*
X003068Y036982D01*
X003066Y036932D01*
X003060Y036882D01*
X003050Y036833D01*
X003037Y036784D01*
X003019Y036737D01*
X002998Y036691D01*
X002974Y036648D01*
X002946Y036606D01*
X002915Y036566D01*
X002881Y036529D01*
X002844Y036495D01*
X002804Y036464D01*
X002762Y036436D01*
X002719Y036412D01*
X002673Y036391D01*
X002626Y036373D01*
X002577Y036360D01*
X002528Y036350D01*
X002478Y036344D01*
X002428Y036342D01*
X002378Y036344D01*
X002328Y036350D01*
X002279Y036360D01*
X002230Y036373D01*
X002183Y036391D01*
X002137Y036412D01*
X002094Y036436D01*
X002052Y036464D01*
X002012Y036495D01*
X001975Y036529D01*
X001941Y036566D01*
X001910Y036606D01*
X001882Y036648D01*
X001858Y036691D01*
X001837Y036737D01*
X001819Y036784D01*
X001806Y036833D01*
X001796Y036882D01*
X001790Y036932D01*
X001788Y036982D01*
X006631Y036982D02*
X006633Y037032D01*
X006639Y037082D01*
X006649Y037131D01*
X006662Y037180D01*
X006680Y037227D01*
X006701Y037273D01*
X006725Y037316D01*
X006753Y037358D01*
X006784Y037398D01*
X006818Y037435D01*
X006855Y037469D01*
X006895Y037500D01*
X006937Y037528D01*
X006980Y037552D01*
X007026Y037573D01*
X007073Y037591D01*
X007122Y037604D01*
X007171Y037614D01*
X007221Y037620D01*
X007271Y037622D01*
X007321Y037620D01*
X007371Y037614D01*
X007420Y037604D01*
X007469Y037591D01*
X007516Y037573D01*
X007562Y037552D01*
X007605Y037528D01*
X007647Y037500D01*
X007687Y037469D01*
X007724Y037435D01*
X007758Y037398D01*
X007789Y037358D01*
X007817Y037316D01*
X007841Y037273D01*
X007862Y037227D01*
X007880Y037180D01*
X007893Y037131D01*
X007903Y037082D01*
X007909Y037032D01*
X007911Y036982D01*
X007909Y036932D01*
X007903Y036882D01*
X007893Y036833D01*
X007880Y036784D01*
X007862Y036737D01*
X007841Y036691D01*
X007817Y036648D01*
X007789Y036606D01*
X007758Y036566D01*
X007724Y036529D01*
X007687Y036495D01*
X007647Y036464D01*
X007605Y036436D01*
X007562Y036412D01*
X007516Y036391D01*
X007469Y036373D01*
X007420Y036360D01*
X007371Y036350D01*
X007321Y036344D01*
X007271Y036342D01*
X007221Y036344D01*
X007171Y036350D01*
X007122Y036360D01*
X007073Y036373D01*
X007026Y036391D01*
X006980Y036412D01*
X006937Y036436D01*
X006895Y036464D01*
X006855Y036495D01*
X006818Y036529D01*
X006784Y036566D01*
X006753Y036606D01*
X006725Y036648D01*
X006701Y036691D01*
X006680Y036737D01*
X006662Y036784D01*
X006649Y036833D01*
X006639Y036882D01*
X006633Y036932D01*
X006631Y036982D01*
D11*
X010449Y025607D02*
X011249Y025607D01*
X011249Y023857D01*
X010449Y023857D01*
X010449Y025607D01*
D12*
X011379Y025395D02*
X011379Y025101D01*
X011452Y024935D02*
X011526Y024935D01*
X011599Y024861D01*
X011673Y024935D01*
X011746Y024935D01*
X011819Y024861D01*
X011819Y024714D01*
X011746Y024641D01*
X011819Y024474D02*
X011673Y024327D01*
X011673Y024401D02*
X011673Y024181D01*
X011819Y024181D02*
X011379Y024181D01*
X011379Y024401D01*
X011452Y024474D01*
X011599Y024474D01*
X011673Y024401D01*
X011452Y024641D02*
X011379Y024714D01*
X011379Y024861D01*
X011452Y024935D01*
X011599Y024861D02*
X011599Y024788D01*
X011746Y025101D02*
X011819Y025101D01*
X011746Y025101D02*
X011452Y025395D01*
X011379Y025395D01*
M02*
